<?xml version="1.0" encoding="UTF-8"?>
<!DOCTYPE svg PUBLIC "-//W3C//DTD SVG 1.1//EN" "http://www.w3.org/Graphics/SVG/1.1/DTD/svg11.dtd">
<svg version="1.1" xmlns="http://www.w3.org/2000/svg" xmlns:xlink="http://www.w3.org/1999/xlink" x="0" y="0" width="5000" height="5000" viewBox="0, 0, 5000, 5000">
  <g id="left_iris_pale_jade" transform="translate(0, 0)">
    <g id="left_eye_inverted-1">
      <path d="M1939.659,2166.365 C1939.259,2167.165 1938.459,2167.865 1937.759,2167.865 C1935.759,2167.865 1926.259,2173.065 1926.259,2174.165 C1926.259,2175.965 1930.459,2178.965 1931.659,2177.965 C1932.359,2177.365 1933.459,2177.365 1934.159,2177.765 C1934.959,2178.365 1934.359,2178.765 1932.159,2179.265 C1929.559,2179.765 1928.659,2179.465 1926.759,2177.265 C1924.859,2175.065 1924.459,2174.965 1923.359,2176.265 C1921.459,2178.465 1921.559,2184.365 1923.459,2186.165 C1924.859,2187.665 1925.159,2187.665 1926.359,2186.265 C1926.959,2185.465 1928.459,2184.965 1929.659,2185.065 C1930.959,2185.265 1931.659,2184.865 1931.459,2184.065 C1931.359,2183.365 1931.759,2182.865 1932.459,2182.965 C1935.059,2183.265 1935.959,2182.765 1937.059,2180.365 C1937.859,2178.665 1937.859,2177.065 1937.259,2175.265 C1935.859,2171.565 1936.159,2170.965 1937.859,2174.065 C1938.659,2175.665 1939.759,2176.865 1940.259,2176.865 C1941.659,2176.865 1941.559,2172.565 1940.159,2171.165 C1938.959,2169.965 1939.759,2167.865 1941.459,2167.865 C1942.059,2167.865 1942.259,2168.765 1941.959,2169.865 C1941.659,2170.965 1942.259,2172.765 1943.459,2174.065 C1945.459,2176.265 1945.459,2176.265 1944.859,2174.265 C1944.459,2172.965 1944.759,2171.665 1945.759,2170.865 C1947.659,2169.265 1947.659,2167.865 1945.759,2167.865 C1944.859,2167.865 1943.959,2167.165 1943.659,2166.365 C1943.259,2165.565 1942.359,2164.865 1941.659,2164.865 C1940.859,2164.865 1939.959,2165.565 1939.659,2166.365 z" fill="#3DE9B1" fill-opacity="0.685"/>
      <path d="M2004.759,2182.865 C2004.459,2183.965 2003.759,2184.665 2003.259,2184.365 C2002.259,2183.765 1998.259,2186.765 1998.259,2188.065 C1998.259,2188.565 1998.959,2188.865 1999.859,2188.865 C2000.759,2188.865 2001.259,2189.665 2001.159,2190.565 C2000.859,2193.865 2001.259,2194.065 2003.859,2191.965 C2007.059,2189.465 2008.659,2190.065 2011.159,2194.965 C2013.159,2198.765 2013.159,2198.865 2011.259,2199.865 C2010.159,2200.465 2009.259,2201.865 2009.259,2202.865 C2009.259,2204.165 2008.559,2204.865 2007.259,2204.865 C2005.859,2204.865 2005.259,2204.165 2005.259,2202.765 C2005.259,2201.265 2004.859,2200.865 2003.659,2201.265 C2002.759,2201.565 2001.659,2201.865 2001.159,2201.865 C2000.659,2201.865 2000.259,2202.965 2000.259,2204.365 C2000.259,2207.465 1998.559,2207.665 1998.059,2204.665 C1997.659,2201.665 1992.759,2201.165 1991.259,2203.965 C1990.659,2204.965 1989.259,2205.865 1988.259,2205.865 C1987.059,2205.865 1986.259,2206.565 1986.259,2207.465 C1986.259,2208.265 1985.559,2209.665 1984.759,2210.465 C1983.959,2211.265 1983.559,2212.565 1983.859,2213.365 C1984.359,2214.565 1983.659,2214.865 1980.959,2214.865 C1977.159,2214.865 1976.259,2216.065 1976.259,2220.865 C1976.259,2222.465 1976.959,2223.865 1977.859,2224.265 C1978.659,2224.565 1979.059,2224.465 1978.759,2223.865 C1978.459,2223.365 1978.659,2221.965 1979.359,2220.765 C1980.259,2219.065 1980.159,2218.465 1979.159,2217.765 C1978.459,2217.365 1978.159,2216.665 1978.559,2216.265 C1978.959,2215.865 1979.759,2215.965 1980.359,2216.565 C1981.959,2218.165 1986.659,2216.365 1988.859,2213.365 C1989.859,2211.965 1991.159,2211.265 1992.059,2211.665 C1993.059,2211.965 1993.359,2211.765 1992.859,2211.065 C1992.459,2210.365 1992.659,2209.865 1993.359,2209.865 C1994.059,2209.865 1994.259,2210.765 1993.959,2212.065 C1993.559,2213.265 1993.859,2214.865 1994.359,2215.565 C1995.159,2216.465 1994.859,2217.365 1993.459,2218.865 C1991.659,2220.865 1991.559,2221.365 1992.759,2224.165 C1994.459,2228.265 1996.559,2228.665 1998.659,2225.365 C2000.459,2222.665 2001.059,2222.465 2003.159,2223.765 C2004.259,2224.465 2004.159,2225.165 2002.459,2227.565 C2000.859,2229.865 2000.659,2230.865 2001.459,2231.665 C2002.159,2232.365 2002.359,2232.865 2001.859,2232.865 C2001.459,2232.865 2001.859,2233.565 2002.659,2234.465 C2003.559,2235.265 2004.259,2237.165 2004.259,2238.665 C2004.159,2241.165 2004.059,2241.165 2002.859,2239.565 C2002.159,2238.665 2000.559,2237.865 1999.359,2237.865 C1996.959,2237.865 1996.459,2235.365 1998.859,2234.465 C2000.559,2233.865 1999.859,2231.865 1997.959,2231.865 C1997.259,2231.865 1995.659,2232.765 1994.259,2233.765 C1992.259,2235.365 1992.059,2235.865 1993.159,2237.265 C1993.859,2238.165 1994.259,2239.465 1993.959,2240.365 C1993.459,2241.365 1994.359,2241.965 1997.059,2242.465 C1999.059,2242.765 2001.559,2243.265 2002.559,2243.565 C2003.459,2243.765 2004.259,2243.565 2004.259,2243.065 C2004.259,2242.565 2005.659,2241.865 2007.259,2241.465 C2010.459,2240.865 2011.259,2238.265 2009.059,2236.065 C2008.059,2235.065 2008.059,2234.365 2009.059,2232.765 C2009.759,2231.665 2010.059,2229.865 2009.659,2228.665 C2009.259,2227.165 2009.859,2225.865 2012.259,2223.765 C2015.459,2220.765 2016.159,2220.565 2019.959,2220.865 C2021.159,2220.865 2023.059,2220.065 2024.159,2218.965 C2026.459,2216.665 2028.259,2216.265 2028.259,2217.865 C2028.259,2219.165 2033.259,2218.065 2035.359,2216.165 C2036.759,2214.965 2037.159,2215.065 2038.259,2216.365 C2038.959,2217.165 2040.359,2217.865 2041.359,2217.865 C2042.459,2217.865 2043.259,2218.265 2043.259,2218.765 C2043.259,2220.065 2040.659,2221.965 2039.959,2221.165 C2038.059,2219.365 2039.559,2222.165 2041.659,2224.365 C2043.559,2226.465 2044.159,2226.665 2044.659,2225.365 C2044.959,2224.565 2045.759,2223.865 2046.459,2223.865 C2047.259,2223.865 2048.659,2222.965 2049.559,2221.765 C2050.759,2220.465 2051.959,2219.965 2053.059,2220.365 C2054.359,2220.865 2054.459,2220.665 2053.659,2219.865 C2052.759,2218.965 2051.959,2218.965 2050.359,2219.765 C2048.859,2220.665 2047.659,2220.665 2046.259,2219.865 C2043.859,2218.565 2043.859,2218.765 2045.659,2215.265 C2047.259,2212.265 2046.959,2210.865 2044.759,2210.865 C2044.059,2210.865 2043.259,2210.265 2043.059,2209.665 C2042.759,2208.765 2041.459,2209.265 2038.959,2211.165 C2035.059,2214.165 2034.259,2214.365 2034.259,2212.765 C2034.259,2212.265 2034.759,2212.065 2035.259,2212.365 C2035.859,2212.665 2036.259,2212.465 2036.259,2211.965 C2036.259,2210.465 2034.659,2210.565 2033.059,2212.165 C2032.359,2212.965 2031.159,2213.365 2030.459,2213.065 C2029.859,2212.865 2028.959,2213.365 2028.659,2214.265 C2028.159,2215.665 2027.859,2215.665 2025.559,2214.165 L2023.059,2212.465 L2025.159,2210.965 C2026.559,2209.865 2027.059,2208.665 2026.659,2207.065 C2026.259,2205.865 2025.659,2204.865 2025.159,2204.865 C2024.659,2204.865 2024.259,2204.165 2024.259,2203.365 C2024.259,2202.565 2024.659,2201.865 2025.159,2201.865 C2025.659,2201.865 2026.759,2200.565 2027.559,2198.965 C2028.859,2196.365 2028.859,2195.865 2027.459,2194.465 C2026.359,2193.465 2026.259,2192.865 2027.059,2192.865 C2027.659,2192.865 2028.159,2192.065 2027.959,2190.965 C2027.559,2188.565 2024.559,2185.565 2023.759,2186.865 C2023.459,2187.365 2023.659,2187.865 2024.159,2187.865 C2024.759,2187.865 2025.259,2188.765 2025.259,2189.965 C2025.259,2191.465 2024.759,2191.865 2023.759,2191.465 C2022.959,2191.165 2022.259,2191.365 2022.259,2191.865 C2022.259,2193.465 2020.259,2193.065 2017.159,2190.765 C2014.759,2189.065 2014.259,2188.965 2014.259,2190.265 C2014.259,2191.565 2013.959,2191.665 2012.359,2190.665 C2011.359,2190.065 2010.659,2188.865 2010.959,2188.165 C2011.359,2187.265 2010.959,2187.065 2009.659,2187.565 C2008.159,2188.065 2007.959,2187.965 2008.859,2186.765 C2009.659,2185.765 2009.359,2184.765 2007.659,2183.065 C2005.459,2180.765 2005.459,2180.765 2004.759,2182.865 z" fill="#3DE9B1" fill-opacity="0.685"/>
      <path d="M2115.259,2227.365 C2115.259,2228.165 2115.959,2229.365 2116.859,2230.065 C2122.259,2234.465 2123.059,2235.865 2122.459,2240.165 C2121.959,2243.965 2120.959,2245.765 2119.059,2245.865 C2118.659,2245.865 2117.659,2243.265 2116.759,2240.065 C2115.259,2234.865 2114.659,2233.965 2111.459,2232.565 C2106.959,2230.665 2104.559,2229.965 2100.759,2229.465 C2099.059,2229.165 2096.059,2228.665 2094.059,2228.265 C2091.959,2227.965 2089.759,2228.065 2089.059,2228.565 C2088.359,2229.065 2086.359,2229.465 2084.559,2229.365 C2082.159,2229.165 2081.259,2229.565 2080.859,2231.165 C2080.559,2232.365 2080.859,2233.865 2081.359,2234.465 C2082.059,2235.265 2082.159,2238.765 2081.759,2244.065 C2081.359,2248.665 2080.959,2253.965 2080.859,2255.765 C2080.659,2259.265 2082.159,2264.865 2084.659,2269.765 C2086.659,2273.465 2093.859,2280.565 2096.559,2281.465 C2097.759,2281.765 2099.859,2283.265 2101.259,2284.765 C2102.659,2286.265 2104.359,2287.365 2105.059,2287.065 C2105.759,2286.865 2106.859,2287.165 2107.559,2287.765 C2108.259,2288.265 2109.959,2288.465 2111.259,2288.165 C2112.959,2287.665 2113.359,2287.865 2112.759,2288.865 C2112.259,2289.665 2110.759,2289.865 2108.159,2289.465 C2104.159,2288.865 2103.159,2289.765 2105.759,2291.865 C2106.659,2292.565 2109.059,2292.865 2112.359,2292.565 C2116.259,2292.165 2117.959,2292.465 2119.159,2293.565 C2120.559,2294.965 2120.359,2295.365 2118.059,2297.265 C2116.659,2298.365 2115.259,2300.265 2114.959,2301.365 C2114.559,2302.965 2114.459,2303.065 2114.359,2301.565 C2114.259,2300.465 2113.459,2299.865 2111.759,2299.865 C2110.359,2299.865 2109.359,2300.165 2109.359,2300.565 C2109.659,2302.565 2109.159,2302.865 2107.659,2301.465 C2106.759,2300.565 2104.459,2299.865 2102.259,2299.865 C2098.959,2299.865 2098.459,2300.165 2098.859,2301.565 C2099.359,2303.065 2099.259,2303.165 2098.359,2301.865 C2097.759,2301.065 2097.259,2299.565 2097.259,2298.665 C2097.259,2297.665 2096.359,2296.865 2095.059,2296.665 C2093.359,2296.465 2092.659,2295.565 2092.459,2293.565 C2092.259,2292.065 2091.659,2290.865 2091.159,2290.865 C2090.659,2290.865 2090.259,2290.265 2090.259,2289.465 C2090.259,2288.665 2089.359,2287.665 2088.259,2287.365 C2087.059,2286.965 2086.259,2285.865 2086.259,2284.365 C2086.259,2280.865 2083.759,2280.665 2081.359,2283.965 C2079.059,2287.065 2079.359,2289.365 2082.159,2288.665 C2084.159,2288.065 2088.959,2292.365 2087.359,2293.265 C2086.759,2293.665 2086.259,2295.465 2086.259,2297.165 C2086.259,2301.365 2084.759,2303.765 2083.159,2302.165 C2082.359,2301.365 2082.459,2300.465 2083.759,2298.565 C2084.759,2296.865 2085.059,2295.865 2084.359,2295.365 C2082.659,2294.365 2081.259,2295.765 2081.259,2298.265 C2081.259,2299.465 2080.759,2300.965 2080.059,2301.665 C2079.159,2302.565 2079.159,2302.865 2080.059,2302.865 C2082.059,2302.865 2081.459,2305.665 2079.059,2307.265 C2077.859,2308.165 2075.359,2308.865 2073.559,2308.865 C2071.859,2308.865 2070.159,2309.265 2069.859,2309.765 C2069.559,2310.265 2067.459,2310.665 2065.259,2310.665 C2063.059,2310.665 2060.359,2311.365 2059.259,2312.165 C2057.359,2313.465 2057.359,2313.765 2058.659,2315.165 C2059.559,2316.065 2059.959,2317.465 2059.659,2318.365 C2059.159,2319.565 2058.759,2319.665 2058.259,2318.865 C2057.759,2318.065 2056.959,2317.965 2055.959,2318.465 C2054.459,2319.365 2054.259,2319.765 2054.259,2321.865 C2054.259,2323.865 2051.159,2322.865 2050.359,2320.565 C2049.259,2317.665 2047.459,2316.165 2044.059,2315.365 C2041.859,2314.765 2041.159,2315.065 2040.559,2316.465 C2040.259,2317.565 2039.059,2319.165 2037.959,2320.265 C2036.659,2321.565 2036.159,2323.065 2036.459,2325.565 C2036.859,2328.465 2036.559,2328.965 2034.359,2329.565 C2029.959,2330.565 2029.959,2330.465 2034.259,2340.365 C2035.859,2344.265 2036.059,2345.665 2035.059,2346.665 C2034.359,2347.365 2034.759,2348.365 2036.359,2349.965 C2038.159,2351.765 2038.359,2352.365 2037.159,2352.665 C2033.859,2353.665 2031.259,2357.165 2031.859,2359.765 C2032.259,2361.165 2032.959,2362.765 2033.359,2363.365 C2033.859,2363.865 2034.259,2365.065 2034.259,2366.065 C2034.259,2367.365 2033.459,2367.865 2031.359,2367.865 C2029.359,2367.865 2028.359,2368.465 2027.959,2369.865 C2027.659,2370.965 2027.859,2372.165 2028.359,2372.465 C2028.959,2372.765 2028.859,2373.665 2028.059,2374.565 C2027.059,2375.765 2027.259,2376.365 2029.059,2377.765 L2031.259,2379.365 L2029.259,2383.565 C2028.159,2385.865 2027.259,2388.665 2027.259,2389.765 C2027.259,2390.865 2026.359,2391.965 2025.259,2392.365 C2022.859,2393.165 2022.659,2394.465 2024.859,2395.265 C2027.259,2396.165 2028.259,2395.965 2028.259,2394.565 C2028.259,2392.565 2031.559,2389.865 2034.059,2389.865 C2037.059,2389.865 2037.759,2387.965 2035.059,2386.965 C2033.759,2386.365 2033.059,2385.865 2033.559,2385.765 C2033.959,2385.665 2034.559,2385.565 2035.059,2385.465 C2037.059,2384.965 2042.259,2381.665 2042.259,2380.865 C2042.259,2380.265 2042.959,2379.865 2043.859,2379.865 C2044.959,2379.865 2045.259,2379.265 2044.759,2377.865 C2044.059,2375.565 2045.159,2373.765 2049.459,2370.765 L2052.259,2368.765 L2052.259,2372.065 C2052.259,2374.665 2051.159,2376.465 2047.059,2380.865 C2042.359,2385.765 2041.759,2386.865 2041.859,2390.365 C2042.059,2395.365 2039.859,2398.265 2037.059,2396.765 C2035.959,2396.165 2034.959,2395.865 2034.759,2396.065 C2033.159,2397.965 2032.559,2402.065 2032.359,2411.065 C2032.159,2421.765 2033.159,2427.565 2035.959,2430.965 C2036.759,2431.865 2037.059,2433.265 2036.759,2434.065 C2036.259,2435.165 2036.859,2435.465 2039.259,2435.065 C2042.359,2434.665 2043.059,2433.065 2041.259,2431.265 C2040.459,2430.465 2040.659,2429.765 2041.759,2428.865 C2042.759,2428.065 2043.259,2427.965 2043.259,2428.765 C2043.259,2429.365 2044.759,2429.865 2046.659,2429.865 C2050.959,2429.865 2051.859,2431.165 2050.159,2435.065 C2048.759,2438.565 2049.859,2439.865 2053.859,2439.065 C2056.959,2438.465 2056.959,2437.065 2053.759,2436.665 C2052.059,2436.465 2051.559,2435.965 2052.159,2435.065 C2053.159,2433.365 2067.859,2432.865 2072.359,2434.465 C2075.059,2435.365 2076.559,2435.265 2079.659,2434.165 C2081.859,2433.465 2084.359,2433.065 2085.259,2433.365 C2087.359,2434.065 2089.559,2431.565 2090.059,2428.065 C2090.659,2423.165 2094.959,2422.265 2095.959,2426.865 C2096.459,2429.465 2096.859,2429.765 2098.659,2429.265 C2099.759,2428.865 2101.059,2428.165 2101.359,2427.765 C2102.359,2426.165 2101.359,2419.565 2100.059,2418.665 C2098.059,2417.365 2101.259,2415.665 2104.559,2416.365 C2106.959,2416.765 2107.559,2416.365 2108.959,2413.365 C2109.959,2411.265 2111.359,2409.865 2112.459,2409.865 C2113.459,2409.865 2114.259,2409.365 2114.259,2408.765 C2114.259,2408.065 2115.459,2406.265 2117.059,2404.765 C2118.559,2403.165 2121.159,2400.265 2122.759,2398.365 C2124.459,2396.365 2127.159,2394.065 2128.859,2393.265 C2130.559,2392.465 2132.659,2390.265 2133.559,2388.365 C2135.359,2384.465 2135.359,2383.265 2133.559,2383.465 C2132.059,2383.665 2133.259,2381.065 2135.959,2378.665 C2138.959,2375.865 2139.959,2374.465 2141.159,2370.565 C2141.859,2368.565 2142.759,2366.865 2143.159,2366.865 C2143.559,2366.865 2143.959,2366.265 2144.059,2365.565 C2145.259,2355.665 2145.659,2353.165 2146.459,2352.165 C2147.059,2351.465 2147.159,2349.765 2146.859,2348.265 C2146.459,2346.865 2146.559,2345.165 2147.159,2344.465 C2147.659,2343.865 2148.259,2341.565 2148.459,2339.365 C2148.659,2336.365 2149.359,2335.165 2151.059,2334.365 C2152.359,2333.765 2153.559,2332.465 2153.759,2331.365 C2154.859,2326.165 2156.059,2304.565 2155.359,2302.565 C2154.959,2301.365 2154.759,2299.865 2154.959,2299.165 C2155.159,2298.565 2154.259,2296.165 2152.859,2293.965 C2151.459,2291.765 2150.259,2289.165 2150.259,2288.265 C2150.259,2287.365 2149.359,2286.465 2148.359,2286.165 C2147.059,2285.865 2146.059,2284.265 2145.359,2281.265 C2144.759,2278.865 2143.759,2274.765 2143.159,2272.165 C2141.659,2265.765 2139.559,2262.865 2136.659,2262.865 C2133.759,2262.865 2133.459,2261.265 2136.359,2260.565 C2138.259,2260.065 2138.259,2259.865 2136.959,2257.165 C2136.159,2255.665 2134.559,2253.565 2133.459,2252.565 C2131.559,2250.865 2131.559,2250.865 2131.959,2253.065 C2132.559,2256.165 2130.659,2260.765 2128.559,2261.465 C2127.559,2261.765 2125.959,2262.365 2125.059,2262.865 C2122.959,2263.965 2122.159,2262.065 2123.659,2259.665 C2124.459,2258.365 2124.159,2257.365 2122.259,2255.365 C2120.759,2253.765 2120.359,2252.865 2121.259,2252.865 C2122.359,2252.865 2122.359,2252.565 2121.459,2251.665 C2119.559,2249.765 2120.059,2248.165 2122.759,2247.465 C2125.059,2246.865 2125.159,2246.565 2124.159,2244.665 C2123.159,2242.765 2123.259,2242.265 2125.059,2241.065 L2127.259,2239.665 L2124.359,2235.965 C2122.859,2233.965 2120.959,2231.265 2120.259,2229.865 C2118.259,2226.065 2115.259,2224.465 2115.259,2227.365 z M2132.859,2267.865 C2135.059,2267.865 2134.559,2271.965 2132.259,2272.565 C2131.159,2272.865 2130.259,2273.465 2130.259,2273.865 C2130.259,2274.265 2129.259,2274.965 2128.059,2275.265 L2125.759,2275.965 L2128.059,2277.565 C2130.659,2279.365 2131.059,2282.165 2128.659,2281.165 C2127.259,2280.665 2127.159,2280.865 2128.259,2282.865 C2129.259,2284.665 2129.159,2285.365 2127.859,2286.765 C2126.459,2288.065 2126.059,2288.165 2125.359,2286.965 C2124.659,2285.865 2124.059,2286.065 2122.359,2287.765 C2120.459,2289.665 2114.259,2290.765 2114.259,2289.165 C2114.259,2288.865 2116.259,2286.665 2118.659,2284.365 C2122.659,2280.565 2123.859,2278.265 2124.159,2273.165 C2124.259,2272.565 2125.059,2271.765 2126.059,2271.365 C2127.159,2271.065 2128.559,2269.565 2129.259,2268.065 C2129.959,2266.565 2130.759,2265.865 2130.959,2266.565 C2131.259,2267.265 2132.059,2267.865 2132.859,2267.865 z M2048.859,2324.065 C2049.259,2324.465 2048.959,2325.565 2048.159,2326.465 C2046.959,2327.865 2047.259,2328.065 2050.159,2327.665 C2053.959,2327.365 2056.059,2329.365 2054.959,2332.365 C2054.459,2333.565 2053.659,2333.865 2052.459,2333.365 C2047.659,2331.365 2043.059,2330.665 2041.959,2331.765 C2041.159,2332.565 2042.059,2332.865 2045.559,2332.865 C2049.359,2332.865 2050.259,2333.165 2050.059,2334.565 C2049.759,2338.565 2050.259,2340.065 2051.759,2339.465 C2053.659,2338.765 2053.659,2339.365 2051.759,2342.265 C2050.259,2344.465 2050.359,2344.665 2052.359,2345.165 C2054.959,2345.865 2058.459,2343.865 2057.759,2342.165 C2057.459,2341.465 2056.959,2340.165 2056.659,2339.365 C2055.759,2337.165 2059.959,2337.365 2060.959,2339.565 C2062.259,2342.365 2061.759,2346.265 2059.759,2348.565 C2058.059,2350.565 2057.759,2350.565 2055.859,2349.265 C2054.559,2348.365 2052.659,2348.065 2050.659,2348.465 C2048.859,2348.765 2047.159,2348.565 2046.859,2347.965 C2046.459,2347.465 2045.559,2347.165 2044.759,2347.465 C2044.059,2347.765 2042.959,2347.065 2042.259,2345.965 C2041.659,2344.765 2040.459,2343.865 2039.659,2343.865 C2038.759,2343.865 2038.459,2344.365 2038.859,2344.965 C2039.259,2345.665 2038.959,2345.965 2038.159,2345.665 C2037.259,2345.365 2036.759,2343.765 2036.859,2341.265 C2037.059,2334.465 2037.859,2331.665 2040.559,2328.265 C2042.059,2326.465 2043.259,2324.565 2043.259,2324.165 C2043.259,2323.065 2047.759,2323.065 2048.859,2324.065 z M2049.259,2351.465 C2049.259,2351.765 2048.759,2352.865 2048.259,2353.965 C2047.359,2355.565 2047.559,2355.865 2049.059,2355.865 C2050.159,2355.865 2052.159,2354.965 2053.559,2353.865 C2058.059,2350.365 2058.959,2352.265 2054.659,2356.265 C2052.359,2358.365 2052.059,2359.165 2052.659,2362.365 C2053.359,2365.965 2053.559,2366.065 2056.859,2365.565 C2060.859,2364.865 2060.959,2365.165 2058.259,2368.565 C2057.059,2370.165 2056.459,2371.965 2056.759,2373.065 C2057.159,2374.065 2056.959,2374.865 2056.359,2374.865 C2054.959,2374.865 2053.359,2371.665 2053.559,2369.365 C2053.759,2367.565 2053.159,2367.365 2049.059,2367.665 C2044.759,2367.965 2044.259,2367.765 2044.259,2365.765 C2044.259,2364.265 2043.859,2363.865 2042.659,2364.265 C2041.759,2364.565 2040.759,2364.865 2040.259,2364.865 C2038.759,2364.865 2038.359,2368.965 2039.759,2369.565 C2041.059,2369.965 2041.159,2371.665 2040.359,2378.565 C2040.159,2380.865 2035.559,2380.065 2034.759,2377.565 C2034.359,2376.365 2034.159,2374.865 2034.259,2374.365 C2034.459,2373.765 2034.459,2372.265 2034.359,2370.965 C2034.359,2369.665 2034.959,2367.665 2035.859,2366.765 C2037.159,2365.365 2037.359,2363.765 2036.959,2360.365 C2036.259,2355.465 2037.659,2353.865 2042.559,2353.865 C2043.959,2353.865 2045.559,2353.165 2046.259,2352.365 C2047.459,2350.865 2049.259,2350.365 2049.259,2351.465 z" fill="#3DE9B1" fill-opacity="0.685"/>
      <path d="M2014.259,2231.065 C2011.759,2236.265 2011.759,2236.265 2014.359,2235.565 C2015.459,2235.265 2017.059,2235.265 2017.859,2235.565 C2019.459,2236.165 2019.759,2239.465 2018.159,2240.365 C2017.459,2240.865 2017.859,2241.565 2019.059,2242.465 C2020.159,2243.165 2021.259,2245.165 2021.559,2246.865 C2022.159,2249.865 2022.459,2249.965 2027.259,2248.865 C2027.559,2248.865 2026.859,2248.165 2025.859,2247.365 C2024.759,2246.565 2024.259,2245.565 2024.759,2245.165 C2025.159,2244.665 2025.759,2244.965 2025.959,2245.565 C2026.659,2247.365 2028.259,2247.165 2028.259,2245.265 C2028.259,2243.765 2031.759,2237.965 2033.459,2236.865 C2033.859,2236.565 2035.459,2236.265 2036.959,2236.365 C2039.459,2236.365 2039.759,2236.665 2039.459,2239.565 C2039.059,2243.365 2040.459,2244.365 2045.459,2243.965 C2047.659,2243.865 2049.259,2244.165 2049.259,2244.765 C2049.259,2245.365 2048.559,2245.865 2047.759,2245.865 C2046.959,2245.865 2046.259,2246.265 2046.259,2246.865 C2046.259,2247.365 2047.159,2247.865 2048.259,2247.865 C2049.359,2247.865 2050.259,2247.365 2050.259,2246.765 C2050.259,2246.165 2050.859,2245.865 2051.559,2246.065 C2052.159,2246.365 2052.759,2247.165 2052.759,2247.965 C2052.759,2248.665 2053.559,2249.465 2054.659,2249.665 C2055.959,2249.965 2056.259,2249.665 2055.759,2248.765 C2055.259,2248.065 2055.659,2247.065 2056.759,2246.165 C2057.859,2245.465 2058.159,2244.865 2057.459,2244.865 C2056.859,2244.865 2055.759,2243.865 2055.159,2242.665 C2054.159,2240.765 2054.359,2240.165 2056.459,2238.465 C2058.959,2236.365 2060.559,2233.465 2059.659,2232.565 C2059.359,2232.265 2057.559,2232.465 2055.559,2233.065 C2052.759,2233.865 2051.759,2233.665 2050.159,2232.265 C2048.859,2231.065 2047.959,2230.865 2047.059,2231.565 C2045.559,2232.765 2042.359,2232.665 2040.459,2231.465 C2039.659,2230.965 2038.359,2231.365 2037.159,2232.465 C2036.059,2233.465 2035.259,2233.865 2035.459,2233.265 C2035.759,2232.265 2030.159,2226.865 2028.859,2226.865 C2028.559,2226.865 2028.259,2228.165 2028.259,2229.865 C2028.259,2231.465 2027.859,2232.865 2027.359,2232.865 C2026.959,2232.865 2026.759,2235.065 2027.059,2237.865 C2027.459,2242.065 2027.259,2242.865 2025.859,2242.865 C2024.659,2242.865 2024.359,2242.265 2024.859,2240.465 C2025.159,2239.165 2024.959,2237.765 2024.359,2237.465 C2022.959,2236.565 2022.959,2232.865 2024.259,2232.865 C2024.859,2232.865 2025.259,2232.165 2025.259,2231.365 C2025.259,2229.765 2023.659,2229.265 2023.059,2230.665 C2022.959,2231.165 2021.459,2231.865 2019.759,2232.265 C2017.159,2232.865 2016.959,2232.765 2018.259,2231.665 C2019.159,2230.965 2020.459,2229.565 2021.159,2228.565 C2022.359,2227.065 2022.159,2226.865 2019.359,2226.865 C2016.759,2226.865 2016.059,2227.465 2014.259,2231.065 z" fill="#3DE9B1" fill-opacity="0.685"/>
      <path d="M2024.259,2399.865 C2024.659,2403.865 2024.359,2404.865 2022.859,2404.865 C2022.159,2404.865 2020.959,2404.165 2020.259,2403.365 C2019.159,2402.065 2018.859,2402.065 2017.559,2403.465 C2016.659,2404.265 2014.859,2404.865 2013.359,2404.665 C2011.059,2404.365 2010.759,2404.765 2010.459,2408.065 C2010.059,2412.565 2012.659,2418.865 2015.159,2419.565 C2016.259,2419.865 2017.359,2420.765 2017.659,2421.665 C2017.959,2422.665 2018.559,2423.965 2018.859,2424.565 C2019.159,2425.365 2018.659,2425.865 2017.459,2425.865 C2016.359,2425.865 2014.759,2426.965 2013.859,2428.365 C2011.959,2431.365 2011.659,2434.165 2013.659,2431.665 C2014.459,2430.565 2015.659,2430.165 2017.059,2430.565 C2018.859,2430.965 2019.259,2430.665 2019.259,2428.965 C2019.259,2427.765 2019.859,2426.865 2020.759,2426.865 C2022.559,2426.865 2022.559,2427.365 2021.259,2429.965 C2020.559,2431.265 2020.559,2431.865 2021.159,2431.865 C2022.159,2431.865 2025.259,2426.865 2025.259,2425.365 C2025.259,2424.965 2024.359,2425.065 2023.259,2425.365 C2021.759,2425.865 2021.259,2425.565 2021.259,2423.965 C2021.259,2422.565 2022.059,2421.865 2024.059,2421.665 C2027.259,2421.265 2028.259,2417.965 2025.859,2415.565 C2023.259,2412.965 2022.959,2409.465 2025.159,2406.665 C2027.659,2403.565 2027.859,2400.565 2025.659,2398.765 C2024.259,2397.665 2024.059,2397.765 2024.259,2399.865 z" fill="#3DE9B1" fill-opacity="0.685"/>
    </g>
  </g>
</svg>
