<?xml version="1.0" encoding="UTF-8"?>
<!DOCTYPE svg PUBLIC "-//W3C//DTD SVG 1.1//EN" "http://www.w3.org/Graphics/SVG/1.1/DTD/svg11.dtd">
<svg version="1.1" xmlns="http://www.w3.org/2000/svg" xmlns:xlink="http://www.w3.org/1999/xlink" x="0" y="0" width="5000" height="5000" viewBox="0, 0, 5000, 5000">
  <g id="rightEar_chocolate" transform="translate(0, 0)">
    <path d="M3697.635,880.031 C3697.753,880.093 3697.935,880.095 3697.989,880.216 C3698.214,880.723 3697.962,881.314 3697.838,881.786 C3697.438,883.086 3698.038,884.286 3700.038,885.686 C3702.638,887.586 3702.638,887.686 3700.638,888.286 C3698.638,888.886 3695.338,895.186 3695.338,898.386 C3695.338,899.486 3694.638,899.786 3692.938,899.286 C3690.838,898.786 3690.538,898.986 3691.038,900.886 C3691.438,902.586 3692.238,902.886 3694.638,902.686 C3697.438,902.386 3697.838,901.986 3698.838,897.386 C3699.838,892.686 3700.038,892.386 3702.838,892.586 C3704.438,892.686 3706.538,892.086 3707.538,891.186 C3709.238,889.686 3709.538,889.686 3711.338,891.386 C3713.238,893.086 3713.338,893.086 3713.938,891.286 C3715.238,887.586 3716.338,886.886 3718.438,888.186 C3719.438,888.786 3720.338,890.086 3720.338,891.086 C3720.338,891.986 3720.838,893.086 3721.338,893.386 C3721.938,893.786 3722.138,894.886 3721.838,895.986 C3721.438,897.186 3721.738,898.086 3722.838,898.486 C3725.038,899.386 3725.838,898.286 3724.338,896.386 C3722.838,894.586 3723.638,894.486 3726.338,896.086 C3728.038,897.186 3728.538,896.986 3729.938,895.086 C3731.438,892.886 3731.638,892.886 3733.938,894.286 C3735.238,895.186 3736.938,895.886 3737.738,895.886 C3738.438,895.886 3739.438,896.586 3739.738,897.486 C3740.238,898.886 3740.638,898.886 3741.938,897.786 C3743.238,896.786 3743.638,896.786 3744.338,897.786 C3744.738,898.586 3745.638,898.786 3746.338,898.386 C3747.038,897.986 3747.838,897.986 3748.238,898.486 C3748.538,898.986 3750.338,900.486 3752.138,901.786 C3754.638,903.486 3755.838,903.786 3756.638,902.986 C3757.148,902.544 3758.106,901.518 3758.879,902.073 C3759.102,902.233 3759.149,902.551 3759.283,902.791 C3759.332,905.309 3760.425,905.224 3762.038,903.786 C3762.838,902.986 3763.738,903.386 3765.238,904.986 C3766.338,906.286 3767.338,907.586 3767.338,908.086 C3767.338,908.486 3768.138,909.686 3769.138,910.686 C3770.838,912.386 3771.138,912.386 3774.938,910.786 C3780.938,908.086 3785.238,908.486 3782.438,911.386 C3781.938,911.986 3781.038,914.086 3780.338,916.286 C3778.638,921.686 3780.238,924.686 3785.038,924.586 C3787.538,924.486 3788.838,925.086 3789.638,926.386 C3794.138,933.786 3796.338,938.186 3796.338,939.686 C3796.338,940.686 3797.638,941.886 3799.338,942.586 C3801.038,943.186 3802.338,944.486 3802.338,945.386 C3802.338,947.686 3805.038,952.486 3809.538,957.986 C3814.538,964.186 3817.238,975.686 3818.438,994.886 C3818.938,1002.886 3819.538,1012.386 3819.938,1016.086 C3820.538,1021.886 3820.338,1022.886 3819.038,1022.886 C3817.638,1022.886 3817.538,1024.986 3817.838,1039.586 C3818.138,1053.086 3817.838,1058.486 3816.238,1066.886 C3815.238,1072.686 3813.938,1080.986 3813.438,1085.386 C3812.938,1089.786 3812.138,1094.686 3811.538,1096.386 C3810.938,1097.986 3810.038,1101.386 3809.338,1103.886 C3808.738,1106.386 3807.838,1109.686 3807.438,1111.386 C3806.938,1112.986 3805.838,1117.086 3804.938,1120.286 C3804.038,1123.586 3802.238,1127.386 3800.938,1128.786 C3799.038,1130.986 3797.338,1134.786 3796.938,1138.086 C3796.838,1138.386 3795.738,1139.786 3794.338,1141.186 C3790.938,1144.586 3790.038,1145.786 3787.938,1149.886 C3786.838,1151.786 3785.638,1154.086 3785.238,1154.886 C3784.738,1155.686 3783.538,1157.986 3782.538,1159.886 C3781.638,1161.786 3780.338,1163.886 3779.738,1164.586 C3779.138,1165.186 3777.138,1168.086 3775.338,1171.086 C3773.438,1173.986 3770.438,1178.086 3768.738,1180.086 C3766.938,1182.086 3765.038,1185.286 3764.538,1187.286 C3763.938,1189.286 3761.738,1192.386 3759.438,1194.586 C3757.138,1196.586 3755.338,1198.786 3755.338,1199.486 C3755.338,1200.086 3753.838,1202.486 3752.138,1204.886 C3745.938,1213.086 3742.238,1220.286 3745.238,1218.486 C3746.838,1217.486 3748.538,1220.586 3747.538,1222.586 C3746.638,1224.086 3747.138,1224.686 3750.438,1226.286 C3752.638,1227.386 3754.338,1228.686 3754.238,1229.286 C3753.938,1232.186 3754.438,1233.986 3755.438,1233.286 C3756.038,1232.986 3756.338,1231.386 3755.938,1229.786 C3755.638,1227.886 3756.238,1225.186 3757.838,1221.686 C3760.238,1216.586 3760.338,1216.486 3760.338,1219.586 C3760.338,1223.486 3762.138,1223.886 3766.238,1220.786 C3767.938,1219.486 3769.838,1218.886 3770.938,1219.286 C3772.038,1219.586 3773.338,1219.886 3773.838,1219.986 C3774.638,1220.186 3777.338,1225.086 3777.338,1226.386 C3777.338,1227.186 3773.238,1227.586 3772.738,1226.786 C3771.638,1224.886 3770.338,1225.986 3770.338,1228.886 C3770.338,1231.186 3769.838,1231.986 3767.838,1232.486 C3766.238,1232.886 3764.738,1234.286 3763.938,1236.286 C3760.738,1243.586 3755.338,1245.786 3755.338,1239.686 C3755.338,1237.786 3754.938,1236.886 3754.138,1237.086 C3752.438,1237.686 3751.238,1242.886 3752.438,1244.986 C3753.138,1246.486 3752.738,1247.286 3750.338,1248.986 C3748.238,1250.586 3747.338,1252.086 3747.338,1254.086 C3747.338,1255.586 3747.838,1256.886 3748.338,1256.886 C3750.938,1256.886 3756.238,1253.886 3758.238,1251.286 C3759.438,1249.686 3761.938,1247.886 3763.638,1247.286 C3765.438,1246.686 3767.338,1245.186 3767.938,1243.986 C3769.838,1240.186 3770.938,1239.586 3773.138,1240.786 C3775.338,1241.986 3775.138,1242.286 3779.938,1233.086 C3781.538,1230.286 3783.438,1229.286 3786.638,1229.786 C3787.038,1229.786 3787.338,1229.186 3787.338,1228.286 C3787.338,1227.286 3787.938,1226.886 3788.838,1227.186 C3790.538,1227.886 3791.838,1226.286 3790.338,1225.386 C3789.838,1225.086 3789.638,1223.686 3789.938,1222.286 C3790.338,1220.786 3790.138,1219.886 3789.438,1219.886 C3788.638,1219.886 3788.538,1219.386 3789.138,1218.186 C3789.838,1216.986 3789.538,1216.086 3787.938,1214.786 L3785.838,1212.986 L3788.038,1212.886 C3789.238,1212.886 3790.438,1212.286 3790.638,1211.586 C3791.038,1210.686 3791.438,1210.786 3792.238,1211.886 C3793.338,1213.386 3793.738,1217.186 3793.338,1221.586 C3793.238,1223.586 3793.538,1223.786 3795.438,1222.986 C3796.738,1222.586 3797.938,1221.586 3798.138,1220.786 C3798.438,1219.686 3798.238,1219.686 3797.438,1220.886 C3796.838,1221.686 3796.338,1221.886 3796.338,1221.386 C3796.338,1218.886 3799.538,1215.886 3802.338,1215.886 C3805.438,1215.886 3806.938,1217.386 3806.538,1219.986 C3805.938,1223.786 3800.538,1232.386 3797.838,1233.886 C3796.238,1234.786 3794.138,1236.986 3793.138,1238.686 C3791.138,1242.286 3782.738,1250.886 3781.238,1250.886 C3780.738,1250.886 3778.738,1252.486 3776.838,1254.386 C3772.738,1258.386 3772.238,1261.886 3775.638,1261.986 C3777.638,1262.086 3777.638,1262.086 3775.238,1262.886 C3773.738,1263.286 3771.638,1264.586 3770.538,1265.686 C3769.338,1266.886 3767.438,1267.586 3765.938,1267.486 C3764.538,1267.286 3763.438,1267.486 3763.538,1267.786 C3763.638,1268.086 3763.338,1269.686 3762.838,1271.186 C3762.338,1273.286 3761.638,1273.786 3760.238,1273.386 C3759.038,1272.986 3757.038,1273.786 3754.638,1275.586 C3749.838,1279.186 3746.338,1282.486 3746.338,1283.286 C3746.338,1284.386 3750.838,1283.886 3753.738,1282.386 C3755.938,1281.186 3756.938,1281.186 3757.938,1281.986 C3759.438,1283.186 3760.838,1282.486 3764.938,1278.086 C3767.538,1275.386 3768.738,1275.286 3771.338,1277.886 C3773.938,1280.486 3773.838,1281.886 3771.238,1281.886 C3770.138,1281.886 3765.738,1283.486 3761.538,1285.586 C3757.338,1287.586 3753.538,1289.186 3753.138,1289.086 C3752.838,1288.986 3749.238,1289.586 3745.338,1290.486 C3738.038,1291.986 3732.138,1295.186 3727.538,1300.186 C3725.238,1302.586 3725.238,1302.586 3727.238,1303.186 C3731.138,1304.186 3729.538,1306.086 3725.238,1305.786 C3721.838,1305.486 3720.638,1305.886 3718.238,1308.286 C3716.638,1309.886 3715.338,1312.086 3715.338,1313.186 C3715.338,1314.786 3715.838,1314.986 3718.038,1314.386 C3721.238,1313.586 3726.338,1310.186 3726.338,1308.786 C3726.338,1308.186 3727.238,1307.986 3728.338,1308.386 C3729.838,1308.886 3730.138,1308.686 3729.738,1307.586 C3729.438,1306.786 3730.338,1305.486 3731.738,1304.486 C3733.838,1303.186 3734.138,1303.086 3733.738,1304.386 C3732.438,1307.686 3738.338,1305.586 3743.538,1300.986 C3745.638,1299.086 3746.038,1298.286 3745.138,1296.886 C3744.338,1295.686 3744.338,1294.686 3745.138,1293.286 C3746.138,1291.586 3746.238,1291.786 3746.338,1294.586 C3746.338,1297.286 3746.738,1297.786 3748.638,1297.686 C3749.838,1297.586 3751.338,1297.186 3751.838,1296.786 C3752.438,1296.386 3754.338,1295.786 3756.238,1295.386 C3758.038,1294.986 3761.438,1293.386 3763.838,1291.786 C3766.238,1290.186 3768.738,1288.886 3769.538,1288.886 C3770.338,1288.886 3771.438,1288.386 3772.138,1287.686 C3772.838,1286.986 3773.338,1286.886 3773.338,1287.286 C3773.338,1287.786 3774.038,1287.586 3774.838,1286.886 C3775.638,1286.186 3776.338,1284.886 3776.338,1283.886 C3776.338,1281.786 3780.038,1280.586 3782.238,1281.886 C3783.638,1282.686 3783.638,1282.786 3782.338,1282.886 C3781.138,1282.886 3781.138,1283.086 3782.138,1283.686 C3784.038,1284.886 3782.638,1287.586 3779.738,1288.286 C3778.338,1288.686 3776.838,1290.086 3776.338,1291.386 C3775.838,1292.786 3774.938,1293.886 3774.438,1293.886 C3773.838,1293.886 3773.638,1294.486 3773.938,1295.286 C3774.538,1296.686 3772.538,1299.086 3768.638,1301.586 C3766.438,1303.086 3766.338,1303.286 3767.838,1304.186 C3769.238,1304.886 3769.338,1305.286 3768.338,1305.886 C3767.538,1306.386 3766.938,1308.686 3766.838,1311.086 C3766.738,1313.386 3766.338,1316.286 3765.838,1317.286 C3765.138,1318.986 3765.338,1319.086 3767.438,1318.486 C3774.538,1316.286 3774.538,1316.586 3767.938,1323.286 C3761.438,1329.786 3761.338,1329.986 3762.938,1332.386 C3763.838,1333.786 3764.938,1334.686 3765.338,1334.386 C3767.138,1333.286 3771.338,1336.186 3771.338,1338.586 C3771.338,1339.786 3770.838,1340.886 3770.238,1340.886 C3769.038,1340.886 3765.838,1343.886 3767.038,1343.886 C3767.438,1343.986 3766.638,1344.686 3765.138,1345.486 C3763.538,1346.286 3762.338,1347.586 3762.338,1348.286 C3762.338,1348.986 3761.638,1350.186 3760.838,1350.886 C3760.038,1351.586 3759.338,1352.986 3759.338,1353.986 C3759.338,1355.086 3758.838,1355.586 3757.938,1355.286 C3757.238,1354.986 3756.338,1355.486 3756.038,1356.286 C3755.338,1358.186 3758.238,1357.286 3760.038,1355.086 C3761.238,1353.686 3774.438,1348.686 3775.238,1349.486 C3775.438,1349.686 3774.338,1350.886 3772.738,1352.086 C3771.138,1353.286 3768.038,1356.086 3765.838,1358.386 C3761.938,1362.386 3755.038,1367.886 3753.938,1367.886 C3752.838,1367.886 3740.738,1376.086 3736.838,1379.386 C3734.638,1381.286 3731.238,1383.886 3729.338,1385.186 C3727.438,1386.486 3725.938,1388.186 3726.138,1388.886 C3726.638,1391.286 3722.338,1394.686 3717.838,1395.286 C3714.838,1395.786 3711.538,1397.486 3707.038,1400.886 C3703.438,1403.586 3700.238,1405.486 3699.938,1405.086 C3699.238,1404.486 3697.338,1406.586 3697.338,1407.986 C3697.338,1408.886 3701.538,1408.486 3704.338,1407.186 C3705.738,1406.586 3709.538,1404.986 3712.838,1403.686 C3716.138,1402.486 3719.138,1400.986 3719.438,1400.486 C3719.838,1399.986 3720.938,1399.886 3721.838,1400.286 C3723.038,1400.686 3723.638,1400.286 3724.038,1398.886 C3724.538,1397.086 3725.538,1396.486 3727.638,1396.786 C3728.038,1396.786 3728.338,1396.186 3728.338,1395.386 C3728.338,1394.486 3729.238,1393.886 3730.738,1393.886 C3732.138,1393.886 3733.338,1393.186 3733.538,1392.086 C3733.838,1391.086 3735.838,1389.886 3738.638,1388.986 C3741.938,1388.086 3743.738,1386.886 3744.638,1384.986 C3745.938,1382.286 3748.838,1381.486 3751.138,1383.186 C3751.938,1383.786 3752.338,1383.686 3752.338,1382.986 C3752.338,1382.286 3752.738,1381.986 3753.238,1382.386 C3753.738,1382.686 3754.838,1382.186 3755.638,1381.386 C3756.538,1380.586 3757.938,1379.886 3758.738,1379.886 C3759.638,1379.886 3760.338,1379.286 3760.338,1378.586 C3760.338,1377.886 3761.238,1376.786 3762.338,1376.086 C3763.438,1375.386 3764.338,1375.286 3764.338,1375.886 C3764.338,1377.186 3767.638,1375.886 3768.638,1374.186 C3769.138,1373.486 3769.838,1373.086 3770.238,1373.386 C3770.738,1373.586 3771.638,1373.186 3772.238,1372.486 C3773.201,1371.552 3774.536,1371.227 3775.753,1370.771 C3777.965,1370.17 3780.651,1369.91 3782.438,1368.286 C3783.038,1367.586 3784.038,1367.186 3784.538,1367.486 C3785.138,1367.886 3785.938,1367.586 3786.438,1366.786 C3786.838,1366.086 3788.238,1365.386 3789.538,1365.386 C3790.838,1365.286 3792.638,1364.886 3793.438,1364.386 C3794.138,1363.986 3793.138,1365.186 3791.138,1367.186 C3789.138,1369.186 3786.438,1370.986 3785.338,1371.186 C3784.138,1371.386 3782.838,1371.986 3782.538,1372.586 C3782.138,1373.186 3780.838,1373.886 3779.638,1374.286 C3778.338,1374.686 3777.338,1375.486 3777.338,1375.986 C3777.338,1376.586 3776.938,1376.686 3776.338,1376.386 C3775.238,1375.786 3768.738,1381.586 3769.538,1382.486 C3769.838,1382.786 3771.838,1382.086 3773.938,1380.986 C3776.038,1379.786 3778.338,1378.886 3779.038,1378.886 C3781.338,1378.886 3780.438,1380.886 3777.738,1381.886 C3776.238,1382.486 3773.738,1383.886 3772.138,1384.986 C3769.938,1386.586 3768.338,1386.986 3765.738,1386.586 C3763.838,1386.286 3761.538,1386.286 3760.738,1386.586 C3759.538,1386.986 3759.538,1387.386 3761.038,1388.486 C3762.738,1389.686 3762.738,1389.786 3761.138,1389.886 C3760.138,1389.886 3758.938,1390.686 3758.438,1391.786 C3757.838,1392.786 3756.238,1393.986 3754.838,1394.286 C3753.438,1394.686 3752.338,1395.586 3752.338,1396.386 C3752.338,1398.286 3752.538,1398.286 3756.538,1395.986 C3758.338,1394.986 3761.438,1393.786 3763.338,1393.386 C3765.238,1392.986 3769.138,1391.286 3772.038,1389.686 C3774.938,1388.086 3777.738,1386.986 3778.338,1387.386 C3780.138,1388.486 3778.438,1389.686 3771.838,1391.886 C3768.238,1393.086 3765.338,1394.486 3765.338,1394.986 C3765.338,1395.486 3764.538,1395.886 3763.638,1395.886 C3761.338,1395.986 3758.138,1398.386 3759.038,1399.286 C3759.438,1399.686 3759.038,1399.686 3758.138,1399.386 C3757.338,1399.086 3755.938,1399.486 3755.038,1400.286 C3754.138,1401.186 3752.338,1401.986 3750.938,1402.086 C3749.538,1402.186 3748.338,1402.686 3748.338,1403.086 C3748.338,1403.586 3747.238,1404.386 3745.838,1405.086 C3744.538,1405.686 3743.638,1406.586 3744.038,1407.186 C3744.438,1407.786 3744.138,1407.886 3743.238,1407.286 C3742.438,1406.886 3740.638,1406.586 3739.138,1406.786 C3737.738,1406.886 3736.238,1406.486 3735.838,1405.886 C3735.138,1404.786 3733.338,1405.486 3733.338,1406.986 C3733.338,1407.486 3734.238,1407.886 3735.338,1407.886 C3736.638,1407.886 3737.138,1408.386 3736.738,1409.386 C3736.338,1410.386 3734.738,1410.886 3732.138,1410.886 C3729.938,1410.886 3728.438,1411.286 3728.838,1411.886 C3729.138,1412.386 3730.038,1412.586 3730.838,1412.186 C3731.638,1411.886 3732.338,1412.086 3732.338,1412.686 C3732.338,1413.286 3731.238,1413.586 3729.838,1413.486 C3728.538,1413.286 3727.538,1413.686 3727.638,1414.186 C3727.738,1414.786 3727.038,1415.286 3726.038,1415.386 C3725.038,1415.386 3723.838,1416.086 3723.338,1416.886 C3722.538,1418.186 3722.238,1418.186 3721.138,1416.986 C3720.138,1415.986 3720.138,1415.786 3721.138,1416.286 C3721.738,1416.686 3722.338,1416.486 3722.338,1415.986 C3722.338,1414.286 3721.838,1414.486 3711.038,1419.986 C3704.938,1423.086 3700.738,1424.686 3700.538,1423.986 C3700.038,1422.386 3697.838,1422.586 3696.338,1424.386 C3695.638,1425.186 3694.738,1425.686 3694.338,1425.386 C3693.838,1425.086 3692.938,1425.486 3692.138,1426.186 C3691.438,1426.886 3689.538,1427.986 3687.938,1428.686 C3685.338,1429.886 3685.138,1429.786 3686.338,1428.486 C3687.338,1427.186 3687.338,1426.886 3686.238,1426.886 C3685.238,1426.886 3685.238,1426.586 3685.938,1426.086 C3686.538,1425.686 3687.338,1424.386 3687.738,1423.186 C3688.138,1421.886 3689.638,1420.586 3691.038,1420.186 C3695.338,1419.186 3698.038,1417.486 3697.538,1416.086 C3697.338,1415.486 3697.638,1414.886 3698.238,1414.886 C3698.838,1414.886 3699.338,1414.186 3699.338,1413.186 C3699.338,1411.786 3699.138,1411.786 3697.238,1413.486 C3696.138,1414.486 3694.638,1415.386 3694.038,1415.486 C3693.338,1415.486 3691.638,1415.686 3690.238,1415.686 C3688.838,1415.786 3686.338,1416.986 3684.738,1418.386 C3683.138,1419.786 3681.338,1420.886 3680.638,1420.886 C3680.038,1420.886 3679.338,1421.186 3679.138,1421.586 C3679.038,1422.086 3676.638,1423.486 3673.838,1424.886 C3671.138,1426.286 3667.538,1428.586 3665.838,1430.086 C3664.238,1431.686 3662.438,1432.886 3661.938,1432.886 C3661.438,1432.886 3660.238,1433.586 3659.338,1434.386 C3658.438,1435.186 3656.838,1435.986 3655.738,1436.186 C3652.638,1436.786 3648.338,1439.086 3648.838,1439.986 C3649.138,1440.386 3648.538,1440.486 3647.438,1440.186 C3646.338,1439.886 3645.338,1440.386 3645.038,1441.286 C3644.638,1442.386 3644.938,1442.686 3646.138,1442.286 C3647.038,1442.086 3646.838,1442.386 3645.538,1442.986 C3644.238,1443.686 3643.438,1444.786 3643.738,1445.486 C3644.238,1446.786 3641.438,1446.686 3639.338,1445.386 C3638.738,1445.086 3638.338,1445.386 3638.338,1446.086 C3638.338,1446.786 3637.738,1446.286 3636.938,1444.886 C3635.938,1442.886 3635.838,1441.986 3636.838,1440.386 C3637.538,1439.286 3637.938,1437.586 3637.738,1436.586 C3637.638,1435.686 3638.038,1434.886 3638.638,1434.786 C3639.338,1434.786 3640.638,1434.586 3641.638,1434.386 C3642.538,1434.186 3643.138,1434.486 3642.738,1434.986 C3642.438,1435.486 3641.838,1435.686 3641.438,1435.486 C3641.038,1435.186 3640.638,1436.286 3640.538,1437.886 C3640.438,1441.086 3641.738,1442.686 3642.938,1440.786 C3643.338,1439.986 3643.238,1439.886 3642.538,1440.286 C3641.838,1440.686 3641.338,1440.586 3641.338,1440.086 C3641.338,1439.686 3642.838,1438.686 3644.638,1437.986 C3647.138,1436.986 3647.938,1436.086 3647.838,1434.486 C3647.738,1432.886 3647.038,1432.386 3645.238,1432.586 C3641.338,1432.886 3639.938,1432.086 3641.338,1430.386 C3642.038,1429.586 3643.038,1429.186 3643.738,1429.586 C3644.338,1429.986 3644.238,1429.486 3643.438,1428.586 C3642.238,1427.086 3642.338,1426.886 3644.238,1426.886 C3645.438,1426.886 3646.638,1426.186 3646.938,1425.386 C3647.338,1424.586 3648.038,1424.186 3648.738,1424.586 C3650.438,1425.686 3653.338,1425.986 3653.338,1424.986 C3653.338,1424.586 3652.338,1423.686 3651.138,1422.986 C3649.838,1422.386 3649.638,1422.086 3650.538,1422.286 C3651.538,1422.586 3652.538,1422.386 3652.838,1421.886 C3653.238,1421.286 3652.938,1420.886 3652.438,1420.886 C3650.838,1420.886 3651.138,1419.586 3653.438,1416.686 C3654.638,1415.186 3656.138,1414.286 3656.838,1414.586 C3657.838,1414.886 3657.838,1415.486 3656.538,1416.786 C3655.638,1417.786 3654.538,1418.386 3654.138,1418.186 C3653.638,1417.986 3653.538,1419.186 3653.738,1420.986 C3654.038,1423.786 3654.438,1424.286 3656.838,1424.386 C3658.538,1424.386 3660.838,1423.486 3662.538,1422.086 C3664.038,1420.786 3665.738,1419.986 3666.238,1420.286 C3666.738,1420.586 3667.738,1420.186 3668.438,1419.286 C3669.438,1417.986 3669.438,1417.586 3668.438,1416.986 C3667.638,1416.386 3668.738,1415.686 3671.738,1414.786 C3674.238,1414.086 3676.338,1413.186 3676.338,1412.786 C3676.338,1412.386 3677.238,1412.286 3678.338,1412.586 C3679.438,1412.886 3680.338,1412.686 3680.338,1412.086 C3680.338,1410.286 3678.438,1409.786 3676.238,1410.986 C3674.638,1411.786 3673.438,1411.786 3671.738,1410.986 C3670.438,1410.386 3669.338,1410.386 3669.338,1410.786 C3669.338,1411.286 3670.038,1411.886 3671.038,1412.086 C3672.538,1412.386 3672.538,1412.486 3671.038,1413.686 C3669.738,1414.786 3669.338,1414.686 3668.338,1412.886 C3667.438,1411.286 3667.538,1410.386 3668.538,1409.186 C3669.638,1407.786 3669.438,1407.686 3666.438,1408.086 L3663.038,1408.586 L3666.438,1405.786 C3668.338,1404.186 3670.438,1403.086 3671.138,1403.386 C3671.838,1403.586 3672.338,1402.986 3672.338,1401.886 C3672.338,1399.186 3675.938,1397.386 3677.738,1399.186 C3678.938,1400.286 3678.438,1400.886 3674.538,1402.986 C3671.338,1404.586 3670.438,1405.486 3671.738,1405.686 C3673.038,1405.986 3673.238,1406.386 3672.238,1407.486 C3671.338,1408.586 3671.538,1408.886 3673.238,1408.886 C3674.438,1408.886 3675.338,1408.286 3675.338,1407.486 C3675.338,1406.686 3676.238,1405.686 3677.338,1405.386 C3678.438,1405.086 3679.338,1404.286 3679.338,1403.686 C3679.338,1403.186 3680.038,1402.886 3680.838,1403.286 C3681.638,1403.586 3682.338,1403.286 3682.438,1402.586 C3682.438,1401.686 3682.638,1401.686 3683.038,1402.586 C3683.238,1403.286 3683.938,1403.886 3684.438,1403.886 C3685.038,1403.886 3684.938,1403.086 3684.338,1401.886 C3683.438,1400.286 3683.538,1400.086 3684.838,1400.486 C3685.638,1400.886 3686.338,1401.586 3686.338,1402.186 C3686.338,1403.586 3690.138,1399.086 3690.838,1396.786 C3691.238,1395.686 3691.938,1394.886 3692.438,1394.886 C3693.738,1394.886 3693.538,1396.686 3692.138,1397.186 C3691.138,1397.586 3691.138,1397.786 3692.138,1397.786 C3692.838,1397.886 3693.638,1397.186 3693.938,1396.386 C3694.338,1395.586 3695.138,1394.886 3695.938,1394.886 C3696.738,1394.886 3697.338,1394.386 3697.338,1393.786 C3697.338,1393.186 3698.238,1392.886 3699.338,1393.186 C3700.438,1393.486 3701.338,1393.286 3701.338,1392.786 C3701.338,1392.286 3703.038,1391.086 3705.138,1389.986 C3707.138,1388.886 3708.538,1387.986 3708.138,1387.886 C3707.138,1387.886 3710.538,1383.886 3711.638,1383.886 C3712.038,1383.886 3712.238,1384.286 3711.938,1384.686 C3711.738,1385.086 3711.838,1386.086 3712.238,1386.786 C3712.838,1387.686 3713.238,1387.286 3713.738,1385.486 C3714.138,1383.786 3714.838,1383.186 3715.838,1383.486 C3716.838,1383.886 3717.338,1383.486 3717.338,1382.486 C3717.379,1381.138 3718.083,1381.257 3719.185,1381.336 C3720.479,1381.587 3722.196,1382.445 3722.338,1380.486 C3722.338,1379.586 3721.838,1378.886 3721.138,1378.886 C3720.538,1378.886 3720.738,1378.286 3721.738,1377.586 C3722.738,1376.786 3724.738,1376.386 3726.138,1376.686 C3727.938,1377.086 3728.438,1376.786 3728.138,1375.786 C3727.438,1373.886 3720.738,1374.486 3716.538,1376.986 C3714.738,1377.986 3711.438,1379.186 3709.338,1379.486 C3705.738,1380.086 3705.138,1379.786 3701.438,1375.986 C3699.338,1373.786 3697.338,1371.286 3697.038,1370.686 C3696.738,1369.786 3694.638,1370.286 3689.738,1372.686 C3682.938,1375.986 3676.638,1376.786 3676.638,1374.286 C3676.638,1373.686 3677.538,1373.386 3678.538,1373.686 C3680.738,1374.186 3680.938,1372.186 3678.838,1368.286 C3678.038,1366.686 3677.338,1364.186 3677.338,1362.686 C3677.338,1358.786 3675.938,1358.586 3672.938,1361.886 C3670.038,1365.186 3669.538,1365.286 3663.938,1363.786 C3660.438,1362.786 3659.838,1362.886 3657.838,1365.086 C3656.638,1366.386 3655.238,1368.786 3654.638,1370.386 C3653.838,1372.886 3653.038,1373.486 3649.438,1373.986 C3645.938,1374.486 3645.338,1374.286 3645.938,1372.986 C3648.338,1367.086 3647.338,1366.486 3642.538,1370.786 L3639.338,1373.786 L3637.738,1370.686 C3636.338,1367.986 3636.238,1366.786 3637.238,1362.286 C3638.138,1358.486 3638.138,1356.386 3637.338,1354.986 C3636.238,1352.786 3630.738,1351.286 3626.938,1352.286 C3625.038,1352.786 3624.638,1352.486 3624.638,1350.586 C3624.738,1344.986 3624.338,1343.786 3622.638,1343.986 C3621.638,1344.186 3619.738,1343.686 3618.438,1342.986 C3616.538,1341.886 3615.938,1341.886 3615.338,1342.986 C3614.638,1343.986 3613.938,1343.886 3611.838,1342.486 C3610.138,1341.386 3608.438,1340.986 3607.038,1341.486 C3605.838,1341.886 3602.738,1342.286 3600.138,1342.286 C3596.138,1342.386 3595.338,1342.086 3595.338,1340.686 C3595.338,1339.686 3595.738,1338.886 3596.138,1338.886 C3596.538,1338.886 3596.738,1337.386 3596.538,1335.486 C3596.138,1331.786 3593.538,1330.486 3589.638,1331.986 C3587.938,1332.586 3587.338,1332.186 3586.338,1329.986 C3585.538,1327.986 3584.038,1326.786 3581.038,1325.886 C3575.738,1324.186 3574.538,1323.186 3576.838,1322.286 C3578.038,1321.786 3579.038,1322.186 3579.938,1323.286 C3580.638,1324.286 3581.638,1324.786 3582.238,1324.386 C3582.838,1324.086 3583.338,1324.286 3583.338,1324.786 C3583.338,1325.386 3583.838,1325.886 3584.338,1325.886 C3584.938,1325.886 3585.338,1324.886 3585.338,1323.586 C3585.338,1321.986 3586.838,1320.386 3590.638,1317.886 C3596.338,1314.086 3597.438,1312.886 3596.738,1311.686 C3596.438,1311.286 3596.738,1310.886 3597.238,1310.886 C3597.838,1310.886 3598.338,1310.486 3598.338,1310.086 C3598.338,1309.586 3596.638,1309.186 3594.638,1309.086 C3586.738,1308.786 3583.338,1307.886 3583.338,1305.886 C3583.338,1305.386 3585.038,1305.586 3587.138,1306.286 C3589.138,1306.986 3593.138,1307.586 3595.838,1307.586 C3598.638,1307.486 3601.438,1307.786 3602.138,1308.286 C3603.538,1309.186 3613.138,1307.186 3615.038,1305.686 C3615.738,1305.086 3616.138,1303.086 3616.038,1301.086 L3615.838,1297.386 L3619.738,1297.586 C3625.038,1297.986 3626.438,1299.486 3621.338,1299.386 C3619.038,1299.286 3617.238,1299.786 3616.938,1300.486 C3616.638,1301.286 3617.138,1301.586 3618.438,1301.386 C3619.438,1301.186 3620.338,1301.486 3620.338,1301.986 C3620.338,1302.586 3621.238,1302.686 3622.638,1302.286 C3625.938,1301.186 3629.438,1300.686 3633.038,1300.686 C3636.338,1300.786 3638.738,1297.986 3635.538,1297.686 C3629.338,1297.186 3628.238,1297.286 3627.338,1298.786 C3626.838,1299.686 3626.338,1299.886 3626.338,1299.186 C3626.338,1296.786 3630.238,1295.086 3633.938,1295.886 C3635.738,1296.286 3639.238,1296.186 3641.538,1295.686 C3648.738,1293.986 3648.638,1294.086 3646.938,1292.286 C3646.038,1291.386 3644.838,1291.086 3644.138,1291.486 C3643.438,1291.986 3641.738,1292.186 3640.238,1292.086 C3638.838,1291.886 3634.438,1292.486 3630.438,1293.286 C3626.338,1294.186 3622.738,1294.586 3622.238,1294.386 C3621.838,1294.086 3620.438,1294.286 3619.138,1294.786 C3617.838,1295.286 3615.538,1296.086 3613.838,1296.486 C3612.238,1296.786 3611.438,1297.386 3612.138,1297.586 C3614.138,1298.386 3613.438,1299.886 3611.038,1299.886 C3609.838,1299.886 3607.738,1300.586 3606.538,1301.486 C3604.738,1302.686 3604.538,1303.386 3605.338,1304.386 C3606.238,1305.486 3606.038,1305.786 3604.438,1305.586 C3602.938,1305.486 3602.338,1304.786 3602.338,1303.186 C3602.338,1301.886 3602.038,1300.786 3601.638,1300.786 C3598.338,1300.186 3595.838,1299.986 3589.138,1299.386 C3582.338,1298.886 3581.438,1298.986 3581.038,1300.586 C3580.738,1301.786 3580.538,1301.486 3580.438,1299.686 C3580.338,1297.986 3579.638,1296.786 3578.338,1296.386 C3576.138,1295.686 3575.738,1294.286 3577.538,1293.686 C3578.238,1293.386 3579.438,1294.086 3580.338,1295.086 C3581.438,1296.486 3584.038,1297.086 3591.138,1297.786 C3596.238,1298.286 3600.638,1298.886 3601.038,1299.286 C3601.338,1299.586 3602.938,1298.486 3604.538,1296.886 C3606.038,1295.186 3607.838,1293.886 3608.338,1293.886 C3608.938,1293.886 3609.338,1293.386 3609.338,1292.886 C3609.338,1292.286 3610.138,1291.886 3611.138,1291.886 C3612.038,1291.886 3614.038,1291.186 3615.538,1290.486 C3617.138,1289.586 3619.738,1289.186 3621.538,1289.486 C3623.538,1289.886 3626.538,1289.286 3629.138,1288.186 C3632.838,1286.586 3634.738,1286.486 3643.138,1287.186 C3656.138,1288.286 3657.138,1288.586 3656.938,1290.586 C3656.938,1291.586 3656.438,1292.686 3655.838,1293.086 C3655.238,1293.486 3655.638,1293.886 3656.638,1293.886 C3657.638,1293.886 3658.338,1293.186 3658.338,1292.086 C3658.338,1289.986 3661.938,1287.786 3664.838,1288.186 C3666.238,1288.286 3666.938,1287.686 3667.138,1286.086 C3667.338,1284.886 3667.838,1283.886 3668.338,1283.886 C3668.838,1283.886 3670.038,1282.486 3670.838,1280.786 C3672.038,1278.486 3672.138,1277.386 3671.338,1276.386 C3670.438,1275.286 3670.638,1275.186 3672.138,1275.586 C3673.438,1275.886 3674.638,1275.286 3675.738,1273.786 C3676.638,1272.486 3677.338,1271.886 3677.338,1272.386 C3677.438,1272.986 3678.338,1271.486 3679.438,1269.086 C3680.538,1266.686 3682.238,1264.486 3683.138,1264.186 C3685.638,1263.186 3686.938,1261.686 3687.638,1258.786 C3688.038,1257.286 3689.238,1255.886 3690.438,1255.586 C3693.238,1254.886 3692.338,1252.486 3689.238,1252.186 C3687.938,1252.086 3684.138,1251.686 3680.838,1251.286 C3675.138,1250.586 3672.038,1250.486 3666.338,1250.786 C3661.638,1251.086 3657.838,1250.786 3659.138,1250.186 C3659.838,1249.886 3660.938,1248.586 3661.438,1247.186 C3662.338,1244.786 3662.638,1244.786 3668.638,1245.386 C3674.638,1245.986 3685.638,1247.486 3691.838,1248.586 C3693.938,1248.886 3695.638,1248.486 3697.138,1247.186 C3699.938,1244.986 3699.238,1242.186 3696.038,1241.986 C3684.838,1241.686 3672.738,1239.886 3669.238,1238.186 C3664.938,1236.086 3653.138,1236.986 3647.438,1239.786 C3643.538,1241.786 3641.638,1243.786 3644.838,1242.486 C3645.638,1242.186 3647.838,1242.586 3649.738,1243.386 C3651.738,1244.186 3654.638,1244.886 3656.238,1244.886 C3659.338,1244.886 3661.338,1246.686 3659.538,1247.786 C3658.238,1248.586 3656.838,1248.486 3646.338,1247.386 C3642.238,1246.986 3638.238,1246.186 3637.638,1245.686 C3636.938,1245.086 3636.338,1244.986 3636.338,1245.386 C3636.338,1245.786 3635.638,1245.586 3634.838,1244.886 C3633.638,1243.886 3633.338,1243.986 3633.338,1245.286 C3633.338,1246.186 3632.738,1246.886 3632.138,1246.786 C3629.338,1246.486 3628.338,1246.986 3628.338,1248.586 C3628.338,1250.086 3628.138,1250.086 3627.438,1248.986 C3626.838,1247.986 3627.138,1246.986 3628.638,1245.786 C3630.838,1244.086 3630.838,1244.086 3627.138,1243.386 C3624.838,1242.986 3623.138,1241.986 3622.838,1240.886 C3622.238,1239.086 3615.638,1237.586 3614.738,1239.086 C3614.438,1239.486 3613.638,1239.586 3612.838,1239.186 C3612.038,1238.886 3611.338,1239.186 3611.338,1239.886 C3611.338,1240.486 3610.938,1240.786 3610.438,1240.386 C3609.938,1240.086 3609.238,1240.286 3608.838,1240.786 C3608.138,1241.986 3605.438,1241.086 3603.538,1239.186 C3602.438,1238.086 3602.638,1237.886 3604.838,1237.886 C3606.338,1237.886 3607.238,1237.486 3606.838,1236.886 C3606.438,1236.286 3606.438,1233.986 3606.838,1231.786 C3607.838,1226.186 3609.938,1227.286 3609.538,1233.186 C3609.138,1237.686 3609.238,1237.786 3612.038,1237.286 C3613.538,1236.986 3615.038,1236.386 3615.338,1235.986 C3616.038,1234.886 3625.338,1233.886 3625.338,1234.986 C3625.338,1235.386 3624.638,1236.186 3623.738,1236.686 C3621.638,1237.886 3622.938,1240.286 3625.238,1239.286 C3627.338,1238.386 3632.438,1238.686 3633.838,1239.886 C3635.838,1241.586 3647.838,1239.586 3646.738,1237.686 C3646.438,1237.186 3643.838,1236.786 3640.938,1236.886 C3632.838,1237.186 3633.038,1237.186 3633.738,1233.786 C3634.238,1231.386 3634.038,1230.886 3633.038,1231.586 C3631.738,1232.686 3628.338,1232.886 3628.338,1231.986 C3628.338,1231.686 3630.038,1230.586 3632.138,1229.686 C3634.138,1228.786 3638.138,1226.986 3640.838,1225.686 C3643.638,1224.486 3646.338,1222.986 3646.838,1222.286 C3648.438,1220.486 3651.138,1219.886 3651.638,1221.286 C3651.938,1221.886 3651.238,1222.586 3650.238,1222.586 C3647.538,1222.786 3642.638,1226.486 3642.638,1228.286 C3642.638,1229.586 3649.938,1232.286 3651.338,1231.386 C3651.638,1231.186 3654.838,1230.986 3658.338,1230.786 C3661.938,1230.686 3666.238,1230.086 3667.838,1229.486 C3671.338,1228.086 3672.338,1228.086 3674.238,1229.286 C3675.238,1229.886 3675.238,1230.286 3674.338,1230.886 C3671.938,1232.386 3680.038,1234.686 3689.838,1235.286 C3695.338,1235.586 3701.038,1236.086 3702.438,1236.386 C3704.938,1237.086 3706.038,1236.186 3712.638,1229.086 C3715.038,1226.386 3714.438,1223.686 3711.038,1222.186 C3708.138,1220.886 3683.338,1218.886 3666.338,1218.486 C3658.638,1218.286 3655.438,1218.586 3654.438,1219.586 C3653.738,1220.386 3652.838,1220.686 3652.538,1220.386 C3652.138,1220.086 3652.538,1219.386 3653.338,1218.886 C3654.638,1217.986 3654.638,1217.886 3653.338,1217.786 C3647.938,1217.386 3626.538,1218.186 3624.638,1218.986 C3621.038,1220.286 3619.338,1220.086 3619.338,1218.186 C3619.338,1217.286 3619.638,1216.786 3619.938,1217.186 C3620.238,1217.486 3621.338,1216.986 3622.438,1216.086 C3623.538,1215.186 3627.838,1213.786 3632.138,1213.086 C3643.138,1211.386 3643.238,1211.286 3643.938,1210.586 C3644.338,1210.186 3645.238,1210.386 3645.938,1210.986 C3647.538,1212.286 3663.538,1212.786 3667.638,1211.586 C3669.538,1211.086 3670.338,1211.186 3669.838,1211.886 C3669.538,1212.386 3670.038,1212.886 3671.038,1212.986 C3672.038,1212.986 3676.938,1213.286 3681.838,1213.486 C3694.538,1214.086 3711.438,1216.686 3713.238,1218.386 C3715.038,1219.986 3719.738,1219.286 3722.838,1216.886 C3723.938,1216.086 3725.738,1213.686 3726.738,1211.586 C3727.838,1209.486 3729.638,1206.786 3730.738,1205.486 C3731.938,1204.186 3733.638,1201.886 3734.538,1200.286 C3735.438,1198.686 3737.138,1197.286 3738.238,1197.086 C3739.838,1196.786 3740.338,1195.986 3740.338,1193.486 L3740.338,1190.186 L3732.138,1190.086 C3727.538,1190.086 3723.238,1190.586 3722.538,1191.186 C3721.638,1191.886 3720.238,1191.886 3718.038,1191.086 C3713.338,1189.486 3670.038,1190.786 3665.338,1192.686 C3664.538,1192.986 3662.938,1193.386 3661.838,1193.486 C3658.038,1193.786 3655.338,1195.086 3655.338,1196.586 C3655.338,1197.886 3655.038,1197.886 3653.838,1196.886 C3653.038,1196.186 3652.338,1195.986 3652.338,1196.486 C3652.338,1196.886 3651.038,1195.686 3649.338,1193.886 C3647.738,1192.086 3646.338,1190.086 3646.338,1189.486 C3646.338,1188.386 3650.138,1185.486 3651.538,1185.386 C3651.938,1185.386 3652.838,1184.586 3653.538,1183.686 C3655.038,1181.686 3661.038,1179.886 3659.938,1181.786 C3659.538,1182.386 3658.538,1182.886 3657.738,1182.886 C3656.938,1182.886 3656.338,1183.286 3656.338,1183.686 C3656.338,1184.186 3655.238,1185.186 3653.838,1185.886 C3652.538,1186.586 3651.638,1187.686 3652.038,1188.186 C3652.338,1188.786 3652.238,1188.886 3651.638,1188.586 C3651.038,1188.186 3649.938,1188.486 3649.038,1189.186 C3647.638,1190.286 3647.638,1190.586 3648.838,1192.286 C3650.238,1194.186 3650.938,1193.386 3650.438,1190.486 C3650.338,1189.986 3650.938,1189.886 3651.738,1190.186 C3652.538,1190.486 3653.438,1190.086 3653.738,1189.186 C3654.138,1188.286 3654.638,1187.886 3654.938,1188.186 C3655.338,1188.486 3656.438,1187.886 3657.638,1186.786 C3658.738,1185.786 3660.338,1184.886 3661.038,1184.886 C3661.738,1184.886 3662.338,1184.386 3662.338,1183.886 C3662.338,1183.286 3662.738,1182.886 3663.338,1182.886 C3663.838,1182.886 3663.938,1183.686 3663.638,1184.586 C3663.138,1185.886 3663.438,1186.086 3664.738,1185.586 C3665.738,1185.186 3668.038,1184.886 3669.938,1184.886 C3672.138,1184.886 3673.338,1184.386 3673.338,1183.486 C3673.338,1182.686 3675.038,1181.986 3678.138,1181.586 C3680.738,1181.186 3683.938,1180.686 3685.338,1180.386 C3687.738,1179.886 3687.738,1179.886 3685.638,1180.786 C3681.538,1182.586 3683.238,1183.386 3691.138,1183.486 C3704.338,1183.586 3735.638,1185.786 3739.538,1186.886 C3744.638,1188.386 3746.638,1187.086 3750.138,1180.086 C3752.238,1175.886 3754.038,1173.786 3757.138,1172.086 C3759.938,1170.486 3761.338,1168.986 3761.838,1166.886 C3762.138,1165.286 3763.938,1162.786 3765.738,1161.186 C3769.838,1157.786 3771.338,1152.486 3768.638,1151.386 C3767.038,1150.786 3767.138,1150.586 3769.438,1149.386 C3770.938,1148.586 3772.838,1146.386 3773.738,1144.486 C3774.638,1142.586 3775.838,1140.686 3776.338,1140.386 C3776.838,1140.086 3776.938,1137.886 3776.738,1135.486 C3776.238,1131.686 3776.438,1130.986 3778.238,1130.386 C3780.438,1129.686 3780.638,1129.286 3782.438,1120.386 C3783.138,1117.086 3784.038,1113.986 3784.538,1113.486 C3784.938,1112.886 3785.338,1111.186 3785.338,1109.686 C3785.338,1108.186 3785.838,1106.886 3786.438,1106.886 C3787.238,1106.886 3787.438,1105.386 3787.138,1102.386 C3786.638,1098.186 3787.038,1097.386 3789.638,1097.786 C3790.038,1097.786 3790.338,1097.186 3790.338,1096.386 C3790.338,1095.586 3789.938,1094.886 3789.338,1094.886 C3788.738,1094.886 3789.038,1093.186 3789.938,1090.986 C3790.738,1088.886 3791.338,1086.486 3791.238,1085.786 C3791.138,1084.986 3791.338,1083.686 3791.638,1082.886 C3794.738,1075.586 3798.238,1061.986 3798.738,1055.386 C3799.038,1050.986 3799.938,1045.386 3800.738,1042.886 C3803.938,1033.086 3805.338,1027.586 3805.338,1025.286 C3805.338,1024.086 3805.738,1022.786 3806.238,1022.486 C3807.938,1021.386 3809.638,1006.886 3809.138,997.086 C3808.738,989.486 3808.238,986.486 3806.738,984.286 C3805.638,982.686 3803.938,978.886 3802.938,975.886 C3801.138,970.686 3797.738,963.986 3796.238,962.886 C3795.938,962.586 3795.438,959.886 3795.138,956.786 C3794.938,953.686 3793.738,949.286 3792.538,947.086 C3791.338,944.786 3790.638,942.286 3790.938,941.586 C3791.138,940.886 3788.838,937.686 3785.638,934.486 C3781.338,930.186 3779.238,928.886 3777.638,929.186 C3776.438,929.386 3775.638,929.286 3775.838,928.886 C3776.338,928.086 3772.738,924.586 3769.838,923.086 C3768.738,922.486 3767.738,920.986 3767.638,919.786 C3767.438,917.086 3764.838,914.886 3762.138,914.886 C3760.638,914.886 3760.438,915.286 3761.238,916.786 C3762.638,919.286 3761.238,919.786 3754.538,919.086 C3749.638,918.686 3749.338,918.486 3750.838,916.886 C3751.638,915.986 3752.338,914.386 3752.338,913.286 C3752.238,909.086 3747.238,905.986 3745.938,909.386 C3745.038,911.986 3740.638,911.286 3739.938,908.386 C3739.138,905.386 3735.638,903.186 3734.038,904.786 C3733.438,905.386 3731.738,905.886 3730.338,905.886 C3728.838,905.886 3726.738,906.986 3725.338,908.386 C3723.738,910.086 3722.638,910.586 3721.838,909.886 C3721.138,909.286 3718.838,908.686 3716.638,908.486 C3714.438,908.286 3712.138,907.886 3711.438,907.486 C3710.838,907.086 3710.038,907.486 3709.638,908.586 C3709.238,909.486 3707.938,911.286 3706.738,912.386 C3705.038,913.986 3704.738,914.886 3705.538,916.186 C3706.338,917.686 3706.138,917.886 3704.138,917.386 C3701.238,916.686 3698.838,918.186 3699.638,920.286 C3700.038,921.186 3700.638,921.886 3701.038,921.786 C3703.738,921.286 3704.438,921.986 3702.738,923.586 C3701.338,925.086 3700.938,925.086 3699.938,923.786 C3698.638,922.086 3693.638,921.686 3691.138,922.986 C3690.238,923.486 3685.538,924.286 3680.738,924.786 C3676.038,925.286 3671.838,926.086 3671.438,926.486 C3670.538,927.886 3664.738,930.886 3663.138,930.886 C3661.238,930.886 3654.338,936.786 3654.338,938.486 C3654.338,939.286 3653.638,939.886 3652.738,939.886 C3651.738,939.886 3651.438,939.286 3651.738,938.086 C3652.238,936.486 3651.838,936.386 3648.638,936.686 C3643.038,937.186 3638.838,939.486 3637.438,942.586 C3636.238,945.286 3636.138,945.286 3634.738,943.386 C3633.538,941.786 3633.338,941.686 3633.338,943.186 C3633.338,944.086 3633.838,944.886 3634.338,944.886 C3634.938,944.886 3635.338,945.386 3635.338,945.986 C3635.338,948.086 3638.438,950.086 3640.838,949.586 C3643.738,949.086 3643.938,949.586 3641.638,951.586 C3640.638,952.386 3640.338,952.786 3640.938,952.486 C3641.638,952.186 3642.338,953.186 3642.738,954.986 C3643.838,960.386 3643.438,963.586 3641.738,964.286 C3639.338,965.186 3638.838,964.286 3640.238,961.286 C3641.238,959.086 3641.138,958.286 3639.838,956.886 C3637.938,954.786 3634.538,953.686 3633.838,954.886 C3633.538,955.386 3633.738,955.986 3634.238,956.386 C3635.438,957.086 3634.538,959.886 3633.138,959.886 C3632.538,959.886 3632.338,959.186 3632.638,958.486 C3633.038,957.386 3632.738,957.186 3631.638,957.586 C3630.638,957.986 3630.238,957.786 3630.638,957.186 C3631.038,956.486 3630.038,956.086 3628.038,956.086 C3626.338,955.986 3623.338,955.686 3621.438,955.286 C3618.438,954.686 3618.138,954.886 3618.638,956.286 C3619.038,957.286 3619.338,958.686 3619.338,959.486 C3619.338,960.186 3620.938,961.486 3622.838,962.286 C3626.638,963.886 3627.238,966.086 3624.938,969.186 C3624.038,970.386 3623.338,970.586 3622.838,969.986 C3622.238,968.886 3618.338,969.186 3616.438,970.286 C3615.938,970.586 3615.338,970.186 3614.938,969.386 C3614.638,968.586 3614.838,967.686 3615.338,967.386 C3616.538,966.686 3616.738,962.786 3615.638,963.086 C3615.138,963.186 3613.838,962.786 3612.738,962.086 C3609.638,960.386 3607.938,962.786 3608.638,967.486 C3609.538,973.186 3608.038,975.886 3603.838,975.886 C3601.938,975.886 3600.338,976.286 3600.338,976.686 C3600.338,977.186 3599.338,977.486 3598.238,977.486 C3596.738,977.386 3595.538,978.386 3594.438,980.586 C3593.538,982.386 3592.338,983.886 3591.738,983.886 C3591.138,983.886 3589.638,984.786 3588.338,985.886 C3587.038,986.986 3585.038,988.186 3583.938,988.486 C3582.038,988.986 3579.038,992.786 3577.138,997.186 C3576.738,998.086 3575.238,999.386 3573.938,999.886 C3571.738,1000.686 3569.338,1003.586 3569.338,1005.286 C3569.338,1006.686 3573.338,1005.786 3574.138,1004.186 C3575.038,1002.686 3575.238,1002.686 3576.938,1004.386 C3578.038,1005.486 3578.838,1005.786 3579.138,1004.986 C3579.638,1003.586 3582.038,1003.586 3582.938,1004.986 C3583.238,1005.586 3582.438,1007.086 3580.938,1008.386 C3579.038,1010.086 3578.638,1010.786 3579.638,1011.186 C3580.438,1011.486 3581.338,1013.186 3581.738,1014.886 C3582.138,1017.186 3582.738,1017.986 3583.838,1017.486 C3586.938,1016.386 3582.938,1020.986 3579.338,1022.686 C3576.138,1024.186 3576.038,1024.386 3578.138,1024.886 L3580.438,1025.386 L3578.338,1027.086 C3577.238,1028.086 3576.138,1028.886 3575.838,1028.886 C3575.538,1028.886 3575.638,1026.286 3576.238,1022.586 C3576.238,1022.186 3577.038,1021.886 3577.938,1021.886 C3578.938,1021.886 3579.338,1021.286 3578.938,1020.386 C3578.638,1019.586 3578.838,1018.886 3579.338,1018.886 C3579.838,1018.886 3579.438,1017.586 3578.538,1015.886 C3576.938,1013.086 3576.738,1013.086 3574.538,1014.486 C3573.238,1015.286 3571.638,1015.786 3571.038,1015.486 C3570.338,1015.186 3570.438,1014.986 3571.338,1014.986 C3573.338,1014.886 3573.638,1011.386 3571.738,1009.786 C3570.938,1009.186 3568.738,1008.486 3566.738,1008.386 C3563.838,1008.186 3562.438,1008.886 3558.738,1012.386 C3554.738,1015.986 3554.438,1016.686 3555.738,1017.786 C3556.638,1018.486 3558.038,1018.886 3558.838,1018.486 C3559.638,1018.186 3560.338,1018.386 3560.338,1018.886 C3560.338,1019.486 3557.938,1019.886 3554.938,1019.886 C3549.438,1019.886 3548.338,1020.686 3548.338,1024.686 C3548.338,1026.086 3548.538,1026.086 3549.238,1024.986 C3550.238,1023.386 3552.338,1024.386 3552.338,1026.486 C3552.338,1028.786 3549.738,1030.986 3547.838,1030.286 C3546.938,1029.886 3546.438,1028.986 3546.738,1028.286 C3547.638,1025.986 3546.338,1026.686 3543.638,1029.886 C3542.338,1031.586 3540.838,1032.686 3540.438,1032.386 C3539.638,1031.986 3533.638,1037.586 3533.138,1039.386 C3532.938,1039.886 3530.938,1042.086 3528.638,1044.186 C3526.338,1046.286 3523.638,1049.686 3522.538,1051.786 C3521.438,1053.786 3518.738,1057.386 3516.538,1059.686 C3513.138,1063.186 3512.338,1064.786 3511.738,1069.686 C3511.238,1072.786 3510.738,1074.386 3510.538,1073.186 C3510.038,1069.986 3507.638,1069.686 3505.438,1072.386 C3504.438,1073.786 3503.138,1074.886 3502.638,1074.886 C3501.238,1074.886 3499.238,1079.086 3499.438,1081.386 C3499.538,1082.486 3499.538,1084.186 3499.538,1085.286 C3499.338,1086.886 3499.138,1086.886 3497.738,1085.786 C3496.438,1084.686 3495.838,1084.986 3493.738,1087.486 C3492.338,1089.086 3489.938,1092.786 3488.238,1095.586 C3486.538,1098.486 3483.838,1101.886 3482.138,1102.986 C3478.538,1105.586 3476.838,1109.586 3478.438,1111.486 C3479.638,1112.986 3479.238,1113.186 3475.838,1112.986 C3473.138,1112.886 3471.338,1114.486 3467.438,1120.786 C3464.338,1125.486 3464.138,1126.486 3465.038,1128.986 C3465.938,1131.286 3465.938,1131.886 3464.738,1131.986 C3463.938,1132.086 3462.738,1132.186 3462.138,1132.286 C3461.438,1132.386 3460.938,1133.386 3461.038,1134.686 C3461.238,1135.986 3460.538,1137.286 3459.338,1137.886 C3456.738,1139.286 3456.738,1141.286 3459.338,1140.586 C3460.438,1140.286 3461.538,1140.486 3461.838,1140.986 C3462.138,1141.386 3463.038,1141.586 3463.838,1141.186 C3464.938,1140.786 3465.338,1141.386 3465.338,1143.286 C3465.338,1145.086 3464.838,1145.886 3463.638,1145.886 C3462.638,1145.886 3460.938,1147.086 3459.738,1148.586 C3458.438,1150.186 3457.138,1150.986 3456.638,1150.486 C3456.238,1149.986 3456.438,1149.386 3457.038,1149.186 C3458.038,1148.786 3457.938,1148.386 3456.938,1147.286 C3454.638,1145.086 3454.438,1145.586 3455.038,1150.686 C3455.538,1155.386 3455.438,1155.586 3450.438,1161.086 C3447.138,1164.686 3445.338,1167.486 3445.438,1168.986 C3445.438,1170.286 3445.738,1170.886 3445.938,1170.186 C3446.238,1169.486 3447.138,1169.286 3447.938,1169.586 C3448.738,1169.886 3449.338,1169.486 3449.338,1168.886 C3449.338,1168.186 3451.738,1165.286 3454.638,1162.386 C3468.038,1149.086 3480.338,1135.486 3480.338,1133.786 C3480.338,1132.786 3480.838,1130.786 3481.538,1129.386 C3482.538,1127.186 3483.238,1126.786 3485.338,1127.186 C3487.338,1127.586 3488.138,1127.286 3488.838,1125.586 C3489.438,1124.386 3490.738,1122.986 3491.838,1122.486 C3492.938,1121.986 3495.038,1120.086 3496.338,1118.286 C3497.738,1116.586 3499.038,1115.186 3499.238,1115.486 C3500.438,1116.686 3506.438,1111.886 3512.338,1104.886 C3515.638,1100.986 3515.638,1100.986 3514.438,1098.986 C3513.738,1097.886 3512.938,1098.086 3510.438,1099.986 C3508.738,1101.286 3507.538,1102.886 3507.738,1103.486 C3508.038,1104.186 3507.538,1104.986 3506.838,1105.286 C3506.038,1105.586 3505.638,1106.486 3505.938,1107.386 C3506.238,1108.186 3506.038,1108.886 3505.438,1108.886 C3504.738,1108.886 3504.038,1108.186 3503.738,1107.386 C3502.938,1105.386 3499.338,1107.686 3500.038,1109.786 C3500.338,1110.686 3499.438,1109.986 3497.938,1108.386 C3496.538,1106.686 3495.438,1105.086 3495.338,1104.686 C3495.338,1104.286 3497.138,1103.586 3499.438,1103.286 C3502.538,1102.786 3504.238,1101.686 3506.538,1098.786 C3508.138,1096.786 3510.138,1095.286 3510.838,1095.486 C3512.138,1095.986 3515.638,1091.386 3515.638,1089.086 C3515.638,1088.386 3516.238,1087.986 3516.938,1088.286 C3517.638,1088.586 3518.038,1088.286 3517.738,1087.586 C3517.538,1086.886 3518.438,1085.086 3519.838,1083.486 C3521.138,1081.886 3522.038,1080.286 3521.738,1079.786 C3521.438,1079.286 3521.938,1079.186 3522.738,1079.486 C3523.838,1079.886 3524.338,1079.486 3524.338,1078.486 C3524.338,1076.386 3527.238,1076.386 3528.038,1078.486 C3528.438,1079.486 3526.738,1081.786 3522.738,1085.486 C3516.638,1091.286 3515.438,1093.586 3518.138,1094.586 C3519.038,1094.986 3520.138,1095.686 3520.538,1096.286 C3521.738,1098.086 3524.238,1094.886 3524.538,1091.086 L3524.838,1087.386 L3527.238,1090.086 C3529.538,1092.686 3529.638,1092.686 3531.638,1090.886 C3532.738,1089.786 3533.938,1089.186 3534.338,1089.386 C3534.738,1089.686 3535.638,1089.186 3536.338,1088.386 C3536.938,1087.586 3539.638,1085.786 3542.138,1084.286 C3544.738,1082.786 3547.138,1080.986 3547.638,1080.286 C3548.938,1078.086 3551.438,1075.886 3552.638,1075.886 C3553.438,1075.886 3553.438,1076.186 3552.538,1076.786 C3551.438,1077.386 3551.638,1077.786 3553.238,1078.186 C3555.438,1078.686 3565.838,1073.086 3568.138,1070.086 C3568.838,1069.186 3570.238,1068.386 3571.138,1068.386 C3572.638,1068.386 3579.038,1064.286 3583.138,1060.786 C3583.838,1060.186 3585.938,1059.286 3587.738,1058.786 C3589.638,1058.286 3592.338,1056.886 3593.838,1055.686 C3595.938,1054.086 3597.738,1053.586 3600.838,1053.786 C3604.438,1053.986 3605.638,1053.586 3608.338,1050.886 C3610.638,1048.586 3611.838,1047.986 3612.638,1048.786 C3613.238,1049.386 3615.238,1049.886 3617.038,1049.886 C3619.738,1049.886 3620.438,1049.486 3620.938,1047.086 C3621.938,1042.486 3622.238,1041.886 3623.438,1041.886 C3624.138,1041.886 3624.338,1042.186 3624.038,1042.486 C3623.738,1042.886 3623.838,1044.086 3624.438,1045.086 C3625.538,1047.186 3625.638,1047.186 3634.438,1045.086 C3637.638,1044.286 3637.938,1044.386 3637.838,1046.286 C3637.738,1047.586 3636.938,1048.386 3635.738,1048.386 C3633.438,1048.386 3631.338,1049.586 3631.338,1050.986 C3631.338,1051.586 3632.238,1051.686 3633.538,1051.286 C3635.538,1050.686 3635.638,1050.786 3634.438,1052.286 C3632.838,1054.186 3630.638,1054.386 3630.138,1052.786 C3629.938,1052.086 3628.438,1051.486 3626.938,1051.286 C3624.838,1051.086 3624.038,1051.486 3623.638,1052.886 C3623.038,1055.186 3620.738,1055.786 3617.338,1054.686 C3615.738,1054.086 3614.738,1054.086 3614.538,1054.786 C3614.338,1055.386 3613.338,1055.886 3612.238,1055.886 C3611.238,1055.886 3610.338,1056.286 3610.338,1056.686 C3610.338,1057.886 3604.938,1060.686 3603.538,1060.186 C3602.738,1059.886 3600.138,1060.186 3597.738,1060.886 C3592.538,1062.386 3589.938,1065.286 3591.338,1067.986 C3592.138,1069.386 3591.638,1070.086 3588.838,1071.786 C3585.338,1073.886 3583.738,1077.286 3584.638,1080.986 C3584.938,1082.186 3584.638,1083.186 3583.738,1083.586 C3582.038,1084.186 3582.738,1089.486 3584.738,1091.886 C3586.338,1093.686 3585.738,1095.886 3583.738,1095.886 C3582.938,1095.886 3582.338,1096.386 3582.338,1096.986 C3582.338,1098.286 3585.638,1097.386 3589.838,1094.986 C3591.538,1093.986 3594.738,1092.886 3597.038,1092.586 C3600.538,1091.986 3606.538,1089.386 3612.338,1085.886 C3614.038,1084.886 3616.538,1084.086 3617.438,1084.286 C3617.838,1084.286 3618.938,1083.586 3619.938,1082.686 C3621.838,1080.986 3622.138,1080.886 3624.838,1080.886 C3625.638,1080.886 3626.338,1080.286 3626.338,1079.586 C3626.338,1078.986 3627.338,1078.286 3628.638,1078.286 C3629.838,1078.186 3633.338,1077.186 3636.338,1075.986 C3639.338,1074.686 3643.438,1073.286 3645.338,1072.686 C3647.238,1072.186 3649.238,1071.286 3649.838,1070.786 C3650.338,1070.286 3652.038,1069.886 3653.538,1069.886 C3655.138,1069.886 3657.738,1069.186 3659.238,1068.386 C3660.838,1067.586 3664.138,1066.786 3666.738,1066.586 C3669.338,1066.386 3671.638,1065.886 3672.038,1065.486 C3672.338,1065.186 3673.438,1064.886 3674.338,1064.886 C3675.338,1064.886 3676.638,1064.286 3677.238,1063.486 C3678.638,1061.886 3689.938,1061.386 3694.938,1062.786 L3697.838,1063.486 L3694.338,1066.786 C3691.338,1069.586 3685.738,1072.886 3683.838,1072.886 C3683.538,1072.886 3683.338,1072.386 3683.338,1071.686 C3683.338,1071.086 3683.638,1070.786 3683.938,1071.086 C3684.238,1071.486 3685.338,1070.886 3686.338,1069.886 C3687.238,1068.986 3688.638,1067.986 3689.438,1067.686 C3691.638,1066.986 3689.338,1064.686 3686.938,1065.286 C3685.838,1065.686 3681.238,1066.586 3676.838,1067.386 C3662.738,1069.986 3660.338,1070.886 3660.338,1074.086 C3660.338,1075.586 3660.838,1077.086 3661.338,1077.386 C3661.938,1077.686 3662.338,1079.886 3662.338,1082.186 C3662.238,1085.886 3662.138,1086.186 3660.938,1084.586 C3660.238,1083.686 3658.938,1082.886 3658.038,1082.886 C3655.538,1082.886 3653.338,1083.986 3653.938,1084.986 C3654.238,1085.486 3653.838,1085.886 3652.938,1085.886 C3652.138,1085.886 3651.338,1086.186 3651.138,1086.586 C3651.038,1087.086 3648.838,1088.686 3646.338,1090.386 C3643.838,1091.986 3640.838,1094.386 3639.638,1095.486 C3638.438,1096.686 3635.238,1099.086 3632.438,1100.886 C3629.638,1102.686 3627.138,1104.986 3626.838,1106.086 C3626.438,1107.086 3625.438,1107.886 3624.438,1107.886 C3623.438,1107.886 3621.738,1108.886 3620.538,1110.086 C3617.738,1113.086 3616.338,1114.186 3613.138,1115.586 C3611.538,1116.286 3610.338,1117.486 3610.338,1118.286 C3610.338,1119.086 3609.738,1120.386 3608.938,1121.086 C3606.338,1123.586 3599.838,1128.986 3593.838,1133.586 C3587.138,1138.886 3586.338,1139.786 3586.438,1141.886 C3586.538,1142.986 3586.738,1142.886 3587.038,1141.586 C3587.438,1139.886 3591.338,1139.086 3591.338,1140.686 C3591.338,1141.786 3586.738,1143.886 3584.438,1143.886 C3583.338,1143.886 3582.338,1144.586 3581.938,1145.386 C3581.638,1146.186 3580.638,1146.886 3579.838,1146.886 C3578.938,1146.886 3578.538,1147.386 3578.838,1147.986 C3579.238,1148.586 3578.638,1149.286 3577.438,1149.586 C3576.338,1149.886 3575.538,1150.386 3575.738,1150.786 C3576.038,1151.186 3575.338,1151.586 3574.238,1151.586 C3571.938,1151.786 3571.938,1151.086 3573.838,1148.486 C3574.638,1147.386 3575.038,1145.586 3574.738,1144.386 C3574.338,1142.886 3574.838,1141.586 3575.838,1140.786 C3576.738,1139.986 3579.838,1137.286 3582.738,1134.786 C3585.538,1132.186 3589.138,1129.086 3590.738,1127.786 C3592.338,1126.486 3595.138,1123.886 3596.938,1122.086 C3598.738,1120.386 3600.638,1118.886 3601.138,1118.886 C3602.638,1118.886 3605.438,1115.286 3604.638,1114.386 C3604.138,1113.986 3604.438,1113.886 3605.138,1114.286 C3606.638,1115.186 3610.438,1112.886 3614.538,1108.686 C3617.538,1105.686 3618.338,1103.786 3615.838,1105.886 C3615.038,1106.586 3614.338,1106.686 3614.338,1106.286 C3614.338,1105.786 3616.438,1104.186 3619.138,1102.886 C3621.738,1101.486 3624.038,1100.086 3624.138,1099.586 C3624.338,1099.186 3626.038,1098.186 3627.938,1097.386 C3630.238,1096.486 3631.338,1095.286 3631.338,1093.986 C3631.338,1090.286 3623.838,1091.686 3618.438,1096.286 L3616.038,1098.386 L3616.638,1095.086 C3617.338,1091.486 3616.138,1090.886 3612.638,1093.386 C3611.538,1094.186 3608.738,1095.086 3606.438,1095.486 C3604.138,1095.886 3602.038,1096.486 3601.738,1096.986 C3601.538,1097.386 3598.538,1098.986 3595.338,1100.486 C3592.038,1101.986 3589.338,1103.486 3589.338,1103.786 C3589.338,1104.186 3587.338,1105.486 3584.838,1106.886 C3582.338,1108.286 3580.338,1109.686 3580.338,1110.186 C3580.338,1110.586 3579.938,1110.686 3579.338,1110.386 C3578.838,1110.086 3578.338,1110.286 3578.338,1110.786 C3578.338,1111.386 3577.738,1111.886 3576.938,1111.886 C3576.138,1111.886 3574.738,1112.786 3573.938,1113.986 C3573.138,1115.186 3572.038,1115.886 3571.538,1115.486 C3571.038,1115.186 3569.438,1116.286 3568.038,1117.986 C3566.438,1119.886 3565.038,1120.786 3564.238,1120.286 C3563.438,1119.886 3563.238,1119.986 3563.738,1120.686 C3564.138,1121.486 3563.438,1122.286 3561.938,1122.886 C3560.538,1123.386 3559.338,1124.286 3559.338,1124.886 C3559.338,1125.486 3558.938,1125.786 3558.538,1125.486 C3558.138,1125.286 3557.738,1125.886 3557.738,1126.986 C3557.738,1127.986 3557.838,1128.886 3557.938,1128.886 C3558.038,1128.886 3561.038,1127.286 3564.538,1125.386 C3567.938,1123.486 3572.838,1120.886 3575.338,1119.686 C3577.838,1118.386 3580.038,1117.086 3580.338,1116.686 C3581.338,1115.386 3590.538,1111.886 3591.438,1112.486 C3592.738,1113.286 3584.438,1118.786 3572.738,1124.986 C3567.238,1127.786 3562.138,1130.686 3561.338,1131.386 C3560.538,1132.086 3558.238,1133.486 3556.338,1134.386 C3554.438,1135.386 3552.638,1136.486 3552.338,1136.886 C3552.038,1137.286 3549.638,1138.586 3546.938,1139.986 C3544.238,1141.286 3540.938,1143.886 3539.538,1145.586 C3538.238,1147.386 3536.338,1148.886 3535.338,1148.886 C3534.338,1148.886 3533.338,1149.286 3533.138,1149.686 C3532.738,1150.786 3525.838,1154.886 3524.438,1154.886 C3523.838,1154.886 3523.338,1154.186 3523.338,1153.386 C3523.338,1152.486 3523.938,1152.186 3525.038,1152.586 C3526.338,1153.086 3526.538,1152.786 3526.138,1151.086 C3525.538,1148.986 3526.738,1147.386 3528.838,1147.386 C3529.438,1147.386 3529.938,1146.786 3529.938,1146.086 C3530.338,1142.386 3530.338,1142.386 3531.238,1143.786 C3531.938,1144.886 3532.238,1144.686 3532.838,1142.986 C3533.138,1141.786 3533.838,1141.086 3534.338,1141.386 C3535.338,1141.986 3537.838,1137.986 3536.938,1137.086 C3536.638,1136.786 3536.338,1137.186 3536.338,1137.986 C3536.338,1139.186 3536.138,1139.186 3535.438,1137.986 C3534.438,1136.386 3532.338,1137.386 3532.338,1139.486 C3532.338,1140.286 3531.938,1140.886 3531.538,1140.886 C3530.038,1140.886 3521.338,1149.786 3521.338,1151.386 C3521.338,1152.186 3520.938,1152.886 3520.338,1152.886 C3519.038,1152.886 3514.338,1156.986 3514.338,1158.186 C3514.338,1158.686 3512.338,1161.086 3509.738,1163.486 C3507.238,1165.886 3505.538,1168.386 3505.838,1168.886 C3506.338,1169.786 3505.138,1170.286 3503.138,1169.986 C3502.738,1169.986 3502.138,1170.786 3501.838,1171.886 C3501.438,1173.086 3500.338,1173.886 3498.938,1173.886 C3496.138,1173.886 3493.938,1176.286 3494.738,1178.386 C3495.038,1179.386 3494.638,1180.186 3493.638,1180.586 C3492.738,1180.986 3491.738,1180.686 3491.538,1180.086 C3490.938,1178.286 3489.538,1178.586 3485.738,1181.486 C3483.538,1183.286 3482.338,1184.986 3482.338,1186.586 C3482.338,1188.186 3481.638,1189.286 3480.338,1189.586 C3479.238,1189.886 3478.338,1190.886 3478.338,1191.886 C3478.338,1194.686 3472.838,1201.386 3468.838,1203.486 C3466.838,1204.486 3464.338,1205.786 3463.238,1206.386 C3460.638,1207.686 3460.438,1215.886 3463.038,1215.886 C3465.738,1215.886 3463.938,1216.886 3460.438,1217.286 C3457.638,1217.586 3454.438,1220.086 3454.338,1222.086 C3454.338,1222.486 3453.038,1222.686 3451.538,1222.586 C3449.238,1222.386 3448.738,1221.986 3449.138,1220.386 C3449.838,1217.786 3453.638,1211.686 3455.738,1209.986 C3456.638,1209.286 3457.338,1207.486 3457.338,1206.186 C3457.338,1204.486 3458.838,1202.286 3461.838,1199.486 C3465.638,1195.986 3466.338,1194.686 3466.938,1190.186 C3467.438,1185.886 3467.338,1184.786 3465.938,1184.286 C3465.038,1183.986 3464.338,1183.286 3464.338,1182.686 C3464.338,1182.186 3464.738,1181.986 3465.238,1182.286 C3465.638,1182.586 3465.838,1181.786 3465.638,1180.486 C3465.238,1178.786 3465.738,1177.786 3467.238,1176.986 C3468.438,1176.286 3469.338,1175.186 3469.338,1174.286 C3469.338,1173.486 3470.438,1171.086 3471.838,1168.886 C3473.238,1166.686 3474.138,1164.886 3473.838,1164.886 C3473.538,1164.886 3475.038,1163.286 3477.138,1161.386 C3481.138,1157.786 3486.238,1149.486 3485.138,1148.386 C3484.638,1147.786 3480.038,1152.186 3467.538,1165.386 C3464.638,1168.386 3461.838,1172.086 3461.338,1173.386 C3460.838,1174.786 3459.738,1175.886 3459.038,1175.886 C3457.338,1175.886 3453.738,1179.786 3452.938,1182.586 C3452.538,1183.786 3450.938,1185.986 3449.438,1187.586 C3447.838,1189.086 3446.338,1191.286 3446.238,1192.286 C3445.838,1194.186 3444.438,1195.286 3441.138,1196.286 C3439.938,1196.686 3439.338,1197.886 3439.338,1199.886 C3439.338,1202.486 3439.738,1202.886 3441.938,1202.886 C3443.638,1202.886 3444.738,1202.286 3445.038,1200.886 C3445.338,1199.786 3445.938,1198.886 3446.438,1198.886 C3446.938,1198.886 3447.138,1197.786 3446.738,1196.386 C3446.238,1194.286 3446.538,1193.886 3449.038,1193.386 C3450.538,1193.086 3453.538,1191.886 3455.638,1190.786 C3461.438,1187.686 3460.438,1190.786 3453.338,1197.886 C3450.038,1201.186 3447.338,1204.086 3447.338,1204.486 C3447.338,1204.786 3446.138,1206.386 3444.638,1207.886 C3443.038,1209.386 3440.738,1212.086 3439.438,1213.886 C3437.538,1216.386 3436.538,1216.886 3434.638,1216.386 C3432.838,1215.986 3432.238,1216.186 3432.638,1217.086 C3432.838,1217.786 3433.638,1218.286 3434.238,1218.186 C3434.838,1217.986 3435.338,1218.286 3435.338,1218.786 C3435.338,1219.286 3434.338,1219.886 3433.138,1220.086 C3431.838,1220.286 3430.738,1221.186 3430.538,1222.386 C3430.338,1223.486 3429.438,1225.186 3428.538,1226.186 C3427.138,1227.686 3426.838,1227.786 3425.338,1226.386 C3424.438,1225.586 3423.338,1225.186 3423.038,1225.586 C3422.038,1226.586 3422.238,1228.086 3423.238,1227.486 C3425.638,1225.986 3424.538,1230.086 3420.038,1238.886 C3415.638,1247.686 3415.138,1249.186 3415.038,1256.186 C3414.838,1262.386 3414.538,1263.886 3413.238,1263.886 C3412.438,1263.886 3411.238,1264.386 3410.638,1264.986 C3409.938,1265.686 3408.738,1265.786 3407.638,1265.386 C3406.638,1264.886 3405.438,1264.486 3404.838,1264.486 C3404.338,1264.386 3403.838,1263.686 3403.838,1262.886 C3403.838,1262.086 3403.338,1259.686 3402.638,1257.486 C3400.938,1252.386 3401.038,1248.686 3402.838,1246.286 C3403.638,1245.286 3404.338,1242.786 3404.338,1240.786 C3404.338,1238.786 3405.038,1236.586 3405.838,1235.886 C3407.138,1234.786 3408.038,1230.886 3406.938,1230.886 C3406.738,1230.886 3405.838,1230.586 3404.938,1230.286 C3403.938,1229.886 3402.838,1230.886 3401.338,1233.586 C3400.238,1235.686 3398.338,1238.886 3397.238,1240.686 C3396.038,1242.486 3394.938,1245.986 3394.738,1248.486 C3394.438,1251.086 3393.738,1254.086 3393.038,1255.286 C3392.438,1256.386 3391.838,1257.786 3391.838,1258.386 C3391.838,1258.886 3390.438,1262.186 3388.838,1265.586 C3386.138,1271.286 3385.438,1271.986 3381.138,1273.586 C3376.738,1275.186 3376.338,1275.486 3376.338,1278.686 C3376.338,1281.086 3375.438,1282.886 3373.138,1285.186 C3370.738,1287.586 3369.938,1287.986 3369.538,1286.886 C3369.338,1286.086 3368.438,1284.786 3367.538,1284.186 C3366.238,1283.086 3366.138,1282.186 3367.038,1278.186 C3367.638,1275.686 3367.838,1272.686 3367.438,1271.686 C3366.838,1269.886 3366.738,1269.886 3364.638,1271.786 C3363.338,1273.086 3361.738,1273.586 3360.338,1273.186 C3357.938,1272.586 3357.938,1273.486 3359.838,1259.886 C3360.838,1253.086 3361.238,1252.086 3362.338,1253.886 C3363.138,1255.186 3363.338,1255.086 3363.338,1253.586 C3363.338,1252.686 3362.738,1251.886 3361.938,1251.886 C3361.138,1251.886 3360.138,1251.386 3359.738,1250.786 C3359.338,1250.086 3359.938,1249.886 3361.438,1250.086 C3363.538,1250.386 3363.938,1249.886 3364.638,1245.886 C3366.238,1237.186 3366.038,1228.586 3364.138,1226.686 C3363.138,1225.686 3362.338,1225.186 3362.338,1225.486 C3362.338,1225.886 3361.638,1225.586 3360.838,1224.886 C3358.838,1223.286 3358.938,1220.486 3360.938,1218.386 C3362.838,1216.486 3363.638,1207.386 3361.738,1208.986 C3361.138,1209.486 3359.938,1209.686 3359.038,1209.386 C3357.838,1208.886 3357.338,1209.986 3356.538,1214.586 C3355.538,1220.386 3355.838,1222.786 3357.638,1224.086 C3358.238,1224.386 3358.738,1227.986 3358.938,1232.086 C3359.138,1236.086 3359.538,1240.386 3359.938,1241.586 C3360.338,1243.186 3360.038,1243.886 3358.338,1244.386 C3357.138,1244.786 3355.638,1244.586 3355.038,1243.986 C3352.038,1240.986 3349.038,1244.786 3347.638,1253.586 C3347.238,1256.386 3347.438,1256.886 3349.138,1256.886 C3350.638,1256.886 3351.638,1255.786 3352.438,1253.386 C3353.938,1249.386 3356.038,1248.786 3356.938,1252.286 C3357.938,1256.386 3357.038,1260.386 3354.938,1260.686 C3353.938,1260.886 3352.738,1260.486 3352.338,1259.786 C3351.638,1258.786 3350.438,1258.786 3345.938,1259.886 C3340.638,1261.086 3340.338,1261.386 3339.738,1264.786 C3338.538,1271.286 3335.238,1279.386 3332.838,1281.586 C3330.838,1283.386 3330.538,1284.186 3331.338,1286.786 C3332.338,1290.386 3330.638,1294.886 3328.238,1294.886 C3327.338,1294.886 3325.138,1294.386 3323.438,1293.786 C3321.038,1292.886 3320.538,1292.386 3321.538,1291.786 C3322.238,1291.286 3322.338,1290.886 3321.738,1290.886 C3320.338,1290.886 3321.238,1284.986 3323.138,1282.086 C3324.238,1280.386 3324.338,1279.486 3323.538,1278.986 C3322.838,1278.586 3322.738,1277.786 3323.338,1276.886 C3323.938,1276.086 3324.338,1271.986 3324.338,1267.786 C3324.338,1259.486 3326.138,1248.886 3327.438,1248.886 C3327.938,1248.886 3328.338,1247.486 3328.338,1245.886 C3328.338,1244.186 3328.838,1242.886 3329.338,1242.886 C3330.038,1242.886 3330.038,1242.186 3329.238,1240.786 C3327.138,1236.886 3329.838,1225.786 3332.438,1227.486 C3332.938,1227.786 3333.338,1227.086 3333.338,1225.886 C3333.338,1223.286 3330.838,1222.286 3327.938,1223.786 C3325.838,1224.986 3318.638,1236.686 3317.238,1241.386 C3316.038,1245.286 3311.338,1254.786 3310.238,1255.386 C3309.738,1255.786 3308.438,1255.386 3307.538,1254.586 C3306.638,1253.786 3304.338,1252.386 3302.538,1251.486 C3298.838,1249.586 3298.838,1249.186 3302.938,1240.086 C3304.338,1236.886 3306.138,1234.486 3307.238,1234.186 C3308.338,1233.886 3309.438,1232.986 3309.838,1232.186 C3310.538,1230.086 3309.338,1223.886 3308.138,1223.886 C3306.738,1223.886 3302.738,1228.386 3295.838,1237.686 C3290.138,1245.386 3286.038,1248.486 3284.438,1246.186 C3284.138,1245.686 3282.338,1244.686 3280.538,1243.986 C3276.738,1242.386 3276.538,1239.586 3280.138,1239.086 C3281.438,1238.886 3282.338,1238.086 3282.338,1237.086 C3282.338,1235.386 3286.438,1228.686 3289.038,1226.086 C3289.738,1225.386 3290.338,1223.386 3290.338,1221.786 C3290.338,1220.186 3290.838,1218.886 3291.338,1218.886 C3291.938,1218.886 3292.338,1218.186 3292.338,1217.386 C3292.338,1215.186 3294.138,1215.586 3294.838,1217.986 C3295.738,1220.586 3298.938,1220.086 3298.538,1217.386 C3298.438,1216.286 3298.238,1212.886 3298.238,1209.686 C3298.238,1203.886 3297.038,1202.186 3294.238,1203.986 C3293.438,1204.486 3291.838,1204.886 3290.638,1204.886 C3288.838,1204.886 3288.338,1205.486 3288.338,1207.486 C3288.338,1209.386 3287.938,1209.986 3286.638,1209.686 C3284.838,1209.386 3282.338,1212.786 3282.338,1215.586 C3282.338,1216.386 3282.038,1216.786 3281.538,1216.586 C3281.138,1216.286 3279.738,1218.286 3278.438,1220.986 C3277.038,1223.686 3275.538,1225.886 3275.138,1225.886 C3274.038,1225.886 3274.138,1224.086 3275.338,1221.786 C3276.138,1220.286 3276.038,1219.886 3274.838,1219.886 C3274.038,1219.886 3273.338,1219.386 3273.338,1218.786 C3273.338,1218.186 3274.038,1217.886 3274.838,1218.286 C3275.738,1218.586 3276.338,1218.286 3276.338,1217.286 C3276.338,1216.486 3277.238,1214.086 3278.338,1211.886 C3280.038,1208.686 3280.138,1207.486 3279.138,1205.386 C3277.638,1201.986 3279.638,1198.186 3284.038,1196.386 C3286.138,1195.486 3287.338,1194.286 3287.338,1193.086 C3287.338,1190.086 3293.438,1182.986 3296.138,1182.986 C3297.338,1182.886 3298.538,1183.486 3298.738,1184.086 C3299.838,1188.386 3301.738,1193.586 3302.538,1194.586 C3303.338,1195.486 3304.038,1195.486 3305.938,1194.186 C3307.938,1192.886 3308.338,1191.886 3308.338,1187.486 C3308.338,1181.986 3306.638,1176.886 3304.738,1176.886 C3304.138,1176.886 3303.038,1176.286 3302.438,1175.486 C3300.938,1173.686 3302.038,1166.886 3303.938,1166.886 C3304.638,1166.886 3305.438,1166.486 3305.838,1165.986 C3306.138,1165.386 3305.138,1165.386 3303.138,1165.886 C3298.038,1167.386 3296.238,1165.086 3296.538,1157.186 C3296.738,1152.686 3297.238,1150.986 3298.038,1151.386 C3299.738,1151.986 3301.838,1147.986 3300.538,1146.686 C3299.838,1145.986 3298.938,1146.086 3297.838,1147.286 C3296.938,1148.186 3295.138,1148.886 3293.838,1148.886 C3292.038,1148.886 3291.338,1149.586 3290.838,1151.886 C3290.438,1153.686 3288.938,1155.586 3286.838,1156.886 C3281.238,1160.286 3280.838,1161.386 3283.338,1165.386 C3285.138,1168.286 3285.238,1168.886 3283.938,1168.886 C3283.138,1168.886 3281.938,1167.986 3281.338,1166.886 C3280.538,1165.386 3279.838,1165.086 3278.538,1165.786 C3277.038,1166.686 3275.938,1167.686 3270.138,1173.686 C3269.138,1174.686 3268.238,1177.186 3268.138,1179.186 C3267.838,1182.486 3267.438,1182.986 3264.638,1183.486 C3257.738,1184.786 3256.038,1181.686 3260.438,1175.986 C3261.438,1174.686 3262.338,1173.186 3262.338,1172.686 C3262.338,1172.186 3263.038,1171.086 3263.838,1170.286 C3264.638,1169.386 3265.338,1167.786 3265.338,1166.686 C3265.338,1165.586 3265.938,1164.086 3266.738,1163.486 C3268.538,1162.086 3269.938,1155.886 3268.438,1155.886 C3267.838,1155.886 3267.638,1155.286 3267.938,1154.486 C3268.238,1153.686 3268.038,1152.786 3267.438,1152.386 C3266.838,1152.086 3266.338,1152.486 3266.338,1153.286 C3266.338,1154.186 3265.638,1154.886 3264.838,1154.886 C3263.838,1154.886 3263.338,1153.886 3263.338,1152.086 C3263.338,1147.586 3265.538,1137.886 3266.538,1137.886 C3267.038,1137.886 3267.138,1136.986 3266.838,1135.886 C3266.438,1134.586 3266.638,1133.886 3267.538,1133.786 C3268.238,1133.786 3267.938,1133.386 3266.838,1132.886 C3263.838,1131.586 3263.638,1131.686 3260.738,1134.386 C3256.038,1138.686 3255.038,1137.486 3258.538,1131.886 C3263.338,1124.386 3263.538,1123.686 3261.938,1122.086 C3260.738,1120.886 3260.138,1120.786 3258.938,1121.786 C3257.738,1122.786 3256.738,1122.586 3253.438,1120.986 C3248.538,1118.386 3245.638,1118.286 3244.838,1120.586 C3244.038,1122.986 3237.438,1127.486 3233.438,1128.386 C3231.138,1128.886 3230.238,1128.686 3229.738,1127.486 C3228.738,1124.786 3230.238,1121.086 3233.738,1117.686 C3235.638,1115.886 3237.938,1112.986 3238.938,1111.286 C3240.038,1109.486 3242.438,1105.786 3244.238,1102.986 C3249.138,1095.686 3249.138,1094.786 3244.038,1095.586 C3241.738,1095.886 3238.338,1097.086 3236.538,1098.086 C3234.738,1099.086 3232.638,1099.886 3231.938,1099.886 C3231.238,1099.886 3229.938,1100.686 3229.038,1101.686 C3227.338,1103.586 3218.338,1120.686 3218.338,1122.086 C3218.338,1122.486 3216.938,1125.886 3215.238,1129.486 C3212.538,1135.386 3212.438,1136.386 3213.738,1137.086 C3216.038,1138.386 3215.738,1139.486 3211.638,1143.886 C3207.638,1148.086 3204.438,1148.886 3202.238,1146.286 C3200.638,1144.286 3201.638,1141.386 3209.538,1124.886 C3212.838,1118.086 3215.738,1110.886 3216.038,1108.886 C3216.338,1106.486 3216.238,1105.786 3215.538,1106.786 C3214.438,1108.386 3210.938,1106.886 3209.538,1104.086 C3208.438,1101.986 3211.838,1093.886 3213.838,1093.886 C3214.538,1093.886 3216.038,1092.786 3217.138,1091.386 C3218.238,1089.986 3219.638,1088.886 3220.238,1088.886 C3220.838,1088.886 3221.338,1087.986 3221.338,1086.886 C3221.338,1082.286 3215.338,1085.686 3205.338,1096.186 C3198.738,1103.086 3196.138,1104.986 3193.838,1105.186 C3189.038,1105.486 3189.238,1101.986 3194.338,1096.886 C3198.138,1093.086 3198.338,1092.686 3196.738,1091.186 C3195.438,1089.886 3192.738,1089.386 3185.738,1089.086 C3175.838,1088.586 3174.238,1087.686 3176.438,1083.686 C3177.038,1082.586 3177.238,1081.486 3176.938,1081.086 C3176.538,1080.786 3172.238,1081.086 3167.238,1081.786 C3157.338,1083.186 3155.338,1082.586 3155.338,1078.186 C3155.338,1075.586 3152.538,1073.886 3151.338,1075.886 C3150.238,1077.586 3142.138,1076.386 3139.138,1073.986 L3136.838,1072.086 L3139.238,1067.386 C3140.938,1063.986 3141.238,1062.386 3140.438,1061.586 C3139.038,1060.186 3138.938,1058.586 3140.338,1059.386 C3140.938,1059.686 3141.038,1059.286 3140.738,1058.486 C3140.438,1057.586 3139.638,1056.886 3138.938,1056.786 C3138.338,1056.786 3139.138,1056.286 3140.738,1055.886 C3142.538,1055.286 3144.338,1055.386 3145.638,1055.986 C3146.838,1056.686 3147.838,1056.686 3148.238,1056.186 C3148.538,1055.686 3151.338,1053.886 3154.338,1052.286 C3157.338,1050.686 3161.938,1047.386 3164.538,1044.886 C3170.638,1039.186 3177.438,1033.886 3181.538,1031.586 C3187.238,1028.586 3186.038,1031.786 3178.938,1038.586 C3175.338,1042.086 3172.338,1045.386 3172.338,1045.986 C3172.338,1046.486 3171.438,1047.786 3170.238,1048.986 C3168.838,1050.386 3168.438,1051.386 3169.138,1052.086 C3169.738,1052.686 3170.838,1052.286 3172.238,1050.786 C3173.338,1049.486 3174.338,1048.886 3174.338,1049.386 C3174.338,1049.886 3175.038,1049.386 3175.838,1048.286 C3176.638,1047.286 3177.338,1046.786 3177.338,1047.386 C3177.338,1048.086 3177.638,1048.086 3178.138,1047.386 C3178.938,1046.286 3186.938,1040.886 3187.838,1040.886 C3188.438,1040.886 3191.638,1038.386 3195.638,1034.586 C3202.238,1028.486 3203.938,1034.086 3197.538,1040.786 C3196.738,1041.586 3195.738,1043.286 3195.238,1044.586 C3194.538,1046.486 3193.838,1046.886 3192.238,1046.386 C3189.638,1045.486 3176.638,1053.086 3175.138,1056.386 C3174.538,1057.686 3172.738,1059.286 3171.138,1059.786 C3169.138,1060.486 3168.138,1061.686 3167.738,1063.786 C3167.338,1065.486 3166.438,1067.386 3165.738,1067.986 C3164.838,1068.786 3164.638,1069.586 3165.338,1070.886 C3166.438,1072.886 3170.538,1072.586 3172.438,1070.286 C3174.138,1068.186 3175.538,1068.586 3174.838,1070.986 C3174.138,1073.186 3174.438,1073.286 3180.838,1071.586 C3183.038,1070.986 3184.338,1069.686 3184.338,1067.786 C3184.338,1065.686 3185.338,1065.286 3187.038,1066.986 C3187.938,1067.886 3189.138,1067.586 3191.738,1065.886 C3193.738,1064.686 3195.338,1063.286 3195.338,1062.786 C3195.338,1062.286 3196.038,1061.886 3197.038,1061.886 C3197.938,1061.886 3198.438,1061.586 3198.038,1061.286 C3197.138,1060.386 3200.138,1057.686 3201.238,1058.286 C3201.738,1058.586 3202.638,1058.186 3203.338,1057.386 C3204.038,1056.586 3204.938,1055.886 3205.438,1055.886 C3206.938,1055.886 3211.338,1051.586 3211.338,1050.186 C3211.338,1049.386 3211.838,1049.086 3212.338,1049.386 C3212.938,1049.686 3214.138,1048.686 3215.138,1046.986 C3216.138,1045.186 3217.638,1043.886 3218.838,1043.886 C3219.938,1043.886 3221.438,1042.986 3222.138,1041.886 C3222.838,1040.786 3223.838,1039.886 3224.338,1039.886 C3226.138,1039.886 3225.338,1042.486 3222.838,1044.886 C3221.438,1046.186 3220.338,1047.986 3220.338,1048.986 C3220.338,1049.986 3219.638,1051.486 3218.738,1052.386 C3217.838,1053.286 3217.438,1054.286 3217.738,1054.686 C3218.138,1054.986 3218.738,1054.886 3219.138,1054.286 C3219.738,1053.386 3224.238,1052.386 3231.138,1051.686 C3231.738,1051.586 3232.338,1051.186 3232.338,1050.686 C3232.338,1050.286 3234.938,1047.286 3238.138,1044.086 C3241.238,1040.986 3246.738,1035.086 3250.338,1031.086 C3253.838,1026.986 3256.938,1024.186 3257.138,1024.786 C3257.538,1025.986 3254.438,1030.986 3252.138,1032.686 C3249.738,1034.486 3249.838,1039.486 3252.338,1041.586 C3255.138,1043.986 3254.838,1046.386 3251.238,1051.686 C3249.538,1054.186 3248.638,1056.486 3249.138,1056.786 C3249.638,1057.086 3250.238,1057.986 3250.438,1058.586 C3250.738,1059.586 3251.538,1059.486 3253.738,1058.386 C3255.238,1057.586 3257.638,1056.886 3259.038,1056.886 C3263.138,1056.886 3274.738,1050.086 3281.838,1043.586 C3284.238,1041.386 3285.438,1040.886 3287.838,1041.386 C3289.538,1041.686 3291.038,1042.386 3291.238,1042.986 C3291.438,1043.586 3292.438,1043.186 3293.738,1042.086 C3296.838,1039.286 3299.438,1038.586 3298.638,1040.686 C3297.738,1042.986 3285.138,1054.886 3283.638,1054.886 C3282.938,1054.886 3281.538,1056.586 3280.538,1058.586 C3279.538,1060.686 3277.638,1064.086 3276.438,1066.286 C3275.238,1068.386 3274.538,1070.386 3274.838,1070.686 C3275.638,1071.486 3285.138,1066.786 3285.738,1065.286 C3286.038,1064.486 3287.138,1063.886 3288.238,1063.886 C3289.338,1063.886 3290.538,1063.386 3290.838,1062.886 C3291.138,1062.286 3292.938,1061.886 3294.638,1061.886 C3296.438,1061.886 3299.338,1060.986 3301.138,1059.886 C3303.138,1058.686 3305.338,1058.086 3306.438,1058.386 C3308.638,1059.086 3314.138,1056.186 3314.838,1053.786 C3315.138,1052.886 3316.138,1051.786 3317.138,1051.486 C3318.038,1051.186 3319.438,1050.586 3320.138,1050.286 C3322.238,1049.286 3321.438,1052.486 3318.838,1054.886 C3317.138,1056.486 3316.538,1057.886 3316.938,1059.486 C3317.238,1060.686 3317.238,1062.686 3316.838,1063.786 C3316.138,1066.086 3312.738,1066.686 3312.038,1064.586 C3311.838,1063.986 3311.238,1063.686 3310.838,1064.186 C3309.738,1065.086 3313.838,1068.986 3314.938,1068.086 C3315.338,1067.686 3315.338,1067.986 3314.938,1068.586 C3314.538,1069.286 3313.838,1069.886 3313.238,1069.886 C3311.738,1069.886 3308.138,1073.886 3309.638,1073.986 C3310.638,1073.986 3310.638,1074.186 3309.638,1074.586 C3307.838,1075.286 3308.038,1076.886 3309.838,1076.886 C3312.738,1076.886 3316.438,1074.486 3316.938,1072.286 C3317.538,1069.986 3325.138,1064.886 3328.038,1064.886 C3328.738,1064.886 3330.738,1063.886 3332.238,1062.786 C3333.838,1061.586 3336.438,1060.586 3337.938,1060.386 C3342.338,1060.086 3344.338,1058.886 3344.338,1056.686 C3344.338,1054.986 3344.738,1054.786 3347.038,1055.386 C3350.538,1056.286 3351.138,1056.786 3349.438,1057.786 C3348.738,1058.286 3348.438,1059.186 3348.838,1059.786 C3349.338,1060.686 3349.838,1060.686 3350.838,1059.886 C3351.638,1059.186 3352.338,1059.186 3352.738,1059.786 C3353.038,1060.286 3352.838,1060.886 3352.138,1061.086 C3351.538,1061.286 3352.638,1062.786 3354.638,1064.286 C3357.638,1066.586 3358.238,1067.586 3357.738,1069.486 C3357.438,1070.786 3357.538,1071.886 3358.138,1071.886 C3359.538,1071.886 3369.338,1066.786 3373.038,1064.186 C3374.738,1062.886 3379.038,1060.586 3382.538,1058.986 C3389.238,1055.986 3396.338,1050.586 3396.338,1048.486 C3396.338,1047.686 3397.538,1047.386 3399.738,1047.686 C3403.638,1048.086 3408.738,1045.786 3410.338,1042.886 C3410.938,1041.786 3412.038,1040.886 3412.838,1040.886 C3413.638,1040.886 3414.638,1040.086 3415.138,1039.186 C3415.738,1038.286 3417.538,1037.386 3419.138,1037.286 C3420.838,1037.186 3423.538,1036.186 3425.238,1034.986 C3426.838,1033.786 3428.638,1032.886 3429.238,1032.886 C3430.338,1032.886 3431.438,1032.186 3434.838,1029.086 C3435.538,1028.486 3436.838,1027.886 3437.538,1027.886 C3438.238,1027.886 3439.438,1026.986 3440.138,1025.886 C3440.838,1024.686 3441.838,1024.086 3442.338,1024.386 C3442.938,1024.686 3443.338,1024.586 3443.338,1024.086 C3443.338,1023.286 3451.238,1018.886 3452.838,1018.886 C3453.238,1018.886 3455.738,1017.086 3458.338,1014.886 C3460.938,1012.686 3463.638,1010.886 3464.238,1010.886 C3465.938,1010.886 3468.938,1007.686 3469.838,1005.086 C3470.338,1003.486 3471.038,1002.986 3472.338,1003.386 C3474.838,1004.186 3475.838,1002.286 3473.638,1000.886 C3472.338,1000.186 3472.238,999.886 3473.338,1000.086 C3476.438,1000.586 3481.138,997.686 3482.438,994.586 C3483.138,992.786 3485.238,990.086 3487.038,988.486 C3488.838,986.886 3490.338,984.886 3490.338,983.886 C3490.338,982.986 3491.238,981.386 3492.338,980.386 C3493.438,979.386 3494.538,977.786 3494.838,976.886 C3495.138,975.886 3496.538,974.786 3497.938,974.486 C3500.038,973.886 3500.238,973.486 3499.338,972.386 C3498.438,971.286 3498.938,970.586 3502.238,968.986 C3507.038,966.486 3507.338,966.486 3507.338,968.386 C3507.338,969.186 3505.838,970.786 3504.138,971.886 C3502.338,972.986 3501.338,973.886 3502.038,973.886 C3502.838,973.886 3502.738,974.886 3501.638,977.086 C3500.738,978.886 3499.738,980.586 3499.438,980.886 C3497.138,982.886 3494.938,991.686 3496.238,993.786 C3496.938,994.786 3497.738,994.586 3499.738,992.786 C3501.438,991.286 3503.438,990.486 3504.938,990.686 C3507.038,990.986 3507.338,990.586 3507.338,988.086 C3507.338,986.386 3507.938,984.786 3508.638,984.586 C3509.338,984.286 3509.038,983.986 3508.038,983.986 C3505.238,983.886 3506.638,981.486 3509.938,980.786 C3511.538,980.386 3512.338,980.086 3511.638,979.986 C3510.938,979.886 3510.438,977.886 3510.438,974.386 C3510.438,971.386 3510.738,968.986 3511.138,968.986 C3513.238,969.286 3514.238,968.686 3514.938,966.686 C3515.238,965.586 3518.038,962.186 3521.038,959.186 C3525.738,954.486 3526.638,953.986 3527.838,955.286 C3529.638,956.986 3529.838,959.586 3528.138,960.086 C3527.138,960.486 3526.638,962.386 3526.438,967.086 C3526.338,967.986 3525.238,970.086 3523.838,971.686 C3519.238,977.186 3521.538,981.186 3527.138,977.286 C3529.038,975.986 3529.338,975.086 3528.838,972.786 C3528.338,970.686 3528.538,969.886 3529.538,969.886 C3530.838,969.886 3534.338,963.486 3534.338,961.186 C3534.338,958.986 3539.438,955.086 3541.838,955.386 C3543.638,955.486 3544.338,955.086 3544.338,953.886 C3544.338,952.886 3545.038,950.486 3545.838,948.486 C3547.038,945.686 3547.938,944.886 3549.938,944.886 C3552.038,944.886 3552.438,945.286 3552.038,946.886 C3551.738,947.986 3552.038,948.886 3552.638,948.886 C3554.138,948.886 3561.238,942.186 3567.038,935.186 C3568.838,933.086 3571.438,929.986 3572.838,928.386 C3574.238,926.686 3575.338,924.886 3575.338,924.286 C3575.338,922.486 3577.738,921.986 3579.438,923.286 C3581.438,924.786 3581.138,929.786 3579.038,930.986 C3576.838,932.286 3576.638,937.386 3578.938,936.486 C3579.838,936.186 3580.938,935.886 3581.438,935.886 C3581.938,935.886 3582.338,934.886 3582.338,933.686 C3582.338,932.486 3583.538,930.186 3585.138,928.586 C3594.238,918.886 3595.138,918.086 3597.738,918.586 C3600.138,919.086 3600.238,918.886 3599.638,915.586 C3599.138,912.486 3599.438,911.886 3602.238,910.286 C3603.938,909.286 3605.638,907.686 3605.938,906.686 C3606.238,905.686 3606.938,904.886 3607.538,904.886 C3608.038,904.886 3609.238,903.986 3610.238,902.786 C3611.738,900.986 3612.038,900.886 3613.138,902.186 C3614.138,903.386 3614.038,903.986 3612.738,905.386 C3611.738,906.286 3610.938,908.686 3610.738,910.686 C3610.538,912.786 3610.338,914.586 3610.238,914.886 C3610.138,915.186 3610.138,915.686 3610.238,916.086 C3610.238,916.586 3609.838,916.886 3609.338,916.886 C3608.838,916.886 3608.338,917.386 3608.338,917.986 C3608.338,918.686 3609.038,918.786 3610.138,918.386 C3611.038,917.986 3612.638,917.586 3613.638,917.386 C3618.338,916.386 3619.338,915.686 3619.438,913.086 C3619.638,910.686 3619.638,910.686 3620.038,912.586 C3620.238,913.886 3620.838,914.886 3621.238,914.886 C3622.338,914.886 3625.338,908.086 3624.838,906.686 C3624.038,904.586 3625.938,902.686 3628.438,903.086 C3630.038,903.286 3630.838,904.086 3630.838,905.386 C3630.838,909.086 3637.938,907.586 3638.738,903.686 C3639.538,899.686 3641.438,896.686 3642.838,897.286 C3644.638,897.986 3644.838,895.786 3643.138,894.086 C3642.238,893.186 3642.338,892.886 3643.538,892.886 C3644.438,892.886 3645.838,892.586 3646.738,892.286 C3647.938,891.886 3648.138,892.386 3647.838,894.786 C3647.438,897.686 3647.638,897.786 3649.438,896.786 C3651.038,895.986 3651.338,895.086 3650.838,893.086 C3650.438,891.586 3649.738,890.186 3649.238,890.086 C3648.038,889.586 3648.038,885.886 3649.338,885.886 C3650.338,885.886 3650.738,886.786 3651.838,890.586 C3652.438,892.686 3656.338,890.786 3656.338,888.486 C3656.338,886.086 3658.738,884.486 3663.638,883.486 C3666.138,882.886 3666.338,883.086 3666.138,885.786 C3666.038,887.386 3666.538,889.386 3667.238,890.186 C3667.938,891.086 3668.438,892.586 3668.338,893.586 C3668.238,894.586 3668.138,895.886 3668.238,896.586 C3668.438,898.486 3672.938,902.886 3674.738,902.886 C3675.638,902.886 3677.238,903.486 3678.338,904.086 C3679.838,905.086 3680.638,905.086 3681.138,904.286 C3681.538,903.686 3683.338,902.786 3685.138,902.386 C3686.938,901.986 3688.338,901.086 3688.338,900.286 C3688.338,899.486 3686.838,898.186 3685.138,897.386 C3683.338,896.686 3680.738,894.886 3679.438,893.486 C3677.338,891.186 3677.238,890.886 3678.638,889.486 C3679.538,888.586 3680.738,887.886 3681.338,887.886 C3681.938,887.886 3683.438,887.286 3684.638,886.486 C3685.838,885.686 3689.038,883.886 3691.838,882.486 C3693.725,881.62 3695.53,880.275 3697.635,880.031 z" fill="#833F00"/>
  </g>
</svg>
