<?xml version="1.0" encoding="UTF-8"?>
<!DOCTYPE svg PUBLIC "-//W3C//DTD SVG 1.1//EN" "http://www.w3.org/Graphics/SVG/1.1/DTD/svg11.dtd">
<svg version="1.1" xmlns="http://www.w3.org/2000/svg" xmlns:xlink="http://www.w3.org/1999/xlink" x="0" y="0" width="5000" height="5000" viewBox="0, 0, 5000, 5000">
  <g id="rightEye_pencil" transform="translate(0, 0)">
    <g>
      <path d="M3484.875,2034.343 C3486.778,2034.334 3489.071,2034.537 3489.574,2036.752 C3489.574,2037.452 3491.174,2037.652 3494.074,2037.352 C3496.574,2037.052 3498.574,2037.152 3498.574,2037.652 C3498.574,2038.152 3499.474,2038.552 3500.574,2038.552 C3503.174,2038.552 3504.774,2041.852 3504.074,2045.852 C3503.574,2048.252 3502.474,2049.652 3499.574,2051.352 C3497.474,2052.552 3494.974,2053.552 3494.074,2053.552 C3490.674,2053.552 3484.474,2056.152 3483.974,2057.752 C3483.274,2059.952 3481.574,2060.152 3481.574,2057.952 C3481.574,2057.152 3480.074,2055.852 3478.174,2055.052 C3475.374,2053.852 3473.674,2053.752 3469.374,2054.752 C3466.474,2055.352 3462.074,2056.052 3459.574,2056.252 C3450.174,2056.952 3432.874,2058.552 3428.274,2059.152 C3425.174,2059.552 3422.974,2059.352 3422.074,2058.552 C3420.274,2057.052 3417.574,2057.952 3417.574,2060.052 C3417.574,2061.152 3418.574,2061.552 3421.074,2061.552 C3423.474,2061.552 3424.574,2062.052 3424.574,2063.052 C3424.574,2064.052 3423.574,2064.552 3421.574,2064.552 C3416.074,2064.552 3418.474,2067.152 3424.974,2068.252 C3427.674,2068.652 3427.874,2068.552 3427.274,2065.752 C3426.874,2063.552 3427.074,2062.552 3428.174,2062.152 C3429.774,2061.552 3430.374,2062.552 3430.774,2067.052 L3431.074,2070.052 L3422.774,2069.852 C3418.174,2069.752 3413.974,2069.252 3413.274,2068.752 C3411.574,2067.352 3396.374,2068.452 3394.074,2070.152 C3392.374,2071.452 3392.374,2071.652 3393.974,2073.452 C3395.474,2075.052 3395.474,2075.352 3394.074,2075.852 C3393.274,2076.252 3391.374,2076.052 3389.974,2075.552 C3388.174,2074.852 3386.674,2074.952 3384.474,2076.052 C3382.074,2077.352 3381.474,2077.352 3380.974,2076.252 C3380.574,2075.152 3379.674,2075.052 3376.074,2076.052 C3373.674,2076.652 3371.374,2077.452 3370.974,2077.752 C3370.574,2078.152 3369.474,2078.052 3368.574,2077.552 C3367.374,2076.852 3366.474,2076.952 3365.674,2077.852 C3364.874,2078.952 3365.474,2079.752 3368.474,2081.352 C3370.574,2082.552 3373.074,2083.552 3373.874,2083.552 C3374.774,2083.552 3375.774,2084.052 3376.174,2084.752 C3376.574,2085.352 3376.474,2085.652 3375.974,2085.252 C3375.474,2084.952 3373.474,2085.552 3371.474,2086.452 C3369.174,2087.652 3367.174,2087.952 3365.774,2087.452 C3363.174,2086.452 3362.174,2087.852 3363.074,2091.252 C3363.574,2093.352 3363.374,2093.652 3362.074,2093.152 C3357.274,2091.352 3355.574,2091.352 3354.874,2093.152 C3354.474,2094.252 3353.574,2095.652 3352.874,2096.352 C3352.174,2097.052 3351.574,2098.252 3351.574,2098.852 C3351.574,2100.752 3335.274,2100.952 3331.274,2099.052 C3326.774,2097.052 3324.274,2095.352 3322.774,2093.352 C3322.074,2092.452 3319.274,2090.452 3316.574,2088.952 C3313.774,2087.452 3311.574,2085.652 3311.574,2084.952 C3311.574,2083.452 3306.574,2080.552 3304.174,2080.552 C3303.374,2080.552 3302.574,2081.152 3302.374,2081.752 C3301.874,2083.152 3297.574,2080.752 3294.274,2077.452 C3291.474,2074.552 3288.174,2075.152 3284.674,2079.052 C3282.974,2081.052 3281.574,2083.252 3281.574,2084.052 C3281.574,2084.752 3280.574,2086.652 3279.274,2088.252 C3276.374,2091.752 3273.574,2099.152 3273.574,2103.252 C3273.574,2104.952 3272.874,2106.852 3272.074,2107.552 C3270.774,2108.652 3270.574,2110.552 3271.174,2118.752 C3271.774,2128.252 3271.674,2128.752 3269.574,2130.252 C3267.774,2131.552 3267.474,2132.452 3267.874,2135.152 C3268.274,2137.452 3267.474,2141.152 3265.474,2146.752 C3263.874,2151.352 3261.674,2159.952 3260.574,2165.952 C3259.274,2173.152 3258.074,2177.252 3257.074,2177.752 C3255.274,2178.852 3255.074,2182.252 3256.874,2182.852 C3257.774,2183.152 3257.574,2183.752 3256.374,2185.252 C3255.374,2186.352 3254.574,2188.052 3254.574,2188.952 C3254.574,2189.952 3253.774,2191.952 3252.674,2193.352 C3251.674,2194.852 3250.574,2198.252 3250.174,2200.952 C3249.874,2203.652 3248.974,2206.652 3248.174,2207.452 C3247.474,2208.352 3246.274,2210.852 3245.574,2213.052 C3244.174,2217.552 3242.674,2219.752 3241.574,2219.052 C3241.174,2218.752 3240.274,2219.952 3239.574,2221.552 C3238.874,2223.252 3237.874,2224.552 3237.374,2224.552 C3236.874,2224.552 3236.674,2224.952 3236.974,2225.452 C3237.274,2225.952 3236.874,2226.552 3236.074,2226.952 C3235.274,2227.252 3234.574,2228.452 3234.574,2229.652 C3234.574,2231.152 3234.174,2231.552 3232.974,2231.152 C3231.374,2230.552 3226.574,2234.552 3226.574,2236.552 C3226.574,2237.052 3225.574,2237.752 3224.474,2238.052 C3222.774,2238.652 3222.574,2238.952 3223.674,2239.652 C3224.774,2240.352 3224.674,2240.552 3223.274,2240.552 C3222.274,2240.552 3221.274,2241.252 3220.974,2242.052 C3220.574,2242.852 3220.074,2243.352 3219.674,2243.152 C3219.274,2242.852 3218.474,2243.952 3217.674,2245.552 C3216.974,2247.152 3215.674,2248.652 3214.774,2248.952 C3212.874,2249.552 3210.074,2253.552 3211.474,2253.552 C3212.074,2253.552 3213.074,2252.652 3213.874,2251.452 C3214.974,2249.952 3216.174,2249.452 3218.674,2249.752 C3222.474,2250.152 3223.674,2252.052 3220.574,2252.852 C3219.274,2253.152 3218.274,2252.852 3217.874,2251.952 C3217.074,2249.752 3216.174,2250.252 3214.674,2253.652 C3213.674,2255.852 3213.074,2256.452 3212.274,2255.652 C3211.674,2255.052 3210.574,2254.552 3209.874,2254.552 C3208.374,2254.552 3208.074,2258.152 3209.574,2259.052 C3210.174,2259.352 3210.574,2259.152 3210.574,2258.552 C3210.574,2257.952 3211.074,2257.752 3211.574,2258.052 C3212.174,2258.452 3212.374,2259.152 3211.974,2259.652 C3211.074,2261.152 3202.774,2264.752 3201.774,2264.152 C3201.174,2263.852 3200.474,2264.652 3200.174,2265.952 C3199.574,2268.352 3196.474,2269.852 3194.074,2268.952 C3192.074,2268.152 3193.474,2264.552 3195.774,2264.552 C3198.774,2264.552 3203.674,2261.352 3203.074,2259.752 C3202.774,2258.952 3204.074,2256.752 3205.974,2254.852 C3207.874,2252.852 3210.174,2249.552 3211.174,2247.452 C3212.074,2245.252 3213.474,2243.552 3214.274,2243.552 C3214.974,2243.552 3215.574,2242.652 3215.574,2241.652 C3215.574,2240.552 3215.874,2238.952 3216.274,2237.952 C3216.674,2236.852 3216.574,2236.452 3215.874,2236.852 C3213.674,2238.252 3208.474,2224.152 3210.074,2221.452 C3210.574,2220.752 3211.274,2220.852 3212.174,2221.652 C3214.074,2223.252 3218.574,2221.252 3218.574,2218.852 C3218.574,2217.252 3218.674,2217.252 3220.274,2218.852 C3221.874,2220.352 3221.874,2220.652 3220.174,2222.452 C3219.174,2223.552 3218.574,2225.152 3218.874,2226.052 C3220.174,2229.152 3222.874,2227.352 3224.474,2222.352 C3225.874,2218.152 3225.374,2216.552 3222.474,2216.552 C3221.474,2216.552 3220.574,2215.852 3220.574,2215.052 C3220.574,2214.152 3221.474,2213.552 3222.874,2213.552 C3225.674,2213.552 3228.774,2209.752 3230.574,2204.052 C3231.274,2201.852 3232.174,2199.252 3232.674,2198.352 C3234.074,2195.552 3233.774,2194.552 3231.474,2194.552 C3229.974,2194.552 3229.574,2195.052 3229.974,2196.052 C3230.274,2196.852 3229.974,2197.452 3229.274,2197.252 C3228.574,2197.152 3227.874,2198.652 3227.574,2200.952 C3227.174,2204.452 3226.674,2205.052 3223.774,2205.752 C3221.974,2206.252 3220.774,2207.052 3221.074,2207.552 C3221.374,2208.052 3221.174,2208.652 3220.574,2209.052 C3220.074,2209.352 3219.574,2210.652 3219.474,2211.852 C3219.474,2213.952 3219.374,2213.952 3218.674,2212.052 C3218.174,2210.852 3218.274,2209.752 3218.874,2209.452 C3219.374,2209.052 3219.574,2208.052 3219.274,2207.152 C3218.874,2206.252 3219.074,2205.552 3219.474,2205.552 C3219.974,2205.552 3222.474,2202.152 3225.074,2198.052 C3228.674,2192.252 3230.074,2190.752 3231.074,2191.552 C3233.474,2193.552 3235.274,2188.252 3235.974,2177.552 C3236.074,2175.652 3237.074,2172.452 3238.074,2170.552 C3241.974,2163.252 3243.174,2151.452 3241.174,2140.752 C3239.574,2132.252 3239.774,2130.052 3242.174,2129.152 C3243.174,2128.752 3243.574,2126.852 3243.574,2122.452 C3243.574,2117.152 3243.774,2116.452 3245.074,2117.552 C3246.174,2118.452 3246.574,2118.452 3246.574,2117.652 C3246.574,2117.052 3245.874,2116.252 3245.074,2115.952 C3243.274,2115.252 3243.074,2111.252 3244.674,2108.352 C3245.474,2106.952 3245.474,2105.652 3244.674,2103.752 C3244.074,2102.252 3243.374,2099.352 3243.174,2097.252 C3242.574,2092.252 3240.474,2087.652 3238.574,2087.252 C3237.074,2086.852 3239.374,2085.552 3243.874,2084.152 C3245.874,2083.552 3245.574,2080.952 3242.874,2076.752 C3241.774,2074.852 3240.874,2074.552 3238.574,2075.052 C3236.974,2075.352 3232.974,2075.152 3229.574,2074.452 C3223.674,2073.352 3223.174,2072.952 3220.574,2068.652 C3218.974,2066.152 3216.974,2063.352 3216.074,2062.552 C3215.174,2061.752 3213.274,2059.852 3211.774,2058.252 C3208.474,2054.952 3204.374,2054.752 3195.574,2057.552 C3192.174,2058.652 3187.074,2059.552 3184.274,2059.552 C3179.274,2059.552 3172.074,2061.152 3169.974,2062.752 C3168.674,2063.752 3170.274,2070.552 3171.774,2070.552 C3172.174,2070.552 3172.574,2071.252 3172.574,2072.052 C3172.574,2073.852 3169.574,2074.052 3169.574,2072.252 C3169.474,2071.552 3168.974,2071.752 3168.174,2072.752 C3166.874,2074.552 3164.474,2075.152 3163.274,2073.952 C3162.974,2073.552 3163.274,2071.852 3164.074,2069.952 C3165.474,2066.452 3164.774,2065.552 3160.674,2065.552 C3158.574,2065.552 3152.874,2068.252 3152.074,2069.652 C3151.674,2070.152 3150.374,2070.552 3148.974,2070.552 C3147.574,2070.552 3145.574,2071.052 3144.574,2071.552 C3142.974,2072.452 3142.774,2073.052 3143.674,2075.252 C3144.174,2076.652 3144.374,2078.052 3144.074,2078.352 C3143.774,2078.652 3143.574,2078.452 3143.574,2077.852 C3143.574,2077.252 3141.574,2076.052 3139.174,2075.252 C3135.074,2073.852 3134.674,2073.852 3134.074,2075.352 C3133.774,2076.252 3134.074,2077.452 3134.974,2078.052 C3135.874,2078.752 3136.274,2080.052 3135.874,2081.352 C3135.474,2083.152 3135.774,2083.552 3137.974,2083.552 C3139.374,2083.552 3140.574,2083.152 3140.574,2082.552 C3140.574,2082.052 3141.274,2081.852 3142.074,2082.152 C3142.874,2082.552 3143.574,2083.652 3143.574,2084.752 C3143.574,2085.752 3143.974,2086.352 3144.574,2086.052 C3145.274,2085.652 3145.274,2086.352 3144.574,2087.952 C3143.674,2090.452 3144.774,2091.652 3146.074,2089.552 C3146.874,2088.152 3150.574,2088.252 3150.574,2089.652 C3150.574,2091.352 3148.374,2098.852 3147.474,2100.052 C3147.174,2100.552 3147.174,2101.952 3147.574,2103.052 C3147.974,2104.252 3147.774,2106.252 3146.874,2107.952 C3145.674,2110.152 3145.674,2110.952 3146.574,2111.552 C3147.274,2111.952 3146.374,2112.152 3144.474,2112.052 C3142.574,2111.852 3140.774,2111.652 3140.374,2111.652 C3139.074,2111.552 3139.574,2108.152 3141.074,2106.252 C3142.274,2104.552 3142.474,2095.052 3141.174,2093.852 C3140.974,2093.652 3141.174,2092.152 3141.574,2090.552 C3142.574,2086.952 3141.674,2085.852 3140.074,2088.852 C3139.474,2090.052 3138.474,2091.952 3137.874,2093.052 C3137.174,2094.152 3136.374,2095.952 3135.874,2097.052 C3135.374,2098.452 3134.974,2097.452 3134.774,2093.352 C3134.374,2086.352 3132.974,2085.252 3126.674,2086.652 C3124.274,2087.152 3122.074,2087.352 3121.774,2087.052 C3121.474,2086.852 3122.874,2085.052 3124.774,2083.252 C3128.774,2079.552 3130.574,2075.552 3128.374,2075.552 C3127.574,2075.552 3126.474,2076.052 3125.774,2076.752 C3125.074,2077.452 3124.574,2077.552 3124.574,2076.952 C3124.574,2076.452 3123.974,2077.152 3123.274,2078.552 C3122.474,2079.952 3121.374,2080.952 3120.674,2080.752 C3118.574,2080.352 3113.774,2083.452 3113.074,2085.752 C3112.374,2087.652 3112.274,2087.652 3111.374,2086.252 C3110.874,2085.252 3109.874,2084.552 3109.074,2084.552 C3107.674,2084.552 3106.074,2087.952 3106.874,2089.352 C3107.174,2089.752 3106.874,2090.852 3106.174,2091.752 C3105.074,2093.252 3104.574,2093.252 3102.474,2092.152 C3096.774,2089.252 3094.074,2088.752 3090.774,2090.152 C3088.974,2090.852 3087.274,2092.152 3086.974,2092.852 C3086.674,2093.752 3084.974,2094.352 3082.474,2094.352 C3076.274,2094.452 3071.774,2097.852 3072.474,2101.852 C3072.574,2102.352 3071.774,2102.952 3070.674,2103.252 C3069.574,2103.552 3068.374,2104.652 3068.074,2105.652 C3067.374,2107.752 3064.574,2108.152 3062.874,2106.452 C3062.174,2105.752 3061.674,2106.352 3061.274,2108.452 C3060.774,2110.652 3060.074,2111.552 3058.574,2111.552 C3055.674,2111.552 3056.174,2113.852 3059.674,2116.452 C3061.574,2117.852 3062.674,2118.252 3062.474,2117.352 C3062.074,2114.252 3062.774,2112.952 3065.274,2111.752 C3066.774,2111.152 3068.574,2110.552 3069.174,2110.552 C3069.874,2110.552 3070.774,2109.652 3071.074,2108.552 C3071.974,2105.752 3073.374,2106.052 3074.174,2109.052 C3074.674,2111.052 3074.174,2112.152 3071.974,2114.052 C3070.374,2115.452 3068.274,2116.552 3067.374,2116.552 C3066.374,2116.552 3065.174,2117.452 3064.574,2118.552 C3063.974,2119.652 3062.874,2120.552 3062.074,2120.552 C3061.274,2120.552 3060.574,2121.252 3060.574,2122.052 C3060.574,2122.852 3060.074,2123.552 3059.474,2123.552 C3058.774,2123.552 3058.574,2122.552 3058.974,2121.052 C3059.774,2118.052 3058.574,2117.852 3056.074,2120.552 C3055.074,2121.652 3053.674,2122.552 3052.874,2122.552 C3052.174,2122.552 3051.574,2122.952 3051.574,2123.552 C3051.574,2124.052 3052.974,2124.552 3054.574,2124.552 C3058.074,2124.552 3058.574,2126.452 3055.474,2128.352 C3053.974,2129.352 3053.074,2129.452 3052.274,2128.652 C3050.774,2127.152 3044.874,2127.252 3044.274,2128.752 C3044.074,2129.452 3044.574,2130.552 3045.474,2131.252 C3046.874,2132.252 3046.874,2132.752 3045.274,2135.952 C3043.474,2139.752 3040.974,2141.052 3042.074,2137.552 C3042.574,2136.052 3042.074,2135.452 3039.574,2134.852 C3035.974,2133.952 3035.974,2132.052 3039.574,2132.052 C3041.274,2132.052 3041.974,2131.552 3041.774,2130.552 C3041.274,2128.252 3039.374,2127.452 3035.874,2128.052 C3032.874,2128.552 3032.774,2128.552 3033.474,2125.852 C3033.974,2123.952 3034.974,2122.952 3036.674,2122.752 C3037.974,2122.552 3040.074,2121.452 3041.374,2120.252 C3043.274,2118.452 3043.974,2118.352 3045.574,2119.352 C3047.774,2120.652 3048.974,2119.552 3048.974,2116.052 C3048.974,2113.252 3047.774,2111.552 3045.874,2111.552 C3042.874,2111.552 3034.574,2117.652 3034.574,2119.752 C3034.574,2121.152 3034.074,2121.552 3032.974,2121.152 C3030.874,2120.352 3028.474,2122.252 3029.274,2124.152 C3029.574,2124.952 3029.274,2125.552 3028.674,2125.552 C3028.074,2125.552 3027.574,2125.152 3027.574,2124.552 C3027.574,2124.052 3026.674,2124.352 3025.674,2125.252 C3024.174,2126.552 3023.974,2127.352 3024.674,2129.252 C3025.874,2132.352 3024.974,2133.852 3022.174,2133.152 C3020.574,2132.752 3019.774,2133.252 3018.874,2135.252 C3017.174,2138.752 3018.274,2140.052 3021.174,2138.052 C3023.074,2136.852 3024.274,2136.752 3027.774,2137.652 C3030.174,2138.252 3033.074,2138.952 3034.374,2139.252 C3035.974,2139.652 3036.574,2140.552 3036.574,2142.652 C3036.574,2144.252 3035.974,2145.652 3035.374,2145.652 C3034.674,2145.752 3033.374,2145.852 3032.574,2145.952 C3031.474,2146.052 3030.974,2147.352 3030.874,2150.552 C3030.674,2153.052 3030.074,2156.152 3029.374,2157.352 C3028.274,2159.452 3028.474,2159.952 3030.574,2161.552 C3031.874,2162.552 3033.574,2163.052 3034.374,2162.752 C3036.474,2161.952 3034.874,2166.652 3032.474,2168.452 C3030.674,2169.752 3029.774,2171.752 3031.374,2171.352 C3031.774,2171.152 3033.274,2172.252 3034.674,2173.752 C3036.574,2175.652 3038.274,2176.352 3041.174,2176.352 C3043.274,2176.352 3045.574,2175.952 3046.174,2175.452 C3046.411,2175.254 3046.804,2175.088 3047.304,2174.993 L3039.043,2183.907 C3038.656,2183.553 3038.005,2183.186 3037.074,2182.752 C3035.374,2181.952 3034.574,2180.752 3034.574,2179.052 C3034.574,2177.052 3034.074,2176.552 3032.174,2176.552 C3030.874,2176.552 3028.774,2175.652 3027.474,2174.652 C3025.074,2172.752 3025.074,2172.652 3026.874,2169.752 C3029.074,2165.952 3029.074,2164.352 3026.774,2162.452 C3023.274,2159.452 3021.974,2159.552 3020.174,2162.952 C3018.674,2165.652 3014.174,2168.552 3011.274,2168.552 C3009.274,2168.552 3010.974,2165.352 3013.674,2164.052 C3015.374,2163.152 3016.474,2162.152 3016.174,2161.852 C3015.874,2161.452 3016.074,2160.652 3016.674,2159.852 C3018.074,2158.152 3016.174,2155.552 3013.474,2155.552 C3012.174,2155.552 3011.474,2156.552 3011.074,2159.252 C3010.174,2164.452 3008.674,2167.352 3006.874,2167.152 C3005.074,2167.052 3004.374,2169.852 3004.574,2176.652 C3004.574,2181.352 3004.574,2181.352 3000.374,2182.652 C2996.874,2183.852 2996.074,2184.652 2995.374,2187.352 C2994.674,2189.952 2994.874,2191.252 2996.574,2193.452 C2997.774,2195.252 2998.274,2197.052 2997.874,2198.152 C2997.374,2199.552 2997.674,2199.752 2999.774,2199.252 C3002.274,2198.552 3002.274,2198.652 3001.774,2203.552 C3001.574,2206.352 3001.774,2208.552 3002.274,2208.552 C3003.974,2208.552 3007.474,2205.452 3007.074,2204.252 C3006.874,2203.652 3006.374,2201.052 3006.174,2198.552 C3005.774,2194.852 3005.974,2193.752 3007.774,2192.452 C3009.474,2191.152 3009.674,2190.552 3008.674,2188.652 C3007.674,2186.952 3007.774,2185.852 3008.974,2183.352 C3009.874,2181.652 3010.574,2179.652 3010.574,2178.852 C3010.574,2178.152 3011.674,2176.952 3013.074,2176.352 C3014.374,2175.752 3015.774,2174.452 3016.074,2173.352 C3016.974,2170.752 3018.574,2171.052 3018.574,2173.852 C3018.574,2175.152 3019.074,2176.652 3019.774,2177.352 C3020.674,2178.252 3020.474,2178.552 3018.874,2178.552 C3017.174,2178.552 3010.574,2185.052 3010.574,2186.652 C3010.574,2186.852 3013.774,2187.052 3017.774,2187.052 C3023.274,2187.052 3024.974,2186.652 3025.374,2185.552 C3025.674,2184.752 3026.574,2183.552 3027.474,2182.852 C3028.374,2182.152 3028.674,2181.552 3028.174,2181.552 C3027.674,2181.552 3027.874,2180.852 3028.574,2180.052 C3029.574,2178.852 3030.074,2178.752 3030.574,2179.652 C3031.474,2181.052 3030.674,2184.552 3029.474,2184.552 C3028.974,2184.552 3028.574,2185.052 3028.574,2185.652 C3028.574,2186.152 3029.074,2186.352 3029.574,2186.052 C3030.874,2185.252 3030.874,2188.552 3029.574,2190.552 C3028.674,2191.852 3028.474,2191.852 3027.574,2190.552 C3026.674,2189.152 3023.274,2188.252 3019.074,2188.452 C3017.974,2188.452 3015.774,2188.552 3014.074,2188.552 C3011.874,2188.552 3011.474,2188.752 3012.574,2189.452 C3013.374,2189.952 3014.274,2190.252 3014.774,2189.952 C3015.174,2189.752 3015.974,2190.352 3016.574,2191.452 C3017.474,2193.152 3017.174,2193.752 3014.574,2195.052 C3012.174,2196.252 3011.574,2197.252 3011.574,2199.852 C3011.574,2203.852 3015.574,2207.852 3018.974,2207.352 C3020.274,2207.252 3021.974,2207.852 3022.874,2208.752 C3023.774,2209.652 3025.074,2210.652 3025.774,2210.952 C3026.774,2211.452 3026.774,2211.652 3025.874,2212.152 C3025.174,2212.452 3024.874,2213.752 3025.174,2215.452 C3025.574,2217.552 3025.274,2218.452 3024.074,2218.952 C3022.674,2219.452 3022.874,2220.052 3025.674,2222.652 C3028.074,2224.852 3028.574,2225.952 3027.774,2226.752 C3026.074,2228.452 3026.274,2230.252 3028.674,2232.652 C3031.074,2235.052 3032.574,2234.352 3030.874,2231.652 C3029.974,2230.152 3030.074,2229.352 3031.674,2227.752 C3034.174,2224.952 3034.074,2224.352 3030.574,2222.352 C3027.074,2220.352 3026.574,2217.552 3029.674,2217.552 C3030.774,2217.552 3032.374,2216.852 3033.274,2216.052 C3035.374,2213.952 3036.774,2215.252 3036.074,2218.652 C3035.274,2222.252 3036.174,2223.852 3038.374,2222.652 C3040.074,2221.652 3041.074,2213.952 3039.474,2212.952 C3038.374,2212.352 3038.274,2207.552 3039.374,2207.552 C3039.774,2207.552 3040.774,2205.952 3041.474,2204.052 C3042.874,2200.052 3044.674,2199.552 3046.074,2202.752 C3046.674,2204.052 3047.774,2204.952 3048.474,2204.752 C3049.174,2204.652 3049.574,2205.052 3049.274,2205.752 C3049.074,2206.452 3047.874,2207.052 3046.674,2206.952 C3045.274,2206.952 3044.574,2207.452 3044.774,2208.452 C3044.874,2209.352 3044.274,2211.452 3043.474,2213.152 C3041.874,2216.152 3041.974,2216.252 3044.274,2215.752 C3046.274,2215.352 3046.574,2215.752 3046.574,2218.352 C3046.574,2220.352 3045.874,2221.952 3044.474,2222.852 C3042.474,2224.252 3042.474,2224.352 3044.274,2225.652 C3045.374,2226.452 3046.974,2228.152 3047.874,2229.552 C3049.174,2231.452 3049.574,2231.652 3049.574,2230.252 C3049.574,2228.352 3049.974,2228.252 3054.474,2229.152 C3059.174,2230.152 3058.674,2233.152 3053.674,2234.052 C3050.574,2234.552 3049.574,2235.252 3049.174,2237.152 C3048.774,2238.552 3047.174,2240.452 3045.674,2241.352 C3043.274,2242.652 3042.674,2243.852 3042.174,2247.852 C3041.574,2253.652 3041.474,2253.852 3039.074,2252.952 C3036.474,2251.952 3037.674,2242.752 3040.674,2240.452 C3041.874,2239.552 3042.574,2238.352 3042.174,2237.652 C3041.174,2236.052 3039.474,2236.252 3038.074,2238.252 C3036.874,2239.952 3036.574,2239.952 3033.174,2238.252 C3028.674,2236.152 3027.574,2236.152 3027.574,2238.152 C3027.574,2239.952 3029.874,2242.552 3031.474,2242.552 C3032.074,2242.552 3032.574,2243.152 3032.674,2243.752 C3033.174,2251.052 3036.674,2256.752 3040.174,2255.852 C3041.374,2255.652 3042.674,2255.852 3042.974,2256.452 C3043.374,2256.952 3044.274,2257.252 3045.074,2256.852 C3046.074,2256.552 3046.574,2256.952 3046.574,2258.352 C3046.574,2259.452 3045.974,2260.652 3045.374,2260.852 C3044.674,2261.152 3045.074,2261.452 3046.274,2261.452 C3047.474,2261.552 3049.174,2262.552 3049.974,2263.652 C3051.274,2265.552 3051.774,2265.652 3054.674,2264.652 C3058.674,2263.252 3062.574,2263.252 3062.574,2264.552 C3062.574,2265.052 3061.274,2265.552 3059.674,2265.552 C3057.974,2265.552 3055.474,2266.552 3053.974,2267.852 L3051.274,2270.152 L3054.174,2272.852 C3055.774,2274.352 3057.674,2275.552 3058.474,2275.552 C3060.574,2275.552 3063.574,2278.552 3063.574,2280.752 C3063.574,2283.252 3066.274,2284.152 3068.374,2282.352 C3069.574,2281.252 3072.474,2280.852 3078.374,2280.852 L3086.574,2280.852 L3086.574,2284.152 C3086.574,2286.852 3086.174,2287.552 3084.574,2287.552 C3083.474,2287.552 3082.574,2286.952 3082.574,2286.252 C3082.574,2285.652 3081.774,2286.552 3080.874,2288.352 C3079.474,2291.252 3079.474,2291.852 3080.674,2293.052 C3082.674,2295.052 3090.174,2293.052 3092.274,2289.952 C3093.074,2288.652 3094.274,2287.852 3094.774,2288.152 C3095.274,2288.452 3094.774,2289.352 3093.674,2290.152 C3092.474,2291.052 3091.874,2292.252 3092.274,2293.252 C3092.674,2294.252 3092.074,2295.452 3090.574,2296.552 C3088.274,2298.352 3088.574,2300.852 3090.974,2299.952 C3091.674,2299.652 3092.574,2300.152 3092.874,2300.952 C3093.574,2302.852 3095.674,2303.052 3097.274,2301.452 C3097.974,2300.752 3098.074,2299.452 3097.574,2298.052 C3096.974,2296.352 3097.274,2295.552 3099.174,2294.052 C3100.774,2292.952 3101.574,2291.252 3101.574,2289.452 C3101.574,2287.052 3101.974,2286.552 3104.074,2286.552 C3106.574,2286.552 3107.374,2287.952 3105.574,2289.052 C3105.074,2289.352 3104.574,2290.552 3104.574,2291.652 C3104.574,2292.652 3104.074,2294.452 3103.374,2295.452 C3101.374,2298.752 3103.074,2300.552 3108.074,2300.552 L3112.574,2300.552 L3112.574,2296.552 C3112.574,2293.352 3112.974,2292.552 3114.374,2292.552 C3116.974,2292.652 3119.374,2294.852 3120.174,2297.952 C3120.774,2300.652 3120.774,2300.652 3117.174,2300.052 C3113.874,2299.352 3113.574,2299.552 3113.574,2301.552 C3113.574,2303.452 3113.174,2303.752 3110.874,2303.252 C3106.574,2302.452 3098.674,2304.552 3097.974,2306.752 C3097.574,2308.252 3097.074,2308.352 3095.374,2307.452 C3093.574,2306.452 3093.374,2306.552 3093.774,2308.352 C3094.174,2309.652 3093.874,2310.252 3093.174,2310.052 C3091.774,2309.552 3089.274,2311.352 3087.774,2314.052 C3086.774,2315.852 3086.574,2315.852 3086.474,2314.252 C3086.374,2313.352 3086.274,2311.952 3086.174,2311.252 C3085.974,2308.552 3075.974,2309.352 3072.974,2312.252 C3071.874,2313.352 3069.674,2313.952 3066.474,2313.952 C3061.774,2313.952 3060.374,2314.752 3062.574,2316.052 C3064.874,2317.452 3063.174,2318.152 3056.874,2318.352 C3050.374,2318.552 3049.874,2318.752 3046.474,2322.552 C3044.474,2324.752 3042.274,2326.552 3041.574,2326.552 C3039.874,2326.552 3037.674,2329.552 3037.574,2331.752 C3037.574,2332.752 3036.874,2333.552 3036.074,2333.552 C3035.274,2333.552 3034.574,2334.252 3034.574,2335.052 C3034.574,2335.952 3033.674,2336.552 3032.174,2336.552 C3030.874,2336.552 3029.574,2337.252 3029.174,2338.052 C3028.874,2338.852 3027.774,2339.552 3026.774,2339.552 C3025.774,2339.552 3024.474,2340.052 3023.974,2340.552 C3023.374,2341.152 3017.774,2342.052 3011.474,2342.652 C3005.174,2343.252 2998.574,2344.352 2996.674,2345.252 C2994.274,2346.352 2992.774,2346.552 2991.674,2345.852 C2990.274,2344.952 2983.274,2344.852 2981.574,2345.652 C2981.274,2345.852 2978.874,2346.052 2976.074,2346.152 C2967.974,2346.452 2960.874,2347.252 2959.674,2347.952 C2959.074,2348.352 2953.674,2348.852 2947.574,2348.952 C2939.274,2349.252 2936.374,2348.952 2935.474,2347.952 C2934.574,2346.852 2933.874,2346.852 2932.174,2347.752 C2931.074,2348.452 2929.674,2348.852 2929.074,2348.652 C2928.574,2348.552 2924.774,2348.452 2920.774,2348.452 C2916.774,2348.452 2912.674,2347.952 2911.674,2347.352 C2910.174,2346.452 2909.474,2346.552 2908.274,2347.752 C2907.374,2348.652 2906.974,2349.552 2907.274,2349.952 C2907.574,2350.252 2906.974,2351.352 2905.874,2352.252 C2904.774,2353.252 2904.074,2354.652 2904.274,2355.252 C2904.574,2355.952 2904.174,2356.552 2903.574,2356.552 C2902.874,2356.552 2902.574,2357.252 2902.974,2358.052 C2903.274,2358.852 2903.074,2359.552 2902.474,2359.552 C2901.874,2359.552 2901.774,2359.952 2902.074,2360.552 C2902.374,2361.052 2902.174,2361.552 2901.674,2361.552 C2901.074,2361.552 2900.574,2362.252 2900.574,2363.052 C2900.574,2363.852 2899.774,2364.552 2898.874,2364.652 C2897.774,2364.652 2897.574,2364.952 2898.374,2365.252 C2900.074,2365.952 2899.874,2368.552 2898.074,2368.552 C2897.274,2368.552 2896.574,2369.052 2896.574,2369.652 C2896.574,2370.152 2897.074,2370.352 2897.574,2370.052 C2898.174,2369.752 2898.574,2369.852 2898.574,2370.452 C2898.574,2370.952 2897.674,2371.752 2896.574,2372.052 C2895.474,2372.452 2894.874,2373.152 2895.174,2373.752 C2895.674,2374.452 2895.374,2374.652 2894.374,2374.252 C2892.574,2373.652 2888.574,2377.652 2888.574,2380.052 C2888.574,2380.952 2887.874,2381.852 2887.074,2382.252 C2886.174,2382.552 2885.574,2383.552 2885.674,2384.452 C2885.974,2386.652 2884.574,2389.652 2883.574,2389.052 C2883.174,2388.752 2882.274,2389.252 2881.574,2390.052 C2880.474,2391.352 2880.574,2391.452 2881.974,2390.952 C2882.874,2390.652 2883.574,2390.852 2883.574,2391.452 C2883.574,2392.052 2882.974,2392.552 2882.274,2392.552 C2880.374,2392.552 2877.274,2396.252 2878.074,2397.452 C2878.374,2398.052 2878.274,2398.552 2877.674,2398.552 C2876.674,2398.552 2874.574,2404.652 2874.574,2407.752 C2874.574,2408.752 2875.074,2409.552 2875.574,2409.552 C2876.174,2409.552 2876.574,2408.952 2876.374,2408.252 C2876.274,2407.652 2876.774,2405.252 2877.574,2403.052 C2878.874,2399.252 2878.974,2399.152 2879.674,2401.552 C2880.274,2403.852 2880.374,2403.852 2880.474,2401.852 C2880.574,2400.652 2881.174,2399.452 2881.874,2399.252 C2882.574,2398.952 2882.274,2398.652 2881.274,2398.652 C2880.274,2398.552 2879.574,2397.952 2879.874,2397.252 C2880.074,2396.652 2881.174,2396.152 2882.174,2396.352 C2883.974,2396.552 2883.974,2396.552 2882.174,2395.052 C2880.474,2393.752 2880.474,2393.552 2881.874,2393.552 C2882.774,2393.552 2884.074,2392.552 2884.674,2391.352 C2885.374,2390.052 2886.574,2388.452 2887.374,2387.652 C2888.374,2386.652 2888.474,2386.052 2887.674,2385.752 C2887.074,2385.552 2886.774,2384.952 2887.074,2384.552 C2887.374,2384.052 2888.374,2383.952 2889.174,2384.252 C2890.274,2384.652 2890.674,2384.252 2890.374,2383.052 C2890.174,2382.052 2890.674,2381.052 2891.374,2380.852 C2893.074,2380.252 2891.774,2385.752 2889.974,2386.852 C2889.274,2387.252 2888.874,2388.252 2889.174,2388.952 C2889.474,2389.752 2888.874,2390.852 2887.674,2391.452 C2886.574,2392.052 2885.874,2393.152 2886.174,2393.952 C2886.474,2394.752 2886.174,2395.652 2885.674,2396.052 C2885.074,2396.352 2884.774,2397.152 2885.074,2397.652 C2885.474,2398.152 2885.174,2398.552 2884.674,2398.552 C2884.074,2398.552 2883.674,2398.852 2883.774,2399.252 C2883.874,2400.152 2882.874,2403.252 2881.474,2405.852 C2880.974,2406.852 2880.774,2408.052 2881.074,2408.552 C2881.474,2409.152 2881.174,2409.552 2880.574,2409.552 C2879.174,2409.552 2876.174,2416.352 2874.474,2423.052 C2873.174,2428.252 2870.174,2433.052 2868.274,2433.052 C2867.574,2433.052 2866.974,2434.252 2866.774,2435.652 C2866.574,2437.252 2865.574,2438.752 2863.974,2439.352 C2862.674,2440.052 2861.574,2441.352 2861.574,2442.252 C2861.574,2443.252 2861.274,2445.152 2860.874,2446.552 C2860.274,2448.852 2860.374,2448.952 2861.974,2447.652 C2864.074,2445.852 2864.474,2446.352 2864.974,2451.452 C2865.174,2453.952 2865.974,2456.152 2867.074,2456.952 C2868.274,2457.752 2868.674,2459.052 2868.374,2460.352 C2868.074,2461.452 2868.374,2463.252 2869.074,2464.252 C2869.874,2465.352 2870.574,2467.452 2870.874,2469.152 C2871.074,2470.752 2871.574,2472.852 2871.974,2473.752 C2873.074,2476.152 2872.374,2478.652 2870.374,2479.952 C2868.074,2481.352 2865.974,2478.552 2865.074,2473.052 C2864.774,2470.852 2863.774,2468.352 2862.874,2467.352 C2861.774,2466.152 2861.474,2464.652 2861.874,2462.552 C2862.274,2460.952 2862.174,2459.552 2861.774,2459.552 C2861.374,2459.552 2860.474,2459.152 2859.674,2458.652 C2858.474,2457.852 2858.474,2457.352 2859.374,2456.252 C2860.374,2455.052 2860.174,2454.452 2858.074,2453.152 C2856.574,2452.152 2855.574,2450.552 2855.574,2449.152 C2855.574,2447.852 2854.574,2445.552 2853.374,2444.052 C2852.174,2442.452 2851.074,2440.052 2850.874,2438.652 C2850.274,2433.052 2848.274,2425.552 2847.374,2425.552 C2846.774,2425.552 2846.674,2424.252 2847.074,2422.452 C2847.574,2420.352 2847.374,2419.052 2846.574,2418.552 C2845.674,2417.952 2845.674,2417.252 2846.574,2415.652 C2847.774,2413.352 2847.074,2409.552 2845.474,2409.552 C2844.974,2409.552 2844.574,2408.852 2844.574,2407.952 C2844.574,2406.852 2843.974,2406.452 2842.574,2406.852 C2840.874,2407.252 2840.574,2406.852 2840.574,2404.452 C2840.574,2402.552 2841.074,2401.552 2842.074,2401.552 C2844.074,2401.552 2843.974,2399.152 2841.974,2397.452 C2841.174,2396.752 2840.674,2395.352 2840.974,2394.352 C2841.374,2392.752 2841.174,2392.652 2839.774,2393.752 C2838.474,2394.852 2838.274,2394.752 2838.774,2392.752 C2839.174,2391.252 2838.874,2390.252 2837.774,2389.652 C2836.274,2388.752 2836.274,2388.552 2837.974,2386.652 C2839.374,2385.052 2839.574,2384.552 2838.474,2384.552 C2837.374,2384.552 2837.374,2384.352 2838.574,2383.452 C2839.774,2382.652 2839.774,2382.252 2838.774,2381.852 C2837.774,2381.452 2837.774,2381.052 2838.674,2379.952 C2839.474,2378.952 2839.474,2377.352 2838.574,2373.652 C2837.974,2370.852 2837.774,2367.652 2838.174,2366.352 C2839.374,2362.752 2839.474,2361.452 2838.474,2362.152 C2837.974,2362.452 2837.574,2362.152 2837.574,2361.652 C2837.574,2361.052 2837.974,2360.552 2838.474,2360.552 C2838.974,2360.552 2839.474,2353.452 2839.574,2344.752 C2839.874,2319.952 2840.374,2311.352 2841.974,2307.552 C2842.774,2305.652 2843.874,2299.852 2844.474,2294.752 C2845.174,2288.252 2846.074,2284.652 2847.574,2282.652 C2848.674,2281.052 2849.574,2279.152 2849.574,2278.552 C2849.574,2277.852 2850.374,2277.552 2851.574,2277.852 C2852.674,2278.152 2853.674,2277.852 2853.674,2277.252 C2853.774,2276.552 2853.974,2274.452 2854.174,2272.552 C2854.674,2266.452 2855.774,2261.552 2856.674,2261.552 C2857.074,2261.552 2857.974,2262.352 2858.574,2263.252 C2859.574,2264.752 2859.674,2264.652 2859.274,2262.352 C2859.074,2260.852 2859.174,2259.852 2859.574,2260.052 C2861.174,2261.052 2863.774,2256.452 2863.874,2252.652 C2863.974,2250.352 2864.274,2248.552 2864.574,2248.552 C2864.874,2248.552 2865.974,2247.052 2867.074,2245.252 C2868.774,2242.352 2873.774,2235.452 2877.074,2231.352 C2877.774,2230.452 2878.174,2229.552 2877.974,2229.252 C2877.174,2228.452 2881.474,2217.852 2885.574,2210.552 C2889.374,2203.852 2897.674,2194.152 2905.974,2186.652 C2907.574,2185.252 2911.374,2181.652 2914.374,2178.752 C2917.374,2175.952 2920.174,2173.552 2920.574,2173.552 C2921.074,2173.552 2921.674,2172.452 2921.974,2171.052 C2922.274,2169.752 2923.574,2168.052 2924.874,2167.452 C2926.074,2166.752 2927.474,2165.652 2927.874,2164.852 C2928.274,2164.152 2930.374,2162.652 2932.474,2161.652 C2934.474,2160.552 2937.874,2157.952 2939.774,2155.752 C2941.774,2153.552 2944.274,2151.452 2945.374,2151.152 C2946.474,2150.752 2950.374,2147.352 2953.974,2143.552 C2957.574,2139.652 2960.974,2136.552 2961.574,2136.552 C2962.074,2136.552 2962.574,2135.952 2962.574,2135.152 C2962.574,2134.452 2963.674,2133.052 2965.074,2132.152 C2966.374,2131.252 2968.274,2129.152 2969.074,2127.552 C2969.974,2125.852 2971.174,2124.552 2971.874,2124.552 C2972.574,2124.552 2976.074,2121.452 2979.774,2117.652 C2986.274,2111.152 2989.074,2109.552 2994.674,2109.552 C2995.874,2109.552 2996.274,2110.052 2995.974,2111.052 C2995.574,2111.852 2994.274,2112.552 2993.074,2112.552 C2989.774,2112.552 2989.074,2114.252 2992.074,2114.752 C2993.474,2115.052 2995.074,2114.652 2995.674,2113.952 C2996.274,2113.152 2997.374,2112.552 2997.974,2112.552 C2998.574,2112.552 3001.474,2110.952 3004.474,2109.052 C3007.374,2107.152 3010.574,2105.552 3011.474,2105.552 C3012.474,2105.552 3016.774,2103.552 3021.174,2101.052 C3025.474,2098.552 3029.974,2096.252 3030.974,2095.952 C3033.174,2095.252 3036.474,2091.652 3036.574,2089.952 C3036.574,2088.852 3043.074,2087.552 3048.174,2087.552 C3049.674,2087.552 3051.874,2086.152 3053.974,2083.852 C3057.074,2080.452 3057.674,2080.152 3062.374,2080.452 C3066.874,2080.652 3067.474,2080.452 3067.774,2078.552 C3067.974,2076.952 3069.674,2075.752 3074.074,2073.952 C3079.674,2071.652 3080.174,2071.652 3081.274,2073.252 C3082.474,2074.852 3082.774,2074.752 3085.674,2072.652 C3087.974,2070.952 3091.174,2070.052 3096.874,2069.352 C3102.074,2068.752 3105.374,2067.852 3106.074,2066.852 C3106.774,2065.952 3109.474,2065.052 3112.674,2064.752 C3115.674,2064.452 3118.574,2063.652 3119.074,2062.952 C3120.374,2061.252 3127.974,2058.552 3131.574,2058.552 C3133.074,2058.552 3135.674,2057.852 3137.174,2057.052 C3138.774,2056.252 3141.774,2055.552 3143.774,2055.552 C3149.874,2055.552 3157.574,2053.552 3157.574,2051.952 C3157.574,2050.352 3157.174,2050.352 3166.074,2050.052 C3169.974,2049.952 3176.674,2049.052 3181.074,2048.152 C3185.474,2047.252 3192.474,2046.652 3196.574,2046.752 C3200.674,2046.752 3210.174,2046.552 3217.674,2046.052 C3226.774,2045.552 3231.974,2045.652 3233.274,2046.352 C3234.774,2047.152 3237.074,2046.952 3242.574,2045.552 C3247.574,2044.252 3250.474,2043.952 3251.674,2044.652 C3252.674,2045.152 3254.374,2045.552 3255.574,2045.552 C3256.774,2045.552 3258.674,2046.152 3259.874,2046.752 C3262.574,2048.352 3268.074,2048.652 3272.074,2047.552 C3277.874,2045.952 3281.674,2045.552 3281.074,2046.552 C3280.674,2047.152 3281.674,2047.452 3283.574,2047.352 C3285.274,2047.252 3286.974,2046.752 3287.174,2046.352 C3287.474,2045.952 3290.074,2045.552 3293.074,2045.552 C3296.074,2045.552 3298.774,2045.052 3299.074,2044.552 C3299.974,2043.052 3307.274,2038.552 3308.674,2038.552 C3309.674,2038.552 3309.674,2039.952 3308.474,2044.552 C3308.174,2045.752 3309.274,2045.952 3314.974,2045.752 C3318.774,2045.652 3322.474,2045.052 3323.174,2044.452 C3323.974,2043.752 3325.074,2043.752 3326.174,2044.352 C3327.174,2044.952 3329.374,2044.952 3331.974,2044.352 C3337.474,2043.152 3341.574,2042.852 3364.574,2042.052 C3375.274,2041.752 3385.674,2041.052 3387.574,2040.552 C3389.474,2039.952 3392.674,2039.552 3394.674,2039.552 C3396.874,2039.552 3398.574,2038.952 3398.874,2038.152 C3399.374,2036.852 3400.674,2036.552 3410.274,2035.052 C3413.874,2034.452 3414.474,2034.652 3415.074,2036.552 C3415.574,2038.152 3416.374,2038.652 3418.174,2038.252 C3419.674,2037.952 3420.574,2038.352 3420.774,2039.352 C3420.974,2040.352 3423.374,2041.552 3427.574,2042.552 C3433.774,2044.052 3434.074,2044.252 3434.374,2047.352 C3434.674,2050.252 3434.974,2050.552 3438.174,2050.552 C3442.374,2050.552 3442.774,2048.352 3438.874,2046.852 C3436.174,2045.852 3436.174,2045.752 3438.374,2045.652 C3439.774,2045.552 3440.974,2044.752 3441.274,2043.652 C3442.374,2039.452 3458.574,2040.852 3458.574,2045.152 C3458.574,2046.152 3459.074,2046.552 3460.074,2046.252 C3462.374,2045.352 3462.774,2047.252 3460.974,2050.052 C3459.374,2052.552 3459.374,2052.552 3462.174,2052.552 C3463.874,2052.552 3464.574,2052.252 3463.874,2051.752 C3462.374,2050.752 3462.874,2045.652 3464.574,2044.552 C3465.274,2044.052 3465.474,2042.952 3465.074,2041.652 C3464.474,2039.552 3464.674,2039.452 3470.774,2039.752 C3477.874,2040.052 3479.374,2041.852 3472.974,2042.352 C3469.674,2042.552 3468.674,2043.152 3468.174,2044.852 C3467.274,2048.352 3467.374,2048.452 3470.374,2047.052 C3471.874,2046.252 3474.474,2045.852 3476.074,2046.052 C3477.774,2046.252 3479.874,2046.452 3480.874,2046.452 C3481.774,2046.552 3482.574,2047.352 3482.574,2048.252 C3482.574,2049.652 3482.874,2049.552 3484.574,2047.752 C3486.974,2045.152 3488.574,2045.052 3494.874,2046.952 C3498.874,2048.152 3499.574,2048.152 3499.574,2046.952 C3499.574,2046.152 3500.074,2045.552 3500.574,2045.552 C3501.174,2045.552 3501.574,2044.852 3501.574,2044.052 C3501.574,2043.252 3501.074,2042.552 3500.474,2042.552 C3499.874,2042.552 3499.574,2041.852 3499.874,2041.052 C3500.374,2039.952 3499.974,2039.852 3498.074,2040.552 C3496.474,2041.152 3494.574,2041.152 3492.974,2040.552 C3491.574,2039.952 3488.474,2039.552 3486.174,2039.552 C3483.874,2039.552 3481.674,2039.252 3481.274,2038.952 C3480.274,2037.952 3481.774,2035.452 3483.974,2034.552 L3484.875,2034.343 z" fill="#A28E7E"/>
      <path d="M3202.097,2242.552 C3202.348,2242.627 3202.643,2242.618 3202.85,2242.778 C3203.532,2243.303 3203.059,2244.568 3202.928,2245.23 C3202.529,2246.83 3202.029,2248.93 3201.928,2250.03 C3201.328,2253.43 3200.128,2256.531 3199.328,2256.53 C3198.928,2256.531 3198.029,2258.031 3197.229,2259.73 C3195.628,2264.031 3195.628,2264.031 3193.828,2262.53 C3192.628,2261.531 3192.328,2261.531 3192.328,2262.53 C3192.328,2263.23 3191.628,2263.531 3190.828,2263.13 C3189.928,2262.83 3189.328,2263.13 3189.328,2264.03 C3189.328,2264.83 3188.928,2265.531 3188.328,2265.53 C3187.828,2265.531 3187.628,2266.23 3187.928,2267.03 C3188.328,2267.83 3189.328,2268.531 3190.428,2268.53 C3191.428,2268.531 3192.729,2269.531 3193.428,2270.63 C3194.029,2271.83 3194.128,2272.531 3193.528,2272.13 C3193.029,2271.83 3192.229,2272.63 3191.928,2274.03 C3191.529,2275.63 3190.628,2276.531 3189.328,2276.53 C3188.328,2276.531 3187.128,2276.93 3186.828,2277.53 C3186.529,2278.031 3185.428,2278.531 3184.428,2278.53 C3183.529,2278.531 3181.729,2279.43 3180.528,2280.53 C3179.328,2281.63 3177.729,2282.531 3176.828,2282.53 C3176.029,2282.531 3175.328,2282.93 3175.328,2283.43 C3175.328,2283.93 3174.428,2284.13 3173.328,2283.83 C3169.428,2282.83 3171.529,2280.43 3178.128,2278.43 C3180.428,2277.83 3182.328,2276.73 3182.328,2276.23 C3182.328,2275.73 3183.229,2274.531 3184.328,2273.53 C3185.529,2272.43 3186.029,2271.13 3185.628,2269.73 C3185.128,2267.73 3185.029,2267.73 3182.729,2269.23 C3179.529,2271.33 3173.628,2269.83 3174.128,2267.13 C3174.328,2266.13 3174.029,2265.63 3173.528,2265.93 C3172.928,2266.23 3172.229,2265.93 3171.928,2265.33 C3171.428,2264.33 3171.229,2264.33 3170.729,2265.43 C3170.229,2266.43 3169.928,2266.43 3169.328,2265.53 C3168.128,2263.63 3161.328,2266.43 3160.229,2269.23 C3159.828,2270.43 3159.128,2273.83 3158.729,2276.73 C3157.828,2283.031 3155.729,2285.83 3153.828,2283.23 C3152.628,2281.63 3152.428,2281.63 3151.028,2283.03 C3149.029,2284.93 3145.229,2285.031 3145.928,2283.13 C3146.328,2282.13 3145.729,2281.93 3143.928,2282.23 C3142.529,2282.531 3141.328,2283.33 3141.328,2283.93 C3141.328,2285.33 3147.029,2290.531 3147.828,2289.73 C3148.128,2289.43 3148.328,2289.63 3148.328,2290.23 C3148.328,2290.83 3147.628,2291.63 3146.729,2291.93 C3145.928,2292.23 3145.529,2292.93 3145.828,2293.53 C3146.128,2294.031 3145.928,2294.531 3145.428,2294.53 C3144.828,2294.531 3144.328,2295.23 3144.328,2296.03 C3144.328,2296.83 3143.628,2297.531 3142.828,2297.53 C3142.029,2297.531 3141.328,2297.031 3141.328,2296.53 C3141.328,2295.93 3140.828,2295.63 3140.229,2295.73 C3139.628,2295.93 3138.828,2295.43 3138.628,2294.83 C3138.328,2293.93 3139.029,2293.73 3141.229,2294.13 C3144.729,2294.83 3144.828,2294.63 3143.229,2291.13 C3141.128,2286.63 3135.828,2286.83 3134.828,2291.43 C3134.328,2293.93 3133.828,2294.13 3130.028,2294.03 C3127.729,2293.93 3124.328,2293.031 3122.428,2292.03 L3119.028,2290.33 L3121.428,2288.43 C3122.729,2287.43 3124.128,2286.531 3124.528,2286.53 C3124.828,2286.531 3125.729,2284.93 3126.328,2283.03 C3127.029,2280.93 3129.029,2278.531 3131.428,2276.83 C3133.529,2275.23 3135.328,2273.23 3135.328,2272.23 C3135.328,2271.33 3135.828,2270.531 3136.428,2270.53 C3137.029,2270.531 3138.928,2269.531 3140.628,2268.33 C3142.328,2267.13 3144.828,2266.13 3146.229,2266.13 C3148.328,2266.031 3148.729,2265.63 3148.528,2263.73 C3148.229,2262.031 3148.729,2261.531 3150.229,2261.53 C3151.828,2261.531 3152.328,2262.23 3152.428,2264.23 C3152.529,2267.031 3152.529,2267.531 3151.628,2270.73 C3151.328,2271.73 3151.529,2272.531 3151.928,2272.53 C3153.428,2272.531 3157.729,2262.23 3157.528,2259.33 C3157.328,2257.531 3157.928,2256.23 3159.328,2255.53 C3160.928,2254.73 3161.328,2254.73 3161.328,2255.83 C3161.328,2257.43 3164.029,2258.43 3166.128,2257.83 C3166.729,2257.531 3167.328,2255.93 3167.328,2254.23 C3167.428,2251.23 3167.529,2251.13 3168.828,2252.93 C3169.628,2253.93 3170.428,2255.33 3170.628,2255.93 C3170.928,2256.73 3171.628,2256.73 3172.928,2255.83 C3176.529,2253.63 3184.828,2249.73 3187.428,2249.13 C3190.529,2248.43 3192.428,2251.13 3189.729,2252.23 C3188.628,2252.63 3188.529,2253.031 3189.328,2253.53 C3189.928,2253.93 3190.529,2255.43 3190.729,2256.83 C3191.128,2260.63 3192.128,2261.23 3192.928,2258.03 C3193.428,2256.031 3194.029,2255.531 3195.428,2255.83 C3198.029,2256.531 3197.828,2255.33 3194.928,2253.13 C3193.029,2251.73 3192.529,2250.531 3192.729,2247.73 C3192.928,2243.93 3194.928,2242.23 3195.928,2245.03 C3196.529,2246.43 3196.729,2246.33 3198.028,2244.53 C3198.828,2243.43 3200.328,2242.531 3201.528,2242.53 L3202.097,2242.552 z" fill="#A28E7E"/>
    </g>
  </g>
</svg>
