<?xml version="1.0" encoding="UTF-8"?>
<!DOCTYPE svg PUBLIC "-//W3C//DTD SVG 1.1//EN" "http://www.w3.org/Graphics/SVG/1.1/DTD/svg11.dtd">
<svg version="1.1" xmlns="http://www.w3.org/2000/svg" xmlns:xlink="http://www.w3.org/1999/xlink" x="0" y="0" width="5000" height="5000" viewBox="0, 0, 5000, 5000">
  <g id="leftEyeCross_dirtyRose" transform="translate(0, 0)">
    <path d="M2019.91,2238.278 L2020.086,2238.323 C2021.186,2238.923 2022.786,2250.223 2023.486,2261.223 C2023.886,2267.623 2024.686,2271.823 2025.586,2272.823 C2026.386,2273.623 2026.986,2275.323 2026.986,2276.522 C2026.986,2277.623 2027.486,2278.923 2027.986,2279.223 C2028.586,2279.523 2028.986,2280.623 2028.986,2281.623 C2028.986,2283.523 2036.086,2290.823 2039.786,2292.723 C2041.586,2293.623 2042.086,2294.523 2041.686,2296.423 C2041.386,2297.923 2041.786,2299.123 2042.586,2299.423 C2043.386,2299.723 2043.986,2300.323 2043.986,2300.823 C2043.986,2302.123 2039.886,2301.823 2037.086,2300.323 C2034.686,2299.023 2030.386,2299.323 2029.386,2300.823 C2029.086,2301.323 2026.986,2301.723 2024.786,2301.723 C2022.486,2301.723 2020.886,2302.023 2021.286,2302.323 C2021.586,2302.723 2020.986,2303.723 2019.886,2304.623 C2018.386,2305.823 2017.586,2308.223 2016.886,2313.723 C2015.586,2323.023 2013.286,2328.123 2010.186,2328.522 C2006.586,2329.023 2003.986,2326.023 2003.986,2321.423 C2003.986,2319.023 2003.286,2316.623 2002.386,2315.522 C2000.886,2313.923 2000.786,2312.923 2001.786,2306.823 C2002.486,2303.023 2003.286,2299.223 2003.586,2298.323 C2003.986,2297.323 2003.686,2296.723 2002.686,2296.723 C2001.886,2296.723 2000.186,2298.823 1998.886,2301.423 C1996.886,2305.523 1995.986,2306.223 1993.186,2306.522 C1988.986,2306.923 1988.186,2304.823 1990.986,2300.923 C1993.386,2297.723 1993.786,2294.023 1992.586,2286.423 C1991.986,2282.523 1991.386,2281.423 1988.686,2280.022 C1983.086,2277.223 1975.186,2269.723 1975.686,2267.823 C1976.086,2266.323 1976.886,2266.223 1982.786,2267.022 C1993.286,2268.523 1997.286,2268.123 2002.886,2265.223 C2007.786,2262.823 2008.086,2262.423 2007.986,2258.923 C2007.886,2254.023 2008.986,2248.523 2010.286,2246.823 C2010.886,2246.123 2012.486,2245.123 2013.786,2244.623 C2014.986,2244.123 2016.786,2242.423 2017.786,2240.823 C2018.354,2239.854 2018.914,2238.851 2019.91,2238.278 z" fill="#B6425F"/>
  </g>
</svg>
