<?xml version="1.0" encoding="UTF-8"?>
<!DOCTYPE svg PUBLIC "-//W3C//DTD SVG 1.1//EN" "http://www.w3.org/Graphics/SVG/1.1/DTD/svg11.dtd">
<svg version="1.1" xmlns="http://www.w3.org/2000/svg" xmlns:xlink="http://www.w3.org/1999/xlink" x="0" y="0" width="5000" height="5000" viewBox="0, 0, 5000, 5000">
  <g id="rightIris_sky" transform="translate(0, 0)">
    <g id="right_eye_inverted">
      <path d="M3205.96,2070.863 C3204.561,2072.462 3205.361,2073.562 3207.96,2073.562 C3209.861,2073.562 3210.26,2074.363 3208.96,2076.062 C3208.26,2077.162 3208.161,2077.162 3201.561,2077.462 C3197.46,2077.662 3197.361,2077.762 3200.061,2078.762 C3202.561,2079.662 3203.861,2081.562 3201.861,2081.562 C3199.861,2081.562 3199.96,2085.962 3202.061,2089.162 C3204.26,2092.462 3205.76,2093.462 3205.76,2091.562 C3205.76,2090.962 3206.161,2090.562 3206.561,2090.562 C3207.061,2090.562 3207.46,2092.363 3207.561,2094.662 C3207.76,2098.262 3207.46,2098.762 3204.46,2100.062 C3201.76,2101.262 3201.661,2101.462 3203.561,2101.562 C3204.76,2101.562 3205.76,2102.162 3205.76,2102.962 C3205.76,2103.863 3206.861,2104.262 3208.96,2104.162 C3212.96,2104.062 3213.96,2106.762 3210.861,2109.462 C3208.26,2111.662 3208.161,2113.262 3210.561,2113.863 C3212.161,2114.262 3212.161,2114.363 3210.46,2114.462 C3209.161,2114.562 3208.76,2115.062 3209.161,2116.262 C3209.561,2117.562 3208.96,2118.462 3207.161,2119.262 C3204.76,2120.363 3204.161,2120.162 3201.76,2117.762 C3200.161,2116.262 3197.861,2114.162 3196.561,2113.062 C3195.26,2111.962 3193.061,2109.562 3191.861,2107.762 C3187.661,2101.762 3180.26,2100.363 3175.561,2104.762 L3172.46,2107.662 L3173.161,2116.162 C3173.76,2123.462 3173.661,2125.062 3172.26,2126.562 C3170.46,2128.562 3170.96,2130.562 3173.361,2130.562 C3174.76,2130.562 3175.46,2132.462 3174.061,2132.662 C3168.361,2133.262 3165.561,2136.262 3166.161,2141.162 C3166.76,2145.962 3167.561,2146.863 3170.661,2146.062 C3176.96,2144.462 3177.26,2144.462 3191.46,2149.762 C3194.561,2150.962 3197.46,2151.462 3198.861,2151.062 C3200.161,2150.662 3201.26,2150.863 3201.76,2151.562 C3202.361,2152.562 3203.061,2152.462 3204.76,2151.262 C3207.161,2149.562 3209.76,2149.962 3209.76,2152.062 C3209.76,2152.762 3210.46,2153.863 3211.26,2154.562 C3212.96,2155.962 3213.26,2159.662 3211.76,2161.162 C3210.661,2162.262 3210.061,2165.262 3209.861,2170.762 C3209.76,2174.162 3208.661,2174.262 3205.361,2171.162 C3202.26,2168.363 3202.26,2168.062 3204.76,2165.363 C3207.361,2162.562 3206.96,2161.363 3203.26,2160.962 C3201.26,2160.762 3199.661,2161.363 3198.46,2162.662 C3197.361,2163.762 3195.96,2164.462 3195.26,2164.162 C3194.46,2163.863 3192.26,2164.162 3190.161,2164.762 C3186.96,2165.562 3186.161,2165.462 3185.161,2164.062 C3184.361,2162.962 3183.46,2162.662 3182.561,2163.162 C3181.861,2163.662 3179.361,2164.562 3177.061,2165.162 C3172.26,2166.363 3171.861,2165.863 3174.161,2161.262 C3175.561,2158.762 3175.46,2158.562 3173.661,2158.562 C3172.561,2158.562 3171.46,2159.262 3171.161,2160.062 C3170.76,2160.863 3169.661,2161.562 3168.661,2161.562 C3166.561,2161.562 3166.561,2161.562 3166.26,2166.863 C3166.061,2170.062 3165.26,2171.462 3161.861,2174.462 C3159.661,2176.462 3157.76,2178.762 3157.76,2179.462 C3157.76,2180.462 3156.861,2180.662 3154.76,2180.162 C3152.561,2179.762 3151.76,2179.962 3151.76,2180.962 C3151.76,2182.262 3146.76,2183.863 3145.861,2182.962 C3145.561,2182.662 3145.861,2181.062 3146.46,2179.262 C3147.861,2175.363 3147.061,2170.262 3145.161,2170.962 C3143.26,2171.662 3142.361,2169.762 3143.76,2168.062 C3145.361,2166.162 3144.161,2162.762 3142.561,2164.363 C3141.161,2165.762 3136.361,2165.962 3137.26,2164.662 C3137.561,2164.162 3137.46,2163.462 3136.96,2163.262 C3136.561,2162.962 3135.76,2163.863 3135.061,2165.162 C3134.161,2167.162 3134.26,2167.762 3135.561,2168.562 C3136.561,2169.062 3137.061,2169.562 3136.76,2169.562 C3136.46,2169.662 3134.76,2169.863 3132.96,2170.062 C3126.96,2170.562 3127.26,2172.662 3133.46,2173.062 C3138.361,2173.363 3138.26,2173.262 3136.76,2175.062 C3136.061,2175.863 3134.561,2176.562 3133.361,2176.562 C3132.161,2176.562 3130.76,2176.962 3130.161,2177.462 C3129.661,2177.962 3127.661,2178.863 3125.76,2179.363 C3123.061,2180.062 3122.361,2180.762 3122.46,2182.262 C3122.661,2183.863 3121.96,2184.462 3119.26,2184.962 C3116.96,2185.462 3115.661,2186.363 3115.26,2187.863 C3114.561,2190.062 3108.361,2196.562 3106.861,2196.562 C3106.361,2196.562 3105.76,2197.762 3105.46,2199.262 C3105.161,2200.863 3104.46,2203.962 3103.96,2206.363 C3103.46,2208.662 3103.46,2210.562 3103.861,2210.562 C3104.361,2210.562 3104.76,2210.062 3104.76,2209.462 C3104.76,2208.863 3105.361,2208.562 3106.061,2208.863 C3106.661,2209.062 3107.161,2209.962 3106.96,2210.863 C3106.861,2211.662 3107.161,2212.662 3107.76,2213.062 C3108.26,2213.363 3108.76,2213.162 3108.76,2212.662 C3108.76,2210.462 3110.561,2211.662 3110.96,2214.062 C3111.361,2215.962 3111.061,2216.562 3109.661,2216.562 C3106.561,2216.562 3102.96,2224.162 3102.26,2232.162 C3101.561,2239.262 3101.46,2239.262 3098.061,2240.363 C3095.26,2241.162 3094.561,2241.162 3094.061,2239.962 C3093.76,2239.162 3093.96,2237.962 3094.561,2237.262 C3096.561,2234.662 3095.061,2229.562 3092.26,2229.562 C3090.661,2229.562 3088.661,2234.162 3089.46,2236.262 C3089.861,2237.162 3091.46,2239.062 3093.061,2240.462 C3094.661,2241.863 3096.661,2243.863 3097.561,2244.762 C3098.46,2245.762 3100.161,2246.562 3101.26,2246.562 C3102.46,2246.562 3104.161,2247.162 3105.161,2247.863 C3106.76,2248.962 3106.861,2249.562 3105.76,2251.462 C3104.361,2254.162 3104.46,2254.363 3107.76,2254.762 C3109.161,2254.962 3110.76,2255.462 3111.361,2255.863 C3112.061,2256.262 3112.76,2255.662 3113.161,2254.162 C3113.96,2251.062 3119.861,2248.162 3123.76,2249.062 C3125.76,2249.462 3126.76,2249.363 3126.76,2248.562 C3126.76,2247.962 3127.161,2247.662 3127.76,2248.062 C3128.26,2248.363 3128.46,2249.262 3128.161,2249.962 C3127.861,2250.662 3128.361,2251.762 3129.161,2252.462 C3129.861,2253.062 3130.361,2254.462 3130.061,2255.462 C3129.76,2256.462 3130.061,2257.662 3130.661,2257.962 C3131.26,2258.363 3131.76,2259.562 3131.76,2260.662 C3131.76,2262.562 3131.861,2262.562 3133.96,2261.162 C3135.161,2260.262 3137.061,2259.562 3138.061,2259.562 C3139.161,2259.562 3140.161,2258.662 3140.46,2257.462 C3140.96,2255.863 3141.561,2255.562 3143.76,2256.062 C3145.361,2256.363 3146.861,2256.162 3147.26,2255.662 C3148.361,2253.662 3151.76,2254.363 3151.76,2256.562 C3151.76,2257.762 3151.061,2258.562 3149.96,2258.562 C3147.861,2258.562 3143.76,2261.262 3143.76,2262.762 C3143.76,2263.363 3144.861,2263.562 3146.26,2263.363 C3147.661,2263.062 3148.76,2263.262 3148.76,2263.662 C3148.76,2264.162 3147.96,2264.562 3146.861,2264.562 C3145.861,2264.562 3144.361,2265.262 3143.661,2266.162 C3142.46,2267.662 3142.76,2268.262 3146.161,2271.162 C3149.861,2274.363 3150.161,2274.462 3152.861,2273.062 C3154.361,2272.262 3155.861,2270.662 3156.26,2269.562 C3156.661,2268.162 3157.76,2267.562 3159.861,2267.562 C3161.46,2267.562 3162.76,2267.062 3162.76,2266.562 C3162.76,2265.962 3163.361,2265.562 3164.061,2265.562 C3165.561,2265.562 3169.061,2263.062 3172.061,2259.762 C3173.161,2258.562 3174.96,2257.562 3175.96,2257.562 C3177.061,2257.562 3177.76,2256.863 3177.76,2255.562 C3177.76,2254.363 3178.46,2253.562 3179.561,2253.562 C3180.46,2253.562 3182.361,2252.662 3183.76,2251.562 C3185.161,2250.462 3186.661,2249.562 3187.061,2249.562 C3187.561,2249.562 3189.061,2248.662 3190.561,2247.562 C3193.561,2245.162 3196.061,2246.462 3193.361,2249.062 C3192.46,2249.962 3191.76,2251.262 3191.76,2251.863 C3191.76,2252.662 3192.161,2252.562 3192.96,2251.762 C3193.661,2251.062 3194.96,2250.562 3195.96,2250.562 C3197.26,2250.562 3197.76,2249.762 3197.76,2248.062 C3197.76,2244.363 3200.661,2241.662 3205.46,2240.962 C3209.26,2240.363 3209.76,2240.062 3209.76,2237.662 C3209.76,2234.162 3210.76,2232.962 3213.76,2233.062 C3215.161,2233.062 3216.861,2232.262 3217.561,2231.262 C3218.26,2230.363 3219.561,2229.562 3220.26,2229.562 C3221.061,2229.562 3222.361,2227.962 3223.161,2226.062 C3223.96,2224.162 3225.061,2222.562 3225.661,2222.562 C3226.161,2222.562 3227.061,2221.363 3227.661,2219.762 C3228.76,2217.062 3234.46,2208.762 3237.76,2205.062 C3240.061,2202.462 3241.26,2198.462 3239.96,2197.662 C3239.161,2197.262 3239.161,2195.662 3239.861,2192.562 C3241.161,2186.863 3243.561,2182.962 3244.96,2184.363 C3245.661,2185.062 3246.76,2183.962 3248.361,2180.962 C3249.661,2178.462 3250.76,2175.863 3250.76,2175.062 C3250.76,2174.262 3251.361,2173.262 3252.161,2172.863 C3252.96,2172.363 3253.861,2169.762 3254.161,2166.762 C3254.46,2163.762 3255.061,2160.962 3255.361,2160.462 C3255.661,2159.863 3255.361,2158.863 3254.76,2157.962 C3253.861,2156.962 3253.76,2154.662 3254.161,2150.662 C3254.561,2146.863 3254.46,2144.462 3253.76,2144.062 C3253.26,2143.762 3252.76,2141.262 3252.76,2138.662 C3252.76,2135.162 3252.26,2133.363 3250.861,2132.162 C3248.96,2130.462 3248.96,2130.363 3250.76,2127.262 C3253.161,2123.363 3252.361,2119.062 3248.561,2115.363 C3246.46,2113.262 3245.861,2111.962 3246.361,2110.162 C3246.76,2108.363 3246.46,2107.762 3244.861,2107.262 C3242.76,2106.762 3241.861,2103.562 3243.76,2103.562 C3244.361,2103.562 3244.76,2102.863 3244.76,2102.062 C3244.76,2101.262 3243.96,2100.562 3242.861,2100.562 C3240.661,2100.562 3239.46,2096.962 3240.861,2094.363 C3241.76,2092.762 3241.361,2092.562 3237.76,2092.562 C3233.661,2092.562 3232.061,2090.462 3235.26,2089.162 C3236.061,2088.863 3236.76,2088.162 3236.76,2087.562 C3236.76,2086.962 3236.26,2086.762 3235.76,2087.062 C3234.061,2088.062 3229.96,2084.863 3229.561,2082.363 C3229.361,2081.062 3228.561,2080.062 3227.76,2080.062 C3226.96,2080.062 3225.76,2078.962 3225.161,2077.662 C3223.661,2074.662 3221.661,2073.562 3215.26,2071.962 C3212.561,2071.363 3209.561,2070.462 3208.661,2070.162 C3207.76,2069.762 3206.561,2070.062 3205.96,2070.863 z" fill="#D7E5FF"/>
      <path d="M3145.46,2101.762 C3143.061,2103.562 3142.46,2103.662 3141.661,2102.462 C3140.96,2101.363 3140.76,2101.562 3140.76,2103.262 C3140.76,2104.662 3140.161,2105.562 3139.26,2105.562 C3138.46,2105.562 3137.76,2105.062 3137.76,2104.363 C3137.76,2103.662 3136.661,2104.662 3135.26,2106.562 C3132.161,2110.762 3132.161,2110.962 3135.161,2110.162 C3136.561,2109.863 3137.96,2109.962 3138.26,2110.562 C3138.561,2111.062 3138.161,2111.562 3137.361,2111.562 C3136.561,2111.562 3135.26,2112.462 3134.46,2113.662 C3133.061,2115.662 3132.96,2115.662 3129.161,2112.062 C3126.361,2109.562 3124.661,2108.662 3123.26,2109.162 C3122.161,2109.462 3119.061,2110.262 3116.361,2110.762 C3112.661,2111.662 3111.061,2112.562 3109.861,2114.762 C3108.061,2117.863 3104.361,2118.562 3103.361,2115.962 C3102.561,2113.762 3101.161,2114.962 3100.361,2118.562 C3100.061,2120.262 3098.661,2122.762 3097.26,2124.162 C3095.861,2125.562 3094.76,2127.462 3094.861,2128.363 C3094.96,2129.363 3094.96,2130.762 3094.861,2131.562 C3094.76,2132.762 3094.46,2132.662 3093.661,2131.262 C3093.061,2130.363 3092.96,2128.562 3093.26,2127.462 C3093.661,2126.363 3093.361,2124.863 3092.76,2124.062 C3091.76,2122.863 3091.861,2122.562 3093.161,2122.562 C3094.061,2122.562 3094.76,2121.863 3094.76,2121.062 C3094.76,2120.262 3094.361,2119.562 3093.76,2119.562 C3092.061,2119.562 3090.561,2123.762 3091.161,2126.662 C3091.46,2128.562 3091.26,2129.562 3090.561,2129.562 C3089.96,2129.562 3088.661,2130.262 3087.76,2131.062 C3085.861,2132.863 3082.76,2132.062 3082.76,2129.863 C3082.76,2129.062 3082.161,2128.562 3081.561,2128.863 C3080.861,2129.062 3080.361,2130.462 3080.46,2131.962 C3080.561,2133.363 3080.26,2134.363 3079.661,2134.062 C3079.161,2133.662 3078.76,2133.962 3078.76,2134.462 C3078.76,2135.762 3079.76,2135.863 3085.361,2135.662 C3089.661,2135.363 3096.76,2137.762 3096.76,2139.462 C3096.76,2139.962 3095.96,2141.762 3095.061,2143.363 C3093.361,2146.262 3093.361,2146.462 3095.161,2148.462 C3096.26,2149.662 3097.76,2150.562 3098.661,2150.562 C3099.561,2150.562 3101.061,2151.863 3102.061,2153.462 L3103.76,2156.363 L3116.46,2156.062 C3132.46,2155.762 3132.061,2155.863 3131.46,2154.162 C3131.161,2153.363 3131.96,2152.363 3133.361,2151.662 C3136.861,2150.162 3137.361,2150.262 3140.26,2153.162 C3142.361,2155.262 3143.361,2155.562 3146.061,2155.062 C3150.861,2154.062 3151.361,2152.962 3147.861,2151.162 C3146.061,2150.162 3144.76,2148.762 3144.76,2147.562 C3144.76,2146.562 3144.26,2145.363 3143.661,2145.062 C3142.96,2144.562 3143.26,2143.662 3144.361,2142.462 C3145.96,2140.662 3145.96,2140.562 3143.661,2140.562 C3142.26,2140.562 3140.46,2139.662 3139.46,2138.562 C3137.361,2136.062 3137.361,2135.863 3139.76,2135.262 C3141.46,2134.863 3141.661,2133.863 3141.661,2127.662 C3141.661,2120.863 3141.561,2120.662 3139.661,2121.662 C3138.161,2122.363 3137.96,2123.062 3138.661,2123.962 C3139.26,2124.662 3139.861,2126.762 3139.96,2128.662 C3140.26,2131.462 3139.861,2132.062 3138.061,2132.363 C3135.561,2132.762 3133.361,2129.662 3134.361,2127.162 C3134.661,2126.262 3134.26,2124.863 3133.361,2124.062 C3130.46,2121.162 3131.361,2118.863 3135.661,2118.162 C3140.361,2117.462 3141.061,2116.562 3141.061,2111.462 C3141.061,2108.062 3141.361,2107.562 3143.361,2107.562 C3145.96,2107.562 3149.161,2103.662 3148.561,2101.162 C3148.361,2099.962 3147.76,2100.062 3145.46,2101.762 z" fill="#D7E5FF"/>
    </g>
  </g>
</svg>
