<?xml version="1.0" encoding="UTF-8"?>
<!DOCTYPE svg PUBLIC "-//W3C//DTD SVG 1.1//EN" "http://www.w3.org/Graphics/SVG/1.1/DTD/svg11.dtd">
<svg version="1.1" xmlns="http://www.w3.org/2000/svg" xmlns:xlink="http://www.w3.org/1999/xlink" x="0" y="0" width="5000" height="5000" viewBox="0, 0, 5000, 5000">
  <g id="rightEyeCross_peach" transform="translate(0, 0)">
    <path d="M3047.864,2176.709 C3048.552,2176.494 3049.448,2176.408 3050.233,2176.468 C3052.033,2176.668 3052.733,2176.268 3052.933,2174.468 C3053.134,2173.168 3054.233,2171.168 3055.333,2170.068 C3056.433,2168.968 3057.033,2167.568 3056.833,2166.868 C3056.533,2166.168 3057.634,2165.068 3059.233,2164.368 C3061.134,2163.568 3062.134,2162.368 3062.134,2160.968 C3062.134,2159.768 3062.833,2156.768 3063.733,2154.268 C3064.533,2151.868 3065.433,2147.568 3065.634,2144.968 C3066.033,2138.768 3067.233,2137.468 3070.533,2139.568 C3073.333,2141.468 3079.333,2147.168 3083.333,2151.968 C3086.033,2155.068 3086.433,2155.268 3092.033,2154.768 C3095.233,2154.568 3098.833,2154.668 3100.033,2154.968 C3102.733,2155.668 3102.733,2158.268 3100.134,2158.968 C3098.833,2159.268 3098.134,2160.368 3098.134,2161.868 C3098.134,2163.768 3099.333,2164.868 3104.134,2167.268 C3107.433,2168.868 3110.733,2170.268 3111.634,2170.268 C3114.233,2170.268 3113.333,2171.968 3110.134,2173.168 C3108.433,2173.668 3105.833,2175.568 3104.433,2177.368 C3102.033,2180.168 3101.333,2180.468 3097.634,2179.968 C3094.233,2179.468 3093.333,2179.668 3092.233,2181.368 C3091.233,2183.168 3091.233,2183.768 3092.733,2185.368 C3094.333,2187.168 3094.333,2187.368 3092.634,2189.268 C3091.634,2190.368 3090.033,2191.268 3088.933,2191.268 C3087.533,2191.268 3087.134,2191.968 3087.134,2194.468 C3087.134,2196.268 3086.933,2199.668 3086.533,2202.068 C3086.233,2204.368 3086.433,2208.368 3087.033,2210.868 C3087.933,2214.268 3087.933,2215.868 3086.933,2217.568 C3086.333,2218.768 3085.533,2221.568 3085.233,2223.768 C3083.933,2232.668 3078.134,2227.068 3078.134,2216.968 C3078.134,2214.068 3077.433,2209.568 3076.533,2206.968 C3075.134,2202.768 3074.634,2202.268 3069.733,2200.768 C3064.233,2199.068 3057.134,2193.468 3057.134,2190.868 C3057.134,2190.068 3056.733,2189.168 3056.233,2188.868 C3054.833,2187.968 3043.134,2190.968 3041.233,2192.668 C3040.233,2193.568 3038.933,2194.268 3038.233,2194.268 C3037.533,2194.268 3037.333,2194.768 3037.634,2195.268 C3038.134,2196.068 3038.733,2195.968 3039.733,2195.168 C3040.833,2194.268 3041.233,2194.368 3041.733,2195.568 C3042.033,2196.568 3040.634,2198.668 3037.634,2201.468 C3032.033,2206.568 3030.433,2207.568 3029.134,2206.768 C3027.933,2205.968 3027.833,2203.268 3029.033,2203.268 C3029.433,2203.268 3029.634,2202.168 3029.333,2200.768 C3028.933,2198.568 3029.233,2198.268 3032.033,2198.268 C3033.733,2198.268 3035.134,2197.968 3035.233,2197.468 C3035.733,2191.768 3036.433,2189.568 3038.134,2188.368 C3039.927,2187.127 3040.437,2186.408 3039.603,2185.623 L3047.864,2176.709 L3047.864,2176.709 z M3232.134,2058.768 C3232.833,2059.668 3234.134,2060.068 3235.033,2059.768 C3236.033,2059.468 3237.634,2059.868 3238.634,2060.668 C3240.533,2062.068 3240.533,2062.168 3238.733,2064.168 C3236.933,2066.168 3236.933,2066.268 3239.033,2069.568 C3242.634,2075.368 3241.333,2076.568 3234.134,2073.968 C3229.233,2072.268 3228.433,2071.568 3225.033,2067.068 C3221.533,2062.168 3221.533,2061.768 3224.433,2061.568 C3225.634,2061.468 3227.333,2060.468 3228.134,2059.368 C3229.933,2056.868 3230.533,2056.868 3232.134,2058.768 z" fill="#FFBFBF"/>
  </g>
</svg>
