<?xml version="1.0" encoding="UTF-8"?>
<!DOCTYPE svg PUBLIC "-//W3C//DTD SVG 1.1//EN" "http://www.w3.org/Graphics/SVG/1.1/DTD/svg11.dtd">
<svg version="1.1" xmlns="http://www.w3.org/2000/svg" xmlns:xlink="http://www.w3.org/1999/xlink" x="0" y="0" width="5000" height="5000" viewBox="0, 0, 5000, 5000">
  <g id="rightEyeCross_purple" transform="translate(0, 0)">
    <g>
      <path d="M3048.364,2177.209 C3049.052,2176.994 3049.948,2176.908 3050.733,2176.968 C3052.533,2177.168 3053.233,2176.768 3053.433,2174.968 C3053.634,2173.668 3054.733,2171.668 3055.833,2170.568 C3056.933,2169.468 3057.533,2168.068 3057.333,2167.368 C3057.033,2166.668 3058.134,2165.568 3059.733,2164.868 C3061.634,2164.068 3062.634,2162.868 3062.634,2161.468 C3062.634,2160.268 3063.333,2157.268 3064.233,2154.768 C3065.033,2152.368 3065.933,2148.068 3066.134,2145.468 C3066.533,2139.268 3067.733,2137.968 3071.033,2140.068 C3073.833,2141.968 3079.833,2147.668 3083.833,2152.468 C3086.533,2155.568 3086.933,2155.768 3092.533,2155.268 C3095.733,2155.068 3099.333,2155.168 3100.533,2155.468 C3103.233,2156.168 3103.233,2158.768 3100.634,2159.468 C3099.333,2159.768 3098.634,2160.868 3098.634,2162.368 C3098.634,2164.268 3099.833,2165.368 3104.634,2167.768 C3107.933,2169.368 3111.233,2170.768 3112.134,2170.768 C3114.733,2170.768 3113.833,2172.468 3110.634,2173.668 C3108.933,2174.168 3106.333,2176.068 3104.933,2177.868 C3102.533,2180.668 3101.833,2180.968 3098.134,2180.468 C3094.733,2179.968 3093.833,2180.168 3092.733,2181.868 C3091.733,2183.668 3091.733,2184.268 3093.233,2185.868 C3094.833,2187.668 3094.833,2187.868 3093.134,2189.768 C3092.134,2190.868 3090.533,2191.768 3089.433,2191.768 C3088.033,2191.768 3087.634,2192.468 3087.634,2194.968 C3087.634,2196.768 3087.433,2200.168 3087.033,2202.568 C3086.733,2204.868 3086.933,2208.868 3087.533,2211.368 C3088.433,2214.768 3088.433,2216.368 3087.433,2218.068 C3086.833,2219.268 3086.033,2222.068 3085.733,2224.268 C3084.433,2233.168 3078.634,2227.568 3078.634,2217.468 C3078.634,2214.568 3077.933,2210.068 3077.033,2207.468 C3075.634,2203.268 3075.134,2202.768 3070.233,2201.268 C3064.733,2199.568 3057.634,2193.968 3057.634,2191.368 C3057.634,2190.568 3057.233,2189.668 3056.733,2189.368 C3055.333,2188.468 3043.634,2191.468 3041.733,2193.168 C3040.733,2194.068 3039.433,2194.768 3038.733,2194.768 C3038.033,2194.768 3037.833,2195.268 3038.134,2195.768 C3038.634,2196.568 3039.233,2196.468 3040.233,2195.668 C3041.333,2194.768 3041.733,2194.868 3042.233,2196.068 C3042.533,2197.068 3041.134,2199.168 3038.134,2201.968 C3032.533,2207.068 3030.933,2208.068 3029.634,2207.268 C3028.433,2206.468 3028.333,2203.768 3029.533,2203.768 C3029.933,2203.768 3030.134,2202.668 3029.833,2201.268 C3029.433,2199.068 3029.733,2198.768 3032.533,2198.768 C3034.233,2198.768 3035.634,2198.468 3035.733,2197.968 C3036.233,2192.268 3036.933,2190.068 3038.634,2188.868 C3040.427,2187.627 3040.937,2186.908 3040.103,2186.123 L3048.364,2177.209 L3048.364,2177.209 z M3232.634,2059.268 C3233.333,2060.168 3234.634,2060.568 3235.533,2060.268 C3236.533,2059.968 3238.134,2060.368 3239.134,2061.168 C3241.033,2062.568 3241.033,2062.668 3239.233,2064.668 C3237.433,2066.668 3237.433,2066.768 3239.533,2070.068 C3243.134,2075.868 3241.833,2077.068 3234.634,2074.468 C3229.733,2072.768 3228.933,2072.068 3225.533,2067.568 C3222.033,2062.668 3222.033,2062.268 3224.933,2062.068 C3226.134,2061.968 3227.833,2060.968 3228.634,2059.868 C3230.433,2057.368 3231.033,2057.368 3232.634,2059.268 z" fill="#2B1582"/>
      <path d="M3048.364,2177.209 C3049.052,2176.994 3049.948,2176.908 3050.733,2176.968 C3052.533,2177.168 3053.233,2176.768 3053.433,2174.968 C3053.634,2173.668 3054.733,2171.668 3055.833,2170.568 C3056.933,2169.468 3057.533,2168.068 3057.333,2167.368 C3057.033,2166.668 3058.134,2165.568 3059.733,2164.868 C3061.634,2164.068 3062.634,2162.868 3062.634,2161.468 C3062.634,2160.268 3063.333,2157.268 3064.233,2154.768 C3065.033,2152.368 3065.933,2148.068 3066.134,2145.468 C3066.533,2139.268 3067.733,2137.968 3071.033,2140.068 C3073.833,2141.968 3079.833,2147.668 3083.833,2152.468 C3086.533,2155.568 3086.933,2155.768 3092.533,2155.268 C3095.733,2155.068 3099.333,2155.168 3100.533,2155.468 C3103.233,2156.168 3103.233,2158.768 3100.634,2159.468 C3099.333,2159.768 3098.634,2160.868 3098.634,2162.368 C3098.634,2164.268 3099.833,2165.368 3104.634,2167.768 C3107.933,2169.368 3111.233,2170.768 3112.134,2170.768 C3114.733,2170.768 3113.833,2172.468 3110.634,2173.668 C3108.933,2174.168 3106.333,2176.068 3104.933,2177.868 C3102.533,2180.668 3101.833,2180.968 3098.134,2180.468 C3094.733,2179.968 3093.833,2180.168 3092.733,2181.868 C3091.733,2183.668 3091.733,2184.268 3093.233,2185.868 C3094.833,2187.668 3094.833,2187.868 3093.134,2189.768 C3092.134,2190.868 3090.533,2191.768 3089.433,2191.768 C3088.033,2191.768 3087.634,2192.468 3087.634,2194.968 C3087.634,2196.768 3087.433,2200.168 3087.033,2202.568 C3086.733,2204.868 3086.933,2208.868 3087.533,2211.368 C3088.433,2214.768 3088.433,2216.368 3087.433,2218.068 C3086.833,2219.268 3086.033,2222.068 3085.733,2224.268 C3084.433,2233.168 3078.634,2227.568 3078.634,2217.468 C3078.634,2214.568 3077.933,2210.068 3077.033,2207.468 C3075.634,2203.268 3075.134,2202.768 3070.233,2201.268 C3064.733,2199.568 3057.634,2193.968 3057.634,2191.368 C3057.634,2190.568 3057.233,2189.668 3056.733,2189.368 C3055.333,2188.468 3043.634,2191.468 3041.733,2193.168 C3040.733,2194.068 3039.433,2194.768 3038.733,2194.768 C3038.033,2194.768 3037.833,2195.268 3038.134,2195.768 C3038.634,2196.568 3039.233,2196.468 3040.233,2195.668 C3041.333,2194.768 3041.733,2194.868 3042.233,2196.068 C3042.533,2197.068 3041.134,2199.168 3038.134,2201.968 C3032.533,2207.068 3030.933,2208.068 3029.634,2207.268 C3028.433,2206.468 3028.333,2203.768 3029.533,2203.768 C3029.933,2203.768 3030.134,2202.668 3029.833,2201.268 C3029.433,2199.068 3029.733,2198.768 3032.533,2198.768 C3034.233,2198.768 3035.634,2198.468 3035.733,2197.968 C3036.233,2192.268 3036.933,2190.068 3038.634,2188.868 C3040.427,2187.627 3040.937,2186.908 3040.103,2186.123 L3048.364,2177.209 L3048.364,2177.209 z M3232.634,2059.268 C3233.333,2060.168 3234.634,2060.568 3235.533,2060.268 C3236.533,2059.968 3238.134,2060.368 3239.134,2061.168 C3241.033,2062.568 3241.033,2062.668 3239.233,2064.668 C3237.433,2066.668 3237.433,2066.768 3239.533,2070.068 C3243.134,2075.868 3241.833,2077.068 3234.634,2074.468 C3229.733,2072.768 3228.933,2072.068 3225.533,2067.568 C3222.033,2062.668 3222.033,2062.268 3224.933,2062.068 C3226.134,2061.968 3227.833,2060.968 3228.634,2059.868 C3230.433,2057.368 3231.033,2057.368 3232.634,2059.268 z" fill-opacity="0" stroke="#FF0000" stroke-width="0.1"/>
    </g>
  </g>
</svg>
