<?xml version="1.0" encoding="UTF-8"?>
<!DOCTYPE svg PUBLIC "-//W3C//DTD SVG 1.1//EN" "http://www.w3.org/Graphics/SVG/1.1/DTD/svg11.dtd">
<svg version="1.1" xmlns="http://www.w3.org/2000/svg" xmlns:xlink="http://www.w3.org/1999/xlink" x="0" y="0" width="5000" height="5000" viewBox="0, 0, 5000, 5000">
  <g id="right_iris_pale_jade" transform="translate(0, 0)">
    <g id="right_eye_inverted">
      <path d="M3209.297,2070.863 C3207.897,2072.462 3208.697,2073.562 3211.297,2073.562 C3213.197,2073.562 3213.597,2074.363 3212.297,2076.062 C3211.597,2077.162 3211.497,2077.162 3204.897,2077.462 C3200.797,2077.662 3200.697,2077.762 3203.397,2078.762 C3205.897,2079.662 3207.197,2081.562 3205.197,2081.562 C3203.197,2081.562 3203.297,2085.962 3205.397,2089.162 C3207.597,2092.462 3209.097,2093.462 3209.097,2091.562 C3209.097,2090.962 3209.497,2090.562 3209.897,2090.562 C3210.397,2090.562 3210.797,2092.363 3210.897,2094.662 C3211.097,2098.262 3210.797,2098.762 3207.797,2100.062 C3205.097,2101.262 3204.997,2101.462 3206.897,2101.562 C3208.097,2101.562 3209.097,2102.162 3209.097,2102.962 C3209.097,2103.863 3210.197,2104.262 3212.297,2104.162 C3216.297,2104.062 3217.297,2106.762 3214.197,2109.462 C3211.597,2111.662 3211.497,2113.262 3213.897,2113.863 C3215.497,2114.262 3215.497,2114.363 3213.797,2114.462 C3212.497,2114.562 3212.097,2115.062 3212.497,2116.262 C3212.897,2117.562 3212.297,2118.462 3210.497,2119.262 C3208.097,2120.363 3207.497,2120.162 3205.097,2117.762 C3203.497,2116.262 3201.197,2114.162 3199.897,2113.062 C3198.597,2111.962 3196.397,2109.562 3195.197,2107.762 C3190.997,2101.762 3183.597,2100.363 3178.897,2104.762 L3175.797,2107.662 L3176.497,2116.162 C3177.097,2123.462 3176.997,2125.062 3175.597,2126.562 C3173.797,2128.562 3174.297,2130.562 3176.697,2130.562 C3178.097,2130.562 3178.797,2132.462 3177.397,2132.662 C3171.697,2133.262 3168.897,2136.262 3169.497,2141.162 C3170.097,2145.962 3170.897,2146.863 3173.997,2146.062 C3180.297,2144.462 3180.597,2144.462 3194.797,2149.762 C3197.897,2150.962 3200.797,2151.462 3202.197,2151.062 C3203.497,2150.662 3204.597,2150.863 3205.097,2151.562 C3205.697,2152.562 3206.397,2152.462 3208.097,2151.262 C3210.497,2149.562 3213.097,2149.962 3213.097,2152.062 C3213.097,2152.762 3213.797,2153.863 3214.597,2154.562 C3216.297,2155.962 3216.597,2159.662 3215.097,2161.162 C3213.997,2162.262 3213.397,2165.262 3213.197,2170.762 C3213.097,2174.162 3211.997,2174.262 3208.697,2171.162 C3205.597,2168.363 3205.597,2168.062 3208.097,2165.363 C3210.697,2162.562 3210.297,2161.363 3206.597,2160.962 C3204.597,2160.762 3202.997,2161.363 3201.797,2162.662 C3200.697,2163.762 3199.297,2164.462 3198.597,2164.162 C3197.797,2163.863 3195.597,2164.162 3193.497,2164.762 C3190.297,2165.562 3189.497,2165.462 3188.497,2164.062 C3187.697,2162.962 3186.797,2162.662 3185.897,2163.162 C3185.197,2163.662 3182.697,2164.562 3180.397,2165.162 C3175.597,2166.363 3175.197,2165.863 3177.497,2161.262 C3178.897,2158.762 3178.797,2158.562 3176.997,2158.562 C3175.897,2158.562 3174.797,2159.262 3174.497,2160.062 C3174.097,2160.863 3172.997,2161.562 3171.997,2161.562 C3169.897,2161.562 3169.897,2161.562 3169.597,2166.863 C3169.397,2170.062 3168.597,2171.462 3165.197,2174.462 C3162.997,2176.462 3161.097,2178.762 3161.097,2179.462 C3161.097,2180.462 3160.197,2180.662 3158.097,2180.162 C3155.897,2179.762 3155.097,2179.962 3155.097,2180.962 C3155.097,2182.262 3150.097,2183.863 3149.197,2182.962 C3148.897,2182.662 3149.197,2181.062 3149.797,2179.262 C3151.197,2175.363 3150.397,2170.262 3148.497,2170.962 C3146.597,2171.662 3145.697,2169.762 3147.097,2168.062 C3148.697,2166.162 3147.497,2162.762 3145.897,2164.363 C3144.497,2165.762 3139.697,2165.962 3140.597,2164.662 C3140.897,2164.162 3140.797,2163.462 3140.297,2163.262 C3139.897,2162.962 3139.097,2163.863 3138.397,2165.162 C3137.497,2167.162 3137.597,2167.762 3138.897,2168.562 C3139.897,2169.062 3140.397,2169.562 3140.097,2169.562 C3139.797,2169.662 3138.097,2169.863 3136.297,2170.062 C3130.297,2170.562 3130.597,2172.662 3136.797,2173.062 C3141.697,2173.363 3141.597,2173.262 3140.097,2175.062 C3139.397,2175.863 3137.897,2176.562 3136.697,2176.562 C3135.497,2176.562 3134.097,2176.962 3133.497,2177.462 C3132.997,2177.962 3130.997,2178.863 3129.097,2179.363 C3126.397,2180.062 3125.697,2180.762 3125.797,2182.262 C3125.997,2183.863 3125.297,2184.462 3122.597,2184.962 C3120.297,2185.462 3118.997,2186.363 3118.597,2187.863 C3117.897,2190.062 3111.697,2196.562 3110.197,2196.562 C3109.697,2196.562 3109.097,2197.762 3108.797,2199.262 C3108.497,2200.863 3107.797,2203.962 3107.297,2206.363 C3106.797,2208.662 3106.797,2210.562 3107.197,2210.562 C3107.697,2210.562 3108.097,2210.062 3108.097,2209.462 C3108.097,2208.863 3108.697,2208.562 3109.397,2208.863 C3109.997,2209.062 3110.497,2209.962 3110.297,2210.863 C3110.197,2211.662 3110.497,2212.662 3111.097,2213.062 C3111.597,2213.363 3112.097,2213.162 3112.097,2212.662 C3112.097,2210.462 3113.897,2211.662 3114.297,2214.062 C3114.697,2215.962 3114.397,2216.562 3112.997,2216.562 C3109.897,2216.562 3106.297,2224.162 3105.597,2232.162 C3104.897,2239.262 3104.797,2239.262 3101.397,2240.363 C3098.597,2241.162 3097.897,2241.162 3097.397,2239.962 C3097.097,2239.162 3097.297,2237.962 3097.897,2237.262 C3099.897,2234.662 3098.397,2229.562 3095.597,2229.562 C3093.997,2229.562 3091.997,2234.162 3092.797,2236.262 C3093.197,2237.162 3094.797,2239.062 3096.397,2240.462 C3097.997,2241.863 3099.997,2243.863 3100.897,2244.762 C3101.797,2245.762 3103.497,2246.562 3104.597,2246.562 C3105.797,2246.562 3107.497,2247.162 3108.497,2247.863 C3110.097,2248.962 3110.197,2249.562 3109.097,2251.462 C3107.697,2254.162 3107.797,2254.363 3111.097,2254.762 C3112.497,2254.962 3114.097,2255.462 3114.697,2255.863 C3115.397,2256.262 3116.097,2255.662 3116.497,2254.162 C3117.297,2251.062 3123.197,2248.162 3127.097,2249.062 C3129.097,2249.462 3130.097,2249.363 3130.097,2248.562 C3130.097,2247.962 3130.497,2247.662 3131.097,2248.062 C3131.597,2248.363 3131.797,2249.262 3131.497,2249.962 C3131.197,2250.662 3131.697,2251.762 3132.497,2252.462 C3133.197,2253.062 3133.697,2254.462 3133.397,2255.462 C3133.097,2256.462 3133.397,2257.662 3133.997,2257.962 C3134.597,2258.363 3135.097,2259.562 3135.097,2260.662 C3135.097,2262.562 3135.197,2262.562 3137.297,2261.162 C3138.497,2260.262 3140.397,2259.562 3141.397,2259.562 C3142.497,2259.562 3143.497,2258.662 3143.797,2257.462 C3144.297,2255.863 3144.897,2255.562 3147.097,2256.062 C3148.697,2256.363 3150.197,2256.162 3150.597,2255.662 C3151.697,2253.662 3155.097,2254.363 3155.097,2256.562 C3155.097,2257.762 3154.397,2258.562 3153.297,2258.562 C3151.197,2258.562 3147.097,2261.262 3147.097,2262.762 C3147.097,2263.363 3148.197,2263.562 3149.597,2263.363 C3150.997,2263.062 3152.097,2263.262 3152.097,2263.662 C3152.097,2264.162 3151.297,2264.562 3150.197,2264.562 C3149.197,2264.562 3147.697,2265.262 3146.997,2266.162 C3145.797,2267.662 3146.097,2268.262 3149.497,2271.162 C3153.197,2274.363 3153.497,2274.462 3156.197,2273.062 C3157.697,2272.262 3159.197,2270.662 3159.597,2269.562 C3159.997,2268.162 3161.097,2267.562 3163.197,2267.562 C3164.797,2267.562 3166.097,2267.062 3166.097,2266.562 C3166.097,2265.962 3166.697,2265.562 3167.397,2265.562 C3168.897,2265.562 3172.397,2263.062 3175.397,2259.762 C3176.497,2258.562 3178.297,2257.562 3179.297,2257.562 C3180.397,2257.562 3181.097,2256.863 3181.097,2255.562 C3181.097,2254.363 3181.797,2253.562 3182.897,2253.562 C3183.797,2253.562 3185.697,2252.662 3187.097,2251.562 C3188.497,2250.462 3189.997,2249.562 3190.397,2249.562 C3190.897,2249.562 3192.397,2248.662 3193.897,2247.562 C3196.897,2245.162 3199.397,2246.462 3196.697,2249.062 C3195.797,2249.962 3195.097,2251.262 3195.097,2251.863 C3195.097,2252.662 3195.497,2252.562 3196.297,2251.762 C3196.997,2251.062 3198.297,2250.562 3199.297,2250.562 C3200.597,2250.562 3201.097,2249.762 3201.097,2248.062 C3201.097,2244.363 3203.997,2241.662 3208.797,2240.962 C3212.597,2240.363 3213.097,2240.062 3213.097,2237.662 C3213.097,2234.162 3214.097,2232.962 3217.097,2233.062 C3218.497,2233.062 3220.197,2232.262 3220.897,2231.262 C3221.597,2230.363 3222.897,2229.562 3223.597,2229.562 C3224.397,2229.562 3225.697,2227.962 3226.497,2226.062 C3227.297,2224.162 3228.397,2222.562 3228.997,2222.562 C3229.497,2222.562 3230.397,2221.363 3230.997,2219.762 C3232.097,2217.062 3237.797,2208.762 3241.097,2205.062 C3243.397,2202.462 3244.597,2198.462 3243.297,2197.662 C3242.497,2197.262 3242.497,2195.662 3243.197,2192.562 C3244.497,2186.863 3246.897,2182.962 3248.297,2184.363 C3248.997,2185.062 3250.097,2183.962 3251.697,2180.962 C3252.997,2178.462 3254.097,2175.863 3254.097,2175.062 C3254.097,2174.262 3254.697,2173.262 3255.497,2172.863 C3256.297,2172.363 3257.197,2169.762 3257.497,2166.762 C3257.797,2163.762 3258.397,2160.962 3258.697,2160.462 C3258.997,2159.863 3258.697,2158.863 3258.097,2157.962 C3257.197,2156.962 3257.097,2154.662 3257.497,2150.662 C3257.897,2146.863 3257.797,2144.462 3257.097,2144.062 C3256.597,2143.762 3256.097,2141.262 3256.097,2138.662 C3256.097,2135.162 3255.597,2133.363 3254.197,2132.162 C3252.297,2130.462 3252.297,2130.363 3254.097,2127.262 C3256.497,2123.363 3255.697,2119.062 3251.897,2115.363 C3249.797,2113.262 3249.197,2111.962 3249.697,2110.162 C3250.097,2108.363 3249.797,2107.762 3248.197,2107.262 C3246.097,2106.762 3245.197,2103.562 3247.097,2103.562 C3247.697,2103.562 3248.097,2102.863 3248.097,2102.062 C3248.097,2101.262 3247.297,2100.562 3246.197,2100.562 C3243.997,2100.562 3242.797,2096.962 3244.197,2094.363 C3245.097,2092.762 3244.697,2092.562 3241.097,2092.562 C3236.997,2092.562 3235.397,2090.462 3238.597,2089.162 C3239.397,2088.863 3240.097,2088.162 3240.097,2087.562 C3240.097,2086.962 3239.597,2086.762 3239.097,2087.062 C3237.397,2088.062 3233.297,2084.863 3232.897,2082.363 C3232.697,2081.062 3231.897,2080.062 3231.097,2080.062 C3230.297,2080.062 3229.097,2078.962 3228.497,2077.662 C3226.997,2074.662 3224.997,2073.562 3218.597,2071.962 C3215.897,2071.363 3212.897,2070.462 3211.997,2070.162 C3211.097,2069.762 3209.897,2070.062 3209.297,2070.863 z" fill="#98E7D8"/>
      <path d="M3148.797,2101.762 C3146.397,2103.562 3145.797,2103.662 3144.997,2102.462 C3144.297,2101.363 3144.097,2101.562 3144.097,2103.262 C3144.097,2104.662 3143.497,2105.562 3142.597,2105.562 C3141.797,2105.562 3141.097,2105.062 3141.097,2104.363 C3141.097,2103.662 3139.997,2104.662 3138.597,2106.562 C3135.497,2110.762 3135.497,2110.962 3138.497,2110.162 C3139.897,2109.863 3141.297,2109.962 3141.597,2110.562 C3141.897,2111.062 3141.497,2111.562 3140.697,2111.562 C3139.897,2111.562 3138.597,2112.462 3137.797,2113.662 C3136.397,2115.662 3136.297,2115.662 3132.497,2112.062 C3129.697,2109.562 3127.997,2108.662 3126.597,2109.162 C3125.497,2109.462 3122.397,2110.262 3119.697,2110.762 C3115.997,2111.662 3114.397,2112.562 3113.197,2114.762 C3111.397,2117.863 3107.697,2118.562 3106.697,2115.962 C3105.897,2113.762 3104.497,2114.962 3103.697,2118.562 C3103.397,2120.262 3101.997,2122.762 3100.597,2124.162 C3099.197,2125.562 3098.097,2127.462 3098.197,2128.363 C3098.297,2129.363 3098.297,2130.762 3098.197,2131.562 C3098.097,2132.762 3097.797,2132.662 3096.997,2131.262 C3096.397,2130.363 3096.297,2128.562 3096.597,2127.462 C3096.997,2126.363 3096.697,2124.863 3096.097,2124.062 C3095.097,2122.863 3095.197,2122.562 3096.497,2122.562 C3097.397,2122.562 3098.097,2121.863 3098.097,2121.062 C3098.097,2120.262 3097.697,2119.562 3097.097,2119.562 C3095.397,2119.562 3093.897,2123.762 3094.497,2126.662 C3094.797,2128.562 3094.597,2129.562 3093.897,2129.562 C3093.297,2129.562 3091.997,2130.262 3091.097,2131.062 C3089.197,2132.863 3086.097,2132.062 3086.097,2129.863 C3086.097,2129.062 3085.497,2128.562 3084.897,2128.863 C3084.197,2129.062 3083.697,2130.462 3083.797,2131.962 C3083.897,2133.363 3083.597,2134.363 3082.997,2134.062 C3082.497,2133.662 3082.097,2133.962 3082.097,2134.462 C3082.097,2135.762 3083.097,2135.863 3088.697,2135.662 C3092.997,2135.363 3100.097,2137.762 3100.097,2139.462 C3100.097,2139.962 3099.297,2141.762 3098.397,2143.363 C3096.697,2146.262 3096.697,2146.462 3098.497,2148.462 C3099.597,2149.662 3101.097,2150.562 3101.997,2150.562 C3102.897,2150.562 3104.397,2151.863 3105.397,2153.462 L3107.097,2156.363 L3119.797,2156.062 C3135.797,2155.762 3135.397,2155.863 3134.797,2154.162 C3134.497,2153.363 3135.297,2152.363 3136.697,2151.662 C3140.197,2150.162 3140.697,2150.262 3143.597,2153.162 C3145.697,2155.262 3146.697,2155.562 3149.397,2155.062 C3154.197,2154.062 3154.697,2152.962 3151.197,2151.162 C3149.397,2150.162 3148.097,2148.762 3148.097,2147.562 C3148.097,2146.562 3147.597,2145.363 3146.997,2145.062 C3146.297,2144.562 3146.597,2143.662 3147.697,2142.462 C3149.297,2140.662 3149.297,2140.562 3146.997,2140.562 C3145.597,2140.562 3143.797,2139.662 3142.797,2138.562 C3140.697,2136.062 3140.697,2135.863 3143.097,2135.262 C3144.797,2134.863 3144.997,2133.863 3144.997,2127.662 C3144.997,2120.863 3144.897,2120.662 3142.997,2121.662 C3141.497,2122.363 3141.297,2123.062 3141.997,2123.962 C3142.597,2124.662 3143.197,2126.762 3143.297,2128.662 C3143.597,2131.462 3143.197,2132.062 3141.397,2132.363 C3138.897,2132.762 3136.697,2129.662 3137.697,2127.162 C3137.997,2126.262 3137.597,2124.863 3136.697,2124.062 C3133.797,2121.162 3134.697,2118.863 3138.997,2118.162 C3143.697,2117.462 3144.397,2116.562 3144.397,2111.462 C3144.397,2108.062 3144.697,2107.562 3146.697,2107.562 C3149.297,2107.562 3152.497,2103.662 3151.897,2101.162 C3151.697,2099.962 3151.097,2100.062 3148.797,2101.762 z" fill="#98E7D8"/>
    </g>
  </g>
</svg>
