<?xml version="1.0" encoding="UTF-8"?>
<!DOCTYPE svg PUBLIC "-//W3C//DTD SVG 1.1//EN" "http://www.w3.org/Graphics/SVG/1.1/DTD/svg11.dtd">
<svg version="1.1" xmlns="http://www.w3.org/2000/svg" xmlns:xlink="http://www.w3.org/1999/xlink" x="0" y="0" width="5000" height="5000" viewBox="0, 0, 5000, 5000">
  <g id="nose_silver" transform="translate(0, 0)">
    <path d="M2926.33,3109.031 C2928.13,3109.031 2929.23,3116.331 2928.63,3124.631 L2928.03,3133.031 L2930.53,3133.031 C2932.03,3133.031 2934.13,3131.731 2936.03,3129.731 C2940.93,3124.531 2946.33,3121.731 2951.33,3121.631 L2955.83,3121.531 L2955.83,3125.331 C2955.83,3128.931 2955.93,3129.031 2959.63,3129.031 C2964.63,3129.031 2974.63,3135.431 2973.83,3138.131 C2973.43,3139.431 2974.03,3140.331 2976.23,3141.531 C2977.93,3142.331 2980.23,3144.331 2981.43,3145.931 C2982.63,3147.531 2984.83,3149.131 2986.43,3149.431 C2988.73,3149.831 2989.33,3150.531 2989.33,3152.531 C2989.33,3154.831 2989.03,3155.031 2987.13,3154.431 C2984.83,3153.731 2981.23,3150.731 2974.53,3144.131 C2970.93,3140.431 2965.23,3137.031 2962.93,3137.031 C2960.33,3137.031 2963.33,3142.031 2969.03,3147.331 C2971.83,3150.031 2975.93,3154.731 2978.03,3157.831 C2980.13,3160.931 2982.43,3163.931 2983.13,3164.331 C2984.53,3165.231 2984.73,3169.631 2983.43,3170.431 C2982.33,3171.131 2973.23,3160.931 2970.53,3155.931 C2969.13,3153.531 2962.13,3148.031 2960.33,3148.031 C2957.53,3148.031 2960.53,3157.631 2963.53,3158.431 C2964.53,3158.631 2965.63,3159.631 2966.03,3160.731 C2966.33,3161.731 2968.13,3164.131 2970.03,3166.031 C2971.83,3167.931 2973.33,3169.731 2973.33,3170.131 C2973.33,3170.431 2974.63,3172.231 2976.23,3174.131 C2979.13,3177.431 2979.43,3179.031 2977.03,3179.031 C2975.33,3178.931 2969.93,3173.831 2967.73,3170.131 C2966.73,3168.431 2965.13,3167.031 2964.13,3167.031 C2963.13,3167.031 2961.63,3165.831 2960.63,3164.231 C2959.73,3162.731 2958.83,3161.431 2958.73,3161.231 C2958.13,3160.331 2954.33,3163.231 2954.33,3164.531 C2954.33,3166.431 2961.33,3174.031 2963.03,3174.031 C2965.13,3174.031 2966.93,3178.831 2965.53,3180.231 C2964.63,3181.131 2964.03,3181.131 2963.13,3180.231 C2960.13,3177.231 2959.43,3179.631 2962.33,3183.031 C2963.43,3184.331 2964.33,3185.731 2964.33,3186.231 C2964.33,3188.031 2960.93,3188.331 2958.13,3186.731 C2954.23,3184.531 2952.33,3184.631 2952.33,3186.931 C2952.33,3189.631 2947.83,3190.531 2944.63,3188.531 C2943.33,3187.631 2941.53,3187.131 2940.73,3187.431 C2938.93,3188.131 2938.93,3190.631 2940.83,3191.431 C2942.83,3192.131 2941.63,3195.031 2939.33,3195.031 C2938.23,3195.031 2937.13,3195.531 2936.83,3196.031 C2935.53,3198.031 2938.53,3200.031 2942.73,3200.031 C2945.03,3200.031 2947.93,3200.731 2949.13,3201.631 C2951.13,3202.931 2951.93,3203.031 2954.43,3201.931 C2956.13,3201.231 2957.83,3199.831 2958.23,3198.831 C2958.83,3197.131 2959.23,3197.231 2962.73,3200.631 C2966.23,3204.031 2966.73,3204.131 2968.93,3203.031 C2971.23,3201.731 2971.53,3201.031 2971.73,3196.731 C2971.83,3195.731 2972.43,3194.531 2973.13,3194.131 C2973.83,3193.731 2974.33,3192.931 2974.23,3192.431 C2973.53,3188.531 2975.93,3187.831 2977.33,3191.531 C2978.43,3194.531 2979.93,3194.731 2980.63,3192.031 C2981.13,3190.031 2984.33,3189.131 2984.33,3191.031 C2984.33,3191.531 2984.93,3192.031 2985.63,3192.031 C2986.23,3192.031 2987.93,3193.231 2989.23,3194.531 C2990.53,3195.931 2991.93,3197.031 2992.43,3197.031 C2992.93,3197.031 2993.33,3197.531 2993.33,3198.131 C2993.33,3198.731 2992.53,3198.931 2991.43,3198.531 C2989.73,3198.031 2989.43,3198.331 2989.63,3200.731 C2989.83,3202.931 2989.33,3203.631 2987.63,3203.831 C2985.93,3204.131 2985.33,3203.631 2985.33,3202.231 C2985.33,3201.131 2985.93,3200.031 2986.63,3199.731 C2987.53,3199.431 2987.33,3198.731 2986.03,3197.231 C2984.53,3195.531 2983.63,3195.331 2981.63,3196.131 C2980.13,3196.731 2978.53,3196.631 2977.33,3196.031 C2974.53,3194.531 2974.43,3194.731 2974.93,3199.031 C2975.23,3201.831 2975.03,3202.931 2974.23,3202.831 C2973.63,3202.631 2972.93,3203.031 2972.63,3203.631 C2972.03,3205.231 2978.13,3205.131 2979.13,3203.531 C2980.13,3201.631 2984.53,3202.731 2984.13,3204.831 C2983.93,3205.831 2982.53,3206.531 2980.33,3206.731 C2978.43,3206.931 2975.63,3207.531 2974.13,3208.031 C2972.73,3208.431 2969.73,3208.631 2967.53,3208.331 C2965.33,3208.031 2961.23,3208.331 2958.43,3209.031 C2954.53,3209.931 2952.73,3209.931 2949.93,3208.931 C2946.83,3207.831 2946.13,3207.831 2944.43,3209.431 C2943.03,3210.731 2941.63,3211.031 2938.73,3210.531 C2932.23,3209.431 2931.53,3209.031 2932.03,3207.231 C2932.23,3206.231 2931.53,3204.631 2930.53,3203.731 C2928.63,3202.031 2928.53,3202.031 2927.93,3204.531 C2927.43,3206.431 2926.73,3207.031 2925.73,3206.631 C2924.53,3206.131 2924.23,3206.731 2924.53,3209.331 C2924.83,3212.331 2924.63,3212.531 2921.63,3212.431 C2919.83,3212.331 2918.33,3212.531 2918.33,3212.931 C2918.33,3213.331 2916.73,3213.431 2914.83,3213.231 C2912.93,3213.031 2910.53,3213.131 2909.63,3213.431 C2908.23,3214.031 2908.53,3214.531 2911.43,3216.231 C2913.43,3217.431 2914.33,3218.531 2913.53,3218.731 C2912.83,3219.031 2911.13,3218.531 2909.83,3217.631 C2906.83,3215.731 2905.33,3215.631 2905.33,3217.331 C2905.33,3219.331 2899.83,3222.931 2897.63,3222.431 C2895.93,3221.931 2895.73,3222.331 2896.03,3226.531 C2896.33,3229.931 2896.03,3231.231 2894.83,3231.631 C2894.03,3232.031 2893.33,3232.831 2893.33,3233.531 C2893.33,3234.331 2892.63,3235.631 2891.73,3236.531 C2889.83,3238.331 2890.53,3241.031 2892.83,3241.031 C2893.73,3241.031 2894.13,3241.531 2893.73,3242.131 C2893.33,3242.731 2892.73,3242.831 2892.23,3242.331 C2891.63,3241.731 2888.83,3241.731 2885.63,3242.131 C2882.53,3242.531 2877.73,3242.531 2875.03,3241.931 C2867.83,3240.631 2867.63,3240.631 2864.73,3245.031 C2862.13,3248.931 2862.13,3249.131 2863.83,3251.031 C2865.83,3253.331 2869.33,3253.631 2871.13,3251.831 C2872.03,3250.931 2872.63,3250.831 2873.13,3251.631 C2874.13,3253.131 2877.83,3253.931 2879.43,3253.031 C2880.43,3252.331 2880.43,3251.931 2879.33,3250.631 C2877.43,3248.231 2878.93,3247.431 2881.23,3249.431 C2882.53,3250.531 2883.93,3250.931 2885.23,3250.531 C2886.73,3250.031 2887.33,3250.331 2887.33,3251.431 C2887.33,3252.531 2886.33,3253.031 2884.13,3253.131 C2881.13,3253.231 2881.03,3253.331 2883.33,3253.931 C2886.03,3254.631 2887.43,3258.031 2885.03,3258.031 C2884.23,3258.031 2882.23,3257.531 2880.43,3256.931 C2878.13,3256.131 2876.93,3256.131 2875.93,3256.931 C2874.33,3258.231 2874.43,3262.631 2876.13,3265.631 C2877.43,3268.031 2876.83,3269.031 2874.13,3269.031 C2872.33,3269.031 2871.93,3268.131 2872.23,3264.831 C2872.33,3263.931 2871.43,3262.931 2870.33,3262.531 C2869.03,3262.131 2868.43,3261.331 2868.73,3260.431 C2869.03,3259.631 2868.63,3259.031 2867.83,3259.031 C2865.53,3259.031 2866.03,3261.731 2868.63,3263.531 C2870.53,3264.831 2870.63,3265.231 2869.33,3266.031 C2865.93,3268.231 2863.53,3267.131 2861.33,3262.531 C2860.13,3260.031 2858.73,3258.031 2858.23,3258.031 C2857.73,3258.031 2857.33,3256.631 2857.33,3255.031 C2857.33,3252.231 2857.13,3252.031 2853.13,3251.831 C2850.73,3251.731 2846.63,3251.731 2843.83,3251.831 C2838.03,3252.031 2836.23,3253.831 2835.83,3259.631 C2835.63,3262.631 2836.03,3263.331 2838.13,3264.131 C2840.03,3264.831 2840.33,3265.431 2839.53,3266.231 C2838.63,3267.131 2838.03,3266.931 2837.03,3265.531 C2836.03,3264.331 2835.43,3264.131 2834.93,3264.831 C2834.03,3266.331 2828.33,3266.431 2828.33,3264.931 C2828.33,3264.331 2829.23,3263.631 2830.33,3263.331 C2832.53,3262.731 2832.93,3261.531 2831.33,3260.531 C2829.63,3259.531 2830.13,3254.031 2831.93,3254.031 C2832.73,3254.031 2833.13,3253.531 2832.83,3253.031 C2832.33,3252.231 2831.73,3252.231 2830.83,3253.031 C2829.93,3253.831 2827.13,3253.831 2820.93,3253.031 C2816.23,3252.431 2811.73,3251.731 2811.03,3251.431 C2810.33,3251.231 2808.63,3251.331 2807.23,3251.831 C2805.63,3252.431 2803.83,3252.331 2801.83,3251.531 C2795.83,3249.031 2791.63,3248.031 2787.03,3248.031 C2783.53,3248.031 2782.13,3247.531 2780.93,3245.931 C2779.83,3244.231 2778.83,3243.931 2776.63,3244.431 C2774.53,3244.931 2774.23,3244.831 2775.33,3244.031 C2776.53,3243.231 2776.43,3243.031 2774.63,3243.031 C2773.33,3243.031 2772.33,3243.431 2772.33,3243.831 C2772.33,3245.031 2766.53,3244.431 2764.93,3243.031 C2763.13,3241.631 2748.13,3240.831 2748.93,3242.231 C2749.33,3242.831 2748.73,3243.031 2747.53,3242.631 C2746.43,3242.231 2745.23,3242.431 2744.83,3243.031 C2744.53,3243.531 2742.83,3244.031 2741.13,3244.031 C2738.23,3244.031 2732.23,3246.731 2731.53,3248.231 C2731.33,3248.731 2730.43,3249.031 2729.43,3249.031 C2728.43,3249.031 2726.73,3250.131 2725.53,3251.531 C2724.33,3252.931 2722.73,3254.031 2721.93,3254.031 C2721.13,3254.031 2720.13,3254.931 2719.83,3256.031 C2719.23,3257.931 2718.83,3258.231 2716.13,3258.431 C2714.53,3258.531 2710.93,3262.931 2711.73,3263.731 C2712.03,3264.031 2710.93,3265.831 2709.33,3267.731 C2707.63,3269.531 2706.33,3271.831 2706.33,3272.731 C2706.33,3274.431 2702.53,3281.131 2701.03,3282.131 C2700.53,3282.531 2700.63,3283.731 2701.33,3284.931 C2702.73,3287.631 2701.93,3291.531 2698.63,3299.031 C2697.03,3302.731 2696.33,3305.831 2696.53,3308.431 C2696.83,3311.431 2696.43,3312.831 2694.63,3314.631 C2692.13,3317.131 2692.23,3320.031 2695.23,3325.331 C2696.23,3327.031 2697.13,3330.831 2697.23,3333.631 C2697.33,3338.031 2697.03,3338.831 2695.33,3339.331 C2694.03,3339.631 2693.33,3340.631 2693.33,3342.331 C2693.33,3343.831 2691.73,3346.531 2689.33,3349.131 C2687.13,3351.531 2685.03,3354.431 2684.73,3355.531 C2684.33,3356.631 2683.33,3358.631 2682.33,3360.031 C2681.43,3361.431 2678.73,3366.231 2676.43,3370.731 C2672.13,3379.031 2671.33,3379.931 2660.23,3388.031 C2656.13,3391.131 2653.43,3393.931 2652.03,3396.831 C2650.93,3399.231 2649.43,3401.431 2648.63,3401.731 C2647.556,3402.431 2647.446,3403.81 2647.336,3404.967 L2647.068,3404.742 C2647.04,3404.719 2645.583,3403.454 2645.154,3403.093 C2644.361,3402.425 2643.697,3401.908 2643.032,3401.458 C2640.574,3400.007 2642.069,3400.716 2638.4,3399.668 L2636.778,3399.753 C2633.764,3400.49 2631.304,3402.074 2629.954,3404.969 C2628.562,3403.684 2627.286,3402.776 2625.354,3402.433 C2624.559,3402.286 2623.757,3402.13 2622.941,3402.168 C2622.977,3401.284 2622.841,3400.406 2622.73,3399.531 C2622.03,3394.431 2618.23,3386.131 2615.43,3383.631 C2613.03,3381.431 2611.33,3382.131 2613.33,3384.531 C2614.33,3385.731 2614.33,3386.331 2613.33,3387.531 C2611.03,3390.331 2610.13,3389.131 2610.83,3384.231 C2611.43,3379.731 2611.33,3379.331 2607.63,3375.931 C2601.63,3370.231 2592.03,3364.031 2586.73,3362.431 C2581.73,3360.931 2575.13,3355.631 2575.93,3353.631 C2576.13,3353.031 2574.53,3350.331 2572.23,3347.531 C2566.43,3340.531 2564.93,3337.231 2566.43,3335.431 C2567.83,3333.731 2566.33,3321.131 2563.63,3312.631 C2562.53,3309.231 2562.23,3305.531 2562.63,3300.131 C2563.03,3293.931 2562.73,3291.631 2561.13,3287.731 C2559.03,3283.031 2557.73,3282.131 2552.33,3281.831 C2550.93,3281.731 2548.93,3280.931 2547.83,3280.031 C2546.73,3279.031 2544.93,3278.131 2543.83,3277.831 C2542.03,3277.431 2541.83,3277.731 2542.13,3280.731 C2542.63,3284.431 2540.53,3288.031 2539.23,3285.931 C2538.63,3284.931 2537.93,3284.931 2536.13,3285.731 C2534.53,3286.431 2533.13,3286.531 2531.93,3285.831 C2529.83,3284.631 2528.83,3285.331 2529.73,3287.631 C2530.03,3288.531 2530.93,3289.031 2531.63,3288.731 C2533.43,3288.031 2535.53,3291.431 2534.13,3292.831 C2533.53,3293.431 2532.43,3293.631 2531.73,3293.331 C2530.83,3293.031 2530.33,3293.531 2530.33,3294.931 C2530.33,3296.131 2529.73,3297.031 2528.93,3297.031 C2528.13,3297.031 2527.33,3297.631 2527.03,3298.231 C2526.83,3298.931 2525.83,3297.931 2524.83,3296.031 C2523.63,3293.731 2523.43,3292.531 2524.23,3292.231 C2524.83,3292.031 2525.33,3291.131 2525.33,3290.131 C2525.33,3289.231 2526.03,3287.531 2526.83,3286.431 C2527.63,3285.431 2528.33,3283.231 2528.33,3281.731 C2528.33,3279.331 2528.53,3279.131 2530.23,3280.031 C2532.63,3281.231 2537.53,3281.031 2538.53,3279.531 C2540.13,3277.331 2539.23,3275.031 2536.13,3273.331 C2532.13,3271.331 2520.83,3269.131 2513.63,3269.131 C2509.33,3269.031 2508.33,3269.331 2507.83,3270.931 C2507.33,3272.631 2506.83,3272.731 2504.23,3271.831 C2500.13,3270.431 2497.93,3272.331 2498.63,3276.731 L2499.23,3279.931 L2495.33,3277.531 C2491.53,3275.131 2488.83,3275.531 2491.83,3278.031 C2493.83,3279.631 2493.93,3291.331 2492.03,3292.931 C2491.23,3293.531 2490.13,3295.831 2489.43,3297.931 C2488.23,3302.231 2484.23,3306.031 2481.13,3306.031 C2480.03,3306.031 2478.83,3307.131 2478.33,3308.631 C2477.63,3310.431 2476.83,3311.031 2475.73,3310.631 C2474.83,3310.331 2472.93,3310.031 2471.33,3310.031 C2469.43,3310.031 2468.33,3309.431 2468.03,3308.231 C2467.73,3306.731 2467.53,3306.731 2466.93,3308.531 C2464.83,3314.131 2464.23,3315.031 2462.43,3315.031 C2461.43,3315.031 2460.03,3315.731 2459.33,3316.531 C2458.63,3317.331 2457.43,3318.031 2456.73,3318.031 C2455.93,3318.031 2454.33,3319.131 2453.13,3320.531 C2451.93,3321.931 2450.13,3323.031 2449.03,3323.031 C2446.83,3323.031 2444.43,3320.431 2444.33,3318.031 C2444.33,3316.131 2450.13,3310.531 2453.03,3309.631 C2454.23,3309.231 2456.43,3307.531 2457.83,3305.931 C2459.83,3303.431 2460.43,3303.131 2460.93,3304.431 C2461.63,3306.331 2463.33,3306.531 2463.33,3304.731 C2463.33,3302.631 2467.23,3295.031 2468.33,3295.031 C2468.93,3295.031 2469.33,3294.031 2469.33,3292.731 C2469.33,3291.531 2469.83,3289.831 2470.33,3289.031 C2471.13,3287.831 2471.33,3288.131 2471.33,3290.331 C2471.33,3295.431 2478.53,3296.231 2480.43,3291.431 C2480.93,3290.131 2481.63,3289.031 2482.03,3289.131 C2485.23,3289.631 2486.13,3288.831 2486.63,3284.431 C2486.83,3281.831 2487.53,3279.531 2488.03,3279.131 C2488.63,3278.831 2489.33,3276.831 2489.73,3274.731 C2490.43,3271.031 2490.53,3270.931 2492.23,3272.431 C2493.83,3273.931 2494.13,3273.931 2495.83,3271.931 C2498.53,3269.031 2496.73,3266.731 2491.23,3265.831 C2472.73,3262.831 2470.93,3262.731 2469.43,3264.931 C2468.73,3266.131 2467.23,3267.031 2466.23,3267.031 C2465.13,3267.031 2464.33,3267.431 2464.33,3267.931 C2464.33,3269.331 2453.53,3273.331 2447.83,3273.931 C2443.03,3274.531 2442.83,3274.631 2442.33,3278.031 C2441.63,3282.131 2440.63,3284.031 2439.13,3284.031 C2438.63,3284.031 2436.13,3286.031 2433.73,3288.431 C2430.53,3291.531 2429.43,3293.231 2429.93,3294.531 C2430.43,3295.831 2430.23,3296.131 2429.23,3295.831 C2427.23,3295.131 2426.93,3292.531 2428.73,3290.731 C2430.13,3289.331 2429.93,3288.031 2428.23,3288.031 C2427.83,3288.031 2426.53,3289.931 2425.33,3292.131 C2422.13,3298.431 2416.33,3302.431 2416.33,3298.531 C2416.33,3295.931 2414.83,3296.831 2413.43,3300.231 C2412.63,3302.031 2412.13,3303.731 2412.13,3304.031 C2412.13,3304.331 2411.33,3304.731 2410.23,3304.731 C2409.13,3304.831 2408.33,3304.231 2408.33,3303.231 C2408.33,3302.231 2407.53,3302.731 2405.93,3304.931 C2404.63,3306.631 2403.73,3308.931 2404.03,3309.831 C2404.33,3311.031 2403.43,3311.831 2400.93,3312.631 C2396.73,3313.931 2394.83,3312.731 2396.63,3309.831 C2397.63,3308.331 2397.53,3307.831 2396.43,3307.131 C2395.63,3306.531 2395.33,3305.531 2395.73,3304.431 C2396.23,3303.131 2396.63,3302.931 2397.53,3303.831 C2399.43,3305.731 2400.13,3305.231 2400.53,3302.231 C2400.73,3300.331 2401.43,3299.431 2402.93,3299.231 C2404.13,3299.031 2406.13,3297.831 2407.43,3296.431 C2408.63,3295.131 2410.03,3294.031 2410.43,3294.031 C2411.53,3294.031 2418.13,3289.531 2421.53,3286.431 C2423.73,3284.531 2425.43,3284.031 2429.53,3284.031 C2434.63,3283.931 2434.93,3283.831 2436.53,3280.431 L2438.13,3276.831 L2435.73,3277.331 C2434.43,3277.531 2433.33,3277.431 2433.33,3277.031 C2433.33,3276.631 2432.73,3276.331 2432.13,3276.231 C2431.43,3276.231 2429.93,3275.931 2428.83,3275.531 C2426.23,3274.831 2420.33,3278.431 2420.33,3280.831 C2420.33,3281.931 2419.53,3282.631 2418.33,3282.731 C2415.83,3282.931 2415.73,3281.531 2418.13,3280.031 C2419.33,3279.231 2419.53,3278.731 2418.53,3278.431 C2417.83,3278.131 2416.63,3277.231 2415.93,3276.431 C2414.03,3274.631 2411.33,3274.631 2411.33,3276.531 C2411.33,3277.331 2412.23,3278.031 2413.33,3278.031 C2415.03,3278.031 2415.23,3278.431 2414.73,3280.631 C2413.63,3284.831 2408.33,3289.231 2408.33,3286.031 C2408.33,3285.331 2407.73,3285.331 2406.33,3286.031 C2403.73,3287.431 2403.73,3289.431 2406.43,3288.731 C2407.93,3288.331 2408.33,3288.631 2408.13,3289.831 C2407.83,3291.631 2402.73,3292.431 2401.73,3290.931 C2401.43,3290.431 2399.93,3290.031 2398.23,3290.031 C2394.03,3290.031 2394.63,3288.531 2400.33,3284.431 C2406.03,3280.331 2406.83,3277.231 2402.83,3275.431 C2401.03,3274.531 2400.33,3274.531 2400.03,3275.431 C2399.73,3276.231 2399.03,3276.231 2397.43,3275.231 C2395.73,3274.231 2395.33,3274.231 2395.33,3275.431 C2395.33,3276.231 2395.93,3277.131 2396.63,3277.331 C2397.23,3277.631 2396.53,3277.931 2395.03,3277.931 C2392.63,3278.031 2392.33,3278.331 2392.83,3280.031 C2393.33,3281.531 2392.83,3282.231 2390.83,3283.031 C2389.43,3283.531 2388.43,3284.431 2388.73,3284.931 C2389.63,3286.331 2386.33,3287.131 2384.23,3286.031 C2383.23,3285.431 2382.33,3284.331 2382.33,3283.531 C2382.33,3281.631 2381.33,3281.631 2378.53,3283.631 C2375.63,3285.631 2375.73,3287.031 2378.83,3287.031 C2380.23,3287.031 2381.33,3287.531 2381.33,3288.131 C2381.33,3288.631 2380.43,3289.031 2379.33,3288.831 C2378.33,3288.631 2376.83,3289.331 2376.03,3290.431 C2374.93,3291.931 2374.33,3292.131 2372.53,3291.131 C2370.33,3289.931 2369.53,3288.031 2371.23,3288.031 C2371.73,3288.031 2372.43,3286.731 2372.83,3285.131 C2373.33,3282.731 2374.23,3282.031 2378.03,3280.831 C2383.33,3279.331 2391.33,3272.231 2391.33,3269.031 C2391.33,3267.231 2389.53,3268.031 2387.33,3270.731 C2385.93,3272.631 2385.03,3273.131 2384.73,3272.231 C2384.43,3271.631 2383.43,3271.031 2382.53,3271.031 C2381.33,3271.031 2381.43,3270.631 2383.13,3268.731 C2386.13,3265.631 2385.93,3265.231 2381.43,3265.431 C2376.73,3265.531 2372.33,3263.331 2372.33,3260.831 C2372.33,3258.131 2369.73,3257.531 2366.93,3259.731 L2364.53,3261.631 L2367.03,3263.831 C2368.43,3265.131 2369.43,3266.331 2369.13,3266.531 C2368.93,3266.831 2367.83,3266.231 2366.73,3265.131 C2365.63,3264.131 2363.63,3263.431 2362.33,3263.631 C2360.93,3263.731 2359.13,3263.931 2358.23,3263.931 C2357.03,3264.031 2356.43,3265.231 2356.13,3268.031 C2355.93,3270.231 2356.03,3272.631 2356.43,3273.331 C2356.83,3273.931 2356.73,3275.531 2356.23,3276.831 C2355.53,3278.631 2354.83,3279.031 2353.33,3278.531 C2351.83,3278.031 2351.03,3278.531 2350.23,3280.331 C2349.03,3282.931 2347.63,3283.831 2340.63,3286.431 C2336.83,3287.831 2336.43,3287.831 2337.03,3286.431 C2337.33,3285.531 2337.03,3284.531 2336.33,3284.031 C2335.33,3283.431 2335.43,3282.831 2336.43,3280.931 C2337.13,3279.631 2337.63,3278.231 2337.53,3277.731 C2337.43,3277.331 2338.93,3277.031 2340.93,3277.031 C2344.43,3277.031 2344.53,3276.931 2344.03,3274.231 C2343.53,3271.631 2343.63,3271.431 2346.63,3271.631 C2348.43,3271.731 2350.63,3272.131 2351.63,3272.531 C2353.43,3273.331 2354.03,3271.631 2352.33,3270.531 C2350.73,3269.531 2351.13,3267.231 2353.33,3265.031 L2355.43,3262.931 L2352.43,3260.031 C2349.13,3256.631 2343.53,3255.931 2341.33,3258.631 C2339.43,3260.831 2334.73,3260.131 2335.13,3257.631 C2335.43,3256.131 2335.03,3255.831 2333.43,3256.331 C2330.83,3257.031 2329.93,3255.631 2331.33,3253.131 C2332.23,3251.331 2331.83,3250.831 2328.13,3248.931 C2325.581,3247.59 2326.885,3248.364 2324.247,3246.562 C2325.025,3245.525 2324.883,3244.25 2324.521,3243.085 C2324.442,3242.827 2324.264,3242.61 2324.135,3242.372 C2321.995,3239.224 2319.383,3237.337 2314.926,3235.109 C2313.685,3234.637 2314.438,3234.838 2312.62,3234.719 C2311.599,3235.028 2310.522,3235.46 2309.907,3236.378 C2308.376,3236.574 2308.969,3236.301 2308.03,3236.931 C2306.43,3238.531 2305.33,3238.331 2305.93,3236.531 C2306.33,3235.431 2306.13,3235.231 2305.03,3235.531 C2303.93,3236.031 2303.43,3235.031 2302.83,3231.831 C2302.43,3229.431 2302.13,3226.831 2302.23,3226.031 C2302.33,3224.231 2300.63,3221.331 2299.93,3222.131 C2299.63,3222.431 2299.33,3224.031 2299.13,3225.831 C2298.93,3228.731 2298.83,3228.831 2297.23,3227.431 C2295.83,3226.231 2295.63,3225.231 2296.33,3223.431 C2297.13,3221.531 2296.83,3220.831 2294.33,3219.031 C2292.63,3217.831 2291.63,3216.331 2291.93,3215.531 C2292.53,3214.031 2286.63,3209.731 2285.13,3210.631 C2284.73,3210.931 2284.33,3210.431 2284.33,3209.631 C2284.33,3208.731 2284.83,3208.031 2285.33,3208.031 C2285.93,3208.031 2286.33,3207.531 2286.33,3207.031 C2286.33,3206.431 2284.73,3206.031 2282.83,3206.031 C2279.83,3206.031 2279.33,3205.631 2279.33,3203.731 C2279.23,3201.131 2277.53,3198.631 2274.93,3197.731 C2273.63,3197.231 2273.23,3196.431 2273.73,3194.531 C2274.23,3192.731 2273.63,3191.231 2271.33,3188.631 L2268.33,3185.231 L2271.83,3181.531 C2273.73,3179.431 2275.33,3177.431 2275.33,3177.031 C2275.33,3176.631 2273.93,3175.131 2272.23,3173.631 C2269.83,3171.431 2269.43,3170.631 2270.43,3169.431 C2271.33,3168.331 2271.33,3167.731 2270.33,3166.531 C2269.63,3165.631 2269.33,3164.631 2269.73,3164.231 C2270.13,3163.831 2271.03,3164.231 2271.63,3165.131 C2272.93,3166.931 2275.33,3166.531 2275.33,3164.631 C2275.33,3163.931 2273.33,3161.231 2270.83,3158.631 C2268.33,3155.931 2266.33,3152.931 2266.33,3151.931 C2266.33,3150.831 2265.63,3149.731 2264.83,3149.431 C2264.03,3149.031 2263.33,3148.031 2263.33,3147.031 C2263.27,3146.382 2263.327,3146.718 2263.143,3146.026 C2266.303,3144.38 2265.144,3145.018 2266.654,3144.178 C2267.33,3145.475 2267.146,3144.844 2267.33,3146.031 C2267.33,3148.631 2270.33,3154.131 2273.33,3157.031 C2274.83,3158.531 2276.53,3160.531 2277.03,3161.531 C2277.93,3163.031 2279.33,3163.431 2283.63,3163.531 C2288.13,3163.531 2289.53,3164.031 2291.03,3165.831 C2292.03,3167.131 2293.63,3168.231 2294.53,3168.331 C2295.43,3168.531 2298.23,3170.531 2300.73,3172.831 C2305.73,3177.431 2306.83,3177.831 2307.73,3175.331 C2308.23,3174.131 2308.63,3173.931 2309.53,3174.831 C2310.23,3175.531 2312.13,3176.031 2313.93,3176.031 C2316.13,3176.031 2317.63,3176.731 2318.63,3178.331 C2322.03,3183.331 2325.03,3185.831 2328.33,3186.531 C2331.43,3187.231 2331.63,3187.131 2330.43,3185.631 C2329.73,3184.731 2328.43,3184.031 2327.73,3184.031 C2326.93,3184.031 2326.33,3183.631 2326.33,3183.131 C2326.33,3181.531 2321.03,3174.031 2319.83,3174.031 C2318.83,3174.031 2313.33,3168.431 2313.33,3167.331 C2313.33,3167.031 2314.93,3167.031 2316.93,3167.331 C2320.33,3167.931 2320.53,3167.831 2319.93,3165.431 C2318.43,3159.631 2324.53,3162.931 2331.13,3171.531 C2332.33,3173.131 2334.63,3174.731 2336.13,3175.031 C2338.43,3175.531 2339.03,3175.031 2340.53,3172.031 C2342.13,3168.731 2342.23,3168.631 2342.83,3170.731 C2343.73,3173.531 2344.33,3173.531 2347.63,3171.031 C2349.53,3169.531 2350.43,3169.331 2350.93,3170.231 C2351.33,3170.831 2351.13,3171.631 2350.53,3171.831 C2349.83,3172.031 2349.33,3172.731 2349.33,3173.431 C2349.33,3174.131 2347.93,3175.931 2346.23,3177.631 L2343.13,3180.531 L2343.83,3177.731 C2344.63,3174.731 2343.03,3174.131 2339.93,3176.331 C2338.33,3177.431 2338.33,3177.831 2339.83,3181.331 C2340.63,3183.331 2341.83,3185.031 2342.33,3185.031 C2343.63,3185.031 2350.33,3191.631 2350.33,3192.931 C2350.33,3193.631 2368.13,3193.831 2371.33,3193.131 C2371.73,3193.131 2372.53,3191.431 2373.23,3189.531 C2374.73,3185.331 2377.93,3184.731 2379.33,3188.531 C2380.53,3191.631 2386.13,3197.531 2387.03,3196.731 C2387.33,3196.331 2386.03,3193.631 2384.03,3190.731 C2379.73,3184.531 2379.33,3181.531 2382.63,3180.631 C2386.23,3179.731 2387.33,3179.931 2387.33,3181.631 C2387.33,3182.531 2389.13,3185.031 2391.33,3187.231 C2393.53,3189.431 2395.33,3191.631 2395.33,3192.131 C2395.33,3192.631 2396.03,3193.031 2396.83,3193.031 C2398.93,3193.031 2398.83,3192.831 2394.83,3188.631 C2391.43,3185.031 2390.63,3182.031 2391.93,3178.631 C2392.83,3176.331 2397.33,3176.531 2397.33,3178.831 C2397.33,3180.831 2400.13,3184.231 2403.83,3186.631 C2405.93,3188.031 2406.63,3188.031 2407.93,3186.931 C2409.33,3185.831 2409.33,3185.531 2407.53,3184.131 C2405.23,3182.331 2401.33,3175.631 2401.33,3173.631 C2401.33,3172.831 2402.73,3172.031 2404.43,3171.831 C2407.13,3171.431 2407.83,3171.831 2409.73,3174.931 C2410.93,3176.931 2412.23,3179.331 2412.63,3180.231 C2413.03,3181.331 2414.33,3182.031 2415.83,3182.031 C2418.73,3182.031 2418.73,3182.231 2416.93,3177.931 C2414.93,3172.931 2416.33,3169.631 2420.33,3170.231 C2422.73,3170.631 2423.33,3170.331 2423.33,3168.931 C2423.33,3166.831 2423.83,3166.531 2428.13,3165.531 C2430.63,3165.031 2431.33,3165.231 2431.33,3166.431 C2431.33,3168.431 2434.83,3172.031 2436.73,3172.031 C2437.93,3172.031 2437.83,3171.231 2436.23,3167.631 C2433.83,3162.031 2434.53,3156.731 2437.73,3157.231 C2438.83,3157.431 2439.93,3158.431 2440.13,3159.531 C2440.63,3162.231 2447.13,3170.031 2448.93,3170.031 C2450.93,3170.031 2450.63,3167.331 2448.53,3166.131 C2446.53,3165.031 2444.13,3158.631 2445.03,3156.431 C2445.83,3154.131 2448.63,3154.831 2451.63,3158.031 C2453.23,3159.631 2454.83,3161.031 2455.33,3161.031 C2455.73,3161.031 2456.43,3162.231 2456.73,3163.631 C2457.23,3165.331 2457.93,3166.031 2459.13,3165.831 C2461.23,3165.431 2462.03,3162.031 2460.23,3160.931 C2457.53,3159.331 2458.53,3152.031 2461.43,3152.031 C2461.93,3152.031 2462.93,3153.331 2463.73,3154.931 C2465.33,3158.031 2470.13,3159.831 2469.93,3157.231 C2469.93,3156.431 2470.63,3155.331 2471.53,3154.731 C2472.93,3153.831 2473.83,3154.131 2476.63,3156.831 C2478.43,3158.531 2480.93,3160.031 2482.23,3160.031 C2483.43,3160.031 2484.33,3159.731 2484.13,3159.231 C2483.93,3158.831 2483.13,3157.331 2482.43,3155.831 C2480.73,3152.531 2481.73,3148.031 2484.13,3148.031 C2486.43,3148.131 2489.63,3150.831 2491.93,3154.731 C2494.13,3158.731 2495.53,3158.931 2495.33,3155.231 C2494.93,3149.231 2495.33,3148.131 2498.43,3146.431 L2501.63,3144.831 L2500.93,3147.531 C2500.43,3149.631 2500.93,3151.231 2502.93,3154.131 C2506.43,3159.231 2507.73,3159.131 2506.93,3154.031 C2506.43,3150.931 2506.63,3149.831 2507.83,3149.431 C2508.63,3149.031 2509.33,3148.231 2509.33,3147.431 C2509.33,3145.831 2512.93,3145.531 2513.83,3147.031 C2514.13,3147.531 2515.33,3148.031 2516.43,3148.031 C2518.03,3148.031 2518.33,3147.331 2518.33,3144.131 C2518.33,3141.931 2518.83,3139.831 2519.33,3139.531 C2520.83,3138.631 2523.53,3141.031 2522.93,3142.631 C2522.33,3144.231 2525.33,3146.031 2528.63,3146.031 C2531.73,3146.031 2533.23,3144.231 2535.33,3137.831 C2537.23,3131.831 2539.33,3130.331 2539.33,3134.931 C2539.33,3136.531 2539.83,3138.231 2540.33,3138.531 C2541.93,3139.531 2541.63,3147.031 2540.03,3146.431 C2537.73,3145.631 2530.33,3151.131 2530.33,3153.631 C2530.33,3155.731 2530.73,3155.831 2536.03,3155.831 C2541.53,3155.731 2543.33,3156.731 2544.63,3160.431 C2544.93,3161.131 2546.03,3160.931 2548.13,3159.731 C2551.83,3157.631 2553.83,3158.331 2555.23,3162.131 C2556.43,3165.531 2557.03,3165.631 2561.73,3163.431 C2565.83,3161.431 2568.03,3162.031 2569.33,3165.531 C2570.23,3168.031 2570.63,3168.131 2574.83,3167.431 C2578.23,3166.931 2579.83,3167.131 2581.13,3168.331 C2582.43,3169.431 2585.03,3169.731 2592.63,3169.531 C2601.03,3169.331 2602.73,3169.631 2604.83,3171.231 C2607.43,3173.231 2610.33,3173.231 2615.83,3171.031 C2617.43,3170.431 2619.73,3170.131 2621.03,3170.531 C2622.73,3170.931 2623.13,3170.731 2622.73,3169.531 C2622.33,3168.531 2622.73,3168.031 2623.73,3168.031 C2625.53,3168.031 2625.93,3169.531 2624.33,3170.531 C2623.03,3171.331 2623.03,3175.731 2624.33,3176.531 C2626.13,3177.631 2624.43,3178.831 2621.83,3178.231 C2619.83,3177.931 2619.33,3178.231 2619.33,3179.931 C2619.33,3183.331 2624.83,3181.431 2630.03,3176.331 C2632.43,3174.031 2635.23,3172.031 2636.13,3172.031 C2637.33,3172.031 2636.83,3172.831 2634.43,3174.931 C2632.63,3176.531 2631.33,3178.331 2631.73,3178.831 C2632.13,3179.431 2631.63,3180.331 2630.73,3180.831 C2627.93,3182.431 2631.13,3183.431 2635.23,3182.231 C2643.03,3179.931 2647.13,3179.031 2649.03,3179.031 C2650.13,3179.031 2651.63,3178.331 2652.33,3177.531 C2653.03,3176.731 2654.83,3176.031 2656.43,3176.031 C2658.83,3176.031 2659.33,3175.631 2659.33,3173.731 C2659.33,3172.431 2660.73,3170.131 2662.33,3168.531 C2664.03,3166.931 2665.23,3164.931 2665.13,3164.031 C2665.03,3163.231 2665.63,3161.431 2666.53,3160.131 C2668.03,3158.031 2668.43,3157.931 2669.83,3159.031 C2670.73,3159.731 2671.33,3161.031 2671.23,3161.931 C2670.53,3169.531 2673.53,3167.431 2675.43,3159.031 L2676.73,3153.131 L2679.63,3155.231 C2682.93,3157.631 2685.63,3156.831 2686.13,3153.331 C2686.33,3152.131 2687.33,3150.431 2688.33,3149.531 C2690.53,3147.531 2692.73,3148.631 2693.83,3152.131 C2694.63,3154.631 2696.83,3154.031 2696.83,3151.431 C2696.83,3148.831 2699.93,3148.431 2700.63,3151.031 C2701.13,3152.931 2705.33,3154.031 2705.33,3152.231 C2705.33,3151.731 2706.13,3150.531 2707.23,3149.431 C2709.43,3147.031 2711.73,3140.431 2710.83,3139.031 C2710.43,3138.431 2709.23,3138.731 2707.63,3140.031 C2704.53,3142.431 2701.73,3142.631 2700.93,3140.531 C2700.43,3139.231 2700.03,3139.131 2698.13,3140.231 C2696.83,3140.931 2695.43,3141.331 2694.93,3141.231 C2694.43,3141.031 2693.33,3141.631 2692.43,3142.331 C2691.53,3143.131 2689.73,3143.631 2688.33,3143.531 C2686.93,3143.331 2685.53,3143.131 2685.13,3143.131 C2684.03,3143.031 2684.13,3138.631 2685.33,3135.531 C2686.23,3133.231 2686.63,3133.031 2687.83,3134.031 C2688.73,3134.831 2689.33,3134.831 2689.33,3134.231 C2689.33,3133.631 2688.73,3133.031 2688.13,3132.731 C2687.13,3132.431 2687.13,3131.831 2687.93,3130.431 C2689.23,3128.231 2694.13,3128.331 2695.93,3130.631 C2696.53,3131.431 2697.33,3132.031 2697.63,3132.031 C2698.73,3132.031 2700.43,3125.031 2699.83,3122.931 C2699.13,3120.931 2699.33,3120.831 2701.93,3121.431 C2705.33,3122.331 2704.83,3121.731 2706.63,3126.231 C2708.33,3130.131 2710.03,3130.831 2713.23,3128.831 C2716.53,3126.831 2718.03,3128.431 2718.73,3134.831 C2719.33,3140.531 2719.53,3140.831 2722.53,3141.431 C2726.33,3142.231 2727.43,3141.331 2724.93,3139.431 C2723.13,3138.131 2723.13,3138.031 2725.73,3137.031 C2728.83,3135.831 2730.73,3135.731 2731.63,3136.631 C2732.03,3137.031 2733.83,3137.431 2735.83,3137.631 C2737.73,3137.831 2741.43,3138.831 2743.93,3140.031 C2746.53,3141.131 2748.93,3142.031 2749.43,3142.031 C2749.83,3142.031 2751.33,3142.431 2752.83,3143.031 C2755.03,3143.831 2755.23,3144.231 2754.23,3145.931 C2753.53,3147.031 2753.33,3148.531 2753.83,3149.631 C2754.43,3151.131 2754.73,3151.231 2755.03,3150.031 C2755.53,3148.131 2762.13,3143.031 2764.13,3143.031 C2765.23,3143.031 2765.43,3143.831 2764.93,3146.531 C2764.13,3150.831 2765.33,3151.031 2767.63,3147.031 C2769.83,3143.331 2772.23,3143.231 2776.23,3146.631 C2778.83,3148.731 2779.73,3149.031 2782.53,3148.231 C2785.43,3147.431 2786.23,3147.731 2788.83,3150.231 C2790.53,3151.731 2792.13,3153.031 2792.53,3153.031 C2792.93,3153.031 2794.13,3151.831 2795.23,3150.431 C2796.93,3148.231 2797.53,3148.031 2798.83,3149.031 C2799.63,3149.731 2800.33,3150.831 2800.33,3151.631 C2800.33,3152.331 2800.73,3153.131 2801.23,3153.431 C2802.83,3154.431 2805.33,3152.931 2805.33,3150.931 C2805.33,3147.731 2807.53,3144.031 2809.53,3144.031 C2811.23,3144.031 2811.43,3144.531 2810.83,3148.031 C2809.93,3153.231 2810.73,3155.431 2814.03,3156.931 C2816.53,3158.031 2817.03,3157.931 2818.63,3155.931 C2820.43,3153.631 2820.43,3153.531 2818.43,3151.931 C2816.53,3150.431 2816.53,3150.131 2817.93,3148.931 C2819.23,3147.831 2820.03,3147.831 2822.23,3149.131 C2831.63,3154.731 2831.03,3154.531 2834.43,3153.331 C2837.23,3152.231 2837.93,3152.331 2840.23,3154.131 C2842.23,3155.731 2843.63,3156.031 2846.93,3155.531 C2850.43,3155.031 2851.43,3155.231 2852.53,3156.931 C2853.33,3158.131 2854.23,3158.831 2854.43,3158.531 C2854.73,3158.331 2856.43,3157.831 2858.33,3157.531 C2860.13,3157.231 2862.73,3155.831 2864.03,3154.431 C2865.93,3152.331 2866.53,3152.131 2868.33,3153.231 C2869.43,3153.931 2870.33,3155.031 2870.33,3155.631 C2870.33,3157.031 2872.63,3158.031 2876.03,3158.031 C2878.13,3158.031 2878.43,3158.431 2878.23,3160.731 C2878.03,3162.331 2878.53,3164.631 2879.33,3166.031 C2880.13,3167.431 2880.83,3168.931 2880.83,3169.531 C2880.93,3170.831 2885.73,3170.331 2886.13,3169.031 C2886.33,3168.431 2887.13,3168.031 2887.93,3168.031 C2888.83,3168.031 2889.33,3166.931 2889.33,3165.131 C2889.33,3163.531 2890.03,3160.931 2890.83,3159.431 C2891.63,3157.831 2892.33,3155.731 2892.33,3154.831 C2892.33,3153.931 2893.23,3151.631 2894.23,3149.831 C2895.33,3148.031 2896.73,3144.431 2897.43,3141.731 C2898.03,3139.131 2898.93,3136.731 2899.43,3136.431 C2899.93,3136.231 2900.53,3133.831 2900.93,3131.231 C2901.53,3126.931 2902.03,3126.231 2906.73,3123.231 C2910.53,3120.731 2912.53,3120.031 2914.83,3120.331 C2916.43,3120.631 2918.73,3121.031 2919.83,3121.231 C2921.53,3121.431 2921.83,3120.931 2921.93,3118.131 C2922.03,3116.231 2922.73,3114.231 2923.73,3113.531 C2924.63,3112.831 2925.33,3111.531 2925.33,3110.631 C2925.33,3109.731 2925.73,3109.031 2926.33,3109.031 L2926.33,3109.031 z M2778.188,3153.61 C2776.885,3154.047 2776.361,3155.473 2775.83,3156.631 C2775.03,3158.631 2774.33,3160.931 2774.33,3161.731 C2774.33,3166.931 2768.63,3168.931 2765.83,3164.631 C2764.43,3162.531 2763.93,3162.331 2761.23,3163.331 C2757.63,3164.731 2754.93,3163.431 2754.53,3159.931 C2753.73,3153.631 2751.63,3153.831 2751.13,3160.231 C2751.03,3162.931 2750.63,3163.631 2749.73,3162.931 C2748.93,3162.331 2748.33,3162.431 2747.93,3163.531 C2747.63,3164.331 2747.83,3165.031 2748.43,3165.031 C2748.93,3165.031 2748.83,3165.631 2748.13,3166.431 C2746.43,3168.231 2743.63,3166.731 2743.03,3163.831 C2742.73,3161.631 2742.63,3161.631 2741.53,3164.331 C2740.53,3166.631 2739.93,3167.031 2737.63,3166.431 C2736.03,3166.031 2734.43,3165.431 2733.93,3164.931 C2733.33,3164.431 2732.13,3164.731 2731.13,3165.731 C2729.63,3167.131 2728.73,3167.131 2725.63,3166.231 C2723.63,3165.631 2721.53,3165.331 2721.03,3165.731 C2720.53,3166.031 2718.23,3166.231 2715.83,3166.231 C2712.33,3166.131 2711.23,3166.531 2709.93,3168.531 C2707.23,3172.631 2701.33,3171.331 2701.33,3166.731 C2701.33,3165.731 2700.93,3165.231 2700.33,3165.531 C2699.83,3165.831 2699.33,3167.131 2699.33,3168.231 C2699.33,3169.331 2698.23,3171.331 2696.93,3172.531 C2694.53,3174.731 2694.43,3174.731 2691.43,3172.931 C2688.93,3171.431 2688.23,3171.331 2687.63,3172.531 C2686.43,3174.531 2675.83,3180.031 2672.93,3180.031 C2671.43,3180.031 2670.23,3180.731 2669.83,3181.931 C2669.53,3183.031 2667.93,3184.031 2666.23,3184.431 C2663.83,3184.931 2663.33,3185.431 2663.83,3186.931 C2664.33,3188.431 2663.93,3188.731 2661.83,3188.231 C2660.43,3188.031 2659.03,3187.431 2658.73,3186.931 C2657.93,3185.531 2655.63,3185.831 2650.33,3188.231 C2647.63,3189.531 2645.03,3191.531 2644.43,3192.731 C2643.33,3195.031 2641.43,3195.531 2635.13,3195.031 C2633.53,3194.931 2632.33,3195.431 2632.33,3196.031 C2632.33,3196.731 2631.73,3197.031 2631.13,3196.831 C2630.43,3196.531 2629.03,3197.231 2628.13,3198.231 C2627.13,3199.231 2626.63,3200.031 2626.93,3200.031 C2627.33,3200.031 2627.03,3200.631 2626.43,3201.431 C2625.13,3203.031 2621.93,3202.731 2619.73,3200.931 C2618.43,3199.831 2618.33,3194.731 2619.63,3193.331 C2620.03,3193.031 2620.33,3191.531 2620.33,3190.131 C2620.33,3187.631 2620.33,3187.631 2618.93,3189.631 C2618.13,3190.731 2617.13,3192.931 2616.73,3194.431 C2616.43,3195.931 2615.03,3197.631 2613.83,3198.231 C2611.43,3199.331 2610.73,3203.531 2612.53,3205.731 C2614.03,3207.531 2612.73,3210.031 2610.33,3210.031 C2608.83,3210.031 2608.33,3209.331 2608.33,3207.631 C2608.33,3206.231 2607.93,3204.931 2607.43,3204.631 C2606.43,3203.931 2607.23,3199.031 2608.43,3199.031 C2608.93,3199.031 2609.33,3198.131 2609.33,3197.031 C2609.33,3194.731 2606.53,3193.031 2602.43,3193.031 C2600.83,3193.031 2599.23,3192.631 2598.93,3192.131 C2598.53,3191.631 2595.93,3190.931 2593.03,3190.531 C2590.23,3190.131 2586.73,3189.231 2585.33,3188.531 C2583.93,3187.731 2581.63,3186.931 2580.13,3186.631 C2578.63,3186.231 2576.63,3185.131 2575.63,3184.131 C2574.63,3183.131 2572.33,3182.031 2570.53,3181.731 C2568.73,3181.331 2565.63,3179.931 2563.53,3178.531 C2560.43,3176.431 2553.83,3174.831 2555.63,3176.631 C2555.93,3177.031 2555.83,3178.131 2555.23,3179.231 C2554.43,3180.731 2553.53,3180.931 2550.73,3180.431 C2548.03,3179.931 2547.33,3180.131 2547.33,3181.431 C2547.33,3184.031 2547.23,3184.431 2546.13,3185.731 C2543.93,3188.431 2542.53,3185.831 2544.43,3182.531 C2544.83,3181.931 2545.33,3179.931 2545.73,3178.031 C2546.33,3174.631 2546.23,3174.431 2542.63,3173.131 C2538.43,3171.631 2533.53,3167.031 2534.13,3165.231 C2534.33,3164.531 2534.03,3164.031 2533.43,3164.031 C2531.73,3164.031 2532.13,3170.031 2533.83,3170.631 C2534.63,3171.031 2535.33,3172.331 2535.33,3173.631 C2535.33,3175.131 2534.73,3176.031 2533.83,3176.031 C2533.03,3176.031 2532.33,3175.531 2532.33,3174.931 C2532.33,3174.431 2531.83,3174.231 2531.33,3174.531 C2530.73,3174.931 2530.53,3175.531 2530.83,3176.031 C2531.53,3177.131 2530.03,3180.231 2527.73,3182.531 C2526.53,3183.631 2525.73,3183.831 2524.83,3183.031 C2523.13,3181.531 2524.03,3178.731 2527.23,3175.231 C2529.73,3172.731 2530.43,3169.231 2528.23,3170.631 C2527.73,3170.931 2527.33,3170.531 2527.33,3169.831 C2527.33,3167.031 2525.23,3166.031 2522.43,3167.431 C2519.03,3169.031 2518.03,3168.931 2515.83,3166.731 C2514.53,3165.331 2513.13,3165.031 2510.43,3165.431 C2508.43,3165.831 2503.13,3166.131 2498.63,3166.231 C2491.93,3166.431 2490.33,3166.731 2490.33,3168.031 C2490.33,3169.231 2488.73,3169.531 2481.73,3169.731 C2473.83,3169.831 2472.83,3170.031 2470.93,3172.331 C2468.43,3175.331 2465.93,3176.231 2464.53,3174.831 C2463.93,3174.231 2462.33,3174.031 2460.73,3174.431 L2458.03,3175.131 L2460.23,3177.431 C2461.33,3178.631 2462.33,3180.631 2462.33,3181.731 C2462.33,3183.931 2456.73,3189.431 2453.43,3190.531 C2452.33,3190.831 2451.13,3191.931 2450.83,3193.031 C2450.53,3194.031 2448.73,3196.531 2446.83,3198.631 C2444.93,3200.631 2443.23,3202.831 2442.93,3203.431 C2442.63,3204.131 2442.13,3203.931 2441.43,3203.031 C2439.93,3200.931 2440.03,3200.031 2441.83,3200.031 C2442.63,3200.031 2443.33,3199.531 2443.33,3199.031 C2443.33,3198.431 2444.33,3197.531 2445.63,3196.931 C2447.63,3196.031 2447.63,3196.031 2445.13,3196.531 C2441.13,3197.331 2441.63,3195.631 2446.73,3190.631 C2451.53,3185.931 2454.93,3179.531 2453.13,3178.431 C2451.73,3177.531 2444.33,3177.331 2444.33,3178.231 C2444.33,3178.631 2444.73,3180.031 2445.23,3181.331 C2446.13,3183.531 2445.83,3184.031 2443.03,3185.431 C2438.43,3187.631 2433.53,3192.431 2432.73,3195.431 C2431.83,3199.131 2429.23,3198.931 2429.93,3195.131 C2430.53,3192.231 2428.43,3189.331 2427.53,3191.931 C2427.33,3192.631 2426.03,3193.531 2424.73,3194.031 C2423.43,3194.531 2422.33,3195.431 2422.33,3195.931 C2422.33,3197.331 2427.23,3200.131 2428.63,3199.531 C2429.33,3199.231 2428.83,3199.731 2427.63,3200.631 C2426.33,3201.531 2425.33,3202.631 2425.33,3203.131 C2425.33,3204.431 2420.23,3209.531 2419.03,3209.531 C2418.33,3209.531 2417.73,3211.031 2417.53,3212.731 C2417.13,3217.131 2415.63,3216.931 2415.13,3212.531 C2414.83,3210.031 2415.23,3208.431 2416.53,3207.031 C2418.83,3204.531 2418.83,3204.031 2416.13,3204.031 C2414.23,3204.031 2414.13,3203.831 2415.33,3203.031 C2416.13,3202.531 2416.43,3202.031 2415.83,3202.031 C2415.33,3202.031 2415.53,3201.531 2416.33,3201.031 C2417.53,3200.231 2417.23,3200.031 2414.93,3200.031 C2412.43,3200.031 2412.13,3200.331 2412.63,3202.631 C2412.83,3204.031 2412.43,3205.731 2411.73,3206.531 C2410.93,3207.231 2410.53,3208.531 2410.83,3209.231 C2411.13,3209.931 2409.53,3212.331 2407.33,3214.431 C2405.13,3216.531 2403.33,3218.831 2403.33,3219.531 C2403.33,3220.231 2402.43,3221.031 2401.33,3221.331 C2400.13,3221.631 2399.33,3222.731 2399.33,3223.931 C2399.33,3225.131 2398.93,3226.031 2398.43,3226.031 C2397.93,3226.031 2397.13,3226.931 2396.83,3228.131 C2396.33,3229.631 2395.43,3230.031 2393.53,3229.831 C2390.03,3229.431 2389.83,3227.831 2392.93,3224.731 C2394.83,3222.831 2395.23,3221.731 2394.53,3220.431 C2393.73,3218.931 2393.43,3219.031 2392.03,3221.031 C2391.13,3222.331 2389.43,3223.231 2387.93,3223.231 C2386.53,3223.231 2385.33,3223.631 2385.33,3224.131 C2385.33,3224.631 2384.73,3225.031 2383.93,3225.031 C2382.13,3225.031 2381.03,3229.831 2381.93,3233.431 C2382.73,3236.731 2384.03,3236.731 2387.43,3233.431 L2390.23,3230.831 L2392.83,3233.431 C2394.73,3235.331 2396.33,3236.031 2398.23,3235.831 C2399.63,3235.631 2401.33,3236.231 2402.03,3237.031 C2403.03,3238.331 2403.53,3238.231 2405.63,3236.231 C2408.63,3233.331 2409.63,3230.331 2407.73,3229.631 C2406.93,3229.331 2406.33,3229.531 2406.33,3229.931 C2406.33,3231.131 2401.23,3232.731 2399.03,3232.231 C2396.73,3231.731 2397.33,3229.831 2400.13,3228.431 C2401.33,3227.831 2403.43,3226.131 2404.73,3224.731 C2406.23,3223.131 2407.83,3222.331 2408.73,3222.631 C2409.93,3223.131 2410.33,3222.631 2410.33,3220.731 C2410.33,3217.231 2411.33,3215.031 2412.83,3215.031 C2414.03,3215.031 2414.23,3221.531 2412.93,3222.731 C2412.63,3223.031 2412.33,3224.231 2412.33,3225.231 C2412.33,3226.731 2412.83,3226.931 2414.93,3226.431 C2417.23,3225.831 2417.43,3226.031 2416.93,3227.731 C2416.13,3230.331 2417.83,3231.631 2423.13,3232.831 C2426.93,3233.731 2427.33,3233.631 2427.33,3231.831 C2427.33,3230.831 2427.83,3230.231 2428.33,3230.531 C2428.93,3230.831 2429.33,3230.431 2429.33,3229.631 C2429.33,3228.531 2430.33,3228.031 2432.33,3228.031 C2434.13,3228.031 2435.63,3227.431 2435.93,3226.531 C2437.03,3223.831 2437.93,3224.931 2437.83,3228.731 C2437.83,3231.631 2438.23,3232.531 2439.63,3232.831 C2442.23,3233.331 2446.33,3232.231 2446.33,3231.031 C2446.33,3230.431 2445.53,3230.531 2444.33,3231.231 C2443.33,3231.931 2442.03,3232.031 2441.63,3231.631 C2441.23,3231.131 2441.43,3230.531 2442.13,3230.331 C2442.83,3230.031 2444.03,3229.231 2444.83,3228.331 C2445.63,3227.531 2446.33,3227.331 2446.33,3227.931 C2446.33,3229.231 2453.03,3228.731 2454.53,3227.231 C2456.43,3225.331 2454.63,3223.031 2451.23,3223.031 C2448.83,3223.031 2448.23,3222.731 2448.73,3221.431 C2449.03,3220.531 2449.33,3219.231 2449.33,3218.431 C2449.33,3216.031 2454.23,3216.731 2455.23,3219.231 C2455.73,3220.531 2455.93,3221.831 2455.63,3222.231 C2455.43,3222.631 2455.93,3222.731 2456.83,3222.431 C2457.73,3222.031 2458.23,3221.131 2457.93,3220.331 C2457.33,3218.931 2459.43,3216.031 2460.93,3216.031 C2462.23,3216.031 2467.33,3210.731 2467.33,3209.431 C2467.33,3208.431 2471.43,3205.031 2472.63,3205.031 C2472.73,3205.031 2472.93,3206.731 2473.03,3208.731 C2473.13,3215.331 2474.13,3225.231 2474.73,3225.731 C2475.03,3226.031 2474.53,3226.931 2473.53,3227.631 C2471.93,3228.831 2472.03,3228.931 2474.13,3229.031 C2475.33,3229.031 2476.33,3229.531 2476.33,3230.031 C2476.33,3231.531 2481.23,3227.831 2481.33,3226.431 C2481.33,3225.731 2480.43,3225.031 2479.23,3224.731 C2478.03,3224.431 2477.43,3223.731 2477.73,3223.231 C2478.03,3222.631 2477.93,3221.131 2477.53,3219.831 C2476.43,3216.931 2477.03,3215.031 2479.03,3215.031 C2480.23,3215.031 2480.43,3215.731 2480.03,3218.031 C2479.53,3220.231 2479.83,3221.231 2481.13,3221.931 C2482.03,3222.531 2482.43,3223.031 2481.83,3223.031 C2481.33,3223.031 2481.93,3223.731 2483.23,3224.431 C2484.63,3225.231 2486.33,3225.631 2486.93,3225.331 C2488.63,3224.731 2487.53,3222.031 2485.53,3222.031 C2484.33,3222.031 2484.23,3221.731 2485.13,3220.831 C2485.83,3220.131 2485.93,3219.131 2485.23,3217.831 C2484.73,3216.831 2484.53,3216.031 2484.83,3216.031 C2485.13,3216.031 2484.63,3214.431 2483.83,3212.331 C2482.43,3209.131 2482.43,3208.531 2483.83,3206.331 C2484.73,3205.131 2486.23,3204.031 2487.43,3204.031 C2488.53,3204.031 2489.63,3203.431 2489.93,3202.631 C2490.23,3201.831 2491.13,3200.931 2491.83,3200.631 C2493.63,3200.031 2492.73,3202.231 2489.63,3207.031 C2487.23,3210.431 2487.23,3210.431 2489.13,3212.031 C2490.23,3212.831 2491.43,3214.531 2491.83,3215.731 C2492.23,3217.131 2493.23,3218.031 2494.43,3218.031 C2495.53,3218.031 2496.13,3217.531 2495.83,3217.031 C2495.53,3216.431 2495.73,3216.031 2496.23,3216.031 C2497.83,3216.031 2497.53,3214.131 2495.83,3212.431 C2494.33,3210.831 2494.83,3208.031 2497.03,3206.731 C2497.73,3206.331 2498.33,3205.331 2498.33,3204.631 C2498.33,3203.831 2498.93,3202.731 2499.73,3202.031 C2502.03,3200.231 2501.43,3205.031 2499.03,3207.731 C2497.23,3209.831 2497.23,3209.831 2499.23,3210.531 C2500.53,3210.931 2501.33,3212.031 2501.43,3213.631 C2501.63,3217.631 2501.73,3217.831 2504.13,3220.031 C2506.13,3221.931 2506.63,3222.031 2508.13,3220.831 C2511.83,3218.031 2514.23,3215.031 2514.53,3212.831 C2514.73,3211.131 2515.43,3210.631 2516.93,3210.831 C2518.33,3211.031 2519.33,3210.231 2520.13,3208.531 C2521.53,3205.531 2523.33,3206.031 2523.33,3209.531 C2523.33,3213.931 2522.43,3214.931 2519.23,3214.031 C2516.73,3213.331 2516.33,3213.431 2516.33,3215.031 C2516.33,3216.031 2516.93,3217.131 2517.63,3217.331 C2518.33,3217.631 2518.13,3217.931 2517.13,3217.931 C2514.63,3218.031 2514.83,3218.931 2518.43,3224.331 C2521.43,3228.931 2524.43,3230.331 2525.93,3227.931 C2526.53,3226.931 2525.53,3225.831 2522.83,3224.631 C2522.23,3224.331 2522.43,3223.731 2523.33,3223.131 C2524.33,3222.431 2524.93,3222.431 2525.43,3223.131 C2525.83,3223.831 2526.63,3223.631 2527.63,3222.631 C2529.53,3220.731 2534.03,3218.831 2537.03,3218.631 C2538.93,3218.531 2539.13,3218.831 2538.63,3221.031 C2537.93,3224.231 2537.33,3224.831 2534.33,3225.231 C2532.13,3225.531 2531.83,3225.931 2532.03,3229.431 C2532.33,3233.031 2532.13,3233.231 2529.83,3232.731 L2527.33,3232.331 L2529.23,3235.431 C2530.33,3237.131 2531.83,3238.931 2532.63,3239.431 C2534.63,3240.731 2537.33,3237.831 2536.83,3235.131 C2536.53,3233.231 2536.73,3233.031 2538.63,3233.631 C2542.03,3234.631 2542.83,3235.731 2541.33,3237.531 C2540.33,3238.731 2540.33,3239.031 2541.83,3239.031 C2542.83,3239.031 2544.53,3239.831 2545.63,3240.731 C2547.43,3242.431 2547.63,3242.431 2548.93,3240.531 C2549.73,3239.431 2550.63,3237.531 2551.03,3236.231 C2551.33,3235.031 2551.93,3234.031 2552.43,3234.031 C2552.93,3234.031 2553.83,3232.831 2554.33,3231.431 C2554.93,3230.031 2555.83,3229.231 2556.43,3229.531 C2557.73,3230.431 2561.33,3227.231 2561.43,3225.131 C2561.43,3224.131 2561.63,3223.931 2562.03,3224.831 C2562.23,3225.431 2562.93,3225.731 2563.53,3225.431 C2564.03,3225.131 2563.53,3226.631 2562.43,3228.931 C2560.63,3232.331 2559.83,3233.031 2557.33,3233.031 C2554.03,3233.031 2553.23,3235.431 2555.63,3237.931 C2556.33,3238.831 2556.33,3239.031 2555.73,3238.731 C2555.03,3238.331 2554.33,3238.731 2553.93,3239.531 C2553.33,3241.331 2554.13,3244.031 2555.43,3244.031 C2555.93,3244.031 2556.13,3245.131 2555.73,3246.531 C2555.13,3249.031 2555.73,3249.431 2559.43,3249.131 C2561.13,3248.931 2563.83,3252.431 2564.53,3255.531 C2564.73,3256.831 2565.73,3257.531 2567.33,3257.631 C2568.73,3257.731 2570.53,3257.931 2571.33,3258.131 C2572.13,3258.331 2573.23,3257.531 2573.83,3256.231 C2575.13,3253.431 2576.73,3253.931 2577.13,3257.331 C2577.43,3260.131 2578.03,3260.431 2580.73,3259.431 C2582.93,3258.631 2582.73,3256.431 2580.23,3254.131 C2578.73,3252.731 2578.23,3251.331 2578.53,3249.631 C2578.83,3248.231 2578.73,3247.331 2578.23,3247.531 C2577.83,3247.831 2577.23,3247.631 2576.83,3247.031 C2575.83,3245.431 2572.33,3245.831 2572.33,3247.531 C2572.33,3248.331 2571.43,3249.931 2570.23,3251.131 C2568.23,3253.131 2568.13,3253.131 2566.83,3251.331 C2564.03,3247.731 2565.83,3242.131 2569.23,3244.031 C2571.33,3245.131 2576.33,3244.131 2576.23,3242.631 C2576.03,3240.331 2574.53,3236.531 2574.43,3238.131 C2574.33,3239.931 2571.73,3241.431 2570.23,3240.431 C2568.73,3239.531 2569.23,3238.031 2570.93,3238.031 C2572.93,3238.031 2575.33,3235.631 2575.33,3233.631 C2575.33,3231.531 2576.93,3230.831 2578.23,3232.431 C2579.23,3233.631 2585.83,3233.231 2591.13,3231.631 C2592.33,3231.231 2592.93,3231.631 2593.03,3232.831 C2593.13,3233.731 2593.23,3235.031 2593.33,3235.531 C2593.43,3236.131 2593.53,3237.631 2593.43,3239.031 C2593.23,3241.331 2593.13,3241.431 2591.93,3239.731 C2591.23,3238.831 2590.13,3238.031 2589.53,3238.031 C2587.93,3238.031 2587.13,3241.131 2588.43,3242.631 C2589.03,3243.331 2589.73,3247.431 2589.93,3251.731 C2591.23,3277.131 2591.63,3279.831 2593.93,3277.931 C2594.63,3277.331 2595.23,3275.331 2595.13,3273.531 C2595.03,3270.431 2596.63,3267.031 2598.23,3267.031 C2598.53,3267.031 2598.83,3269.031 2598.83,3271.531 C2598.83,3274.231 2598.33,3276.031 2597.73,3276.031 C2597.03,3276.031 2596.33,3277.331 2596.13,3279.031 C2595.83,3280.631 2596.03,3282.031 2596.53,3282.031 C2596.93,3282.031 2597.33,3281.331 2597.33,3280.531 C2597.33,3278.131 2601.33,3278.731 2602.33,3281.231 C2603.03,3283.131 2602.73,3283.931 2600.63,3285.631 C2599.13,3286.931 2598.23,3288.631 2598.33,3290.131 C2598.43,3291.431 2598.53,3293.231 2598.43,3294.031 C2598.33,3295.331 2598.23,3295.331 2597.33,3294.031 C2596.53,3292.831 2596.33,3292.931 2596.33,3294.831 C2596.33,3296.431 2596.83,3297.031 2598.03,3296.831 C2599.23,3296.631 2599.93,3297.431 2600.33,3299.531 C2600.93,3302.531 2604.03,3307.031 2605.43,3307.031 C2605.83,3307.031 2606.33,3306.131 2606.63,3305.031 C2606.93,3303.931 2607.83,3303.031 2608.73,3303.031 C2610.73,3303.031 2610.73,3303.431 2608.83,3307.031 C2607.23,3310.131 2604.93,3310.931 2603.93,3308.731 C2603.63,3308.131 2603.63,3309.331 2604.03,3311.531 C2605.13,3318.131 2604.73,3321.231 2602.43,3323.131 C2601.33,3324.031 2600.33,3325.531 2600.33,3326.431 C2600.33,3327.431 2599.43,3328.031 2598.03,3328.031 C2595.03,3328.031 2593.13,3331.831 2593.93,3336.031 C2594.53,3338.931 2594.63,3338.931 2597.43,3337.531 C2599.03,3336.631 2600.73,3335.031 2601.33,3333.931 C2602.03,3332.731 2603.13,3332.131 2603.93,3332.431 C2604.73,3332.731 2606.03,3331.931 2606.93,3330.531 C2607.83,3329.131 2609.23,3328.031 2609.93,3328.031 C2610.83,3328.031 2611.33,3326.831 2611.33,3324.431 C2611.33,3321.331 2611.63,3320.831 2613.23,3321.331 C2614.73,3321.631 2615.23,3321.131 2615.73,3318.731 C2616.03,3317.131 2615.83,3315.131 2615.23,3314.431 C2614.33,3313.431 2614.73,3312.831 2616.63,3311.931 C2618.73,3311.031 2619.33,3309.731 2620.23,3304.631 C2622.33,3291.831 2622.73,3286.031 2621.23,3286.031 C2620.03,3286.031 2614.33,3293.731 2614.33,3295.331 C2614.33,3295.631 2613.83,3297.131 2613.33,3298.531 C2612.53,3300.731 2612.03,3301.031 2610.93,3300.131 C2610.13,3299.431 2608.13,3299.231 2606.43,3299.531 C2602.73,3300.131 2602.33,3298.831 2605.83,3297.231 C2607.33,3296.531 2608.33,3295.231 2608.33,3293.931 C2608.33,3292.331 2608.83,3291.931 2610.33,3292.331 C2611.43,3292.631 2612.63,3292.431 2612.93,3291.931 C2613.23,3291.431 2612.93,3291.031 2612.43,3291.031 C2611.83,3291.031 2611.33,3289.731 2611.33,3288.131 C2611.33,3286.031 2611.93,3284.931 2613.33,3284.531 C2614.43,3284.231 2615.33,3283.231 2615.33,3282.431 C2615.33,3281.731 2616.23,3280.531 2617.33,3279.831 C2618.43,3279.131 2619.33,3277.831 2619.33,3276.931 C2619.33,3274.531 2624.73,3269.831 2626.63,3270.631 C2628.73,3271.431 2628.93,3269.231 2627.03,3266.631 C2626.03,3265.231 2624.13,3264.731 2619.73,3264.531 C2612.43,3264.231 2612.73,3264.231 2614.13,3262.831 C2615.93,3261.031 2615.53,3259.231 2613.23,3258.531 C2611.83,3258.031 2610.73,3258.431 2609.93,3259.631 C2607.93,3262.231 2606.63,3260.631 2606.53,3255.531 C2606.53,3251.231 2606.63,3250.931 2608.73,3251.431 C2610.43,3251.831 2611.33,3251.331 2612.73,3249.031 C2613.63,3247.331 2615.33,3245.531 2616.43,3245.031 C2617.43,3244.431 2618.33,3243.131 2618.33,3242.131 C2618.33,3239.731 2622.33,3236.131 2625.33,3235.831 C2629.33,3235.331 2629.13,3238.731 2624.93,3242.231 C2622.93,3243.831 2621.33,3246.031 2621.33,3247.031 C2621.33,3248.031 2620.43,3249.231 2619.33,3249.531 C2616.53,3250.431 2614.33,3252.831 2614.33,3255.131 C2614.33,3256.931 2614.73,3257.131 2618.83,3256.431 C2622.23,3255.931 2623.33,3256.131 2623.43,3257.131 C2623.53,3257.931 2623.63,3259.231 2623.73,3260.031 C2623.83,3261.131 2625.13,3261.531 2628.53,3261.531 C2631.93,3261.531 2633.83,3262.131 2635.53,3263.831 C2636.93,3265.031 2638.73,3266.031 2639.63,3266.031 C2640.53,3266.031 2641.53,3266.531 2641.83,3267.131 C2642.23,3267.731 2643.13,3267.931 2643.93,3267.631 C2644.73,3267.331 2645.33,3267.731 2645.33,3268.631 C2645.33,3269.631 2644.73,3270.031 2643.83,3269.631 C2642.93,3269.331 2642.03,3269.731 2641.73,3270.531 C2641.33,3271.331 2640.43,3272.031 2639.73,3272.031 C2637.53,3272.031 2636.93,3274.831 2638.63,3277.431 C2639.63,3278.931 2640.03,3281.031 2639.63,3283.731 C2639.33,3286.231 2639.53,3288.031 2640.23,3288.431 C2641.93,3289.531 2641.53,3294.631 2639.73,3296.131 C2638.43,3297.231 2638.23,3298.631 2638.93,3305.031 C2639.33,3309.131 2639.53,3313.431 2639.43,3314.531 C2639.33,3315.631 2639.83,3320.931 2640.43,3326.331 C2641.43,3335.331 2641.83,3336.431 2644.73,3339.131 C2648.13,3342.331 2650.83,3343.431 2654.43,3342.831 C2656.43,3342.631 2657.13,3341.431 2658.53,3336.031 C2659.53,3332.431 2660.43,3326.631 2660.43,3323.031 C2660.63,3314.131 2662.03,3307.031 2663.93,3304.831 C2665.23,3303.531 2665.43,3302.031 2664.93,3298.831 C2664.53,3295.731 2664.63,3294.931 2665.33,3296.031 C2666.13,3297.331 2666.43,3297.131 2666.93,3295.231 C2667.33,3294.031 2668.03,3293.031 2668.53,3293.031 C2669.03,3293.031 2669.13,3291.431 2668.73,3289.231 C2668.13,3286.031 2668.23,3285.731 2669.53,3286.831 C2670.83,3287.931 2671.13,3287.431 2671.73,3283.131 C2672.23,3279.431 2673.93,3275.831 2678.43,3268.931 C2681.73,3263.831 2684.83,3258.731 2685.33,3257.631 C2685.73,3256.431 2687.03,3254.631 2688.23,3253.631 C2689.33,3252.531 2690.33,3251.331 2690.33,3250.931 C2690.33,3250.031 2698.83,3241.031 2699.73,3241.031 C2701.13,3241.031 2709.33,3234.531 2709.33,3233.431 C2709.33,3232.731 2710.23,3231.831 2711.33,3231.531 C2712.43,3231.231 2713.33,3230.531 2713.33,3230.131 C2713.33,3229.731 2714.53,3229.531 2716.13,3229.731 C2718.13,3230.031 2719.53,3229.431 2721.73,3227.131 C2723.43,3225.431 2725.23,3224.031 2725.83,3224.031 C2726.33,3224.031 2728.53,3222.931 2730.53,3221.531 C2732.53,3220.131 2735.43,3219.031 2736.83,3219.031 C2738.83,3219.031 2739.63,3218.331 2740.53,3215.931 C2741.43,3213.131 2741.93,3212.931 2744.53,3213.431 C2746.73,3213.831 2747.43,3213.731 2747.03,3212.731 C2746.63,3211.731 2747.63,3211.531 2751.53,3212.031 C2754.23,3212.431 2756.63,3212.331 2756.93,3211.831 C2757.23,3211.431 2756.63,3211.031 2755.63,3211.031 C2752.93,3211.031 2758.13,3208.431 2762.63,3207.631 C2765.63,3207.031 2766.33,3207.231 2766.33,3208.531 C2766.33,3209.331 2765.53,3210.131 2764.63,3210.131 C2763.63,3210.231 2764.63,3210.631 2766.83,3210.931 C2770.53,3211.531 2770.83,3211.731 2771.13,3215.131 C2771.43,3218.131 2771.83,3218.831 2773.63,3218.831 C2774.83,3218.931 2779.23,3219.231 2783.53,3219.531 C2788.33,3219.931 2791.43,3219.731 2791.83,3219.031 C2792.63,3217.731 2796.33,3217.731 2796.33,3219.131 C2796.33,3219.631 2796.83,3219.831 2797.43,3219.431 C2798.03,3219.131 2799.53,3219.331 2800.63,3219.831 C2801.83,3220.431 2806.23,3221.431 2810.33,3221.931 C2814.43,3222.431 2820.03,3223.431 2822.63,3224.031 C2826.73,3225.031 2827.43,3225.531 2827.13,3227.331 C2826.73,3230.231 2823.63,3230.631 2821.43,3228.131 C2819.23,3225.631 2817.73,3225.431 2816.93,3227.631 C2816.33,3229.231 2816.13,3229.231 2814.53,3227.631 C2813.33,3226.631 2810.93,3226.031 2807.93,3226.031 C2804.03,3226.031 2803.33,3226.331 2803.53,3227.731 C2803.73,3229.231 2803.23,3229.431 2800.33,3229.131 C2798.43,3229.031 2796.03,3228.431 2795.13,3227.931 C2792.93,3226.731 2784.33,3226.731 2784.33,3228.031 C2784.33,3229.331 2787.73,3231.031 2790.53,3231.031 C2791.83,3231.031 2794.83,3231.831 2797.33,3232.731 C2799.83,3233.631 2804.33,3234.431 2807.33,3234.631 C2813.93,3234.931 2819.13,3235.931 2819.93,3237.131 C2820.53,3238.131 2839.93,3238.331 2845.63,3237.331 C2849.03,3236.831 2849.43,3236.431 2848.93,3234.531 C2848.53,3233.031 2848.83,3232.031 2849.83,3231.631 C2850.63,3231.331 2851.33,3231.431 2851.33,3231.931 C2851.33,3233.531 2856.23,3232.831 2858.13,3230.931 C2859.23,3229.931 2860.33,3229.431 2860.63,3229.731 C2861.63,3230.631 2865.23,3228.931 2865.73,3227.231 C2866.03,3226.231 2867.73,3224.631 2869.43,3223.631 C2876.13,3219.631 2881.13,3212.231 2878.33,3210.531 C2876.73,3209.531 2877.13,3205.831 2878.93,3204.531 C2881.83,3202.431 2883.13,3196.631 2882.33,3189.331 C2881.73,3183.831 2881.93,3182.231 2883.13,3180.731 C2884.13,3179.631 2884.33,3178.631 2883.83,3178.231 C2882.43,3177.231 2877.03,3170.031 2874.83,3166.331 C2872.83,3162.931 2870.73,3162.231 2858.93,3161.331 C2852.63,3160.931 2852.03,3161.031 2853.23,3162.431 C2854.13,3163.531 2856.23,3164.031 2859.33,3164.031 C2863.73,3164.031 2864.23,3164.231 2865.73,3167.431 C2866.83,3169.831 2868.23,3171.031 2870.23,3171.531 C2873.53,3172.231 2875.83,3174.431 2874.83,3176.031 C2874.03,3177.331 2871.33,3177.331 2871.33,3176.031 C2871.33,3175.431 2870.23,3175.031 2868.93,3175.031 C2867.53,3175.031 2866.13,3174.531 2865.83,3174.031 C2864.83,3172.431 2861.33,3172.831 2861.33,3174.531 C2861.33,3175.331 2860.63,3176.031 2859.83,3176.031 C2857.93,3176.031 2857.83,3177.631 2859.63,3178.731 C2860.43,3179.131 2861.83,3180.931 2862.83,3182.731 C2863.83,3184.431 2865.63,3186.131 2866.73,3186.431 C2867.83,3186.731 2868.43,3187.231 2868.03,3187.631 C2867.73,3188.031 2865.63,3187.531 2863.33,3186.631 C2861.13,3185.731 2857.63,3185.031 2855.53,3185.031 C2852.73,3185.031 2851.03,3184.231 2848.33,3181.731 C2844.83,3178.431 2838.63,3175.031 2836.23,3175.031 C2835.53,3175.031 2834.23,3175.731 2833.33,3176.531 C2831.93,3177.731 2831.43,3177.731 2829.03,3176.531 C2826.83,3175.431 2825.83,3175.331 2824.43,3176.231 C2820.63,3178.531 2818.73,3176.331 2816.33,3166.731 C2815.03,3161.731 2813.03,3160.131 2813.93,3164.831 C2814.33,3166.731 2813.93,3168.231 2812.83,3169.331 C2810.83,3171.431 2809.93,3171.431 2808.33,3169.531 C2807.63,3168.631 2805.43,3168.031 2803.13,3168.031 C2800.93,3168.031 2798.33,3167.531 2797.23,3167.031 C2795.23,3165.931 2792.33,3160.031 2792.33,3156.931 C2792.33,3155.831 2791.63,3155.031 2790.83,3155.031 C2790.03,3155.031 2789.33,3155.631 2789.33,3156.431 C2789.33,3157.231 2788.83,3158.031 2788.23,3158.231 C2787.63,3158.431 2787.43,3159.631 2787.83,3161.331 C2788.23,3162.831 2788.93,3163.731 2789.43,3163.431 C2790.73,3162.631 2790.53,3164.431 2789.13,3165.831 C2787.03,3167.931 2782.63,3167.231 2780.53,3164.531 C2779.03,3162.631 2778.63,3161.031 2779.03,3158.131 C2779.098,3156.947 2779.544,3154.842 2778.665,3153.844 C2778.548,3153.711 2778.347,3153.688 2778.188,3153.61 L2778.188,3153.61 z M2626.808,3308.296 C2626.681,3308.404 2626.479,3308.462 2626.427,3308.621 C2626.274,3309.092 2626.25,3310.49 2626.23,3311.031 C2626.23,3312.931 2625.83,3315.431 2625.43,3316.531 C2624.93,3317.631 2624.93,3318.931 2625.33,3319.531 C2626.53,3321.131 2624.53,3325.331 2622.93,3324.731 C2621.23,3324.031 2620.13,3326.331 2620.93,3328.531 C2621.33,3329.431 2620.93,3330.031 2620.23,3330.031 C2617.93,3330.131 2615.23,3332.731 2615.03,3334.831 C2614.93,3336.431 2614.63,3336.631 2613.63,3335.831 C2612.73,3335.131 2611.63,3335.231 2609.83,3336.431 C2608.53,3337.331 2606.73,3338.031 2605.83,3338.031 C2603.83,3338.031 2603.93,3340.431 2605.93,3342.131 C2607.13,3343.131 2608.13,3343.131 2610.73,3342.231 C2612.63,3341.531 2615.93,3341.331 2618.53,3341.631 C2622.73,3342.231 2623.23,3342.031 2626.53,3338.731 C2630.63,3334.631 2631.03,3332.731 2630.33,3320.331 C2629.93,3313.331 2629.43,3310.631 2628.13,3309.331 C2627.341,3308.603 2627.777,3308.954 2626.808,3308.296 L2626.808,3308.296 z M2757.03,3220.131 C2755.23,3220.331 2749.53,3222.531 2748.73,3223.331 C2748.33,3223.731 2746.93,3224.031 2745.63,3224.031 C2744.43,3224.031 2740.33,3225.631 2736.63,3227.631 C2732.83,3229.731 2728.63,3231.931 2727.13,3232.731 C2725.53,3233.531 2724.33,3234.631 2724.33,3235.131 C2724.33,3236.731 2729.23,3236.131 2730.13,3234.331 C2730.83,3233.231 2732.23,3232.731 2734.63,3232.831 C2736.63,3232.931 2739.83,3232.331 2741.73,3231.531 C2743.73,3230.731 2746.53,3230.031 2748.03,3230.031 C2749.53,3230.031 2752.63,3229.131 2754.83,3228.131 C2758.13,3226.731 2760.13,3226.531 2765.83,3227.131 C2769.63,3227.531 2773.73,3227.431 2775.03,3226.931 C2776.33,3226.431 2777.53,3226.531 2777.83,3227.031 C2778.23,3227.631 2779.23,3228.031 2780.13,3228.031 C2781.53,3228.031 2781.63,3227.831 2780.23,3226.531 C2779.43,3225.731 2776.53,3224.831 2773.83,3224.631 C2767.93,3224.231 2759.53,3222.131 2758.73,3220.931 C2758.43,3220.431 2757.63,3220.131 2757.03,3220.131 L2757.03,3220.131 z M2496.82,3221.247 C2496.253,3222.359 2496.395,3221.792 2496.33,3222.931 C2496.33,3224.331 2495.63,3224.731 2493.93,3224.631 C2492.63,3224.631 2491.73,3224.231 2492.03,3223.731 C2492.23,3223.331 2491.83,3223.031 2491.03,3223.031 C2490.03,3223.031 2489.73,3223.731 2490.03,3225.031 C2490.43,3226.331 2490.03,3227.031 2489.03,3227.031 C2487.43,3227.031 2486.33,3229.031 2486.33,3231.931 C2486.33,3233.431 2487.53,3233.831 2493.23,3234.431 C2497.03,3234.731 2500.83,3234.731 2501.63,3234.431 C2502.43,3234.131 2503.43,3232.231 2503.83,3230.231 C2504.43,3226.931 2504.13,3226.331 2501.13,3223.831 C2499.967,3223.06 2498.957,3221.677 2497.558,3221.287 C2497.321,3221.221 2497.066,3221.26 2496.821,3221.247 L2496.82,3221.247 z M2407.968,3202.314 C2404.604,3203.4 2401.656,3206.236 2400.03,3209.331 C2398.93,3212.131 2397.13,3211.331 2397.63,3208.131 C2398.13,3205.431 2397.93,3205.231 2394.73,3205.331 C2392.83,3205.431 2391.33,3205.831 2391.33,3206.231 C2391.33,3206.631 2390.33,3207.031 2389.13,3207.031 C2386.23,3207.131 2381.63,3210.931 2381.13,3213.531 C2380.93,3215.131 2381.33,3215.531 2383.53,3215.531 C2386.43,3215.431 2388.13,3218.531 2385.73,3219.431 C2384.93,3219.731 2384.33,3220.431 2384.33,3221.031 C2384.33,3223.031 2386.43,3221.931 2390.33,3218.031 C2393.63,3214.731 2394.33,3214.331 2395.33,3215.631 C2396.23,3216.631 2396.93,3216.731 2397.83,3216.031 C2398.53,3215.431 2399.83,3215.331 2400.73,3215.631 C2401.93,3216.131 2402.33,3215.831 2402.13,3214.931 C2402.03,3214.131 2403.53,3211.931 2405.53,3210.031 C2407.53,3208.131 2409.33,3205.631 2409.53,3204.531 C2409.73,3203.431 2409.23,3202.431 2408.33,3202.331 L2407.968,3202.314 z M2914.647,3124.474 C2913.483,3124.645 2912.727,3125.558 2911.93,3126.331 C2907.43,3130.931 2897.43,3152.331 2897.33,3157.731 C2897.33,3159.031 2896.93,3160.031 2896.33,3160.031 C2895.83,3160.031 2895.33,3160.431 2895.33,3161.031 C2895.33,3161.531 2896.33,3162.031 2897.63,3162.031 C2899.63,3162.031 2900.53,3160.731 2903.33,3153.831 C2905.43,3148.831 2908.23,3144.131 2910.63,3141.531 C2914.53,3137.431 2914.73,3137.331 2917.43,3138.731 C2921.13,3140.531 2923.83,3140.031 2923.93,3137.531 C2923.93,3136.431 2924.33,3134.731 2924.73,3133.731 C2925.23,3132.831 2925.23,3130.831 2924.93,3129.431 C2924.03,3125.931 2921.23,3126.631 2919.43,3130.831 C2917.43,3135.131 2916.13,3134.931 2916.93,3130.231 C2917.33,3127.431 2917.13,3126.131 2915.93,3125.131 C2915.238,3124.603 2915.651,3124.848 2914.647,3124.474 L2914.647,3124.474 z" fill="#C0C0C0"/>
  </g>
</svg>
