<?xml version="1.0" encoding="UTF-8"?>
<!DOCTYPE svg PUBLIC "-//W3C//DTD SVG 1.1//EN" "http://www.w3.org/Graphics/SVG/1.1/DTD/svg11.dtd">
<svg version="1.1" xmlns="http://www.w3.org/2000/svg" xmlns:xlink="http://www.w3.org/1999/xlink" x="0" y="0" width="5000" height="5000" viewBox="0, 0, 5000, 5000">
  <g id="left_iris_pale_blue" transform="translate(0, 0)">
    <g id="left_eye_inverted-1">
      <path d="M1938.692,2165.398 C1938.292,2166.198 1937.492,2166.898 1936.792,2166.898 C1934.792,2166.898 1925.292,2172.098 1925.292,2173.198 C1925.292,2174.998 1929.492,2177.998 1930.692,2176.998 C1931.392,2176.398 1932.492,2176.398 1933.192,2176.798 C1933.992,2177.398 1933.392,2177.798 1931.192,2178.298 C1928.592,2178.798 1927.692,2178.498 1925.792,2176.298 C1923.892,2174.098 1923.492,2173.998 1922.392,2175.298 C1920.492,2177.498 1920.592,2183.398 1922.492,2185.198 C1923.892,2186.698 1924.192,2186.698 1925.392,2185.298 C1925.992,2184.498 1927.492,2183.998 1928.692,2184.098 C1929.992,2184.298 1930.692,2183.898 1930.492,2183.098 C1930.392,2182.398 1930.792,2181.898 1931.492,2181.998 C1934.092,2182.298 1934.992,2181.798 1936.092,2179.398 C1936.892,2177.698 1936.892,2176.098 1936.292,2174.298 C1934.892,2170.598 1935.192,2169.998 1936.892,2173.098 C1937.692,2174.698 1938.792,2175.898 1939.292,2175.898 C1940.692,2175.898 1940.592,2171.598 1939.192,2170.198 C1937.992,2168.998 1938.792,2166.898 1940.492,2166.898 C1941.092,2166.898 1941.292,2167.798 1940.992,2168.898 C1940.692,2169.998 1941.292,2171.798 1942.492,2173.098 C1944.492,2175.298 1944.492,2175.298 1943.892,2173.298 C1943.492,2171.998 1943.792,2170.698 1944.792,2169.898 C1946.692,2168.298 1946.692,2166.898 1944.792,2166.898 C1943.892,2166.898 1942.992,2166.198 1942.692,2165.398 C1942.292,2164.598 1941.392,2163.898 1940.692,2163.898 C1939.892,2163.898 1938.992,2164.598 1938.692,2165.398 z" fill="#D7E5FF"/>
      <path d="M2003.792,2181.898 C2003.492,2182.998 2002.792,2183.698 2002.292,2183.398 C2001.292,2182.798 1997.292,2185.798 1997.292,2187.098 C1997.292,2187.598 1997.992,2187.898 1998.892,2187.898 C1999.792,2187.898 2000.292,2188.698 2000.192,2189.598 C1999.892,2192.898 2000.292,2193.098 2002.892,2190.998 C2006.092,2188.498 2007.692,2189.098 2010.192,2193.998 C2012.192,2197.798 2012.192,2197.898 2010.292,2198.898 C2009.192,2199.498 2008.292,2200.898 2008.292,2201.898 C2008.292,2203.198 2007.592,2203.898 2006.292,2203.898 C2004.892,2203.898 2004.292,2203.198 2004.292,2201.798 C2004.292,2200.298 2003.892,2199.898 2002.692,2200.298 C2001.792,2200.598 2000.692,2200.898 2000.192,2200.898 C1999.692,2200.898 1999.292,2201.998 1999.292,2203.398 C1999.292,2206.498 1997.592,2206.698 1997.092,2203.698 C1996.692,2200.698 1991.792,2200.198 1990.292,2202.998 C1989.692,2203.998 1988.292,2204.898 1987.292,2204.898 C1986.092,2204.898 1985.292,2205.598 1985.292,2206.498 C1985.292,2207.298 1984.592,2208.698 1983.792,2209.498 C1982.992,2210.298 1982.592,2211.598 1982.892,2212.398 C1983.392,2213.598 1982.692,2213.898 1979.992,2213.898 C1976.192,2213.898 1975.292,2215.098 1975.292,2219.898 C1975.292,2221.498 1975.992,2222.898 1976.892,2223.298 C1977.692,2223.598 1978.092,2223.498 1977.792,2222.898 C1977.492,2222.398 1977.692,2220.998 1978.392,2219.798 C1979.292,2218.098 1979.192,2217.498 1978.192,2216.798 C1977.492,2216.398 1977.192,2215.698 1977.592,2215.298 C1977.992,2214.898 1978.792,2214.998 1979.392,2215.598 C1980.992,2217.198 1985.692,2215.398 1987.892,2212.398 C1988.892,2210.998 1990.192,2210.298 1991.092,2210.698 C1992.092,2210.998 1992.392,2210.798 1991.892,2210.098 C1991.492,2209.398 1991.692,2208.898 1992.392,2208.898 C1993.092,2208.898 1993.292,2209.798 1992.992,2211.098 C1992.592,2212.298 1992.892,2213.898 1993.392,2214.598 C1994.192,2215.498 1993.892,2216.398 1992.492,2217.898 C1990.692,2219.898 1990.592,2220.398 1991.792,2223.198 C1993.492,2227.298 1995.592,2227.698 1997.692,2224.398 C1999.492,2221.698 2000.092,2221.498 2002.192,2222.798 C2003.292,2223.498 2003.192,2224.198 2001.492,2226.598 C1999.892,2228.898 1999.692,2229.898 2000.492,2230.698 C2001.192,2231.398 2001.392,2231.898 2000.892,2231.898 C2000.492,2231.898 2000.892,2232.598 2001.692,2233.498 C2002.592,2234.298 2003.292,2236.198 2003.292,2237.698 C2003.192,2240.198 2003.092,2240.198 2001.892,2238.598 C2001.192,2237.698 1999.592,2236.898 1998.392,2236.898 C1995.992,2236.898 1995.492,2234.398 1997.892,2233.498 C1999.592,2232.898 1998.892,2230.898 1996.992,2230.898 C1996.292,2230.898 1994.692,2231.798 1993.292,2232.798 C1991.292,2234.398 1991.092,2234.898 1992.192,2236.298 C1992.892,2237.198 1993.292,2238.498 1992.992,2239.398 C1992.492,2240.398 1993.392,2240.998 1996.092,2241.498 C1998.092,2241.798 2000.592,2242.298 2001.592,2242.598 C2002.492,2242.798 2003.292,2242.598 2003.292,2242.098 C2003.292,2241.598 2004.692,2240.898 2006.292,2240.498 C2009.492,2239.898 2010.292,2237.298 2008.092,2235.098 C2007.092,2234.098 2007.092,2233.398 2008.092,2231.798 C2008.792,2230.698 2009.092,2228.898 2008.692,2227.698 C2008.292,2226.198 2008.892,2224.898 2011.292,2222.798 C2014.492,2219.798 2015.192,2219.598 2018.992,2219.898 C2020.192,2219.898 2022.092,2219.098 2023.192,2217.998 C2025.492,2215.698 2027.292,2215.298 2027.292,2216.898 C2027.292,2218.198 2032.292,2217.098 2034.392,2215.198 C2035.792,2213.998 2036.192,2214.098 2037.292,2215.398 C2037.992,2216.198 2039.392,2216.898 2040.392,2216.898 C2041.492,2216.898 2042.292,2217.298 2042.292,2217.798 C2042.292,2219.098 2039.692,2220.998 2038.992,2220.198 C2037.092,2218.398 2038.592,2221.198 2040.692,2223.398 C2042.592,2225.498 2043.192,2225.698 2043.692,2224.398 C2043.992,2223.598 2044.792,2222.898 2045.492,2222.898 C2046.292,2222.898 2047.692,2221.998 2048.592,2220.798 C2049.792,2219.498 2050.992,2218.998 2052.092,2219.398 C2053.392,2219.898 2053.492,2219.698 2052.692,2218.898 C2051.792,2217.998 2050.992,2217.998 2049.392,2218.798 C2047.892,2219.698 2046.692,2219.698 2045.292,2218.898 C2042.892,2217.598 2042.892,2217.798 2044.692,2214.298 C2046.292,2211.298 2045.992,2209.898 2043.792,2209.898 C2043.092,2209.898 2042.292,2209.298 2042.092,2208.698 C2041.792,2207.798 2040.492,2208.298 2037.992,2210.198 C2034.092,2213.198 2033.292,2213.398 2033.292,2211.798 C2033.292,2211.298 2033.792,2211.098 2034.292,2211.398 C2034.892,2211.698 2035.292,2211.498 2035.292,2210.998 C2035.292,2209.498 2033.692,2209.598 2032.092,2211.198 C2031.392,2211.998 2030.192,2212.398 2029.492,2212.098 C2028.892,2211.898 2027.992,2212.398 2027.692,2213.298 C2027.192,2214.698 2026.892,2214.698 2024.592,2213.198 L2022.092,2211.498 L2024.192,2209.998 C2025.592,2208.898 2026.092,2207.698 2025.692,2206.098 C2025.292,2204.898 2024.692,2203.898 2024.192,2203.898 C2023.692,2203.898 2023.292,2203.198 2023.292,2202.398 C2023.292,2201.598 2023.692,2200.898 2024.192,2200.898 C2024.692,2200.898 2025.792,2199.598 2026.592,2197.998 C2027.892,2195.398 2027.892,2194.898 2026.492,2193.498 C2025.392,2192.498 2025.292,2191.898 2026.092,2191.898 C2026.692,2191.898 2027.192,2191.098 2026.992,2189.998 C2026.592,2187.598 2023.592,2184.598 2022.792,2185.898 C2022.492,2186.398 2022.692,2186.898 2023.192,2186.898 C2023.792,2186.898 2024.292,2187.798 2024.292,2188.998 C2024.292,2190.498 2023.792,2190.898 2022.792,2190.498 C2021.992,2190.198 2021.292,2190.398 2021.292,2190.898 C2021.292,2192.498 2019.292,2192.098 2016.192,2189.798 C2013.792,2188.098 2013.292,2187.998 2013.292,2189.298 C2013.292,2190.598 2012.992,2190.698 2011.392,2189.698 C2010.392,2189.098 2009.692,2187.898 2009.992,2187.198 C2010.392,2186.298 2009.992,2186.098 2008.692,2186.598 C2007.192,2187.098 2006.992,2186.998 2007.892,2185.798 C2008.692,2184.798 2008.392,2183.798 2006.692,2182.098 C2004.492,2179.798 2004.492,2179.798 2003.792,2181.898 z" fill="#D7E5FF"/>
      <path d="M2114.292,2226.398 C2114.292,2227.198 2114.992,2228.398 2115.892,2229.098 C2121.292,2233.498 2122.092,2234.898 2121.492,2239.198 C2120.992,2242.998 2119.992,2244.798 2118.092,2244.898 C2117.692,2244.898 2116.692,2242.298 2115.792,2239.098 C2114.292,2233.898 2113.692,2232.998 2110.492,2231.598 C2105.992,2229.698 2103.592,2228.998 2099.792,2228.498 C2098.092,2228.198 2095.092,2227.698 2093.092,2227.298 C2090.992,2226.998 2088.792,2227.098 2088.092,2227.598 C2087.392,2228.098 2085.392,2228.498 2083.592,2228.398 C2081.192,2228.198 2080.292,2228.598 2079.892,2230.198 C2079.592,2231.398 2079.892,2232.898 2080.392,2233.498 C2081.092,2234.298 2081.192,2237.798 2080.792,2243.098 C2080.392,2247.698 2079.992,2252.998 2079.892,2254.798 C2079.692,2258.298 2081.192,2263.898 2083.692,2268.798 C2085.692,2272.498 2092.892,2279.598 2095.592,2280.498 C2096.792,2280.798 2098.892,2282.298 2100.292,2283.798 C2101.692,2285.298 2103.392,2286.398 2104.092,2286.098 C2104.792,2285.898 2105.892,2286.198 2106.592,2286.798 C2107.292,2287.298 2108.992,2287.498 2110.292,2287.198 C2111.992,2286.698 2112.392,2286.898 2111.792,2287.898 C2111.292,2288.698 2109.792,2288.898 2107.192,2288.498 C2103.192,2287.898 2102.192,2288.798 2104.792,2290.898 C2105.692,2291.598 2108.092,2291.898 2111.392,2291.598 C2115.292,2291.198 2116.992,2291.498 2118.192,2292.598 C2119.592,2293.998 2119.392,2294.398 2117.092,2296.298 C2115.692,2297.398 2114.292,2299.298 2113.992,2300.398 C2113.592,2301.998 2113.492,2302.098 2113.392,2300.598 C2113.292,2299.498 2112.492,2298.898 2110.792,2298.898 C2109.392,2298.898 2108.392,2299.198 2108.392,2299.598 C2108.692,2301.598 2108.192,2301.898 2106.692,2300.498 C2105.792,2299.598 2103.492,2298.898 2101.292,2298.898 C2097.992,2298.898 2097.492,2299.198 2097.892,2300.598 C2098.392,2302.098 2098.292,2302.198 2097.392,2300.898 C2096.792,2300.098 2096.292,2298.598 2096.292,2297.698 C2096.292,2296.698 2095.392,2295.898 2094.092,2295.698 C2092.392,2295.498 2091.692,2294.598 2091.492,2292.598 C2091.292,2291.098 2090.692,2289.898 2090.192,2289.898 C2089.692,2289.898 2089.292,2289.298 2089.292,2288.498 C2089.292,2287.698 2088.392,2286.698 2087.292,2286.398 C2086.092,2285.998 2085.292,2284.898 2085.292,2283.398 C2085.292,2279.898 2082.792,2279.698 2080.392,2282.998 C2078.092,2286.098 2078.392,2288.398 2081.192,2287.698 C2083.192,2287.098 2087.992,2291.398 2086.392,2292.298 C2085.792,2292.698 2085.292,2294.498 2085.292,2296.198 C2085.292,2300.398 2083.792,2302.798 2082.192,2301.198 C2081.392,2300.398 2081.492,2299.498 2082.792,2297.598 C2083.792,2295.898 2084.092,2294.898 2083.392,2294.398 C2081.692,2293.398 2080.292,2294.798 2080.292,2297.298 C2080.292,2298.498 2079.792,2299.998 2079.092,2300.698 C2078.192,2301.598 2078.192,2301.898 2079.092,2301.898 C2081.092,2301.898 2080.492,2304.698 2078.092,2306.298 C2076.892,2307.198 2074.392,2307.898 2072.592,2307.898 C2070.892,2307.898 2069.192,2308.298 2068.892,2308.798 C2068.592,2309.298 2066.492,2309.698 2064.292,2309.698 C2062.092,2309.698 2059.392,2310.398 2058.292,2311.198 C2056.392,2312.498 2056.392,2312.798 2057.692,2314.198 C2058.592,2315.098 2058.992,2316.498 2058.692,2317.398 C2058.192,2318.598 2057.792,2318.698 2057.292,2317.898 C2056.792,2317.098 2055.992,2316.998 2054.992,2317.498 C2053.492,2318.398 2053.292,2318.798 2053.292,2320.898 C2053.292,2322.898 2050.192,2321.898 2049.392,2319.598 C2048.292,2316.698 2046.492,2315.198 2043.092,2314.398 C2040.892,2313.798 2040.192,2314.098 2039.592,2315.498 C2039.292,2316.598 2038.092,2318.198 2036.992,2319.298 C2035.692,2320.598 2035.192,2322.098 2035.492,2324.598 C2035.892,2327.498 2035.592,2327.998 2033.392,2328.598 C2028.992,2329.598 2028.992,2329.498 2033.292,2339.398 C2034.892,2343.298 2035.092,2344.698 2034.092,2345.698 C2033.392,2346.398 2033.792,2347.398 2035.392,2348.998 C2037.192,2350.798 2037.392,2351.398 2036.192,2351.698 C2032.892,2352.698 2030.292,2356.198 2030.892,2358.798 C2031.292,2360.198 2031.992,2361.798 2032.392,2362.398 C2032.892,2362.898 2033.292,2364.098 2033.292,2365.098 C2033.292,2366.398 2032.492,2366.898 2030.392,2366.898 C2028.392,2366.898 2027.392,2367.498 2026.992,2368.898 C2026.692,2369.998 2026.892,2371.198 2027.392,2371.498 C2027.992,2371.798 2027.892,2372.698 2027.092,2373.598 C2026.092,2374.798 2026.292,2375.398 2028.092,2376.798 L2030.292,2378.398 L2028.292,2382.598 C2027.192,2384.898 2026.292,2387.698 2026.292,2388.798 C2026.292,2389.898 2025.392,2390.998 2024.292,2391.398 C2021.892,2392.198 2021.692,2393.498 2023.892,2394.298 C2026.292,2395.198 2027.292,2394.998 2027.292,2393.598 C2027.292,2391.598 2030.592,2388.898 2033.092,2388.898 C2036.092,2388.898 2036.792,2386.998 2034.092,2385.998 C2032.792,2385.398 2032.092,2384.898 2032.592,2384.798 C2032.992,2384.698 2033.592,2384.598 2034.092,2384.498 C2036.092,2383.998 2041.292,2380.698 2041.292,2379.898 C2041.292,2379.298 2041.992,2378.898 2042.892,2378.898 C2043.992,2378.898 2044.292,2378.298 2043.792,2376.898 C2043.092,2374.598 2044.192,2372.798 2048.492,2369.798 L2051.292,2367.798 L2051.292,2371.098 C2051.292,2373.698 2050.192,2375.498 2046.092,2379.898 C2041.392,2384.798 2040.792,2385.898 2040.892,2389.398 C2041.092,2394.398 2038.892,2397.298 2036.092,2395.798 C2034.992,2395.198 2033.992,2394.898 2033.792,2395.098 C2032.192,2396.998 2031.592,2401.098 2031.392,2410.098 C2031.192,2420.798 2032.192,2426.598 2034.992,2429.998 C2035.792,2430.898 2036.092,2432.298 2035.792,2433.098 C2035.292,2434.198 2035.892,2434.498 2038.292,2434.098 C2041.392,2433.698 2042.092,2432.098 2040.292,2430.298 C2039.492,2429.498 2039.692,2428.798 2040.792,2427.898 C2041.792,2427.098 2042.292,2426.998 2042.292,2427.798 C2042.292,2428.398 2043.792,2428.898 2045.692,2428.898 C2049.992,2428.898 2050.892,2430.198 2049.192,2434.098 C2047.792,2437.598 2048.892,2438.898 2052.892,2438.098 C2055.992,2437.498 2055.992,2436.098 2052.792,2435.698 C2051.092,2435.498 2050.592,2434.998 2051.192,2434.098 C2052.192,2432.398 2066.892,2431.898 2071.392,2433.498 C2074.092,2434.398 2075.592,2434.298 2078.692,2433.198 C2080.892,2432.498 2083.392,2432.098 2084.292,2432.398 C2086.392,2433.098 2088.592,2430.598 2089.092,2427.098 C2089.692,2422.198 2093.992,2421.298 2094.992,2425.898 C2095.492,2428.498 2095.892,2428.798 2097.692,2428.298 C2098.792,2427.898 2100.092,2427.198 2100.392,2426.798 C2101.392,2425.198 2100.392,2418.598 2099.092,2417.698 C2097.092,2416.398 2100.292,2414.698 2103.592,2415.398 C2105.992,2415.798 2106.592,2415.398 2107.992,2412.398 C2108.992,2410.298 2110.392,2408.898 2111.492,2408.898 C2112.492,2408.898 2113.292,2408.398 2113.292,2407.798 C2113.292,2407.098 2114.492,2405.298 2116.092,2403.798 C2117.592,2402.198 2120.192,2399.298 2121.792,2397.398 C2123.492,2395.398 2126.192,2393.098 2127.892,2392.298 C2129.592,2391.498 2131.692,2389.298 2132.592,2387.398 C2134.392,2383.498 2134.392,2382.298 2132.592,2382.498 C2131.092,2382.698 2132.292,2380.098 2134.992,2377.698 C2137.992,2374.898 2138.992,2373.498 2140.192,2369.598 C2140.892,2367.598 2141.792,2365.898 2142.192,2365.898 C2142.592,2365.898 2142.992,2365.298 2143.092,2364.598 C2144.292,2354.698 2144.692,2352.198 2145.492,2351.198 C2146.092,2350.498 2146.192,2348.798 2145.892,2347.298 C2145.492,2345.898 2145.592,2344.198 2146.192,2343.498 C2146.692,2342.898 2147.292,2340.598 2147.492,2338.398 C2147.692,2335.398 2148.392,2334.198 2150.092,2333.398 C2151.392,2332.798 2152.592,2331.498 2152.792,2330.398 C2153.892,2325.198 2155.092,2303.598 2154.392,2301.598 C2153.992,2300.398 2153.792,2298.898 2153.992,2298.198 C2154.192,2297.598 2153.292,2295.198 2151.892,2292.998 C2150.492,2290.798 2149.292,2288.198 2149.292,2287.298 C2149.292,2286.398 2148.392,2285.498 2147.392,2285.198 C2146.092,2284.898 2145.092,2283.298 2144.392,2280.298 C2143.792,2277.898 2142.792,2273.798 2142.192,2271.198 C2140.692,2264.798 2138.592,2261.898 2135.692,2261.898 C2132.792,2261.898 2132.492,2260.298 2135.392,2259.598 C2137.292,2259.098 2137.292,2258.898 2135.992,2256.198 C2135.192,2254.698 2133.592,2252.598 2132.492,2251.598 C2130.592,2249.898 2130.592,2249.898 2130.992,2252.098 C2131.592,2255.198 2129.692,2259.798 2127.592,2260.498 C2126.592,2260.798 2124.992,2261.398 2124.092,2261.898 C2121.992,2262.998 2121.192,2261.098 2122.692,2258.698 C2123.492,2257.398 2123.192,2256.398 2121.292,2254.398 C2119.792,2252.798 2119.392,2251.898 2120.292,2251.898 C2121.392,2251.898 2121.392,2251.598 2120.492,2250.698 C2118.592,2248.798 2119.092,2247.198 2121.792,2246.498 C2124.092,2245.898 2124.192,2245.598 2123.192,2243.698 C2122.192,2241.798 2122.292,2241.298 2124.092,2240.098 L2126.292,2238.698 L2123.392,2234.998 C2121.892,2232.998 2119.992,2230.298 2119.292,2228.898 C2117.292,2225.098 2114.292,2223.498 2114.292,2226.398 z M2131.892,2266.898 C2134.092,2266.898 2133.592,2270.998 2131.292,2271.598 C2130.192,2271.898 2129.292,2272.498 2129.292,2272.898 C2129.292,2273.298 2128.292,2273.998 2127.092,2274.298 L2124.792,2274.998 L2127.092,2276.598 C2129.692,2278.398 2130.092,2281.198 2127.692,2280.198 C2126.292,2279.698 2126.192,2279.898 2127.292,2281.898 C2128.292,2283.698 2128.192,2284.398 2126.892,2285.798 C2125.492,2287.098 2125.092,2287.198 2124.392,2285.998 C2123.692,2284.898 2123.092,2285.098 2121.392,2286.798 C2119.492,2288.698 2113.292,2289.798 2113.292,2288.198 C2113.292,2287.898 2115.292,2285.698 2117.692,2283.398 C2121.692,2279.598 2122.892,2277.298 2123.192,2272.198 C2123.292,2271.598 2124.092,2270.798 2125.092,2270.398 C2126.192,2270.098 2127.592,2268.598 2128.292,2267.098 C2128.992,2265.598 2129.792,2264.898 2129.992,2265.598 C2130.292,2266.298 2131.092,2266.898 2131.892,2266.898 z M2047.892,2323.098 C2048.292,2323.498 2047.992,2324.598 2047.192,2325.498 C2045.992,2326.898 2046.292,2327.098 2049.192,2326.698 C2052.992,2326.398 2055.092,2328.398 2053.992,2331.398 C2053.492,2332.598 2052.692,2332.898 2051.492,2332.398 C2046.692,2330.398 2042.092,2329.698 2040.992,2330.798 C2040.192,2331.598 2041.092,2331.898 2044.592,2331.898 C2048.392,2331.898 2049.292,2332.198 2049.092,2333.598 C2048.792,2337.598 2049.292,2339.098 2050.792,2338.498 C2052.692,2337.798 2052.692,2338.398 2050.792,2341.298 C2049.292,2343.498 2049.392,2343.698 2051.392,2344.198 C2053.992,2344.898 2057.492,2342.898 2056.792,2341.198 C2056.492,2340.498 2055.992,2339.198 2055.692,2338.398 C2054.792,2336.198 2058.992,2336.398 2059.992,2338.598 C2061.292,2341.398 2060.792,2345.298 2058.792,2347.598 C2057.092,2349.598 2056.792,2349.598 2054.892,2348.298 C2053.592,2347.398 2051.692,2347.098 2049.692,2347.498 C2047.892,2347.798 2046.192,2347.598 2045.892,2346.998 C2045.492,2346.498 2044.592,2346.198 2043.792,2346.498 C2043.092,2346.798 2041.992,2346.098 2041.292,2344.998 C2040.692,2343.798 2039.492,2342.898 2038.692,2342.898 C2037.792,2342.898 2037.492,2343.398 2037.892,2343.998 C2038.292,2344.698 2037.992,2344.998 2037.192,2344.698 C2036.292,2344.398 2035.792,2342.798 2035.892,2340.298 C2036.092,2333.498 2036.892,2330.698 2039.592,2327.298 C2041.092,2325.498 2042.292,2323.598 2042.292,2323.198 C2042.292,2322.098 2046.792,2322.098 2047.892,2323.098 z M2048.292,2350.498 C2048.292,2350.798 2047.792,2351.898 2047.292,2352.998 C2046.392,2354.598 2046.592,2354.898 2048.092,2354.898 C2049.192,2354.898 2051.192,2353.998 2052.592,2352.898 C2057.092,2349.398 2057.992,2351.298 2053.692,2355.298 C2051.392,2357.398 2051.092,2358.198 2051.692,2361.398 C2052.392,2364.998 2052.592,2365.098 2055.892,2364.598 C2059.892,2363.898 2059.992,2364.198 2057.292,2367.598 C2056.092,2369.198 2055.492,2370.998 2055.792,2372.098 C2056.192,2373.098 2055.992,2373.898 2055.392,2373.898 C2053.992,2373.898 2052.392,2370.698 2052.592,2368.398 C2052.792,2366.598 2052.192,2366.398 2048.092,2366.698 C2043.792,2366.998 2043.292,2366.798 2043.292,2364.798 C2043.292,2363.298 2042.892,2362.898 2041.692,2363.298 C2040.792,2363.598 2039.792,2363.898 2039.292,2363.898 C2037.792,2363.898 2037.392,2367.998 2038.792,2368.598 C2040.092,2368.998 2040.192,2370.698 2039.392,2377.598 C2039.192,2379.898 2034.592,2379.098 2033.792,2376.598 C2033.392,2375.398 2033.192,2373.898 2033.292,2373.398 C2033.492,2372.798 2033.492,2371.298 2033.392,2369.998 C2033.392,2368.698 2033.992,2366.698 2034.892,2365.798 C2036.192,2364.398 2036.392,2362.798 2035.992,2359.398 C2035.292,2354.498 2036.692,2352.898 2041.592,2352.898 C2042.992,2352.898 2044.592,2352.198 2045.292,2351.398 C2046.492,2349.898 2048.292,2349.398 2048.292,2350.498 z" fill="#D7E5FF"/>
      <path d="M2013.292,2230.098 C2010.792,2235.298 2010.792,2235.298 2013.392,2234.598 C2014.492,2234.298 2016.092,2234.298 2016.892,2234.598 C2018.492,2235.198 2018.792,2238.498 2017.192,2239.398 C2016.492,2239.898 2016.892,2240.598 2018.092,2241.498 C2019.192,2242.198 2020.292,2244.198 2020.592,2245.898 C2021.192,2248.898 2021.492,2248.998 2026.292,2247.898 C2026.592,2247.898 2025.892,2247.198 2024.892,2246.398 C2023.792,2245.598 2023.292,2244.598 2023.792,2244.198 C2024.192,2243.698 2024.792,2243.998 2024.992,2244.598 C2025.692,2246.398 2027.292,2246.198 2027.292,2244.298 C2027.292,2242.798 2030.792,2236.998 2032.492,2235.898 C2032.892,2235.598 2034.492,2235.298 2035.992,2235.398 C2038.492,2235.398 2038.792,2235.698 2038.492,2238.598 C2038.092,2242.398 2039.492,2243.398 2044.492,2242.998 C2046.692,2242.898 2048.292,2243.198 2048.292,2243.798 C2048.292,2244.398 2047.592,2244.898 2046.792,2244.898 C2045.992,2244.898 2045.292,2245.298 2045.292,2245.898 C2045.292,2246.398 2046.192,2246.898 2047.292,2246.898 C2048.392,2246.898 2049.292,2246.398 2049.292,2245.798 C2049.292,2245.198 2049.892,2244.898 2050.592,2245.098 C2051.192,2245.398 2051.792,2246.198 2051.792,2246.998 C2051.792,2247.698 2052.592,2248.498 2053.692,2248.698 C2054.992,2248.998 2055.292,2248.698 2054.792,2247.798 C2054.292,2247.098 2054.692,2246.098 2055.792,2245.198 C2056.892,2244.498 2057.192,2243.898 2056.492,2243.898 C2055.892,2243.898 2054.792,2242.898 2054.192,2241.698 C2053.192,2239.798 2053.392,2239.198 2055.492,2237.498 C2057.992,2235.398 2059.592,2232.498 2058.692,2231.598 C2058.392,2231.298 2056.592,2231.498 2054.592,2232.098 C2051.792,2232.898 2050.792,2232.698 2049.192,2231.298 C2047.892,2230.098 2046.992,2229.898 2046.092,2230.598 C2044.592,2231.798 2041.392,2231.698 2039.492,2230.498 C2038.692,2229.998 2037.392,2230.398 2036.192,2231.498 C2035.092,2232.498 2034.292,2232.898 2034.492,2232.298 C2034.792,2231.298 2029.192,2225.898 2027.892,2225.898 C2027.592,2225.898 2027.292,2227.198 2027.292,2228.898 C2027.292,2230.498 2026.892,2231.898 2026.392,2231.898 C2025.992,2231.898 2025.792,2234.098 2026.092,2236.898 C2026.492,2241.098 2026.292,2241.898 2024.892,2241.898 C2023.692,2241.898 2023.392,2241.298 2023.892,2239.498 C2024.192,2238.198 2023.992,2236.798 2023.392,2236.498 C2021.992,2235.598 2021.992,2231.898 2023.292,2231.898 C2023.892,2231.898 2024.292,2231.198 2024.292,2230.398 C2024.292,2228.798 2022.692,2228.298 2022.092,2229.698 C2021.992,2230.198 2020.492,2230.898 2018.792,2231.298 C2016.192,2231.898 2015.992,2231.798 2017.292,2230.698 C2018.192,2229.998 2019.492,2228.598 2020.192,2227.598 C2021.392,2226.098 2021.192,2225.898 2018.392,2225.898 C2015.792,2225.898 2015.092,2226.498 2013.292,2230.098 z" fill="#D7E5FF"/>
      <path d="M2023.292,2398.898 C2023.692,2402.898 2023.392,2403.898 2021.892,2403.898 C2021.192,2403.898 2019.992,2403.198 2019.292,2402.398 C2018.192,2401.098 2017.892,2401.098 2016.592,2402.498 C2015.692,2403.298 2013.892,2403.898 2012.392,2403.698 C2010.092,2403.398 2009.792,2403.798 2009.492,2407.098 C2009.092,2411.598 2011.692,2417.898 2014.192,2418.598 C2015.292,2418.898 2016.392,2419.798 2016.692,2420.698 C2016.992,2421.698 2017.592,2422.998 2017.892,2423.598 C2018.192,2424.398 2017.692,2424.898 2016.492,2424.898 C2015.392,2424.898 2013.792,2425.998 2012.892,2427.398 C2010.992,2430.398 2010.692,2433.198 2012.692,2430.698 C2013.492,2429.598 2014.692,2429.198 2016.092,2429.598 C2017.892,2429.998 2018.292,2429.698 2018.292,2427.998 C2018.292,2426.798 2018.892,2425.898 2019.792,2425.898 C2021.592,2425.898 2021.592,2426.398 2020.292,2428.998 C2019.592,2430.298 2019.592,2430.898 2020.192,2430.898 C2021.192,2430.898 2024.292,2425.898 2024.292,2424.398 C2024.292,2423.998 2023.392,2424.098 2022.292,2424.398 C2020.792,2424.898 2020.292,2424.598 2020.292,2422.998 C2020.292,2421.598 2021.092,2420.898 2023.092,2420.698 C2026.292,2420.298 2027.292,2416.998 2024.892,2414.598 C2022.292,2411.998 2021.992,2408.498 2024.192,2405.698 C2026.692,2402.598 2026.892,2399.598 2024.692,2397.798 C2023.292,2396.698 2023.092,2396.798 2023.292,2398.898 z" fill="#D7E5FF"/>
    </g>
  </g>
</svg>
