<?xml version="1.0" encoding="UTF-8"?>
<!DOCTYPE svg PUBLIC "-//W3C//DTD SVG 1.1//EN" "http://www.w3.org/Graphics/SVG/1.1/DTD/svg11.dtd">
<svg version="1.1" xmlns="http://www.w3.org/2000/svg" xmlns:xlink="http://www.w3.org/1999/xlink" x="0" y="0" width="5000" height="5000" viewBox="0, 0, 5000, 5000">
  <g id="leftEye_creamSeaweed" transform="translate(0, 0)">
    <path d="M1705.069,2121.444 C1706.619,2122.244 1707.919,2123.144 1707.919,2123.394 C1707.919,2123.694 1706.469,2123.894 1704.669,2123.894 C1702.719,2123.894 1700.769,2124.194 1699.919,2124.644 C1698.419,2125.444 1696.919,2127.194 1696.919,2128.244 C1696.919,2129.344 1700.469,2131.294 1705.869,2133.244 C1709.269,2134.494 1711.669,2135.694 1712.769,2136.694 C1714.269,2138.094 1714.419,2138.544 1714.419,2141.044 C1714.419,2144.644 1713.369,2145.994 1710.519,2146.094 C1709.069,2146.094 1708.069,2145.794 1707.069,2144.994 C1706.319,2144.394 1704.769,2143.244 1703.669,2142.394 C1701.469,2140.844 1701.069,2140.444 1698.919,2137.994 C1697.769,2136.694 1697.169,2136.394 1695.519,2136.394 C1691.769,2136.394 1692.069,2137.144 1698.369,2144.094 C1704.419,2150.794 1703.619,2152.094 1695.719,2148.344 C1691.019,2146.144 1687.019,2145.394 1684.519,2146.294 C1683.319,2146.694 1682.369,2146.594 1679.619,2145.594 C1677.719,2144.944 1676.019,2144.394 1675.819,2144.394 C1675.569,2144.394 1675.419,2146.994 1675.419,2150.144 L1675.419,2155.894 L1670.169,2155.894 L1664.919,2155.894 L1664.919,2154.444 C1664.919,2153.094 1665.019,2152.994 1667.719,2152.794 C1670.919,2152.544 1671.919,2151.644 1671.919,2149.244 L1671.919,2147.844 L1660.319,2147.994 C1653.919,2148.094 1647.919,2147.944 1647.069,2147.694 C1645.319,2147.244 1645.319,2147.244 1644.669,2150.094 L1644.369,2151.594 L1642.369,2149.344 C1640.519,2147.244 1640.419,2147.194 1639.669,2148.094 C1639.269,2148.594 1638.869,2149.244 1638.819,2149.494 C1638.719,2149.744 1637.169,2149.694 1635.169,2149.394 C1629.769,2148.644 1629.669,2148.644 1627.869,2151.094 C1625.669,2154.194 1624.419,2154.644 1619.769,2153.844 C1616.219,2153.244 1615.969,2153.294 1613.869,2154.394 C1611.969,2155.394 1610.769,2155.544 1604.319,2155.794 C1596.219,2156.044 1596.119,2156.044 1592.019,2152.194 L1590.319,2150.644 L1589.069,2152.144 C1586.569,2155.194 1585.919,2156.594 1585.919,2159.244 C1585.919,2161.444 1586.119,2161.994 1587.219,2162.844 C1587.969,2163.444 1589.119,2163.894 1589.869,2163.894 C1590.569,2163.894 1593.219,2164.444 1595.669,2165.144 C1600.619,2166.494 1603.869,2166.794 1621.669,2167.344 C1633.369,2167.694 1633.769,2167.744 1635.369,2168.944 C1636.869,2170.044 1637.419,2170.144 1643.069,2170.144 C1648.319,2170.144 1649.419,2170.294 1650.919,2171.144 C1651.869,2171.744 1652.869,2172.694 1653.169,2173.244 C1653.519,2174.094 1654.219,2174.444 1656.269,2174.694 C1658.569,2174.944 1659.419,2174.794 1663.269,2173.194 C1665.719,2172.194 1667.919,2171.394 1668.269,2171.394 C1668.969,2171.394 1669.419,2172.594 1669.419,2174.644 C1669.419,2176.194 1669.319,2176.344 1666.919,2176.894 C1665.519,2177.244 1664.269,2177.694 1664.169,2177.944 C1663.319,2179.244 1668.319,2184.594 1673.669,2188.194 C1675.869,2189.644 1679.969,2192.994 1682.819,2195.594 C1688.469,2200.844 1689.869,2201.494 1692.519,2200.044 C1695.219,2198.544 1704.019,2198.844 1708.969,2200.544 C1711.019,2201.294 1713.169,2201.894 1713.719,2201.894 C1714.269,2201.894 1715.969,2202.244 1717.419,2202.694 C1720.569,2203.644 1724.969,2207.544 1729.019,2212.994 C1730.419,2214.844 1731.969,2216.494 1732.469,2216.644 C1736.119,2217.794 1739.569,2227.244 1737.269,2229.794 C1735.869,2231.294 1736.169,2236.244 1737.919,2241.294 C1738.719,2243.694 1739.619,2246.744 1739.919,2248.044 C1740.669,2251.444 1743.569,2257.344 1745.969,2260.394 C1747.069,2261.794 1747.919,2263.044 1747.819,2263.094 C1747.769,2263.194 1747.169,2263.544 1746.569,2263.844 C1745.019,2264.644 1745.119,2265.794 1746.719,2266.394 C1747.419,2266.694 1749.469,2268.294 1751.269,2270.044 L1754.519,2273.144 L1754.219,2275.394 C1753.219,2282.044 1753.269,2282.644 1754.569,2285.244 C1755.269,2286.594 1757.319,2289.944 1759.119,2292.594 C1764.319,2300.244 1767.519,2307.144 1769.419,2314.894 C1771.319,2322.494 1773.369,2325.944 1779.469,2331.894 C1786.369,2338.594 1790.969,2344.544 1795.169,2352.094 C1797.019,2355.444 1799.319,2359.294 1800.219,2360.694 C1803.719,2365.944 1815.069,2375.644 1818.569,2376.344 C1820.219,2376.694 1821.169,2378.394 1819.719,2378.394 C1818.219,2378.394 1818.919,2379.894 1820.869,2380.844 C1821.919,2381.394 1823.969,2382.894 1825.469,2384.144 C1827.919,2386.244 1829.269,2386.844 1832.969,2387.594 C1833.869,2387.794 1834.819,2388.694 1835.869,2390.294 C1837.269,2392.494 1839.069,2393.894 1840.469,2393.894 C1840.719,2393.894 1841.869,2394.894 1843.069,2396.094 C1844.619,2397.744 1845.669,2398.394 1847.169,2398.644 C1851.469,2399.294 1855.869,2402.244 1858.219,2405.994 C1859.119,2407.394 1860.319,2408.294 1863.069,2409.544 C1865.119,2410.494 1868.419,2412.394 1870.469,2413.744 C1875.869,2417.394 1879.019,2419.094 1884.869,2421.394 C1887.719,2422.494 1891.619,2424.294 1893.619,2425.344 C1895.569,2426.444 1901.669,2428.744 1907.169,2430.544 C1929.219,2437.694 1952.419,2442.344 1952.419,2439.644 C1952.419,2439.244 1952.369,2438.894 1952.269,2438.894 C1950.969,2438.894 1939.019,2436.444 1933.669,2435.044 C1922.569,2432.244 1903.619,2425.344 1898.419,2422.294 C1896.169,2420.944 1894.069,2419.944 1886.769,2416.894 C1882.119,2414.944 1879.169,2412.894 1878.769,2411.444 C1878.619,2410.844 1878.569,2410.394 1878.669,2410.394 C1879.319,2410.394 1884.019,2412.794 1885.369,2413.794 C1886.769,2414.844 1887.669,2415.044 1891.619,2415.194 C1896.569,2415.394 1902.669,2416.744 1905.819,2418.344 C1906.919,2418.894 1909.219,2419.594 1910.919,2419.844 C1912.869,2420.144 1914.819,2420.894 1915.969,2421.694 C1916.969,2422.394 1918.819,2423.244 1919.969,2423.594 C1922.169,2424.244 1922.569,2424.644 1923.419,2426.994 C1924.069,2428.944 1926.069,2430.144 1927.369,2429.394 C1927.969,2429.094 1928.419,2428.544 1928.419,2428.144 C1928.419,2426.944 1929.169,2426.894 1931.219,2427.894 C1932.669,2428.644 1935.469,2429.094 1941.919,2429.644 C1946.719,2430.094 1951.669,2430.744 1952.919,2431.144 C1954.169,2431.544 1958.319,2432.244 1962.169,2432.644 C1969.019,2433.444 1982.169,2435.644 1982.969,2436.194 C1983.219,2436.344 1983.419,2436.844 1983.419,2437.344 C1983.419,2438.094 1984.169,2438.344 1988.569,2438.794 C1991.369,2439.144 1997.369,2439.494 2001.919,2439.594 C2007.819,2439.794 2011.519,2440.144 2014.919,2440.894 C2022.669,2442.644 2022.269,2442.644 2024.469,2441.144 C2026.419,2439.744 2026.519,2439.744 2028.119,2440.544 C2030.869,2441.844 2033.169,2442.094 2034.869,2441.244 C2036.119,2440.594 2037.369,2440.594 2042.519,2440.994 C2046.669,2441.294 2050.219,2441.294 2053.619,2440.944 C2058.069,2440.444 2059.219,2440.494 2064.369,2441.444 C2072.169,2442.894 2082.319,2443.044 2086.969,2441.744 C2089.619,2440.994 2091.569,2440.844 2097.219,2440.994 L2104.169,2441.144 L2109.169,2444.444 C2112.469,2446.644 2114.719,2448.544 2115.819,2450.044 C2116.719,2451.294 2117.919,2452.494 2118.469,2452.644 C2120.019,2453.144 2124.419,2450.744 2128.119,2447.394 C2132.069,2443.794 2133.669,2442.744 2134.519,2443.044 C2135.319,2443.294 2131.219,2447.394 2130.169,2447.394 C2129.769,2447.394 2129.419,2447.594 2129.419,2447.794 C2129.419,2448.444 2130.619,2449.344 2136.119,2453.094 C2141.619,2456.794 2142.869,2457.044 2143.519,2454.544 C2144.669,2450.044 2152.469,2447.894 2158.169,2450.544 C2159.569,2451.194 2162.019,2451.894 2163.669,2452.044 C2167.419,2452.444 2170.769,2453.594 2172.419,2455.094 C2173.119,2455.694 2174.269,2456.444 2175.019,2456.744 C2176.519,2457.394 2179.169,2461.044 2179.719,2463.194 C2179.919,2463.994 2180.619,2465.294 2181.269,2466.144 C2181.919,2466.944 2183.719,2469.544 2185.269,2471.894 C2188.769,2477.244 2189.819,2478.394 2191.219,2478.394 C2192.569,2478.394 2193.219,2479.144 2193.669,2481.394 C2194.119,2483.594 2194.669,2484.294 2196.769,2485.144 C2198.969,2486.044 2206.419,2491.794 2206.769,2492.794 C2206.919,2493.294 2207.619,2494.244 2208.269,2494.944 C2209.119,2495.844 2209.319,2496.394 2208.919,2496.644 C2208.619,2496.844 2207.919,2496.394 2207.369,2495.694 C2206.019,2493.994 2203.819,2493.944 2202.169,2495.644 C2201.469,2496.294 2200.919,2497.094 2200.919,2497.344 C2200.919,2498.294 2201.969,2498.494 2202.569,2497.694 C2203.119,2496.944 2203.369,2497.044 2204.919,2498.644 C2205.819,2499.594 2206.919,2500.394 2207.269,2500.394 C2208.119,2500.394 2208.069,2501.144 2207.169,2501.894 C2206.169,2502.744 2206.219,2503.544 2207.419,2504.644 C2208.919,2505.994 2208.719,2507.744 2206.919,2508.644 C2204.969,2509.644 2204.919,2511.244 2206.819,2511.694 C2208.319,2512.094 2210.219,2513.344 2213.069,2515.794 C2214.119,2516.694 2215.719,2517.794 2216.669,2518.244 C2218.619,2519.194 2218.519,2519.894 2216.419,2519.894 C2213.719,2519.894 2213.919,2521.794 2216.819,2523.194 C2219.469,2524.444 2220.919,2523.744 2221.969,2520.694 C2223.119,2517.594 2223.219,2517.494 2224.469,2518.844 C2225.769,2520.194 2226.919,2520.044 2227.769,2518.394 C2228.119,2517.694 2228.419,2517.444 2228.419,2517.844 C2228.419,2518.394 2228.619,2518.294 2229.119,2517.594 C2229.819,2516.694 2229.869,2516.694 2230.319,2517.894 C2230.619,2518.594 2231.169,2519.494 2231.619,2519.844 C2232.319,2520.444 2232.519,2520.294 2233.169,2518.744 C2233.569,2517.744 2233.919,2516.544 2233.919,2516.094 C2233.919,2515.444 2234.269,2515.494 2236.119,2516.594 C2238.769,2518.144 2239.419,2518.194 2239.419,2516.944 C2239.419,2514.144 2241.019,2513.644 2243.869,2515.594 C2244.869,2516.244 2246.469,2516.944 2247.419,2517.144 L2249.169,2517.494 L2248.219,2516.444 C2247.669,2515.844 2247.169,2514.394 2247.019,2512.894 C2246.869,2511.044 2246.569,2510.344 2245.869,2510.144 C2245.319,2509.944 2244.919,2509.344 2244.919,2508.744 C2244.869,2505.194 2243.719,2497.544 2242.719,2493.894 C2241.869,2490.994 2241.319,2487.194 2240.919,2481.894 C2240.269,2472.594 2239.169,2464.744 2238.319,2463.144 C2234.669,2456.394 2234.369,2455.594 2234.069,2451.744 C2233.819,2448.644 2233.569,2447.744 2232.819,2447.344 C2231.669,2446.744 2231.619,2444.144 2232.719,2441.394 C2233.169,2440.294 2233.419,2438.744 2233.319,2437.994 C2232.419,2432.844 2230.669,2425.294 2229.919,2423.394 C2229.319,2421.894 2228.919,2418.944 2228.669,2414.394 C2228.269,2406.694 2227.019,2401.994 2224.519,2399.194 C2223.719,2398.244 2222.319,2396.444 2221.419,2395.144 L2219.819,2392.794 L2222.719,2394.644 C2224.369,2395.694 2226.469,2397.194 2227.469,2397.944 C2228.469,2398.744 2229.569,2399.394 2229.869,2399.394 C2230.219,2399.394 2230.419,2398.194 2230.419,2396.244 C2230.419,2393.294 2230.319,2393.044 2229.319,2393.094 C2228.569,2393.144 2227.819,2392.394 2226.569,2390.394 C2225.119,2387.994 2223.419,2384.594 2223.419,2384.094 C2223.419,2383.994 2224.469,2384.594 2225.769,2385.394 C2230.519,2388.444 2230.619,2387.294 2226.269,2378.894 C2221.769,2370.244 2217.369,2363.194 2216.269,2362.994 C2215.719,2362.894 2215.169,2363.444 2214.569,2364.594 C2213.669,2366.544 2212.269,2366.944 2211.519,2365.494 C2211.269,2365.044 2210.919,2362.794 2210.819,2360.544 C2210.569,2356.194 2210.019,2354.944 2206.469,2350.894 C2204.319,2348.444 2204.419,2347.644 2206.719,2348.644 C2209.419,2349.744 2209.569,2349.594 2208.219,2347.244 C2207.519,2346.094 2206.719,2343.994 2206.369,2342.644 C2206.069,2341.244 2205.419,2339.444 2204.969,2338.644 L2204.169,2337.144 L2204.019,2339.244 C2203.919,2340.444 2203.669,2341.394 2203.469,2341.394 C2203.119,2341.394 2198.419,2331.944 2198.419,2331.194 C2198.419,2330.994 2198.819,2331.044 2199.319,2331.294 C2199.769,2331.544 2201.119,2331.894 2202.319,2332.094 C2204.019,2332.344 2204.419,2332.244 2204.419,2331.644 C2204.419,2330.294 2203.019,2327.394 2202.369,2327.394 C2202.019,2327.394 2202.169,2327.094 2202.719,2326.694 C2203.619,2325.994 2203.569,2325.844 2201.119,2323.494 C2199.519,2321.994 2198.469,2320.494 2198.269,2319.494 C2197.819,2317.344 2196.619,2317.444 2196.219,2319.644 C2195.819,2321.694 2195.319,2321.844 2194.419,2320.194 C2194.069,2319.444 2193.269,2318.894 2192.469,2318.794 C2191.269,2318.644 2191.119,2318.394 2190.519,2314.644 C2189.019,2305.194 2188.419,2303.644 2187.519,2306.994 L2187.119,2308.644 L2185.219,2305.044 C2183.119,2301.044 2181.619,2299.294 2181.219,2300.444 C2181.069,2300.844 2180.869,2301.794 2180.769,2302.644 C2180.669,2303.444 2180.519,2301.094 2180.469,2297.344 C2180.419,2289.444 2180.519,2289.644 2175.269,2287.994 C2168.869,2285.944 2167.369,2284.244 2161.419,2272.444 C2159.719,2269.044 2157.719,2265.744 2156.969,2265.094 C2156.219,2264.494 2154.969,2263.044 2154.169,2261.944 C2152.469,2259.494 2151.919,2259.344 2151.919,2261.494 C2151.919,2262.394 2151.669,2263.494 2151.419,2263.894 C2150.569,2265.244 2147.569,2261.694 2146.419,2257.994 C2145.869,2256.244 2145.419,2254.344 2145.419,2253.794 C2145.419,2252.844 2145.419,2252.844 2144.019,2253.844 L2142.619,2254.844 L2140.369,2250.294 C2137.769,2244.944 2135.419,2241.094 2131.369,2235.794 C2129.719,2233.644 2128.419,2231.694 2128.419,2231.394 C2128.419,2231.094 2128.919,2230.194 2129.519,2229.394 C2130.369,2228.194 2130.469,2227.694 2130.069,2226.794 C2129.769,2226.144 2124.969,2220.894 2119.369,2215.144 C2107.119,2202.444 2104.369,2199.044 2101.019,2192.494 C2099.169,2188.944 2097.769,2186.944 2096.269,2185.694 C2089.219,2179.744 2088.469,2179.444 2085.619,2181.644 L2084.019,2182.844 L2082.619,2180.994 C2078.119,2175.044 2075.969,2173.594 2069.719,2171.994 C2067.269,2171.344 2064.719,2170.244 2062.669,2168.894 C2060.869,2167.694 2057.569,2166.194 2055.069,2165.444 C2050.019,2163.894 2047.419,2162.344 2043.219,2158.594 C2041.619,2157.144 2039.369,2155.494 2038.169,2154.944 C2036.669,2154.244 2035.919,2153.544 2035.819,2152.794 C2035.719,2151.994 2035.269,2151.594 2034.419,2151.494 C2033.169,2151.344 2033.169,2151.394 2033.319,2154.444 C2033.469,2156.844 2033.369,2157.444 2032.819,2157.294 C2032.469,2157.144 2032.119,2156.144 2032.019,2154.844 C2031.869,2153.044 2031.469,2152.244 2029.469,2150.144 C2028.169,2148.794 2026.619,2146.794 2025.969,2145.744 C2024.669,2143.594 2023.419,2143.294 2023.419,2145.144 C2023.419,2145.844 2023.319,2146.394 2023.169,2146.394 C2023.019,2146.394 2020.719,2144.894 2018.019,2143.094 C2013.669,2140.144 2013.119,2139.544 2012.519,2137.644 C2012.119,2136.194 2011.269,2135.044 2010.019,2134.094 C2009.019,2133.294 2007.719,2132.094 2007.119,2131.444 C2006.269,2130.444 2005.469,2130.194 2003.019,2129.994 L1999.919,2129.794 L1999.919,2131.194 C1999.919,2131.994 2000.469,2133.494 2001.169,2134.494 C2001.869,2135.494 2002.419,2136.544 2002.419,2136.794 C2002.419,2137.044 2002.769,2137.544 2003.169,2137.894 C2003.769,2138.394 2004.069,2138.394 2004.669,2137.894 C2005.719,2136.994 2006.169,2137.594 2005.169,2138.594 C2004.619,2139.144 2003.469,2139.394 2001.719,2139.394 C1998.619,2139.394 1984.219,2137.094 1982.919,2136.394 C1982.419,2136.094 1981.469,2135.894 1980.869,2135.894 C1980.069,2135.894 1979.869,2136.144 1980.069,2136.844 C1980.269,2137.794 1980.219,2137.794 1977.719,2137.044 C1976.319,2136.644 1974.719,2136.044 1974.169,2135.744 C1973.619,2135.444 1970.919,2135.144 1968.119,2135.094 C1965.119,2134.994 1962.369,2134.694 1961.369,2134.244 C1960.419,2133.844 1958.619,2133.394 1957.319,2133.194 L1954.969,2132.844 L1954.619,2129.894 C1954.319,2127.194 1954.169,2126.894 1952.169,2125.444 C1949.519,2123.544 1948.969,2123.494 1948.619,2125.344 C1948.319,2126.644 1948.119,2126.794 1945.719,2127.044 C1944.119,2127.194 1942.519,2127.044 1941.469,2126.594 C1939.319,2125.694 1938.719,2125.694 1939.119,2126.644 C1939.619,2128.044 1936.269,2127.444 1931.969,2125.394 C1929.719,2124.294 1927.269,2123.394 1926.569,2123.394 C1925.219,2123.394 1925.269,2123.294 1926.269,2126.494 C1926.519,2127.294 1926.169,2127.394 1923.969,2127.394 C1922.369,2127.394 1920.619,2126.994 1919.419,2126.394 C1917.069,2125.194 1915.419,2125.094 1915.419,2126.144 C1915.419,2126.544 1915.169,2126.894 1914.919,2126.894 C1914.169,2126.894 1911.369,2125.444 1910.269,2124.494 C1909.469,2123.794 1909.319,2123.794 1908.919,2124.394 C1908.169,2125.544 1908.319,2126.494 1909.469,2128.594 L1910.519,2130.544 L1908.219,2130.294 C1906.969,2130.144 1905.919,2130.194 1905.919,2130.444 C1905.919,2131.144 1903.519,2130.994 1902.019,2130.194 C1901.269,2129.794 1899.219,2127.944 1897.419,2126.094 C1891.869,2120.394 1887.819,2118.544 1885.769,2120.794 C1883.719,2123.044 1885.069,2124.244 1895.419,2129.294 C1902.169,2132.594 1906.419,2135.344 1906.419,2136.444 C1906.419,2137.894 1900.369,2136.344 1894.319,2133.344 L1890.969,2131.694 L1886.569,2132.294 C1884.169,2132.644 1877.669,2133.144 1872.169,2133.394 C1860.619,2133.994 1860.569,2133.994 1854.869,2135.944 C1851.869,2136.944 1849.569,2137.394 1847.369,2137.394 C1843.619,2137.394 1842.169,2136.594 1841.669,2134.394 C1841.369,2133.094 1841.119,2132.894 1839.669,2132.894 C1837.369,2132.894 1829.769,2134.694 1827.769,2135.694 C1825.519,2136.844 1823.469,2138.844 1822.369,2140.994 C1821.219,2143.194 1821.169,2143.244 1814.469,2141.944 C1809.519,2140.994 1807.669,2140.244 1803.419,2137.744 L1801.169,2136.444 L1797.669,2137.644 C1793.419,2139.144 1792.919,2139.144 1790.419,2137.894 C1788.869,2137.094 1787.469,2136.894 1783.569,2136.894 C1778.019,2136.894 1772.519,2137.594 1771.769,2138.344 C1771.419,2138.694 1771.519,2139.194 1772.169,2139.894 C1772.969,2140.794 1773.019,2141.044 1772.419,2141.394 C1770.569,2142.544 1764.519,2139.844 1760.319,2135.994 C1757.469,2133.344 1757.269,2133.244 1756.619,2134.144 C1756.219,2134.644 1755.919,2135.344 1755.919,2135.644 C1755.919,2136.594 1754.169,2137.894 1752.869,2137.894 C1752.169,2137.894 1751.119,2137.544 1750.519,2137.094 C1749.569,2136.444 1749.419,2135.994 1749.669,2134.794 C1750.019,2133.344 1750.019,2133.344 1747.869,2133.494 C1745.269,2133.694 1744.269,2134.844 1745.569,2136.294 C1746.019,2136.794 1746.419,2137.344 1746.419,2137.544 C1746.419,2137.744 1744.569,2137.194 1742.319,2136.344 C1739.219,2135.194 1737.569,2134.894 1735.469,2134.994 C1733.019,2135.144 1732.669,2135.294 1732.519,2136.194 C1732.369,2137.094 1732.769,2137.444 1734.519,2138.094 C1735.719,2138.494 1737.369,2138.944 1738.169,2138.994 C1740.419,2139.194 1739.919,2139.994 1736.419,2141.694 C1732.869,2143.494 1728.419,2144.594 1724.519,2144.594 C1721.419,2144.644 1721.119,2144.394 1719.719,2140.194 L1718.719,2137.344 L1719.769,2136.294 C1720.769,2135.294 1721.019,2135.294 1724.769,2135.894 C1729.319,2136.644 1730.119,2136.394 1732.269,2133.594 C1733.269,2132.244 1733.669,2131.094 1733.819,2128.944 C1734.069,2125.694 1733.369,2124.694 1731.069,2124.994 C1729.719,2125.144 1729.669,2125.244 1729.369,2128.644 C1729.219,2130.544 1729.069,2131.744 1729.019,2131.244 C1728.919,2130.544 1728.369,2130.394 1725.219,2130.394 C1722.969,2130.394 1721.319,2130.644 1721.119,2130.944 C1720.619,2131.794 1720.069,2130.594 1719.669,2127.744 C1719.369,2125.794 1719.419,2125.394 1720.119,2125.394 C1720.969,2125.394 1721.919,2123.944 1721.919,2122.694 C1721.919,2122.094 1721.369,2121.894 1719.719,2121.894 C1717.319,2121.894 1716.969,2122.194 1716.119,2124.894 C1715.619,2126.444 1715.519,2126.544 1715.169,2125.644 C1714.369,2123.644 1712.269,2121.294 1710.619,2120.594 C1709.719,2120.194 1707.419,2119.894 1705.569,2119.894 L1702.169,2119.944 L1705.069,2121.444 z M1945.169,2149.394 C1949.019,2149.694 1955.769,2150.494 1960.169,2151.194 C1964.569,2151.844 1970.219,2152.744 1972.669,2153.144 C1975.169,2153.544 1978.819,2154.594 1980.919,2155.444 C1984.269,2156.894 1985.319,2157.094 1990.519,2157.294 C1995.369,2157.494 1996.619,2157.394 1997.669,2156.694 C1999.369,2155.594 2000.419,2155.694 2002.119,2157.144 C2003.819,2158.594 2004.219,2158.644 2006.369,2157.594 C2008.269,2156.644 2017.769,2156.044 2018.869,2156.794 C2019.419,2157.194 2019.419,2157.494 2018.719,2158.444 C2017.719,2159.894 2017.719,2160.594 2018.719,2161.594 C2019.669,2162.544 2020.169,2162.294 2021.469,2160.194 L2022.419,2158.644 L2022.419,2160.694 C2022.419,2162.944 2021.169,2161.894 2034.919,2171.244 C2038.219,2173.494 2054.919,2182.944 2061.519,2186.294 C2064.269,2187.694 2065.919,2187.444 2065.919,2185.644 C2065.919,2184.094 2062.119,2180.744 2059.369,2179.944 C2056.069,2178.944 2051.669,2175.894 2053.519,2175.894 C2055.369,2175.894 2065.169,2181.544 2066.869,2183.594 C2067.219,2184.044 2068.019,2184.394 2068.619,2184.394 C2069.219,2184.394 2070.919,2185.444 2072.419,2186.694 C2073.919,2187.944 2076.819,2189.744 2078.819,2190.694 C2083.319,2192.794 2087.219,2196.444 2087.669,2199.094 C2088.069,2201.244 2090.969,2205.194 2092.469,2205.644 C2093.069,2205.844 2094.069,2205.694 2094.719,2205.394 C2095.619,2204.894 2096.169,2204.894 2097.419,2205.394 C2100.319,2206.594 2102.969,2210.544 2114.569,2230.994 C2118.519,2237.944 2122.369,2244.544 2123.119,2245.644 C2124.969,2248.344 2132.919,2264.244 2132.919,2265.244 C2132.919,2266.644 2136.019,2271.794 2138.719,2274.944 C2140.619,2277.144 2141.619,2278.844 2142.169,2280.844 C2142.619,2282.394 2143.319,2284.094 2143.669,2284.694 C2145.369,2287.294 2145.519,2289.644 2144.669,2300.044 C2143.419,2315.844 2141.619,2330.494 2139.669,2341.244 C2137.719,2351.694 2137.619,2352.094 2135.569,2354.244 C2133.669,2356.294 2132.569,2359.044 2131.669,2364.244 C2130.669,2370.044 2130.719,2369.994 2128.769,2370.894 C2127.119,2371.694 2126.969,2371.894 2124.469,2377.544 C2121.719,2383.694 2117.269,2389.444 2112.769,2392.494 C2110.969,2393.744 2106.919,2399.344 2106.919,2400.594 C2106.919,2401.194 2107.269,2402.194 2107.719,2402.844 C2108.469,2403.894 2108.469,2403.994 2107.519,2404.694 C2106.919,2405.094 2105.619,2407.044 2104.569,2409.044 C2103.219,2411.594 2101.419,2413.944 2098.169,2417.144 C2094.219,2421.094 2093.119,2421.894 2089.319,2423.544 C2086.919,2424.544 2084.519,2425.394 2083.919,2425.394 C2082.369,2425.394 2082.069,2426.894 2083.419,2427.994 C2084.769,2429.094 2084.819,2428.994 2081.669,2429.844 C2080.319,2430.244 2078.069,2430.844 2076.719,2431.194 C2072.769,2432.294 2057.919,2432.994 2043.869,2432.794 C2031.769,2432.594 2030.469,2432.494 2028.419,2431.544 C2027.169,2430.994 2025.369,2430.344 2024.419,2430.144 C2021.619,2429.544 2021.019,2429.044 2020.669,2426.894 C2020.369,2425.194 2020.169,2424.894 2019.069,2424.894 C2017.819,2424.894 2017.819,2424.944 2018.169,2427.794 C2018.419,2430.144 2018.319,2430.844 2017.719,2431.344 C2016.569,2432.344 2013.469,2431.694 2008.069,2429.344 C2002.869,2427.144 2002.119,2427.044 2000.869,2428.194 C1999.619,2429.344 1996.169,2428.744 1996.719,2427.494 C1998.069,2424.244 1998.569,2422.094 1998.819,2418.294 L1999.069,2413.894 L1997.519,2413.894 C1995.919,2413.894 1994.519,2415.244 1992.769,2418.394 C1991.719,2420.344 1991.019,2420.144 1989.669,2417.644 C1989.119,2416.594 1988.319,2415.544 1987.919,2415.344 C1985.419,2414.144 1982.919,2413.344 1982.119,2413.494 C1981.069,2413.694 1979.019,2418.644 1978.919,2421.144 C1978.869,2423.994 1978.619,2424.094 1972.619,2423.394 C1966.919,2422.744 1966.369,2422.594 1963.319,2420.394 L1961.419,2418.994 L1963.169,2416.844 C1964.919,2414.644 1965.269,2413.094 1964.469,2411.494 C1964.219,2411.044 1963.769,2410.044 1963.469,2409.244 C1962.969,2407.944 1962.869,2407.894 1959.319,2407.994 L1955.669,2408.144 L1955.219,2405.344 C1954.869,2402.994 1954.519,2402.394 1953.369,2401.694 C1952.569,2401.194 1951.919,2400.544 1951.919,2400.244 C1951.919,2399.894 1951.569,2399.044 1951.219,2398.294 C1950.519,2396.994 1950.569,2396.894 1951.369,2396.894 C1951.869,2396.894 1953.119,2397.594 1954.169,2398.394 C1956.219,2400.044 1957.969,2400.694 1959.169,2400.194 C1960.169,2399.844 1960.169,2396.794 1959.169,2394.844 C1958.719,2394.044 1958.069,2390.694 1957.669,2387.344 C1957.319,2384.044 1956.719,2380.994 1956.369,2380.594 C1956.069,2380.194 1955.019,2379.894 1954.069,2379.894 C1952.619,2379.894 1952.269,2380.144 1951.719,2381.494 C1951.319,2382.394 1950.869,2384.544 1950.719,2386.294 C1950.219,2390.694 1949.619,2391.794 1947.569,2392.194 C1946.619,2392.394 1945.219,2393.044 1944.419,2393.744 L1942.969,2394.944 L1941.969,2393.344 C1940.819,2391.494 1941.069,2390.394 1942.669,2390.394 C1944.619,2390.394 1945.169,2389.194 1944.569,2386.244 C1944.069,2383.994 1944.119,2383.444 1944.969,2381.994 C1946.119,2379.994 1946.169,2377.994 1945.169,2375.544 C1944.419,2373.794 1944.169,2370.894 1944.719,2370.894 C1944.869,2370.894 1945.669,2371.294 1946.469,2371.744 C1947.219,2372.194 1948.019,2372.444 1948.219,2372.244 C1948.369,2372.094 1948.169,2370.344 1947.669,2368.394 C1947.019,2365.744 1946.469,2364.594 1945.319,2363.644 C1944.519,2362.944 1943.619,2362.394 1943.369,2362.394 C1943.119,2362.394 1942.919,2362.044 1942.919,2361.644 C1942.919,2361.244 1943.119,2360.894 1943.419,2360.894 C1944.319,2360.894 1947.419,2357.794 1947.419,2356.844 C1947.419,2356.194 1946.919,2355.844 1945.669,2355.594 C1943.769,2355.244 1943.469,2354.494 1944.669,2352.744 C1945.069,2352.144 1945.719,2349.994 1946.169,2347.994 C1946.969,2343.994 1947.519,2342.844 1950.469,2338.244 C1952.869,2334.544 1953.019,2332.244 1950.919,2331.994 C1949.919,2331.894 1949.269,2332.294 1947.969,2333.894 C1945.569,2336.844 1942.969,2338.444 1939.819,2338.744 C1938.369,2338.894 1937.069,2339.094 1936.919,2339.244 C1936.469,2339.644 1938.969,2341.394 1940.019,2341.394 C1940.969,2341.394 1940.969,2341.444 1940.069,2342.944 C1939.569,2343.794 1938.269,2345.544 1937.169,2346.794 L1935.219,2349.044 L1934.319,2344.594 C1933.319,2339.494 1933.169,2331.644 1933.969,2327.894 C1934.919,2323.344 1937.319,2318.844 1940.219,2315.994 C1942.269,2313.994 1942.919,2312.994 1942.919,2311.894 C1942.919,2310.044 1942.469,2309.994 1940.919,2311.644 C1940.269,2312.344 1938.669,2313.594 1937.369,2314.444 C1935.769,2315.444 1934.669,2316.644 1933.969,2318.094 C1932.419,2321.444 1929.469,2321.794 1929.419,2318.644 C1929.419,2318.094 1929.069,2316.994 1928.669,2316.194 C1928.269,2315.444 1927.919,2314.494 1927.919,2314.194 C1927.919,2313.844 1927.619,2313.194 1927.269,2312.694 C1926.669,2311.894 1926.369,2311.894 1923.219,2312.544 L1919.819,2313.244 L1920.019,2310.444 C1920.169,2308.544 1921.019,2306.044 1922.569,2302.494 C1925.369,2296.344 1925.469,2295.644 1923.369,2295.194 C1921.219,2294.794 1916.919,2290.494 1916.919,2288.744 C1916.919,2287.544 1917.119,2287.444 1919.319,2287.294 C1921.269,2287.144 1921.669,2286.994 1921.819,2286.044 C1921.919,2285.444 1921.519,2284.044 1920.969,2282.944 C1920.369,2281.844 1919.919,2280.294 1919.919,2279.494 C1919.919,2278.744 1919.669,2277.844 1919.369,2277.544 C1919.019,2277.194 1918.919,2276.594 1919.069,2276.194 C1919.369,2275.494 1922.219,2273.894 1924.519,2273.194 C1925.269,2272.944 1925.369,2272.494 1925.119,2269.794 C1924.919,2268.044 1924.369,2265.394 1923.869,2263.894 C1922.969,2261.194 1922.969,2261.094 1924.019,2258.994 C1924.619,2257.644 1925.569,2256.644 1926.369,2256.344 C1928.119,2255.644 1929.669,2254.144 1931.169,2251.594 C1932.769,2248.894 1932.769,2247.394 1931.169,2245.894 L1929.919,2244.694 L1931.769,2243.644 C1934.619,2242.094 1934.519,2241.094 1931.419,2240.444 C1930.019,2240.144 1928.219,2239.894 1927.469,2239.894 C1926.169,2239.894 1926.019,2240.094 1925.719,2242.194 C1925.569,2243.444 1924.969,2245.044 1924.419,2245.744 C1923.169,2247.344 1923.169,2247.994 1924.419,2249.144 C1925.919,2250.494 1925.669,2251.144 1922.919,2252.894 L1920.469,2254.494 L1920.319,2257.794 C1920.169,2261.094 1920.169,2261.144 1919.469,2259.644 C1918.919,2258.494 1918.769,2256.044 1918.819,2249.744 L1918.919,2241.394 L1917.419,2239.994 C1915.819,2238.494 1915.169,2236.494 1916.419,2236.844 C1917.869,2237.194 1929.819,2237.544 1931.019,2237.244 C1931.719,2237.044 1932.819,2235.844 1933.919,2234.094 C1934.869,2232.494 1936.369,2230.794 1937.269,2230.244 C1939.519,2228.944 1939.369,2227.744 1936.819,2226.294 C1935.169,2225.394 1934.669,2224.844 1934.669,2223.894 C1934.669,2222.144 1935.969,2222.044 1939.469,2223.644 C1942.519,2224.994 1944.419,2224.994 1944.419,2223.594 C1944.419,2222.694 1941.519,2220.894 1940.069,2220.894 C1938.619,2220.894 1938.619,2219.994 1939.919,2216.144 C1941.319,2212.144 1941.219,2210.494 1939.719,2210.094 C1939.069,2209.944 1937.869,2209.894 1937.119,2209.994 C1935.819,2210.144 1935.669,2210.344 1935.519,2212.044 C1935.419,2213.094 1935.619,2214.294 1935.969,2214.694 C1936.319,2215.094 1936.319,2215.394 1936.019,2215.394 C1935.769,2215.394 1935.269,2216.044 1935.019,2216.844 C1934.719,2217.644 1933.569,2218.894 1932.319,2219.694 C1931.069,2220.544 1929.769,2221.994 1929.169,2223.144 L1928.219,2225.144 L1927.769,2223.144 C1927.569,2222.044 1927.269,2220.694 1927.169,2220.094 C1926.819,2218.344 1924.969,2216.444 1922.369,2215.144 C1920.269,2214.044 1919.919,2213.694 1919.919,2212.394 C1919.919,2210.744 1921.419,2208.894 1922.819,2208.844 C1923.269,2208.844 1924.419,2208.594 1925.369,2208.244 C1926.819,2207.744 1927.219,2207.244 1927.919,2205.144 C1928.669,2202.894 1928.919,2202.644 1930.319,2202.494 C1931.369,2202.394 1932.219,2201.844 1932.869,2200.994 C1934.969,2198.044 1937.169,2188.744 1936.819,2184.144 C1936.669,2181.744 1936.619,2181.644 1935.119,2181.494 C1933.869,2181.394 1933.269,2181.694 1931.769,2183.394 C1929.619,2185.694 1929.669,2185.444 1930.669,2190.544 C1931.069,2192.694 1931.419,2195.244 1931.419,2196.194 C1931.419,2197.644 1931.269,2197.894 1930.219,2197.894 C1929.069,2197.894 1928.969,2197.644 1928.669,2194.494 C1928.169,2189.944 1927.769,2189.294 1925.569,2189.494 C1923.919,2189.644 1923.619,2189.894 1922.069,2192.794 C1921.169,2194.544 1920.519,2196.144 1920.669,2196.394 C1920.769,2196.594 1921.519,2196.644 1922.269,2196.494 C1923.569,2196.244 1923.619,2196.294 1922.969,2197.094 C1922.569,2197.594 1921.269,2198.644 1920.119,2199.444 C1918.369,2200.594 1917.469,2200.894 1915.219,2200.894 C1912.969,2200.894 1912.369,2200.694 1911.919,2199.894 C1910.919,2198.044 1913.169,2194.494 1915.819,2193.644 C1916.419,2193.494 1917.269,2192.694 1917.669,2191.944 C1918.669,2189.944 1921.469,2187.644 1924.919,2185.894 C1927.869,2184.394 1927.919,2184.344 1927.919,2182.194 C1927.919,2178.794 1928.819,2176.894 1930.719,2176.094 C1932.969,2175.144 1933.119,2173.394 1930.919,2173.394 C1929.769,2173.394 1928.769,2174.094 1926.469,2176.394 C1924.819,2178.044 1923.219,2179.394 1922.969,2179.394 C1922.669,2179.394 1921.769,2180.394 1920.919,2181.644 C1919.069,2184.294 1917.669,2185.244 1916.669,2184.394 C1915.619,2183.544 1913.769,2183.994 1913.119,2185.244 C1912.819,2185.894 1912.219,2186.794 1911.769,2187.294 C1911.269,2187.794 1910.919,2188.544 1910.919,2188.944 C1910.919,2189.344 1910.019,2190.844 1908.919,2192.344 C1906.819,2195.144 1906.369,2197.294 1907.669,2198.394 C1909.419,2199.844 1908.269,2201.594 1904.719,2202.894 C1903.269,2203.444 1902.469,2204.094 1901.969,2205.244 C1901.519,2206.194 1900.669,2207.044 1899.819,2207.344 C1899.069,2207.644 1898.419,2208.144 1898.419,2208.544 C1898.419,2208.944 1898.069,2209.394 1897.669,2209.594 C1896.569,2209.994 1896.769,2211.294 1897.919,2211.644 C1898.469,2211.794 1898.919,2212.194 1898.919,2212.494 C1898.919,2212.994 1896.969,2215.044 1894.019,2217.544 C1892.569,2218.794 1892.419,2219.094 1892.719,2220.844 C1893.019,2222.744 1892.919,2222.844 1890.969,2224.094 C1889.719,2224.894 1888.919,2225.794 1888.919,2226.344 C1888.919,2228.144 1888.369,2228.994 1887.619,2228.344 C1886.419,2227.394 1886.219,2228.194 1886.719,2231.644 L1887.219,2234.894 L1885.119,2234.894 L1883.069,2234.894 L1882.619,2238.994 C1882.269,2242.344 1882.019,2243.144 1881.319,2243.294 C1880.569,2243.444 1880.419,2243.094 1880.419,2241.694 C1880.419,2239.094 1879.119,2238.594 1873.869,2239.294 C1869.869,2239.794 1869.669,2239.894 1868.019,2241.844 C1866.669,2243.494 1861.119,2247.394 1860.119,2247.394 C1860.019,2247.394 1859.919,2246.694 1859.919,2245.844 C1859.919,2244.844 1860.519,2243.644 1861.719,2242.194 C1863.319,2240.244 1863.819,2239.994 1866.069,2239.744 C1868.269,2239.544 1868.869,2239.244 1870.169,2237.644 C1871.719,2235.844 1871.869,2235.794 1875.869,2235.544 C1880.069,2235.244 1881.119,2234.644 1880.019,2233.244 C1878.669,2231.494 1879.219,2224.144 1880.919,2221.794 C1882.069,2220.244 1882.219,2218.044 1881.319,2216.144 C1880.869,2215.194 1880.869,2214.744 1881.319,2214.294 C1881.669,2213.944 1881.919,2212.644 1881.919,2211.294 C1881.919,2209.244 1882.119,2208.794 1883.369,2207.844 C1884.219,2207.244 1885.119,2206.144 1885.419,2205.344 C1885.769,2204.594 1886.319,2203.844 1886.719,2203.694 C1888.869,2202.844 1885.769,2200.394 1882.569,2200.394 C1880.519,2200.394 1875.319,2202.094 1872.919,2203.544 C1870.119,2205.244 1864.219,2211.444 1863.019,2213.944 C1862.419,2215.194 1861.269,2216.844 1860.469,2217.594 L1858.969,2219.044 L1857.069,2217.444 C1855.069,2215.794 1852.919,2215.444 1851.969,2216.594 C1851.469,2217.144 1851.519,2217.394 1852.219,2217.794 C1853.119,2218.294 1852.919,2218.494 1850.669,2219.644 C1850.119,2219.944 1849.519,2220.944 1849.319,2222.144 C1849.069,2223.194 1848.569,2224.494 1848.119,2224.944 C1847.719,2225.394 1847.019,2226.994 1846.669,2228.394 C1845.769,2231.794 1845.369,2232.144 1843.769,2230.894 C1842.619,2229.994 1837.919,2223.444 1837.919,2222.744 C1837.919,2222.594 1838.919,2222.894 1840.169,2223.444 C1841.969,2224.244 1842.619,2224.344 1843.519,2223.844 C1847.219,2221.944 1847.919,2219.294 1845.419,2216.394 C1843.719,2214.344 1843.519,2213.144 1844.869,2212.394 C1845.419,2212.144 1846.119,2211.044 1846.469,2210.044 C1847.369,2207.194 1847.869,2206.694 1848.969,2207.694 C1850.019,2208.644 1851.069,2208.494 1854.719,2206.894 L1857.269,2205.744 L1859.669,2207.594 C1862.119,2209.444 1864.269,2209.944 1864.719,2208.694 C1865.119,2207.644 1863.669,2205.144 1861.819,2203.694 L1860.169,2202.394 L1861.769,2202.394 C1862.619,2202.394 1863.419,2202.144 1863.519,2201.794 C1863.619,2201.494 1864.519,2200.944 1865.469,2200.644 L1867.169,2200.044 L1867.419,2195.844 L1867.669,2191.644 L1869.619,2190.744 L1871.569,2189.844 L1871.219,2186.844 L1870.919,2183.844 L1872.819,2185.844 C1874.069,2187.144 1875.319,2187.944 1876.569,2188.144 C1877.569,2188.344 1878.419,2188.644 1878.419,2188.844 C1878.419,2189.044 1877.519,2190.044 1876.419,2191.094 C1874.019,2193.344 1873.819,2195.094 1875.669,2197.094 C1877.019,2198.544 1877.519,2198.644 1881.719,2197.844 C1884.969,2197.244 1885.919,2196.694 1885.919,2195.444 C1885.919,2194.994 1886.619,2193.794 1887.469,2192.744 C1888.319,2191.744 1888.869,2190.694 1888.719,2190.444 C1888.569,2190.194 1887.469,2189.844 1886.319,2189.694 C1885.119,2189.494 1883.669,2189.044 1883.019,2188.744 C1882.019,2188.144 1881.969,2187.994 1882.619,2187.144 C1883.219,2186.294 1883.869,2186.144 1886.619,2186.244 C1889.469,2186.394 1889.969,2186.244 1890.619,2185.294 C1891.269,2184.344 1891.569,2184.294 1892.669,2184.794 C1894.319,2185.544 1894.419,2185.544 1894.419,2184.644 C1894.419,2184.244 1895.319,2183.344 1896.419,2182.644 C1899.769,2180.544 1901.519,2175.494 1899.669,2173.094 C1898.119,2171.044 1899.319,2169.944 1903.819,2169.344 C1906.919,2168.894 1907.919,2168.244 1907.919,2166.544 C1907.919,2165.644 1907.519,2165.144 1906.419,2164.744 C1904.569,2164.044 1904.569,2163.744 1906.169,2162.994 C1907.919,2162.194 1908.219,2162.244 1909.869,2163.444 C1911.119,2164.344 1911.519,2164.444 1912.969,2163.944 C1913.919,2163.644 1915.869,2162.394 1917.319,2161.194 C1918.819,2159.994 1922.419,2157.844 1925.319,2156.394 C1928.269,2154.944 1930.769,2153.694 1930.869,2153.594 C1930.969,2153.494 1931.119,2152.694 1931.169,2151.794 C1931.269,2150.894 1931.319,2149.994 1931.369,2149.794 C1931.419,2149.444 1933.469,2149.094 1936.419,2148.994 C1937.369,2148.944 1941.319,2149.144 1945.169,2149.394 z M1872.469,2217.894 C1873.819,2218.644 1873.669,2219.844 1872.119,2220.394 C1870.869,2220.894 1870.819,2221.044 1871.019,2223.644 C1871.269,2226.744 1870.969,2227.244 1867.019,2229.394 C1864.319,2230.894 1863.869,2231.744 1865.619,2232.194 C1866.319,2232.344 1867.169,2232.844 1867.469,2233.244 C1868.419,2234.344 1867.219,2234.894 1863.669,2234.894 C1862.019,2234.894 1860.169,2235.044 1859.519,2235.194 C1858.469,2235.494 1858.419,2235.594 1859.219,2236.444 C1860.319,2237.644 1859.769,2238.894 1858.219,2238.894 C1856.569,2238.894 1855.719,2237.294 1856.069,2234.594 C1856.519,2230.294 1859.769,2227.094 1866.069,2224.794 C1867.619,2224.244 1868.919,2223.494 1868.919,2223.244 C1868.919,2222.944 1867.969,2221.694 1866.819,2220.494 C1865.069,2218.744 1864.819,2218.294 1865.419,2217.894 C1866.419,2217.244 1871.269,2217.244 1872.469,2217.894 z M1895.169,2243.194 C1895.569,2243.394 1896.269,2244.094 1896.619,2244.844 C1897.519,2246.544 1896.919,2247.694 1894.769,2248.594 L1893.169,2249.244 L1894.819,2250.094 C1896.169,2250.794 1896.419,2251.194 1896.419,2252.794 C1896.419,2255.144 1894.269,2261.894 1892.519,2265.094 C1891.469,2266.994 1890.569,2267.894 1888.669,2268.844 C1885.919,2270.294 1885.069,2272.044 1886.869,2272.644 C1887.469,2272.794 1887.769,2273.244 1887.619,2273.644 C1887.269,2274.444 1882.719,2276.794 1881.169,2276.944 C1878.969,2277.094 1878.919,2277.044 1878.919,2272.944 C1878.919,2270.594 1878.669,2268.794 1878.369,2268.594 C1878.019,2268.394 1877.869,2266.794 1877.969,2264.294 L1878.119,2260.294 L1876.019,2257.794 C1874.869,2256.394 1873.919,2254.994 1873.919,2254.694 C1873.919,2254.344 1874.419,2253.594 1875.069,2252.994 L1876.269,2251.894 L1877.219,2252.944 C1877.719,2253.494 1879.419,2256.494 1880.919,2259.544 C1882.819,2263.394 1884.069,2265.344 1884.919,2265.744 C1886.419,2266.494 1887.369,2265.794 1886.419,2264.644 C1885.869,2263.994 1886.019,2263.744 1887.119,2262.844 C1888.569,2261.744 1888.719,2260.544 1887.819,2258.094 C1887.319,2256.694 1887.369,2256.344 1888.319,2255.144 C1889.769,2253.344 1889.719,2251.594 1888.169,2249.594 C1887.469,2248.694 1886.919,2247.844 1886.919,2247.694 C1886.919,2247.544 1887.869,2247.394 1889.019,2247.294 C1890.819,2247.144 1891.169,2246.944 1891.569,2245.644 C1891.819,2244.794 1892.069,2243.844 1892.169,2243.494 C1892.419,2242.844 1893.819,2242.694 1895.169,2243.194 z M1879.419,2310.994 C1879.419,2311.844 1879.869,2313.494 1880.419,2314.594 C1881.269,2316.394 1881.819,2318.394 1883.119,2323.894 C1883.469,2325.394 1888.869,2329.194 1891.319,2329.694 C1893.469,2330.144 1893.769,2330.744 1892.469,2332.044 C1891.469,2333.044 1891.269,2333.044 1889.069,2332.444 C1884.469,2331.094 1883.119,2331.144 1882.169,2332.594 C1881.669,2333.294 1880.369,2334.294 1879.219,2334.844 C1878.119,2335.344 1876.719,2336.244 1876.219,2336.844 C1875.319,2337.844 1875.269,2338.144 1875.869,2341.944 C1876.269,2344.144 1876.419,2346.094 1876.219,2346.244 C1875.369,2347.094 1864.419,2337.694 1864.419,2336.094 C1864.419,2334.944 1865.219,2335.294 1867.969,2337.644 C1871.519,2340.694 1872.469,2340.594 1874.719,2337.144 C1875.669,2335.594 1877.019,2334.144 1877.669,2333.894 C1879.119,2333.344 1879.319,2332.744 1879.869,2325.394 L1880.319,2319.644 L1878.619,2316.494 C1876.719,2312.994 1876.519,2311.644 1877.769,2310.294 C1878.919,2308.994 1879.419,2309.194 1879.419,2310.994 z M1856.669,2349.344 C1856.819,2349.644 1856.019,2350.744 1854.919,2351.844 C1853.019,2353.694 1852.919,2353.994 1852.919,2356.794 C1852.919,2359.244 1853.169,2360.094 1854.369,2361.694 C1855.119,2362.794 1856.369,2364.044 1857.069,2364.544 C1859.269,2365.994 1860.219,2365.644 1861.769,2362.794 C1862.519,2361.394 1863.469,2360.144 1863.819,2359.994 C1864.919,2359.644 1864.419,2361.594 1862.919,2363.594 C1861.119,2365.994 1860.919,2368.744 1862.419,2371.544 C1863.669,2373.844 1863.669,2374.394 1862.519,2374.394 C1861.219,2374.394 1860.119,2372.994 1859.469,2370.494 C1858.819,2368.144 1858.169,2367.944 1855.369,2369.094 C1853.869,2369.744 1853.519,2369.694 1851.919,2368.894 C1849.669,2367.744 1844.919,2363.494 1844.919,2362.644 C1844.919,2362.294 1845.719,2361.894 1846.719,2361.744 C1849.819,2361.244 1851.469,2358.844 1849.719,2357.394 C1849.319,2357.094 1849.119,2356.444 1849.269,2355.994 C1849.819,2354.394 1852.019,2351.844 1854.069,2350.344 C1856.319,2348.694 1856.269,2348.744 1856.669,2349.344 z M1915.019,2358.494 C1914.219,2359.294 1914.269,2361.244 1915.069,2361.744 C1915.369,2361.944 1917.669,2362.244 1920.069,2362.394 L1924.519,2362.644 L1925.469,2365.394 C1926.369,2367.894 1926.869,2375.394 1926.169,2375.394 C1925.469,2375.394 1923.069,2373.894 1922.219,2372.944 C1921.269,2371.894 1921.269,2371.744 1922.069,2369.194 C1923.169,2365.744 1923.119,2365.394 1921.769,2365.394 C1920.519,2365.394 1916.069,2367.994 1915.069,2369.294 C1914.169,2370.394 1914.269,2372.894 1915.269,2373.994 C1916.019,2374.844 1915.919,2375.044 1913.219,2377.744 L1910.319,2380.644 L1908.619,2378.644 C1906.519,2376.194 1906.519,2375.494 1908.419,2374.844 C1909.869,2374.344 1909.919,2374.144 1909.919,2371.394 L1909.919,2368.544 L1906.819,2368.194 C1903.169,2367.744 1901.919,2367.194 1901.919,2365.944 C1901.919,2364.194 1906.519,2361.094 1910.719,2359.944 C1911.869,2359.644 1913.069,2359.044 1913.419,2358.644 C1913.769,2358.244 1914.419,2357.894 1914.819,2357.894 C1915.419,2357.894 1915.469,2358.044 1915.019,2358.494 z M1900.519,2390.244 C1900.919,2390.744 1901.669,2392.144 1902.119,2393.394 C1903.969,2398.194 1904.969,2398.794 1908.019,2396.694 L1909.819,2395.494 L1910.969,2396.694 C1913.669,2399.444 1919.869,2404.844 1922.569,2406.844 C1925.169,2408.744 1925.469,2409.144 1925.319,2410.544 C1925.169,2412.094 1925.119,2412.144 1922.919,2412.044 C1921.469,2411.994 1917.619,2410.794 1912.219,2408.644 C1907.569,2406.844 1902.119,2404.894 1900.069,2404.394 C1895.769,2403.344 1891.919,2401.244 1891.919,2399.994 C1891.919,2399.494 1893.019,2398.044 1894.419,2396.744 C1895.769,2395.444 1897.019,2393.794 1897.219,2393.044 C1897.619,2391.394 1898.769,2389.394 1899.369,2389.394 C1899.569,2389.394 1900.119,2389.794 1900.519,2390.244 z M1933.669,2399.644 C1934.969,2403.394 1940.119,2408.194 1945.819,2411.044 C1948.319,2412.294 1951.219,2413.444 1952.369,2413.644 C1953.969,2413.894 1954.419,2414.194 1954.419,2414.994 C1954.419,2416.744 1950.069,2415.994 1943.919,2413.244 C1941.019,2411.944 1938.019,2410.894 1937.269,2410.894 C1936.069,2410.894 1935.919,2411.094 1935.919,2412.544 C1935.919,2416.094 1933.019,2417.544 1930.219,2415.344 C1928.919,2414.294 1928.919,2414.294 1929.869,2413.094 C1931.269,2411.344 1932.119,2405.744 1931.819,2400.394 C1931.519,2395.294 1932.019,2395.044 1933.669,2399.644 z" fill="#5E858B" id="Left_eye"/>
  </g>
</svg>
