<?xml version="1.0" encoding="UTF-8"?>
<!DOCTYPE svg PUBLIC "-//W3C//DTD SVG 1.1//EN" "http://www.w3.org/Graphics/SVG/1.1/DTD/svg11.dtd">
<svg version="1.1" xmlns="http://www.w3.org/2000/svg" xmlns:xlink="http://www.w3.org/1999/xlink" x="0" y="0" width="5000" height="5000" viewBox="0, 0, 5000, 5000">
  <g id="leftIris_neonGreen" transform="translate(0, 0)">
    <g id="left_iris_neon_green">
      <path d="M1938.873,2166.365 C1938.473,2167.165 1937.673,2167.865 1936.973,2167.865 C1934.973,2167.865 1925.473,2173.065 1925.473,2174.165 C1925.473,2175.965 1929.673,2178.965 1930.873,2177.965 C1931.573,2177.365 1932.673,2177.365 1933.373,2177.765 C1934.173,2178.365 1933.573,2178.765 1931.373,2179.265 C1928.773,2179.765 1927.873,2179.465 1925.973,2177.265 C1924.073,2175.065 1923.673,2174.965 1922.573,2176.265 C1920.673,2178.465 1920.773,2184.365 1922.673,2186.165 C1924.073,2187.665 1924.373,2187.665 1925.573,2186.265 C1926.173,2185.465 1927.673,2184.965 1928.873,2185.065 C1930.173,2185.265 1930.873,2184.865 1930.673,2184.065 C1930.573,2183.365 1930.973,2182.865 1931.673,2182.965 C1934.273,2183.265 1935.173,2182.765 1936.273,2180.365 C1937.073,2178.665 1937.073,2177.065 1936.473,2175.265 C1935.073,2171.565 1935.373,2170.965 1937.073,2174.065 C1937.873,2175.665 1938.973,2176.865 1939.473,2176.865 C1940.873,2176.865 1940.773,2172.565 1939.373,2171.165 C1938.173,2169.965 1938.973,2167.865 1940.673,2167.865 C1941.273,2167.865 1941.473,2168.765 1941.173,2169.865 C1940.873,2170.965 1941.473,2172.765 1942.673,2174.065 C1944.673,2176.265 1944.673,2176.265 1944.073,2174.265 C1943.673,2172.965 1943.973,2171.665 1944.973,2170.865 C1946.873,2169.265 1946.873,2167.865 1944.973,2167.865 C1944.073,2167.865 1943.173,2167.165 1942.873,2166.365 C1942.473,2165.565 1941.573,2164.865 1940.873,2164.865 C1940.073,2164.865 1939.173,2165.565 1938.873,2166.365 z" fill="#74FA37"/>
      <path d="M2003.973,2182.865 C2003.673,2183.965 2002.973,2184.665 2002.473,2184.365 C2001.473,2183.765 1997.473,2186.765 1997.473,2188.065 C1997.473,2188.565 1998.173,2188.865 1999.073,2188.865 C1999.973,2188.865 2000.473,2189.665 2000.373,2190.565 C2000.073,2193.865 2000.473,2194.065 2003.073,2191.965 C2006.273,2189.465 2007.873,2190.065 2010.373,2194.965 C2012.373,2198.765 2012.373,2198.865 2010.473,2199.865 C2009.373,2200.465 2008.473,2201.865 2008.473,2202.865 C2008.473,2204.165 2007.773,2204.865 2006.473,2204.865 C2005.073,2204.865 2004.473,2204.165 2004.473,2202.765 C2004.473,2201.265 2004.073,2200.865 2002.873,2201.265 C2001.973,2201.565 2000.873,2201.865 2000.373,2201.865 C1999.873,2201.865 1999.473,2202.965 1999.473,2204.365 C1999.473,2207.465 1997.773,2207.665 1997.273,2204.665 C1996.873,2201.665 1991.973,2201.165 1990.473,2203.965 C1989.873,2204.965 1988.473,2205.865 1987.473,2205.865 C1986.273,2205.865 1985.473,2206.565 1985.473,2207.465 C1985.473,2208.265 1984.773,2209.665 1983.973,2210.465 C1983.173,2211.265 1982.773,2212.565 1983.073,2213.365 C1983.573,2214.565 1982.873,2214.865 1980.173,2214.865 C1976.373,2214.865 1975.473,2216.065 1975.473,2220.865 C1975.473,2222.465 1976.173,2223.865 1977.073,2224.265 C1977.873,2224.565 1978.273,2224.465 1977.973,2223.865 C1977.673,2223.365 1977.873,2221.965 1978.573,2220.765 C1979.473,2219.065 1979.373,2218.465 1978.373,2217.765 C1977.673,2217.365 1977.373,2216.665 1977.773,2216.265 C1978.173,2215.865 1978.973,2215.965 1979.573,2216.565 C1981.173,2218.165 1985.873,2216.365 1988.073,2213.365 C1989.073,2211.965 1990.373,2211.265 1991.273,2211.665 C1992.273,2211.965 1992.573,2211.765 1992.073,2211.065 C1991.673,2210.365 1991.873,2209.865 1992.573,2209.865 C1993.273,2209.865 1993.473,2210.765 1993.173,2212.065 C1992.773,2213.265 1993.073,2214.865 1993.573,2215.565 C1994.373,2216.465 1994.073,2217.365 1992.673,2218.865 C1990.873,2220.865 1990.773,2221.365 1991.973,2224.165 C1993.673,2228.265 1995.773,2228.665 1997.873,2225.365 C1999.673,2222.665 2000.273,2222.465 2002.373,2223.765 C2003.473,2224.465 2003.373,2225.165 2001.673,2227.565 C2000.073,2229.865 1999.873,2230.865 2000.673,2231.665 C2001.373,2232.365 2001.573,2232.865 2001.073,2232.865 C2000.673,2232.865 2001.073,2233.565 2001.873,2234.465 C2002.773,2235.265 2003.473,2237.165 2003.473,2238.665 C2003.373,2241.165 2003.273,2241.165 2002.073,2239.565 C2001.373,2238.665 1999.773,2237.865 1998.573,2237.865 C1996.173,2237.865 1995.673,2235.365 1998.073,2234.465 C1999.773,2233.865 1999.073,2231.865 1997.173,2231.865 C1996.473,2231.865 1994.873,2232.765 1993.473,2233.765 C1991.473,2235.365 1991.273,2235.865 1992.373,2237.265 C1993.073,2238.165 1993.473,2239.465 1993.173,2240.365 C1992.673,2241.365 1993.573,2241.965 1996.273,2242.465 C1998.273,2242.765 2000.773,2243.265 2001.773,2243.565 C2002.673,2243.765 2003.473,2243.565 2003.473,2243.065 C2003.473,2242.565 2004.873,2241.865 2006.473,2241.465 C2009.673,2240.865 2010.473,2238.265 2008.273,2236.065 C2007.273,2235.065 2007.273,2234.365 2008.273,2232.765 C2008.973,2231.665 2009.273,2229.865 2008.873,2228.665 C2008.473,2227.165 2009.073,2225.865 2011.473,2223.765 C2014.673,2220.765 2015.373,2220.565 2019.173,2220.865 C2020.373,2220.865 2022.273,2220.065 2023.373,2218.965 C2025.673,2216.665 2027.473,2216.265 2027.473,2217.865 C2027.473,2219.165 2032.473,2218.065 2034.573,2216.165 C2035.973,2214.965 2036.373,2215.065 2037.473,2216.365 C2038.173,2217.165 2039.573,2217.865 2040.573,2217.865 C2041.673,2217.865 2042.473,2218.265 2042.473,2218.765 C2042.473,2220.065 2039.873,2221.965 2039.173,2221.165 C2037.273,2219.365 2038.773,2222.165 2040.873,2224.365 C2042.773,2226.465 2043.373,2226.665 2043.873,2225.365 C2044.173,2224.565 2044.973,2223.865 2045.673,2223.865 C2046.473,2223.865 2047.873,2222.965 2048.773,2221.765 C2049.973,2220.465 2051.173,2219.965 2052.273,2220.365 C2053.573,2220.865 2053.673,2220.665 2052.873,2219.865 C2051.973,2218.965 2051.173,2218.965 2049.573,2219.765 C2048.073,2220.665 2046.873,2220.665 2045.473,2219.865 C2043.073,2218.565 2043.073,2218.765 2044.873,2215.265 C2046.473,2212.265 2046.173,2210.865 2043.973,2210.865 C2043.273,2210.865 2042.473,2210.265 2042.273,2209.665 C2041.973,2208.765 2040.673,2209.265 2038.173,2211.165 C2034.273,2214.165 2033.473,2214.365 2033.473,2212.765 C2033.473,2212.265 2033.973,2212.065 2034.473,2212.365 C2035.073,2212.665 2035.473,2212.465 2035.473,2211.965 C2035.473,2210.465 2033.873,2210.565 2032.273,2212.165 C2031.573,2212.965 2030.373,2213.365 2029.673,2213.065 C2029.073,2212.865 2028.173,2213.365 2027.873,2214.265 C2027.373,2215.665 2027.073,2215.665 2024.773,2214.165 L2022.273,2212.465 L2024.373,2210.965 C2025.773,2209.865 2026.273,2208.665 2025.873,2207.065 C2025.473,2205.865 2024.873,2204.865 2024.373,2204.865 C2023.873,2204.865 2023.473,2204.165 2023.473,2203.365 C2023.473,2202.565 2023.873,2201.865 2024.373,2201.865 C2024.873,2201.865 2025.973,2200.565 2026.773,2198.965 C2028.073,2196.365 2028.073,2195.865 2026.673,2194.465 C2025.573,2193.465 2025.473,2192.865 2026.273,2192.865 C2026.873,2192.865 2027.373,2192.065 2027.173,2190.965 C2026.773,2188.565 2023.773,2185.565 2022.973,2186.865 C2022.673,2187.365 2022.873,2187.865 2023.373,2187.865 C2023.973,2187.865 2024.473,2188.765 2024.473,2189.965 C2024.473,2191.465 2023.973,2191.865 2022.973,2191.465 C2022.173,2191.165 2021.473,2191.365 2021.473,2191.865 C2021.473,2193.465 2019.473,2193.065 2016.373,2190.765 C2013.973,2189.065 2013.473,2188.965 2013.473,2190.265 C2013.473,2191.565 2013.173,2191.665 2011.573,2190.665 C2010.573,2190.065 2009.873,2188.865 2010.173,2188.165 C2010.573,2187.265 2010.173,2187.065 2008.873,2187.565 C2007.373,2188.065 2007.173,2187.965 2008.073,2186.765 C2008.873,2185.765 2008.573,2184.765 2006.873,2183.065 C2004.673,2180.765 2004.673,2180.765 2003.973,2182.865 z" fill="#74FA37"/>
      <path d="M2114.473,2227.365 C2114.473,2228.165 2115.173,2229.365 2116.073,2230.065 C2121.473,2234.465 2122.273,2235.865 2121.673,2240.165 C2121.173,2243.965 2120.173,2245.765 2118.273,2245.865 C2117.873,2245.865 2116.873,2243.265 2115.973,2240.065 C2114.473,2234.865 2113.873,2233.965 2110.673,2232.565 C2106.173,2230.665 2103.773,2229.965 2099.973,2229.465 C2098.273,2229.165 2095.273,2228.665 2093.273,2228.265 C2091.173,2227.965 2088.973,2228.065 2088.273,2228.565 C2087.573,2229.065 2085.573,2229.465 2083.773,2229.365 C2081.373,2229.165 2080.473,2229.565 2080.073,2231.165 C2079.773,2232.365 2080.073,2233.865 2080.573,2234.465 C2081.273,2235.265 2081.373,2238.765 2080.973,2244.065 C2080.573,2248.665 2080.173,2253.965 2080.073,2255.765 C2079.873,2259.265 2081.373,2264.865 2083.873,2269.765 C2085.873,2273.465 2093.073,2280.565 2095.773,2281.465 C2096.973,2281.765 2099.073,2283.265 2100.473,2284.765 C2101.873,2286.265 2103.573,2287.365 2104.273,2287.065 C2104.973,2286.865 2106.073,2287.165 2106.773,2287.765 C2107.473,2288.265 2109.173,2288.465 2110.473,2288.165 C2112.173,2287.665 2112.573,2287.865 2111.973,2288.865 C2111.473,2289.665 2109.973,2289.865 2107.373,2289.465 C2103.373,2288.865 2102.373,2289.765 2104.973,2291.865 C2105.873,2292.565 2108.273,2292.865 2111.573,2292.565 C2115.473,2292.165 2117.173,2292.465 2118.373,2293.565 C2119.773,2294.965 2119.573,2295.365 2117.273,2297.265 C2115.873,2298.365 2114.473,2300.265 2114.173,2301.365 C2113.773,2302.965 2113.673,2303.065 2113.573,2301.565 C2113.473,2300.465 2112.673,2299.865 2110.973,2299.865 C2109.573,2299.865 2108.573,2300.165 2108.573,2300.565 C2108.873,2302.565 2108.373,2302.865 2106.873,2301.465 C2105.973,2300.565 2103.673,2299.865 2101.473,2299.865 C2098.173,2299.865 2097.673,2300.165 2098.073,2301.565 C2098.573,2303.065 2098.473,2303.165 2097.573,2301.865 C2096.973,2301.065 2096.473,2299.565 2096.473,2298.665 C2096.473,2297.665 2095.573,2296.865 2094.273,2296.665 C2092.573,2296.465 2091.873,2295.565 2091.673,2293.565 C2091.473,2292.065 2090.873,2290.865 2090.373,2290.865 C2089.873,2290.865 2089.473,2290.265 2089.473,2289.465 C2089.473,2288.665 2088.573,2287.665 2087.473,2287.365 C2086.273,2286.965 2085.473,2285.865 2085.473,2284.365 C2085.473,2280.865 2082.973,2280.665 2080.573,2283.965 C2078.273,2287.065 2078.573,2289.365 2081.373,2288.665 C2083.373,2288.065 2088.173,2292.365 2086.573,2293.265 C2085.973,2293.665 2085.473,2295.465 2085.473,2297.165 C2085.473,2301.365 2083.973,2303.765 2082.373,2302.165 C2081.573,2301.365 2081.673,2300.465 2082.973,2298.565 C2083.973,2296.865 2084.273,2295.865 2083.573,2295.365 C2081.873,2294.365 2080.473,2295.765 2080.473,2298.265 C2080.473,2299.465 2079.973,2300.965 2079.273,2301.665 C2078.373,2302.565 2078.373,2302.865 2079.273,2302.865 C2081.273,2302.865 2080.673,2305.665 2078.273,2307.265 C2077.073,2308.165 2074.573,2308.865 2072.773,2308.865 C2071.073,2308.865 2069.373,2309.265 2069.073,2309.765 C2068.773,2310.265 2066.673,2310.665 2064.473,2310.665 C2062.273,2310.665 2059.573,2311.365 2058.473,2312.165 C2056.573,2313.465 2056.573,2313.765 2057.873,2315.165 C2058.773,2316.065 2059.173,2317.465 2058.873,2318.365 C2058.373,2319.565 2057.973,2319.665 2057.473,2318.865 C2056.973,2318.065 2056.173,2317.965 2055.173,2318.465 C2053.673,2319.365 2053.473,2319.765 2053.473,2321.865 C2053.473,2323.865 2050.373,2322.865 2049.573,2320.565 C2048.473,2317.665 2046.673,2316.165 2043.273,2315.365 C2041.073,2314.765 2040.373,2315.065 2039.773,2316.465 C2039.473,2317.565 2038.273,2319.165 2037.173,2320.265 C2035.873,2321.565 2035.373,2323.065 2035.673,2325.565 C2036.073,2328.465 2035.773,2328.965 2033.573,2329.565 C2029.173,2330.565 2029.173,2330.465 2033.473,2340.365 C2035.073,2344.265 2035.273,2345.665 2034.273,2346.665 C2033.573,2347.365 2033.973,2348.365 2035.573,2349.965 C2037.373,2351.765 2037.573,2352.365 2036.373,2352.665 C2033.073,2353.665 2030.473,2357.165 2031.073,2359.765 C2031.473,2361.165 2032.173,2362.765 2032.573,2363.365 C2033.073,2363.865 2033.473,2365.065 2033.473,2366.065 C2033.473,2367.365 2032.673,2367.865 2030.573,2367.865 C2028.573,2367.865 2027.573,2368.465 2027.173,2369.865 C2026.873,2370.965 2027.073,2372.165 2027.573,2372.465 C2028.173,2372.765 2028.073,2373.665 2027.273,2374.565 C2026.273,2375.765 2026.473,2376.365 2028.273,2377.765 L2030.473,2379.365 L2028.473,2383.565 C2027.373,2385.865 2026.473,2388.665 2026.473,2389.765 C2026.473,2390.865 2025.573,2391.965 2024.473,2392.365 C2022.073,2393.165 2021.873,2394.465 2024.073,2395.265 C2026.473,2396.165 2027.473,2395.965 2027.473,2394.565 C2027.473,2392.565 2030.773,2389.865 2033.273,2389.865 C2036.273,2389.865 2036.973,2387.965 2034.273,2386.965 C2032.973,2386.365 2032.273,2385.865 2032.773,2385.765 C2033.173,2385.665 2033.773,2385.565 2034.273,2385.465 C2036.273,2384.965 2041.473,2381.665 2041.473,2380.865 C2041.473,2380.265 2042.173,2379.865 2043.073,2379.865 C2044.173,2379.865 2044.473,2379.265 2043.973,2377.865 C2043.273,2375.565 2044.373,2373.765 2048.673,2370.765 L2051.473,2368.765 L2051.473,2372.065 C2051.473,2374.665 2050.373,2376.465 2046.273,2380.865 C2041.573,2385.765 2040.973,2386.865 2041.073,2390.365 C2041.273,2395.365 2039.073,2398.265 2036.273,2396.765 C2035.173,2396.165 2034.173,2395.865 2033.973,2396.065 C2032.373,2397.965 2031.773,2402.065 2031.573,2411.065 C2031.373,2421.765 2032.373,2427.565 2035.173,2430.965 C2035.973,2431.865 2036.273,2433.265 2035.973,2434.065 C2035.473,2435.165 2036.073,2435.465 2038.473,2435.065 C2041.573,2434.665 2042.273,2433.065 2040.473,2431.265 C2039.673,2430.465 2039.873,2429.765 2040.973,2428.865 C2041.973,2428.065 2042.473,2427.965 2042.473,2428.765 C2042.473,2429.365 2043.973,2429.865 2045.873,2429.865 C2050.173,2429.865 2051.073,2431.165 2049.373,2435.065 C2047.973,2438.565 2049.073,2439.865 2053.073,2439.065 C2056.173,2438.465 2056.173,2437.065 2052.973,2436.665 C2051.273,2436.465 2050.773,2435.965 2051.373,2435.065 C2052.373,2433.365 2067.073,2432.865 2071.573,2434.465 C2074.273,2435.365 2075.773,2435.265 2078.873,2434.165 C2081.073,2433.465 2083.573,2433.065 2084.473,2433.365 C2086.573,2434.065 2088.773,2431.565 2089.273,2428.065 C2089.873,2423.165 2094.173,2422.265 2095.173,2426.865 C2095.673,2429.465 2096.073,2429.765 2097.873,2429.265 C2098.973,2428.865 2100.273,2428.165 2100.573,2427.765 C2101.573,2426.165 2100.573,2419.565 2099.273,2418.665 C2097.273,2417.365 2100.473,2415.665 2103.773,2416.365 C2106.173,2416.765 2106.773,2416.365 2108.173,2413.365 C2109.173,2411.265 2110.573,2409.865 2111.673,2409.865 C2112.673,2409.865 2113.473,2409.365 2113.473,2408.765 C2113.473,2408.065 2114.673,2406.265 2116.273,2404.765 C2117.773,2403.165 2120.373,2400.265 2121.973,2398.365 C2123.673,2396.365 2126.373,2394.065 2128.073,2393.265 C2129.773,2392.465 2131.873,2390.265 2132.773,2388.365 C2134.573,2384.465 2134.573,2383.265 2132.773,2383.465 C2131.273,2383.665 2132.473,2381.065 2135.173,2378.665 C2138.173,2375.865 2139.173,2374.465 2140.373,2370.565 C2141.073,2368.565 2141.973,2366.865 2142.373,2366.865 C2142.773,2366.865 2143.173,2366.265 2143.273,2365.565 C2144.473,2355.665 2144.873,2353.165 2145.673,2352.165 C2146.273,2351.465 2146.373,2349.765 2146.073,2348.265 C2145.673,2346.865 2145.773,2345.165 2146.373,2344.465 C2146.873,2343.865 2147.473,2341.565 2147.673,2339.365 C2147.873,2336.365 2148.573,2335.165 2150.273,2334.365 C2151.573,2333.765 2152.773,2332.465 2152.973,2331.365 C2154.073,2326.165 2155.273,2304.565 2154.573,2302.565 C2154.173,2301.365 2153.973,2299.865 2154.173,2299.165 C2154.373,2298.565 2153.473,2296.165 2152.073,2293.965 C2150.673,2291.765 2149.473,2289.165 2149.473,2288.265 C2149.473,2287.365 2148.573,2286.465 2147.573,2286.165 C2146.273,2285.865 2145.273,2284.265 2144.573,2281.265 C2143.973,2278.865 2142.973,2274.765 2142.373,2272.165 C2140.873,2265.765 2138.773,2262.865 2135.873,2262.865 C2132.973,2262.865 2132.673,2261.265 2135.573,2260.565 C2137.473,2260.065 2137.473,2259.865 2136.173,2257.165 C2135.373,2255.665 2133.773,2253.565 2132.673,2252.565 C2130.773,2250.865 2130.773,2250.865 2131.173,2253.065 C2131.773,2256.165 2129.873,2260.765 2127.773,2261.465 C2126.773,2261.765 2125.173,2262.365 2124.273,2262.865 C2122.173,2263.965 2121.373,2262.065 2122.873,2259.665 C2123.673,2258.365 2123.373,2257.365 2121.473,2255.365 C2119.973,2253.765 2119.573,2252.865 2120.473,2252.865 C2121.573,2252.865 2121.573,2252.565 2120.673,2251.665 C2118.773,2249.765 2119.273,2248.165 2121.973,2247.465 C2124.273,2246.865 2124.373,2246.565 2123.373,2244.665 C2122.373,2242.765 2122.473,2242.265 2124.273,2241.065 L2126.473,2239.665 L2123.573,2235.965 C2122.073,2233.965 2120.173,2231.265 2119.473,2229.865 C2117.473,2226.065 2114.473,2224.465 2114.473,2227.365 z M2132.073,2267.865 C2134.273,2267.865 2133.773,2271.965 2131.473,2272.565 C2130.373,2272.865 2129.473,2273.465 2129.473,2273.865 C2129.473,2274.265 2128.473,2274.965 2127.273,2275.265 L2124.973,2275.965 L2127.273,2277.565 C2129.873,2279.365 2130.273,2282.165 2127.873,2281.165 C2126.473,2280.665 2126.373,2280.865 2127.473,2282.865 C2128.473,2284.665 2128.373,2285.365 2127.073,2286.765 C2125.673,2288.065 2125.273,2288.165 2124.573,2286.965 C2123.873,2285.865 2123.273,2286.065 2121.573,2287.765 C2119.673,2289.665 2113.473,2290.765 2113.473,2289.165 C2113.473,2288.865 2115.473,2286.665 2117.873,2284.365 C2121.873,2280.565 2123.073,2278.265 2123.373,2273.165 C2123.473,2272.565 2124.273,2271.765 2125.273,2271.365 C2126.373,2271.065 2127.773,2269.565 2128.473,2268.065 C2129.173,2266.565 2129.973,2265.865 2130.173,2266.565 C2130.473,2267.265 2131.273,2267.865 2132.073,2267.865 z M2048.073,2324.065 C2048.473,2324.465 2048.173,2325.565 2047.373,2326.465 C2046.173,2327.865 2046.473,2328.065 2049.373,2327.665 C2053.173,2327.365 2055.273,2329.365 2054.173,2332.365 C2053.673,2333.565 2052.873,2333.865 2051.673,2333.365 C2046.873,2331.365 2042.273,2330.665 2041.173,2331.765 C2040.373,2332.565 2041.273,2332.865 2044.773,2332.865 C2048.573,2332.865 2049.473,2333.165 2049.273,2334.565 C2048.973,2338.565 2049.473,2340.065 2050.973,2339.465 C2052.873,2338.765 2052.873,2339.365 2050.973,2342.265 C2049.473,2344.465 2049.573,2344.665 2051.573,2345.165 C2054.173,2345.865 2057.673,2343.865 2056.973,2342.165 C2056.673,2341.465 2056.173,2340.165 2055.873,2339.365 C2054.973,2337.165 2059.173,2337.365 2060.173,2339.565 C2061.473,2342.365 2060.973,2346.265 2058.973,2348.565 C2057.273,2350.565 2056.973,2350.565 2055.073,2349.265 C2053.773,2348.365 2051.873,2348.065 2049.873,2348.465 C2048.073,2348.765 2046.373,2348.565 2046.073,2347.965 C2045.673,2347.465 2044.773,2347.165 2043.973,2347.465 C2043.273,2347.765 2042.173,2347.065 2041.473,2345.965 C2040.873,2344.765 2039.673,2343.865 2038.873,2343.865 C2037.973,2343.865 2037.673,2344.365 2038.073,2344.965 C2038.473,2345.665 2038.173,2345.965 2037.373,2345.665 C2036.473,2345.365 2035.973,2343.765 2036.073,2341.265 C2036.273,2334.465 2037.073,2331.665 2039.773,2328.265 C2041.273,2326.465 2042.473,2324.565 2042.473,2324.165 C2042.473,2323.065 2046.973,2323.065 2048.073,2324.065 z M2048.473,2351.465 C2048.473,2351.765 2047.973,2352.865 2047.473,2353.965 C2046.573,2355.565 2046.773,2355.865 2048.273,2355.865 C2049.373,2355.865 2051.373,2354.965 2052.773,2353.865 C2057.273,2350.365 2058.173,2352.265 2053.873,2356.265 C2051.573,2358.365 2051.273,2359.165 2051.873,2362.365 C2052.573,2365.965 2052.773,2366.065 2056.073,2365.565 C2060.073,2364.865 2060.173,2365.165 2057.473,2368.565 C2056.273,2370.165 2055.673,2371.965 2055.973,2373.065 C2056.373,2374.065 2056.173,2374.865 2055.573,2374.865 C2054.173,2374.865 2052.573,2371.665 2052.773,2369.365 C2052.973,2367.565 2052.373,2367.365 2048.273,2367.665 C2043.973,2367.965 2043.473,2367.765 2043.473,2365.765 C2043.473,2364.265 2043.073,2363.865 2041.873,2364.265 C2040.973,2364.565 2039.973,2364.865 2039.473,2364.865 C2037.973,2364.865 2037.573,2368.965 2038.973,2369.565 C2040.273,2369.965 2040.373,2371.665 2039.573,2378.565 C2039.373,2380.865 2034.773,2380.065 2033.973,2377.565 C2033.573,2376.365 2033.373,2374.865 2033.473,2374.365 C2033.673,2373.765 2033.673,2372.265 2033.573,2370.965 C2033.573,2369.665 2034.173,2367.665 2035.073,2366.765 C2036.373,2365.365 2036.573,2363.765 2036.173,2360.365 C2035.473,2355.465 2036.873,2353.865 2041.773,2353.865 C2043.173,2353.865 2044.773,2353.165 2045.473,2352.365 C2046.673,2350.865 2048.473,2350.365 2048.473,2351.465 z" fill="#74FA37"/>
      <path d="M2013.473,2231.065 C2010.973,2236.265 2010.973,2236.265 2013.573,2235.565 C2014.673,2235.265 2016.273,2235.265 2017.073,2235.565 C2018.673,2236.165 2018.973,2239.465 2017.373,2240.365 C2016.673,2240.865 2017.073,2241.565 2018.273,2242.465 C2019.373,2243.165 2020.473,2245.165 2020.773,2246.865 C2021.373,2249.865 2021.673,2249.965 2026.473,2248.865 C2026.773,2248.865 2026.073,2248.165 2025.073,2247.365 C2023.973,2246.565 2023.473,2245.565 2023.973,2245.165 C2024.373,2244.665 2024.973,2244.965 2025.173,2245.565 C2025.873,2247.365 2027.473,2247.165 2027.473,2245.265 C2027.473,2243.765 2030.973,2237.965 2032.673,2236.865 C2033.073,2236.565 2034.673,2236.265 2036.173,2236.365 C2038.673,2236.365 2038.973,2236.665 2038.673,2239.565 C2038.273,2243.365 2039.673,2244.365 2044.673,2243.965 C2046.873,2243.865 2048.473,2244.165 2048.473,2244.765 C2048.473,2245.365 2047.773,2245.865 2046.973,2245.865 C2046.173,2245.865 2045.473,2246.265 2045.473,2246.865 C2045.473,2247.365 2046.373,2247.865 2047.473,2247.865 C2048.573,2247.865 2049.473,2247.365 2049.473,2246.765 C2049.473,2246.165 2050.073,2245.865 2050.773,2246.065 C2051.373,2246.365 2051.973,2247.165 2051.973,2247.965 C2051.973,2248.665 2052.773,2249.465 2053.873,2249.665 C2055.173,2249.965 2055.473,2249.665 2054.973,2248.765 C2054.473,2248.065 2054.873,2247.065 2055.973,2246.165 C2057.073,2245.465 2057.373,2244.865 2056.673,2244.865 C2056.073,2244.865 2054.973,2243.865 2054.373,2242.665 C2053.373,2240.765 2053.573,2240.165 2055.673,2238.465 C2058.173,2236.365 2059.773,2233.465 2058.873,2232.565 C2058.573,2232.265 2056.773,2232.465 2054.773,2233.065 C2051.973,2233.865 2050.973,2233.665 2049.373,2232.265 C2048.073,2231.065 2047.173,2230.865 2046.273,2231.565 C2044.773,2232.765 2041.573,2232.665 2039.673,2231.465 C2038.873,2230.965 2037.573,2231.365 2036.373,2232.465 C2035.273,2233.465 2034.473,2233.865 2034.673,2233.265 C2034.973,2232.265 2029.373,2226.865 2028.073,2226.865 C2027.773,2226.865 2027.473,2228.165 2027.473,2229.865 C2027.473,2231.465 2027.073,2232.865 2026.573,2232.865 C2026.173,2232.865 2025.973,2235.065 2026.273,2237.865 C2026.673,2242.065 2026.473,2242.865 2025.073,2242.865 C2023.873,2242.865 2023.573,2242.265 2024.073,2240.465 C2024.373,2239.165 2024.173,2237.765 2023.573,2237.465 C2022.173,2236.565 2022.173,2232.865 2023.473,2232.865 C2024.073,2232.865 2024.473,2232.165 2024.473,2231.365 C2024.473,2229.765 2022.873,2229.265 2022.273,2230.665 C2022.173,2231.165 2020.673,2231.865 2018.973,2232.265 C2016.373,2232.865 2016.173,2232.765 2017.473,2231.665 C2018.373,2230.965 2019.673,2229.565 2020.373,2228.565 C2021.573,2227.065 2021.373,2226.865 2018.573,2226.865 C2015.973,2226.865 2015.273,2227.465 2013.473,2231.065 z" fill="#74FA37"/>
      <path d="M2023.473,2399.865 C2023.873,2403.865 2023.573,2404.865 2022.073,2404.865 C2021.373,2404.865 2020.173,2404.165 2019.473,2403.365 C2018.373,2402.065 2018.073,2402.065 2016.773,2403.465 C2015.873,2404.265 2014.073,2404.865 2012.573,2404.665 C2010.273,2404.365 2009.973,2404.765 2009.673,2408.065 C2009.273,2412.565 2011.873,2418.865 2014.373,2419.565 C2015.473,2419.865 2016.573,2420.765 2016.873,2421.665 C2017.173,2422.665 2017.773,2423.965 2018.073,2424.565 C2018.373,2425.365 2017.873,2425.865 2016.673,2425.865 C2015.573,2425.865 2013.973,2426.965 2013.073,2428.365 C2011.173,2431.365 2010.873,2434.165 2012.873,2431.665 C2013.673,2430.565 2014.873,2430.165 2016.273,2430.565 C2018.073,2430.965 2018.473,2430.665 2018.473,2428.965 C2018.473,2427.765 2019.073,2426.865 2019.973,2426.865 C2021.773,2426.865 2021.773,2427.365 2020.473,2429.965 C2019.773,2431.265 2019.773,2431.865 2020.373,2431.865 C2021.373,2431.865 2024.473,2426.865 2024.473,2425.365 C2024.473,2424.965 2023.573,2425.065 2022.473,2425.365 C2020.973,2425.865 2020.473,2425.565 2020.473,2423.965 C2020.473,2422.565 2021.273,2421.865 2023.273,2421.665 C2026.473,2421.265 2027.473,2417.965 2025.073,2415.565 C2022.473,2412.965 2022.173,2409.465 2024.373,2406.665 C2026.873,2403.565 2027.073,2400.565 2024.873,2398.765 C2023.473,2397.665 2023.273,2397.765 2023.473,2399.865 z" fill="#74FA37"/>
    </g>
  </g>
</svg>
